<?xml version="1.0" encoding="utf-8" standalone="no"?>
<!DOCTYPE svg PUBLIC "-//W3C//DTD SVG 1.1//EN"
  "http://www.w3.org/Graphics/SVG/1.1/DTD/svg11.dtd">
<svg xmlns:xlink="http://www.w3.org/1999/xlink" width="720pt" height="432pt" viewBox="0 0 720 432" xmlns="http://www.w3.org/2000/svg" version="1.1">
 <metadata>
  <rdf:RDF xmlns:dc="http://purl.org/dc/elements/1.1/" xmlns:cc="http://creativecommons.org/ns#" xmlns:rdf="http://www.w3.org/1999/02/22-rdf-syntax-ns#">
   <cc:Work>
    <dc:type rdf:resource="http://purl.org/dc/dcmitype/StillImage"/>
    <dc:date>2024-05-20T17:52:08.894918</dc:date>
    <dc:format>image/svg+xml</dc:format>
    <dc:creator>
     <cc:Agent>
      <dc:title>Matplotlib v3.9.0, https://matplotlib.org/</dc:title>
     </cc:Agent>
    </dc:creator>
   </cc:Work>
  </rdf:RDF>
 </metadata>
 <defs>
  <style type="text/css">*{stroke-linejoin: round; stroke-linecap: butt}</style>
 </defs>
 <g id="figure_1">
  <g id="patch_1">
   <path d="M 0 432 
L 720 432 
L 720 0 
L 0 0 
z
" style="fill: #ffffff"/>
  </g>
  <g id="axes_1">
   <g id="patch_2">
    <path d="M 90 384.48 
L 648 384.48 
L 648 51.84 
L 90 51.84 
z
" style="fill: #ffffff"/>
   </g>
   <g id="PathCollection_1">
    <defs>
     <path id="m8f9bbed0d4" d="M 0 3 
C 0.795609 3 1.55874 2.683901 2.12132 2.12132 
C 2.683901 1.55874 3 0.795609 3 0 
C 3 -0.795609 2.683901 -1.55874 2.12132 -2.12132 
C 1.55874 -2.683901 0.795609 -3 0 -3 
C -0.795609 -3 -1.55874 -2.683901 -2.12132 -2.12132 
C -2.683901 -1.55874 -3 -0.795609 -3 0 
C -3 0.795609 -2.683901 1.55874 -2.12132 2.12132 
C -1.55874 2.683901 -0.795609 3 0 3 
z
" style="stroke: #1f77b4; stroke-opacity: 0.8"/>
    </defs>
    <g clip-path="url(#pbc2b185bd8)">
     <use xlink:href="#m8f9bbed0d4" x="115.363636" y="228.778694" style="fill: #1f77b4; fill-opacity: 0.8; stroke: #1f77b4; stroke-opacity: 0.8"/>
     <use xlink:href="#m8f9bbed0d4" x="144.42581" y="198.422457" style="fill: #1f77b4; fill-opacity: 0.8; stroke: #1f77b4; stroke-opacity: 0.8"/>
     <use xlink:href="#m8f9bbed0d4" x="170.060463" y="215.946613" style="fill: #1f77b4; fill-opacity: 0.8; stroke: #1f77b4; stroke-opacity: 0.8"/>
     <use xlink:href="#m8f9bbed0d4" x="250.093188" y="222.70593" style="fill: #1f77b4; fill-opacity: 0.8; stroke: #1f77b4; stroke-opacity: 0.8"/>
     <use xlink:href="#m8f9bbed0d4" x="266.22227" y="207.053673" style="fill: #1f77b4; fill-opacity: 0.8; stroke: #1f77b4; stroke-opacity: 0.8"/>
     <use xlink:href="#m8f9bbed0d4" x="446.143077" y="153.371723" style="fill: #1f77b4; fill-opacity: 0.8; stroke: #1f77b4; stroke-opacity: 0.8"/>
     <use xlink:href="#m8f9bbed0d4" x="465.646536" y="210.313848" style="fill: #1f77b4; fill-opacity: 0.8; stroke: #1f77b4; stroke-opacity: 0.8"/>
     <use xlink:href="#m8f9bbed0d4" x="529.807593" y="187.782792" style="fill: #1f77b4; fill-opacity: 0.8; stroke: #1f77b4; stroke-opacity: 0.8"/>
     <use xlink:href="#m8f9bbed0d4" x="616.505169" y="138.890399" style="fill: #1f77b4; fill-opacity: 0.8; stroke: #1f77b4; stroke-opacity: 0.8"/>
     <use xlink:href="#m8f9bbed0d4" x="622.636364" y="136.077408" style="fill: #1f77b4; fill-opacity: 0.8; stroke: #1f77b4; stroke-opacity: 0.8"/>
    </g>
   </g>
   <g id="PathCollection_2">
    <defs>
     <path id="m920b3d98ad" d="M 0 3 
C 0.795609 3 1.55874 2.683901 2.12132 2.12132 
C 2.683901 1.55874 3 0.795609 3 0 
C 3 -0.795609 2.683901 -1.55874 2.12132 -2.12132 
C 1.55874 -2.683901 0.795609 -3 0 -3 
C -0.795609 -3 -1.55874 -2.683901 -2.12132 -2.12132 
C -2.683901 -1.55874 -3 -0.795609 -3 0 
C -3 0.795609 -2.683901 1.55874 -2.12132 2.12132 
C -1.55874 2.683901 -0.795609 3 0 3 
z
" style="stroke: #ff7f0e; stroke-opacity: 0.8"/>
    </defs>
    <g clip-path="url(#pbc2b185bd8)">
     <use xlink:href="#m920b3d98ad" x="115.363636" y="247.463106" style="fill: #ff7f0e; fill-opacity: 0.8; stroke: #ff7f0e; stroke-opacity: 0.8"/>
     <use xlink:href="#m920b3d98ad" x="144.42581" y="232.748445" style="fill: #ff7f0e; fill-opacity: 0.8; stroke: #ff7f0e; stroke-opacity: 0.8"/>
     <use xlink:href="#m920b3d98ad" x="170.060463" y="369.36" style="fill: #ff7f0e; fill-opacity: 0.8; stroke: #ff7f0e; stroke-opacity: 0.8"/>
     <use xlink:href="#m920b3d98ad" x="250.093188" y="279.596848" style="fill: #ff7f0e; fill-opacity: 0.8; stroke: #ff7f0e; stroke-opacity: 0.8"/>
     <use xlink:href="#m920b3d98ad" x="266.22227" y="214.635912" style="fill: #ff7f0e; fill-opacity: 0.8; stroke: #ff7f0e; stroke-opacity: 0.8"/>
     <use xlink:href="#m920b3d98ad" x="446.143077" y="129.606448" style="fill: #ff7f0e; fill-opacity: 0.8; stroke: #ff7f0e; stroke-opacity: 0.8"/>
     <use xlink:href="#m920b3d98ad" x="465.646536" y="66.96" style="fill: #ff7f0e; fill-opacity: 0.8; stroke: #ff7f0e; stroke-opacity: 0.8"/>
     <use xlink:href="#m920b3d98ad" x="529.807593" y="152.563192" style="fill: #ff7f0e; fill-opacity: 0.8; stroke: #ff7f0e; stroke-opacity: 0.8"/>
     <use xlink:href="#m920b3d98ad" x="616.505169" y="175.109072" style="fill: #ff7f0e; fill-opacity: 0.8; stroke: #ff7f0e; stroke-opacity: 0.8"/>
     <use xlink:href="#m920b3d98ad" x="622.636364" y="127.512215" style="fill: #ff7f0e; fill-opacity: 0.8; stroke: #ff7f0e; stroke-opacity: 0.8"/>
    </g>
   </g>
   <g id="PathCollection_3">
    <defs>
     <path id="m827070d814" d="M 0 3 
C 0.795609 3 1.55874 2.683901 2.12132 2.12132 
C 2.683901 1.55874 3 0.795609 3 0 
C 3 -0.795609 2.683901 -1.55874 2.12132 -2.12132 
C 1.55874 -2.683901 0.795609 -3 0 -3 
C -0.795609 -3 -1.55874 -2.683901 -2.12132 -2.12132 
C -2.683901 -1.55874 -3 -0.795609 -3 0 
C -3 0.795609 -2.683901 1.55874 -2.12132 2.12132 
C -1.55874 2.683901 -0.795609 3 0 3 
z
" style="stroke: #2ca02c; stroke-opacity: 0.8"/>
    </defs>
    <g clip-path="url(#pbc2b185bd8)">
     <use xlink:href="#m827070d814" x="115.363636" y="260.22929" style="fill: #2ca02c; fill-opacity: 0.8; stroke: #2ca02c; stroke-opacity: 0.8"/>
     <use xlink:href="#m827070d814" x="144.42581" y="261.360489" style="fill: #2ca02c; fill-opacity: 0.8; stroke: #2ca02c; stroke-opacity: 0.8"/>
     <use xlink:href="#m827070d814" x="170.060463" y="271.147701" style="fill: #2ca02c; fill-opacity: 0.8; stroke: #2ca02c; stroke-opacity: 0.8"/>
     <use xlink:href="#m827070d814" x="250.093188" y="269.73951" style="fill: #2ca02c; fill-opacity: 0.8; stroke: #2ca02c; stroke-opacity: 0.8"/>
     <use xlink:href="#m827070d814" x="266.22227" y="237.116418" style="fill: #2ca02c; fill-opacity: 0.8; stroke: #2ca02c; stroke-opacity: 0.8"/>
     <use xlink:href="#m827070d814" x="446.143077" y="194.466374" style="fill: #2ca02c; fill-opacity: 0.8; stroke: #2ca02c; stroke-opacity: 0.8"/>
     <use xlink:href="#m827070d814" x="465.646536" y="176.798901" style="fill: #2ca02c; fill-opacity: 0.8; stroke: #2ca02c; stroke-opacity: 0.8"/>
     <use xlink:href="#m827070d814" x="529.807593" y="269.270113" style="fill: #2ca02c; fill-opacity: 0.8; stroke: #2ca02c; stroke-opacity: 0.8"/>
     <use xlink:href="#m827070d814" x="616.505169" y="207.32721" style="fill: #2ca02c; fill-opacity: 0.8; stroke: #2ca02c; stroke-opacity: 0.8"/>
     <use xlink:href="#m827070d814" x="622.636364" y="184.543952" style="fill: #2ca02c; fill-opacity: 0.8; stroke: #2ca02c; stroke-opacity: 0.8"/>
    </g>
   </g>
   <g id="PathCollection_4">
    <defs>
     <path id="m3781caa8ba" d="M 0 3 
C 0.795609 3 1.55874 2.683901 2.12132 2.12132 
C 2.683901 1.55874 3 0.795609 3 0 
C 3 -0.795609 2.683901 -1.55874 2.12132 -2.12132 
C 1.55874 -2.683901 0.795609 -3 0 -3 
C -0.795609 -3 -1.55874 -2.683901 -2.12132 -2.12132 
C -2.683901 -1.55874 -3 -0.795609 -3 0 
C -3 0.795609 -2.683901 1.55874 -2.12132 2.12132 
C -1.55874 2.683901 -0.795609 3 0 3 
z
" style="stroke: #d62728; stroke-opacity: 0.8"/>
    </defs>
    <g clip-path="url(#pbc2b185bd8)">
     <use xlink:href="#m3781caa8ba" x="115.363636" y="265.190473" style="fill: #d62728; fill-opacity: 0.8; stroke: #d62728; stroke-opacity: 0.8"/>
     <use xlink:href="#m3781caa8ba" x="144.42581" y="190.537886" style="fill: #d62728; fill-opacity: 0.8; stroke: #d62728; stroke-opacity: 0.8"/>
     <use xlink:href="#m3781caa8ba" x="170.060463" y="311.515845" style="fill: #d62728; fill-opacity: 0.8; stroke: #d62728; stroke-opacity: 0.8"/>
     <use xlink:href="#m3781caa8ba" x="250.093188" y="264.341445" style="fill: #d62728; fill-opacity: 0.8; stroke: #d62728; stroke-opacity: 0.8"/>
     <use xlink:href="#m3781caa8ba" x="266.22227" y="235.23883" style="fill: #d62728; fill-opacity: 0.8; stroke: #d62728; stroke-opacity: 0.8"/>
     <use xlink:href="#m3781caa8ba" x="446.143077" y="164.125182" style="fill: #d62728; fill-opacity: 0.8; stroke: #d62728; stroke-opacity: 0.8"/>
     <use xlink:href="#m3781caa8ba" x="465.646536" y="162.057459" style="fill: #d62728; fill-opacity: 0.8; stroke: #d62728; stroke-opacity: 0.8"/>
     <use xlink:href="#m3781caa8ba" x="529.807593" y="211.064884" style="fill: #d62728; fill-opacity: 0.8; stroke: #d62728; stroke-opacity: 0.8"/>
     <use xlink:href="#m3781caa8ba" x="616.505169" y="142.652174" style="fill: #d62728; fill-opacity: 0.8; stroke: #d62728; stroke-opacity: 0.8"/>
     <use xlink:href="#m3781caa8ba" x="622.636364" y="166.749943" style="fill: #d62728; fill-opacity: 0.8; stroke: #d62728; stroke-opacity: 0.8"/>
    </g>
   </g>
   <g id="matplotlib.axis_1">
    <g id="xtick_1">
     <g id="line2d_1">
      <defs>
       <path id="m0979d0525e" d="M 0 0 
L 0 3.5 
" style="stroke: #000000; stroke-width: 0.8"/>
      </defs>
      <g>
       <use xlink:href="#m0979d0525e" x="115.363636" y="384.48" style="stroke: #000000; stroke-width: 0.8"/>
      </g>
     </g>
     <g id="text_1">
      <!-- 7B -->
      <g transform="translate(108.751918 399.078438) scale(0.1 -0.1)">
       <defs>
        <path id="DejaVuSans-37" d="M 525 4666 
L 3525 4666 
L 3525 4397 
L 1831 0 
L 1172 0 
L 2766 4134 
L 525 4134 
L 525 4666 
z
" transform="scale(0.015625)"/>
        <path id="DejaVuSans-42" d="M 1259 2228 
L 1259 519 
L 2272 519 
Q 2781 519 3026 730 
Q 3272 941 3272 1375 
Q 3272 1813 3026 2020 
Q 2781 2228 2272 2228 
L 1259 2228 
z
M 1259 4147 
L 1259 2741 
L 2194 2741 
Q 2656 2741 2882 2914 
Q 3109 3088 3109 3444 
Q 3109 3797 2882 3972 
Q 2656 4147 2194 4147 
L 1259 4147 
z
M 628 4666 
L 2241 4666 
Q 2963 4666 3353 4366 
Q 3744 4066 3744 3513 
Q 3744 3084 3544 2831 
Q 3344 2578 2956 2516 
Q 3422 2416 3680 2098 
Q 3938 1781 3938 1306 
Q 3938 681 3513 340 
Q 3088 0 2303 0 
L 628 0 
L 628 4666 
z
" transform="scale(0.015625)"/>
       </defs>
       <use xlink:href="#DejaVuSans-37"/>
       <use xlink:href="#DejaVuSans-42" x="63.623047"/>
      </g>
     </g>
    </g>
    <g id="xtick_2">
     <g id="line2d_2">
      <g>
       <use xlink:href="#m0979d0525e" x="250.093188" y="384.48" style="stroke: #000000; stroke-width: 0.8"/>
      </g>
     </g>
     <g id="text_2">
      <!-- 13B -->
      <g transform="translate(240.30022 399.078438) scale(0.1 -0.1)">
       <defs>
        <path id="DejaVuSans-31" d="M 794 531 
L 1825 531 
L 1825 4091 
L 703 3866 
L 703 4441 
L 1819 4666 
L 2450 4666 
L 2450 531 
L 3481 531 
L 3481 0 
L 794 0 
L 794 531 
z
" transform="scale(0.015625)"/>
        <path id="DejaVuSans-33" d="M 2597 2516 
Q 3050 2419 3304 2112 
Q 3559 1806 3559 1356 
Q 3559 666 3084 287 
Q 2609 -91 1734 -91 
Q 1441 -91 1130 -33 
Q 819 25 488 141 
L 488 750 
Q 750 597 1062 519 
Q 1375 441 1716 441 
Q 2309 441 2620 675 
Q 2931 909 2931 1356 
Q 2931 1769 2642 2001 
Q 2353 2234 1838 2234 
L 1294 2234 
L 1294 2753 
L 1863 2753 
Q 2328 2753 2575 2939 
Q 2822 3125 2822 3475 
Q 2822 3834 2567 4026 
Q 2313 4219 1838 4219 
Q 1578 4219 1281 4162 
Q 984 4106 628 3988 
L 628 4550 
Q 988 4650 1302 4700 
Q 1616 4750 1894 4750 
Q 2613 4750 3031 4423 
Q 3450 4097 3450 3541 
Q 3450 3153 3228 2886 
Q 3006 2619 2597 2516 
z
" transform="scale(0.015625)"/>
       </defs>
       <use xlink:href="#DejaVuSans-31"/>
       <use xlink:href="#DejaVuSans-33" x="63.623047"/>
       <use xlink:href="#DejaVuSans-42" x="127.246094"/>
      </g>
     </g>
    </g>
    <g id="xtick_3">
     <g id="line2d_3">
      <g>
       <use xlink:href="#m0979d0525e" x="446.143077" y="384.48" style="stroke: #000000; stroke-width: 0.8"/>
      </g>
     </g>
     <g id="text_3">
      <!-- 32B -->
      <g transform="translate(436.350108 399.078438) scale(0.1 -0.1)">
       <defs>
        <path id="DejaVuSans-32" d="M 1228 531 
L 3431 531 
L 3431 0 
L 469 0 
L 469 531 
Q 828 903 1448 1529 
Q 2069 2156 2228 2338 
Q 2531 2678 2651 2914 
Q 2772 3150 2772 3378 
Q 2772 3750 2511 3984 
Q 2250 4219 1831 4219 
Q 1534 4219 1204 4116 
Q 875 4013 500 3803 
L 500 4441 
Q 881 4594 1212 4672 
Q 1544 4750 1819 4750 
Q 2544 4750 2975 4387 
Q 3406 4025 3406 3419 
Q 3406 3131 3298 2873 
Q 3191 2616 2906 2266 
Q 2828 2175 2409 1742 
Q 1991 1309 1228 531 
z
" transform="scale(0.015625)"/>
       </defs>
       <use xlink:href="#DejaVuSans-33"/>
       <use xlink:href="#DejaVuSans-32" x="63.623047"/>
       <use xlink:href="#DejaVuSans-42" x="127.246094"/>
      </g>
     </g>
    </g>
    <g id="xtick_4">
     <g id="line2d_4">
      <g>
       <use xlink:href="#m0979d0525e" x="616.505169" y="384.48" style="stroke: #000000; stroke-width: 0.8"/>
      </g>
     </g>
     <g id="text_4">
      <!-- 70B -->
      <g transform="translate(606.712201 399.078438) scale(0.1 -0.1)">
       <defs>
        <path id="DejaVuSans-30" d="M 2034 4250 
Q 1547 4250 1301 3770 
Q 1056 3291 1056 2328 
Q 1056 1369 1301 889 
Q 1547 409 2034 409 
Q 2525 409 2770 889 
Q 3016 1369 3016 2328 
Q 3016 3291 2770 3770 
Q 2525 4250 2034 4250 
z
M 2034 4750 
Q 2819 4750 3233 4129 
Q 3647 3509 3647 2328 
Q 3647 1150 3233 529 
Q 2819 -91 2034 -91 
Q 1250 -91 836 529 
Q 422 1150 422 2328 
Q 422 3509 836 4129 
Q 1250 4750 2034 4750 
z
" transform="scale(0.015625)"/>
       </defs>
       <use xlink:href="#DejaVuSans-37"/>
       <use xlink:href="#DejaVuSans-30" x="63.623047"/>
       <use xlink:href="#DejaVuSans-42" x="127.246094"/>
      </g>
     </g>
    </g>
    <g id="text_5">
     <!-- model_size -->
     <g transform="translate(341.235937 412.756563) scale(0.1 -0.1)">
      <defs>
       <path id="DejaVuSans-6d" d="M 3328 2828 
Q 3544 3216 3844 3400 
Q 4144 3584 4550 3584 
Q 5097 3584 5394 3201 
Q 5691 2819 5691 2113 
L 5691 0 
L 5113 0 
L 5113 2094 
Q 5113 2597 4934 2840 
Q 4756 3084 4391 3084 
Q 3944 3084 3684 2787 
Q 3425 2491 3425 1978 
L 3425 0 
L 2847 0 
L 2847 2094 
Q 2847 2600 2669 2842 
Q 2491 3084 2119 3084 
Q 1678 3084 1418 2786 
Q 1159 2488 1159 1978 
L 1159 0 
L 581 0 
L 581 3500 
L 1159 3500 
L 1159 2956 
Q 1356 3278 1631 3431 
Q 1906 3584 2284 3584 
Q 2666 3584 2933 3390 
Q 3200 3197 3328 2828 
z
" transform="scale(0.015625)"/>
       <path id="DejaVuSans-6f" d="M 1959 3097 
Q 1497 3097 1228 2736 
Q 959 2375 959 1747 
Q 959 1119 1226 758 
Q 1494 397 1959 397 
Q 2419 397 2687 759 
Q 2956 1122 2956 1747 
Q 2956 2369 2687 2733 
Q 2419 3097 1959 3097 
z
M 1959 3584 
Q 2709 3584 3137 3096 
Q 3566 2609 3566 1747 
Q 3566 888 3137 398 
Q 2709 -91 1959 -91 
Q 1206 -91 779 398 
Q 353 888 353 1747 
Q 353 2609 779 3096 
Q 1206 3584 1959 3584 
z
" transform="scale(0.015625)"/>
       <path id="DejaVuSans-64" d="M 2906 2969 
L 2906 4863 
L 3481 4863 
L 3481 0 
L 2906 0 
L 2906 525 
Q 2725 213 2448 61 
Q 2172 -91 1784 -91 
Q 1150 -91 751 415 
Q 353 922 353 1747 
Q 353 2572 751 3078 
Q 1150 3584 1784 3584 
Q 2172 3584 2448 3432 
Q 2725 3281 2906 2969 
z
M 947 1747 
Q 947 1113 1208 752 
Q 1469 391 1925 391 
Q 2381 391 2643 752 
Q 2906 1113 2906 1747 
Q 2906 2381 2643 2742 
Q 2381 3103 1925 3103 
Q 1469 3103 1208 2742 
Q 947 2381 947 1747 
z
" transform="scale(0.015625)"/>
       <path id="DejaVuSans-65" d="M 3597 1894 
L 3597 1613 
L 953 1613 
Q 991 1019 1311 708 
Q 1631 397 2203 397 
Q 2534 397 2845 478 
Q 3156 559 3463 722 
L 3463 178 
Q 3153 47 2828 -22 
Q 2503 -91 2169 -91 
Q 1331 -91 842 396 
Q 353 884 353 1716 
Q 353 2575 817 3079 
Q 1281 3584 2069 3584 
Q 2775 3584 3186 3129 
Q 3597 2675 3597 1894 
z
M 3022 2063 
Q 3016 2534 2758 2815 
Q 2500 3097 2075 3097 
Q 1594 3097 1305 2825 
Q 1016 2553 972 2059 
L 3022 2063 
z
" transform="scale(0.015625)"/>
       <path id="DejaVuSans-6c" d="M 603 4863 
L 1178 4863 
L 1178 0 
L 603 0 
L 603 4863 
z
" transform="scale(0.015625)"/>
       <path id="DejaVuSans-5f" d="M 3263 -1063 
L 3263 -1509 
L -63 -1509 
L -63 -1063 
L 3263 -1063 
z
" transform="scale(0.015625)"/>
       <path id="DejaVuSans-73" d="M 2834 3397 
L 2834 2853 
Q 2591 2978 2328 3040 
Q 2066 3103 1784 3103 
Q 1356 3103 1142 2972 
Q 928 2841 928 2578 
Q 928 2378 1081 2264 
Q 1234 2150 1697 2047 
L 1894 2003 
Q 2506 1872 2764 1633 
Q 3022 1394 3022 966 
Q 3022 478 2636 193 
Q 2250 -91 1575 -91 
Q 1294 -91 989 -36 
Q 684 19 347 128 
L 347 722 
Q 666 556 975 473 
Q 1284 391 1588 391 
Q 1994 391 2212 530 
Q 2431 669 2431 922 
Q 2431 1156 2273 1281 
Q 2116 1406 1581 1522 
L 1381 1569 
Q 847 1681 609 1914 
Q 372 2147 372 2553 
Q 372 3047 722 3315 
Q 1072 3584 1716 3584 
Q 2034 3584 2315 3537 
Q 2597 3491 2834 3397 
z
" transform="scale(0.015625)"/>
       <path id="DejaVuSans-69" d="M 603 3500 
L 1178 3500 
L 1178 0 
L 603 0 
L 603 3500 
z
M 603 4863 
L 1178 4863 
L 1178 4134 
L 603 4134 
L 603 4863 
z
" transform="scale(0.015625)"/>
       <path id="DejaVuSans-7a" d="M 353 3500 
L 3084 3500 
L 3084 2975 
L 922 459 
L 3084 459 
L 3084 0 
L 275 0 
L 275 525 
L 2438 3041 
L 353 3041 
L 353 3500 
z
" transform="scale(0.015625)"/>
      </defs>
      <use xlink:href="#DejaVuSans-6d"/>
      <use xlink:href="#DejaVuSans-6f" x="97.412109"/>
      <use xlink:href="#DejaVuSans-64" x="158.59375"/>
      <use xlink:href="#DejaVuSans-65" x="222.070312"/>
      <use xlink:href="#DejaVuSans-6c" x="283.59375"/>
      <use xlink:href="#DejaVuSans-5f" x="311.376953"/>
      <use xlink:href="#DejaVuSans-73" x="361.376953"/>
      <use xlink:href="#DejaVuSans-69" x="413.476562"/>
      <use xlink:href="#DejaVuSans-7a" x="441.259766"/>
      <use xlink:href="#DejaVuSans-65" x="493.75"/>
     </g>
    </g>
   </g>
   <g id="matplotlib.axis_2">
    <g id="ytick_1">
     <g id="line2d_5">
      <defs>
       <path id="med8b2a940e" d="M 0 0 
L -3.5 0 
" style="stroke: #000000; stroke-width: 0.8"/>
      </defs>
      <g>
       <use xlink:href="#med8b2a940e" x="90" y="383.802985" style="stroke: #000000; stroke-width: 0.8"/>
      </g>
     </g>
     <g id="text_6">
      <!-- 3 -->
      <g transform="translate(76.6375 387.602204) scale(0.1 -0.1)">
       <use xlink:href="#DejaVuSans-33"/>
      </g>
     </g>
    </g>
    <g id="ytick_2">
     <g id="line2d_6">
      <g>
       <use xlink:href="#med8b2a940e" x="90" y="327.475343" style="stroke: #000000; stroke-width: 0.8"/>
      </g>
     </g>
     <g id="text_7">
      <!-- 4 -->
      <g transform="translate(76.6375 331.274562) scale(0.1 -0.1)">
       <defs>
        <path id="DejaVuSans-34" d="M 2419 4116 
L 825 1625 
L 2419 1625 
L 2419 4116 
z
M 2253 4666 
L 3047 4666 
L 3047 1625 
L 3713 1625 
L 3713 1100 
L 3047 1100 
L 3047 0 
L 2419 0 
L 2419 1100 
L 313 1100 
L 313 1709 
L 2253 4666 
z
" transform="scale(0.015625)"/>
       </defs>
       <use xlink:href="#DejaVuSans-34"/>
      </g>
     </g>
    </g>
    <g id="ytick_3">
     <g id="line2d_7">
      <g>
       <use xlink:href="#med8b2a940e" x="90" y="271.147701" style="stroke: #000000; stroke-width: 0.8"/>
      </g>
     </g>
     <g id="text_8">
      <!-- 5 -->
      <g transform="translate(76.6375 274.94692) scale(0.1 -0.1)">
       <defs>
        <path id="DejaVuSans-35" d="M 691 4666 
L 3169 4666 
L 3169 4134 
L 1269 4134 
L 1269 2991 
Q 1406 3038 1543 3061 
Q 1681 3084 1819 3084 
Q 2600 3084 3056 2656 
Q 3513 2228 3513 1497 
Q 3513 744 3044 326 
Q 2575 -91 1722 -91 
Q 1428 -91 1123 -41 
Q 819 9 494 109 
L 494 744 
Q 775 591 1075 516 
Q 1375 441 1709 441 
Q 2250 441 2565 725 
Q 2881 1009 2881 1497 
Q 2881 1984 2565 2268 
Q 2250 2553 1709 2553 
Q 1456 2553 1204 2497 
Q 953 2441 691 2322 
L 691 4666 
z
" transform="scale(0.015625)"/>
       </defs>
       <use xlink:href="#DejaVuSans-35"/>
      </g>
     </g>
    </g>
    <g id="ytick_4">
     <g id="line2d_8">
      <g>
       <use xlink:href="#med8b2a940e" x="90" y="214.82006" style="stroke: #000000; stroke-width: 0.8"/>
      </g>
     </g>
     <g id="text_9">
      <!-- 6 -->
      <g transform="translate(76.6375 218.619278) scale(0.1 -0.1)">
       <defs>
        <path id="DejaVuSans-36" d="M 2113 2584 
Q 1688 2584 1439 2293 
Q 1191 2003 1191 1497 
Q 1191 994 1439 701 
Q 1688 409 2113 409 
Q 2538 409 2786 701 
Q 3034 994 3034 1497 
Q 3034 2003 2786 2293 
Q 2538 2584 2113 2584 
z
M 3366 4563 
L 3366 3988 
Q 3128 4100 2886 4159 
Q 2644 4219 2406 4219 
Q 1781 4219 1451 3797 
Q 1122 3375 1075 2522 
Q 1259 2794 1537 2939 
Q 1816 3084 2150 3084 
Q 2853 3084 3261 2657 
Q 3669 2231 3669 1497 
Q 3669 778 3244 343 
Q 2819 -91 2113 -91 
Q 1303 -91 875 529 
Q 447 1150 447 2328 
Q 447 3434 972 4092 
Q 1497 4750 2381 4750 
Q 2619 4750 2861 4703 
Q 3103 4656 3366 4563 
z
" transform="scale(0.015625)"/>
       </defs>
       <use xlink:href="#DejaVuSans-36"/>
      </g>
     </g>
    </g>
    <g id="ytick_5">
     <g id="line2d_9">
      <g>
       <use xlink:href="#med8b2a940e" x="90" y="158.492418" style="stroke: #000000; stroke-width: 0.8"/>
      </g>
     </g>
     <g id="text_10">
      <!-- 7 -->
      <g transform="translate(76.6375 162.291637) scale(0.1 -0.1)">
       <use xlink:href="#DejaVuSans-37"/>
      </g>
     </g>
    </g>
    <g id="ytick_6">
     <g id="line2d_10">
      <g>
       <use xlink:href="#med8b2a940e" x="90" y="102.164776" style="stroke: #000000; stroke-width: 0.8"/>
      </g>
     </g>
     <g id="text_11">
      <!-- 8 -->
      <g transform="translate(76.6375 105.963995) scale(0.1 -0.1)">
       <defs>
        <path id="DejaVuSans-38" d="M 2034 2216 
Q 1584 2216 1326 1975 
Q 1069 1734 1069 1313 
Q 1069 891 1326 650 
Q 1584 409 2034 409 
Q 2484 409 2743 651 
Q 3003 894 3003 1313 
Q 3003 1734 2745 1975 
Q 2488 2216 2034 2216 
z
M 1403 2484 
Q 997 2584 770 2862 
Q 544 3141 544 3541 
Q 544 4100 942 4425 
Q 1341 4750 2034 4750 
Q 2731 4750 3128 4425 
Q 3525 4100 3525 3541 
Q 3525 3141 3298 2862 
Q 3072 2584 2669 2484 
Q 3125 2378 3379 2068 
Q 3634 1759 3634 1313 
Q 3634 634 3220 271 
Q 2806 -91 2034 -91 
Q 1263 -91 848 271 
Q 434 634 434 1313 
Q 434 1759 690 2068 
Q 947 2378 1403 2484 
z
M 1172 3481 
Q 1172 3119 1398 2916 
Q 1625 2713 2034 2713 
Q 2441 2713 2670 2916 
Q 2900 3119 2900 3481 
Q 2900 3844 2670 4047 
Q 2441 4250 2034 4250 
Q 1625 4250 1398 4047 
Q 1172 3844 1172 3481 
z
" transform="scale(0.015625)"/>
       </defs>
       <use xlink:href="#DejaVuSans-38"/>
      </g>
     </g>
    </g>
    <g id="text_12">
     <!-- MT-Bench -->
     <g transform="translate(70.557812 242.288125) rotate(-90) scale(0.1 -0.1)">
      <defs>
       <path id="DejaVuSans-4d" d="M 628 4666 
L 1569 4666 
L 2759 1491 
L 3956 4666 
L 4897 4666 
L 4897 0 
L 4281 0 
L 4281 4097 
L 3078 897 
L 2444 897 
L 1241 4097 
L 1241 0 
L 628 0 
L 628 4666 
z
" transform="scale(0.015625)"/>
       <path id="DejaVuSans-54" d="M -19 4666 
L 3928 4666 
L 3928 4134 
L 2272 4134 
L 2272 0 
L 1638 0 
L 1638 4134 
L -19 4134 
L -19 4666 
z
" transform="scale(0.015625)"/>
       <path id="DejaVuSans-2d" d="M 313 2009 
L 1997 2009 
L 1997 1497 
L 313 1497 
L 313 2009 
z
" transform="scale(0.015625)"/>
       <path id="DejaVuSans-6e" d="M 3513 2113 
L 3513 0 
L 2938 0 
L 2938 2094 
Q 2938 2591 2744 2837 
Q 2550 3084 2163 3084 
Q 1697 3084 1428 2787 
Q 1159 2491 1159 1978 
L 1159 0 
L 581 0 
L 581 3500 
L 1159 3500 
L 1159 2956 
Q 1366 3272 1645 3428 
Q 1925 3584 2291 3584 
Q 2894 3584 3203 3211 
Q 3513 2838 3513 2113 
z
" transform="scale(0.015625)"/>
       <path id="DejaVuSans-63" d="M 3122 3366 
L 3122 2828 
Q 2878 2963 2633 3030 
Q 2388 3097 2138 3097 
Q 1578 3097 1268 2742 
Q 959 2388 959 1747 
Q 959 1106 1268 751 
Q 1578 397 2138 397 
Q 2388 397 2633 464 
Q 2878 531 3122 666 
L 3122 134 
Q 2881 22 2623 -34 
Q 2366 -91 2075 -91 
Q 1284 -91 818 406 
Q 353 903 353 1747 
Q 353 2603 823 3093 
Q 1294 3584 2113 3584 
Q 2378 3584 2631 3529 
Q 2884 3475 3122 3366 
z
" transform="scale(0.015625)"/>
       <path id="DejaVuSans-68" d="M 3513 2113 
L 3513 0 
L 2938 0 
L 2938 2094 
Q 2938 2591 2744 2837 
Q 2550 3084 2163 3084 
Q 1697 3084 1428 2787 
Q 1159 2491 1159 1978 
L 1159 0 
L 581 0 
L 581 4863 
L 1159 4863 
L 1159 2956 
Q 1366 3272 1645 3428 
Q 1925 3584 2291 3584 
Q 2894 3584 3203 3211 
Q 3513 2838 3513 2113 
z
" transform="scale(0.015625)"/>
      </defs>
      <use xlink:href="#DejaVuSans-4d"/>
      <use xlink:href="#DejaVuSans-54" x="86.279297"/>
      <use xlink:href="#DejaVuSans-2d" x="138.238281"/>
      <use xlink:href="#DejaVuSans-42" x="170.697266"/>
      <use xlink:href="#DejaVuSans-65" x="239.300781"/>
      <use xlink:href="#DejaVuSans-6e" x="300.824219"/>
      <use xlink:href="#DejaVuSans-63" x="364.203125"/>
      <use xlink:href="#DejaVuSans-68" x="419.183594"/>
     </g>
    </g>
   </g>
   <g id="line2d_11">
    <path d="M 115.363636 225.796186 
L 120.487603 225.053222 
L 125.61157 224.310258 
L 130.735537 223.567295 
L 135.859504 222.824331 
L 140.983471 222.081367 
L 146.107438 221.338403 
L 151.231405 220.595439 
L 156.355372 219.852476 
L 161.479339 219.109512 
L 166.603306 218.366548 
L 171.727273 217.623584 
L 176.85124 216.88062 
L 181.975207 216.137656 
L 187.099174 215.394693 
L 192.22314 214.651729 
L 197.347107 213.908765 
L 202.471074 213.165801 
L 207.595041 212.422837 
L 212.719008 211.679874 
L 217.842975 210.93691 
L 222.966942 210.193946 
L 228.090909 209.450982 
L 233.214876 208.708018 
L 238.338843 207.965054 
L 243.46281 207.222091 
L 248.586777 206.479127 
L 253.710744 205.736163 
L 258.834711 204.993199 
L 263.958678 204.250235 
L 269.082645 203.507272 
L 274.206612 202.764308 
L 279.330579 202.021344 
L 284.454545 201.27838 
L 289.578512 200.535416 
L 294.702479 199.792452 
L 299.826446 199.049489 
L 304.950413 198.306525 
L 310.07438 197.563561 
L 315.198347 196.820597 
L 320.322314 196.077633 
L 325.446281 195.33467 
L 330.570248 194.591706 
L 335.694215 193.848742 
L 340.818182 193.105778 
L 345.942149 192.362814 
L 351.066116 191.61985 
L 356.190083 190.876887 
L 361.31405 190.133923 
L 366.438017 189.390959 
L 371.561983 188.647995 
L 376.68595 187.905031 
L 381.809917 187.162068 
L 386.933884 186.419104 
L 392.057851 185.67614 
L 397.181818 184.933176 
L 402.305785 184.190212 
L 407.429752 183.447249 
L 412.553719 182.704285 
L 417.677686 181.961321 
L 422.801653 181.218357 
L 427.92562 180.475393 
L 433.049587 179.732429 
L 438.173554 178.989466 
L 443.297521 178.246502 
L 448.421488 177.503538 
L 453.545455 176.760574 
L 458.669421 176.01761 
L 463.793388 175.274647 
L 468.917355 174.531683 
L 474.041322 173.788719 
L 479.165289 173.045755 
L 484.289256 172.302791 
L 489.413223 171.559827 
L 494.53719 170.816864 
L 499.661157 170.0739 
L 504.785124 169.330936 
L 509.909091 168.587972 
L 515.033058 167.845008 
L 520.157025 167.102045 
L 525.280992 166.359081 
L 530.404959 165.616117 
L 535.528926 164.873153 
L 540.652893 164.130189 
L 545.77686 163.387225 
L 550.900826 162.644262 
L 556.024793 161.901298 
L 561.14876 161.158334 
L 566.272727 160.41537 
L 571.396694 159.672406 
L 576.520661 158.929443 
L 581.644628 158.186479 
L 586.768595 157.443515 
L 591.892562 156.700551 
L 597.016529 155.957587 
L 602.140496 155.214623 
L 607.264463 154.47166 
L 612.38843 153.728696 
L 617.512397 152.985732 
L 622.636364 152.242768 
" clip-path="url(#pbc2b185bd8)" style="fill: none; stroke: #1f77b4; stroke-width: 2.25; stroke-linecap: square"/>
   </g>
   <g id="line2d_12">
    <path d="M 115.363636 281.579438 
L 120.487603 279.880116 
L 125.61157 278.180794 
L 130.735537 276.481472 
L 135.859504 274.78215 
L 140.983471 273.082828 
L 146.107438 271.383506 
L 151.231405 269.684184 
L 156.355372 267.984862 
L 161.479339 266.28554 
L 166.603306 264.586218 
L 171.727273 262.886896 
L 176.85124 261.187574 
L 181.975207 259.488252 
L 187.099174 257.78893 
L 192.22314 256.089608 
L 197.347107 254.390286 
L 202.471074 252.690964 
L 207.595041 250.991642 
L 212.719008 249.29232 
L 217.842975 247.592998 
L 222.966942 245.893676 
L 228.090909 244.194354 
L 233.214876 242.495032 
L 238.338843 240.79571 
L 243.46281 239.096388 
L 248.586777 237.397066 
L 253.710744 235.697744 
L 258.834711 233.998422 
L 263.958678 232.2991 
L 269.082645 230.599778 
L 274.206612 228.900457 
L 279.330579 227.201135 
L 284.454545 225.501813 
L 289.578512 223.802491 
L 294.702479 222.103169 
L 299.826446 220.403847 
L 304.950413 218.704525 
L 310.07438 217.005203 
L 315.198347 215.305881 
L 320.322314 213.606559 
L 325.446281 211.907237 
L 330.570248 210.207915 
L 335.694215 208.508593 
L 340.818182 206.809271 
L 345.942149 205.109949 
L 351.066116 203.410627 
L 356.190083 201.711305 
L 361.31405 200.011983 
L 366.438017 198.312661 
L 371.561983 196.613339 
L 376.68595 194.914017 
L 381.809917 193.214695 
L 386.933884 191.515373 
L 392.057851 189.816051 
L 397.181818 188.116729 
L 402.305785 186.417407 
L 407.429752 184.718085 
L 412.553719 183.018763 
L 417.677686 181.319441 
L 422.801653 179.620119 
L 427.92562 177.920797 
L 433.049587 176.221475 
L 438.173554 174.522153 
L 443.297521 172.822831 
L 448.421488 171.123509 
L 453.545455 169.424187 
L 458.669421 167.724865 
L 463.793388 166.025543 
L 468.917355 164.326221 
L 474.041322 162.626899 
L 479.165289 160.927577 
L 484.289256 159.228255 
L 489.413223 157.528933 
L 494.53719 155.829611 
L 499.661157 154.130289 
L 504.785124 152.430967 
L 509.909091 150.731645 
L 515.033058 149.032323 
L 520.157025 147.333001 
L 525.280992 145.633679 
L 530.404959 143.934357 
L 535.528926 142.235035 
L 540.652893 140.535713 
L 545.77686 138.836391 
L 550.900826 137.137069 
L 556.024793 135.437747 
L 561.14876 133.738425 
L 566.272727 132.039103 
L 571.396694 130.339781 
L 576.520661 128.640459 
L 581.644628 126.941137 
L 586.768595 125.241815 
L 591.892562 123.542493 
L 597.016529 121.843171 
L 602.140496 120.143849 
L 607.264463 118.444527 
L 612.38843 116.745205 
L 617.512397 115.045883 
L 622.636364 113.346561 
" clip-path="url(#pbc2b185bd8)" style="fill: none; stroke: #ff7f0e; stroke-width: 2.25; stroke-linecap: square"/>
   </g>
   <g id="line2d_13">
    <path d="M 115.363636 266.75551 
L 120.487603 266.060327 
L 125.61157 265.365145 
L 130.735537 264.669962 
L 135.859504 263.974779 
L 140.983471 263.279596 
L 146.107438 262.584413 
L 151.231405 261.88923 
L 156.355372 261.194047 
L 161.479339 260.498864 
L 166.603306 259.803681 
L 171.727273 259.108498 
L 176.85124 258.413315 
L 181.975207 257.718133 
L 187.099174 257.02295 
L 192.22314 256.327767 
L 197.347107 255.632584 
L 202.471074 254.937401 
L 207.595041 254.242218 
L 212.719008 253.547035 
L 217.842975 252.851852 
L 222.966942 252.156669 
L 228.090909 251.461486 
L 233.214876 250.766303 
L 238.338843 250.071121 
L 243.46281 249.375938 
L 248.586777 248.680755 
L 253.710744 247.985572 
L 258.834711 247.290389 
L 263.958678 246.595206 
L 269.082645 245.900023 
L 274.206612 245.20484 
L 279.330579 244.509657 
L 284.454545 243.814474 
L 289.578512 243.119291 
L 294.702479 242.424109 
L 299.826446 241.728926 
L 304.950413 241.033743 
L 310.07438 240.33856 
L 315.198347 239.643377 
L 320.322314 238.948194 
L 325.446281 238.253011 
L 330.570248 237.557828 
L 335.694215 236.862645 
L 340.818182 236.167462 
L 345.942149 235.47228 
L 351.066116 234.777097 
L 356.190083 234.081914 
L 361.31405 233.386731 
L 366.438017 232.691548 
L 371.561983 231.996365 
L 376.68595 231.301182 
L 381.809917 230.605999 
L 386.933884 229.910816 
L 392.057851 229.215633 
L 397.181818 228.52045 
L 402.305785 227.825268 
L 407.429752 227.130085 
L 412.553719 226.434902 
L 417.677686 225.739719 
L 422.801653 225.044536 
L 427.92562 224.349353 
L 433.049587 223.65417 
L 438.173554 222.958987 
L 443.297521 222.263804 
L 448.421488 221.568621 
L 453.545455 220.873438 
L 458.669421 220.178256 
L 463.793388 219.483073 
L 468.917355 218.78789 
L 474.041322 218.092707 
L 479.165289 217.397524 
L 484.289256 216.702341 
L 489.413223 216.007158 
L 494.53719 215.311975 
L 499.661157 214.616792 
L 504.785124 213.921609 
L 509.909091 213.226426 
L 515.033058 212.531244 
L 520.157025 211.836061 
L 525.280992 211.140878 
L 530.404959 210.445695 
L 535.528926 209.750512 
L 540.652893 209.055329 
L 545.77686 208.360146 
L 550.900826 207.664963 
L 556.024793 206.96978 
L 561.14876 206.274597 
L 566.272727 205.579414 
L 571.396694 204.884232 
L 576.520661 204.189049 
L 581.644628 203.493866 
L 586.768595 202.798683 
L 591.892562 202.1035 
L 597.016529 201.408317 
L 602.140496 200.713134 
L 607.264463 200.017951 
L 612.38843 199.322768 
L 617.512397 198.627585 
L 622.636364 197.932403 
" clip-path="url(#pbc2b185bd8)" style="fill: none; stroke: #2ca02c; stroke-width: 2.25; stroke-linecap: square"/>
   </g>
   <g id="line2d_14">
    <path d="M 115.363636 264.648273 
L 120.487603 263.544018 
L 125.61157 262.439763 
L 130.735537 261.335507 
L 135.859504 260.231252 
L 140.983471 259.126997 
L 146.107438 258.022742 
L 151.231405 256.918487 
L 156.355372 255.814232 
L 161.479339 254.709977 
L 166.603306 253.605722 
L 171.727273 252.501467 
L 176.85124 251.397212 
L 181.975207 250.292957 
L 187.099174 249.188702 
L 192.22314 248.084446 
L 197.347107 246.980191 
L 202.471074 245.875936 
L 207.595041 244.771681 
L 212.719008 243.667426 
L 217.842975 242.563171 
L 222.966942 241.458916 
L 228.090909 240.354661 
L 233.214876 239.250406 
L 238.338843 238.146151 
L 243.46281 237.041896 
L 248.586777 235.937641 
L 253.710744 234.833385 
L 258.834711 233.72913 
L 263.958678 232.624875 
L 269.082645 231.52062 
L 274.206612 230.416365 
L 279.330579 229.31211 
L 284.454545 228.207855 
L 289.578512 227.1036 
L 294.702479 225.999345 
L 299.826446 224.89509 
L 304.950413 223.790835 
L 310.07438 222.686579 
L 315.198347 221.582324 
L 320.322314 220.478069 
L 325.446281 219.373814 
L 330.570248 218.269559 
L 335.694215 217.165304 
L 340.818182 216.061049 
L 345.942149 214.956794 
L 351.066116 213.852539 
L 356.190083 212.748284 
L 361.31405 211.644029 
L 366.438017 210.539774 
L 371.561983 209.435518 
L 376.68595 208.331263 
L 381.809917 207.227008 
L 386.933884 206.122753 
L 392.057851 205.018498 
L 397.181818 203.914243 
L 402.305785 202.809988 
L 407.429752 201.705733 
L 412.553719 200.601478 
L 417.677686 199.497223 
L 422.801653 198.392968 
L 427.92562 197.288713 
L 433.049587 196.184457 
L 438.173554 195.080202 
L 443.297521 193.975947 
L 448.421488 192.871692 
L 453.545455 191.767437 
L 458.669421 190.663182 
L 463.793388 189.558927 
L 468.917355 188.454672 
L 474.041322 187.350417 
L 479.165289 186.246162 
L 484.289256 185.141907 
L 489.413223 184.037652 
L 494.53719 182.933396 
L 499.661157 181.829141 
L 504.785124 180.724886 
L 509.909091 179.620631 
L 515.033058 178.516376 
L 520.157025 177.412121 
L 525.280992 176.307866 
L 530.404959 175.203611 
L 535.528926 174.099356 
L 540.652893 172.995101 
L 545.77686 171.890846 
L 550.900826 170.786591 
L 556.024793 169.682335 
L 561.14876 168.57808 
L 566.272727 167.473825 
L 571.396694 166.36957 
L 576.520661 165.265315 
L 581.644628 164.16106 
L 586.768595 163.056805 
L 591.892562 161.95255 
L 597.016529 160.848295 
L 602.140496 159.74404 
L 607.264463 158.639785 
L 612.38843 157.53553 
L 617.512397 156.431274 
L 622.636364 155.327019 
" clip-path="url(#pbc2b185bd8)" style="fill: none; stroke: #d62728; stroke-width: 2.25; stroke-linecap: square"/>
   </g>
   <g id="patch_3">
    <path d="M 90 384.48 
L 90 51.84 
" style="fill: none; stroke: #000000; stroke-width: 0.8; stroke-linejoin: miter; stroke-linecap: square"/>
   </g>
   <g id="patch_4">
    <path d="M 648 384.48 
L 648 51.84 
" style="fill: none; stroke: #000000; stroke-width: 0.8; stroke-linejoin: miter; stroke-linecap: square"/>
   </g>
   <g id="patch_5">
    <path d="M 90 384.48 
L 648 384.48 
" style="fill: none; stroke: #000000; stroke-width: 0.8; stroke-linejoin: miter; stroke-linecap: square"/>
   </g>
   <g id="patch_6">
    <path d="M 90 51.84 
L 648 51.84 
" style="fill: none; stroke: #000000; stroke-width: 0.8; stroke-linejoin: miter; stroke-linecap: square"/>
   </g>
   <g id="text_13">
    <!-- Model Size vs Scores with Regression Lines -->
    <g transform="translate(239.446875 45.84) scale(0.12 -0.12)">
     <defs>
      <path id="DejaVuSans-20" transform="scale(0.015625)"/>
      <path id="DejaVuSans-53" d="M 3425 4513 
L 3425 3897 
Q 3066 4069 2747 4153 
Q 2428 4238 2131 4238 
Q 1616 4238 1336 4038 
Q 1056 3838 1056 3469 
Q 1056 3159 1242 3001 
Q 1428 2844 1947 2747 
L 2328 2669 
Q 3034 2534 3370 2195 
Q 3706 1856 3706 1288 
Q 3706 609 3251 259 
Q 2797 -91 1919 -91 
Q 1588 -91 1214 -16 
Q 841 59 441 206 
L 441 856 
Q 825 641 1194 531 
Q 1563 422 1919 422 
Q 2459 422 2753 634 
Q 3047 847 3047 1241 
Q 3047 1584 2836 1778 
Q 2625 1972 2144 2069 
L 1759 2144 
Q 1053 2284 737 2584 
Q 422 2884 422 3419 
Q 422 4038 858 4394 
Q 1294 4750 2059 4750 
Q 2388 4750 2728 4690 
Q 3069 4631 3425 4513 
z
" transform="scale(0.015625)"/>
      <path id="DejaVuSans-76" d="M 191 3500 
L 800 3500 
L 1894 563 
L 2988 3500 
L 3597 3500 
L 2284 0 
L 1503 0 
L 191 3500 
z
" transform="scale(0.015625)"/>
      <path id="DejaVuSans-72" d="M 2631 2963 
Q 2534 3019 2420 3045 
Q 2306 3072 2169 3072 
Q 1681 3072 1420 2755 
Q 1159 2438 1159 1844 
L 1159 0 
L 581 0 
L 581 3500 
L 1159 3500 
L 1159 2956 
Q 1341 3275 1631 3429 
Q 1922 3584 2338 3584 
Q 2397 3584 2469 3576 
Q 2541 3569 2628 3553 
L 2631 2963 
z
" transform="scale(0.015625)"/>
      <path id="DejaVuSans-77" d="M 269 3500 
L 844 3500 
L 1563 769 
L 2278 3500 
L 2956 3500 
L 3675 769 
L 4391 3500 
L 4966 3500 
L 4050 0 
L 3372 0 
L 2619 2869 
L 1863 0 
L 1184 0 
L 269 3500 
z
" transform="scale(0.015625)"/>
      <path id="DejaVuSans-74" d="M 1172 4494 
L 1172 3500 
L 2356 3500 
L 2356 3053 
L 1172 3053 
L 1172 1153 
Q 1172 725 1289 603 
Q 1406 481 1766 481 
L 2356 481 
L 2356 0 
L 1766 0 
Q 1100 0 847 248 
Q 594 497 594 1153 
L 594 3053 
L 172 3053 
L 172 3500 
L 594 3500 
L 594 4494 
L 1172 4494 
z
" transform="scale(0.015625)"/>
      <path id="DejaVuSans-52" d="M 2841 2188 
Q 3044 2119 3236 1894 
Q 3428 1669 3622 1275 
L 4263 0 
L 3584 0 
L 2988 1197 
Q 2756 1666 2539 1819 
Q 2322 1972 1947 1972 
L 1259 1972 
L 1259 0 
L 628 0 
L 628 4666 
L 2053 4666 
Q 2853 4666 3247 4331 
Q 3641 3997 3641 3322 
Q 3641 2881 3436 2590 
Q 3231 2300 2841 2188 
z
M 1259 4147 
L 1259 2491 
L 2053 2491 
Q 2509 2491 2742 2702 
Q 2975 2913 2975 3322 
Q 2975 3731 2742 3939 
Q 2509 4147 2053 4147 
L 1259 4147 
z
" transform="scale(0.015625)"/>
      <path id="DejaVuSans-67" d="M 2906 1791 
Q 2906 2416 2648 2759 
Q 2391 3103 1925 3103 
Q 1463 3103 1205 2759 
Q 947 2416 947 1791 
Q 947 1169 1205 825 
Q 1463 481 1925 481 
Q 2391 481 2648 825 
Q 2906 1169 2906 1791 
z
M 3481 434 
Q 3481 -459 3084 -895 
Q 2688 -1331 1869 -1331 
Q 1566 -1331 1297 -1286 
Q 1028 -1241 775 -1147 
L 775 -588 
Q 1028 -725 1275 -790 
Q 1522 -856 1778 -856 
Q 2344 -856 2625 -561 
Q 2906 -266 2906 331 
L 2906 616 
Q 2728 306 2450 153 
Q 2172 0 1784 0 
Q 1141 0 747 490 
Q 353 981 353 1791 
Q 353 2603 747 3093 
Q 1141 3584 1784 3584 
Q 2172 3584 2450 3431 
Q 2728 3278 2906 2969 
L 2906 3500 
L 3481 3500 
L 3481 434 
z
" transform="scale(0.015625)"/>
      <path id="DejaVuSans-4c" d="M 628 4666 
L 1259 4666 
L 1259 531 
L 3531 531 
L 3531 0 
L 628 0 
L 628 4666 
z
" transform="scale(0.015625)"/>
     </defs>
     <use xlink:href="#DejaVuSans-4d"/>
     <use xlink:href="#DejaVuSans-6f" x="86.279297"/>
     <use xlink:href="#DejaVuSans-64" x="147.460938"/>
     <use xlink:href="#DejaVuSans-65" x="210.9375"/>
     <use xlink:href="#DejaVuSans-6c" x="272.460938"/>
     <use xlink:href="#DejaVuSans-20" x="300.244141"/>
     <use xlink:href="#DejaVuSans-53" x="332.03125"/>
     <use xlink:href="#DejaVuSans-69" x="395.507812"/>
     <use xlink:href="#DejaVuSans-7a" x="423.291016"/>
     <use xlink:href="#DejaVuSans-65" x="475.78125"/>
     <use xlink:href="#DejaVuSans-20" x="537.304688"/>
     <use xlink:href="#DejaVuSans-76" x="569.091797"/>
     <use xlink:href="#DejaVuSans-73" x="628.271484"/>
     <use xlink:href="#DejaVuSans-20" x="680.371094"/>
     <use xlink:href="#DejaVuSans-53" x="712.158203"/>
     <use xlink:href="#DejaVuSans-63" x="775.634766"/>
     <use xlink:href="#DejaVuSans-6f" x="830.615234"/>
     <use xlink:href="#DejaVuSans-72" x="891.796875"/>
     <use xlink:href="#DejaVuSans-65" x="930.660156"/>
     <use xlink:href="#DejaVuSans-73" x="992.183594"/>
     <use xlink:href="#DejaVuSans-20" x="1044.283203"/>
     <use xlink:href="#DejaVuSans-77" x="1076.070312"/>
     <use xlink:href="#DejaVuSans-69" x="1157.857422"/>
     <use xlink:href="#DejaVuSans-74" x="1185.640625"/>
     <use xlink:href="#DejaVuSans-68" x="1224.849609"/>
     <use xlink:href="#DejaVuSans-20" x="1288.228516"/>
     <use xlink:href="#DejaVuSans-52" x="1320.015625"/>
     <use xlink:href="#DejaVuSans-65" x="1384.998047"/>
     <use xlink:href="#DejaVuSans-67" x="1446.521484"/>
     <use xlink:href="#DejaVuSans-72" x="1509.998047"/>
     <use xlink:href="#DejaVuSans-65" x="1548.861328"/>
     <use xlink:href="#DejaVuSans-73" x="1610.384766"/>
     <use xlink:href="#DejaVuSans-73" x="1662.484375"/>
     <use xlink:href="#DejaVuSans-69" x="1714.583984"/>
     <use xlink:href="#DejaVuSans-6f" x="1742.367188"/>
     <use xlink:href="#DejaVuSans-6e" x="1803.548828"/>
     <use xlink:href="#DejaVuSans-20" x="1866.927734"/>
     <use xlink:href="#DejaVuSans-4c" x="1898.714844"/>
     <use xlink:href="#DejaVuSans-69" x="1954.427734"/>
     <use xlink:href="#DejaVuSans-6e" x="1982.210938"/>
     <use xlink:href="#DejaVuSans-65" x="2045.589844"/>
     <use xlink:href="#DejaVuSans-73" x="2107.113281"/>
    </g>
   </g>
   <g id="legend_1">
    <g id="patch_7">
     <path d="M 97 118.5525 
L 211.7 118.5525 
Q 213.7 118.5525 213.7 116.5525 
L 213.7 58.84 
Q 213.7 56.84 211.7 56.84 
L 97 56.84 
Q 95 56.84 95 58.84 
L 95 116.5525 
Q 95 118.5525 97 118.5525 
z
" style="fill: #ffffff; opacity: 0.8; stroke: #cccccc; stroke-linejoin: miter"/>
    </g>
    <g id="PathCollection_5">
     <g>
      <use xlink:href="#m8f9bbed0d4" x="109" y="65.813438" style="fill: #1f77b4; fill-opacity: 0.8; stroke: #1f77b4; stroke-opacity: 0.8"/>
     </g>
    </g>
    <g id="text_14">
     <!-- ELYZA-tasks-100 -->
     <g transform="translate(127 68.438438) scale(0.1 -0.1)">
      <defs>
       <path id="DejaVuSans-45" d="M 628 4666 
L 3578 4666 
L 3578 4134 
L 1259 4134 
L 1259 2753 
L 3481 2753 
L 3481 2222 
L 1259 2222 
L 1259 531 
L 3634 531 
L 3634 0 
L 628 0 
L 628 4666 
z
" transform="scale(0.015625)"/>
       <path id="DejaVuSans-59" d="M -13 4666 
L 666 4666 
L 1959 2747 
L 3244 4666 
L 3922 4666 
L 2272 2222 
L 2272 0 
L 1638 0 
L 1638 2222 
L -13 4666 
z
" transform="scale(0.015625)"/>
       <path id="DejaVuSans-5a" d="M 359 4666 
L 4025 4666 
L 4025 4184 
L 1075 531 
L 4097 531 
L 4097 0 
L 288 0 
L 288 481 
L 3238 4134 
L 359 4134 
L 359 4666 
z
" transform="scale(0.015625)"/>
       <path id="DejaVuSans-41" d="M 2188 4044 
L 1331 1722 
L 3047 1722 
L 2188 4044 
z
M 1831 4666 
L 2547 4666 
L 4325 0 
L 3669 0 
L 3244 1197 
L 1141 1197 
L 716 0 
L 50 0 
L 1831 4666 
z
" transform="scale(0.015625)"/>
       <path id="DejaVuSans-61" d="M 2194 1759 
Q 1497 1759 1228 1600 
Q 959 1441 959 1056 
Q 959 750 1161 570 
Q 1363 391 1709 391 
Q 2188 391 2477 730 
Q 2766 1069 2766 1631 
L 2766 1759 
L 2194 1759 
z
M 3341 1997 
L 3341 0 
L 2766 0 
L 2766 531 
Q 2569 213 2275 61 
Q 1981 -91 1556 -91 
Q 1019 -91 701 211 
Q 384 513 384 1019 
Q 384 1609 779 1909 
Q 1175 2209 1959 2209 
L 2766 2209 
L 2766 2266 
Q 2766 2663 2505 2880 
Q 2244 3097 1772 3097 
Q 1472 3097 1187 3025 
Q 903 2953 641 2809 
L 641 3341 
Q 956 3463 1253 3523 
Q 1550 3584 1831 3584 
Q 2591 3584 2966 3190 
Q 3341 2797 3341 1997 
z
" transform="scale(0.015625)"/>
       <path id="DejaVuSans-6b" d="M 581 4863 
L 1159 4863 
L 1159 1991 
L 2875 3500 
L 3609 3500 
L 1753 1863 
L 3688 0 
L 2938 0 
L 1159 1709 
L 1159 0 
L 581 0 
L 581 4863 
z
" transform="scale(0.015625)"/>
      </defs>
      <use xlink:href="#DejaVuSans-45"/>
      <use xlink:href="#DejaVuSans-4c" x="63.183594"/>
      <use xlink:href="#DejaVuSans-59" x="105.646484"/>
      <use xlink:href="#DejaVuSans-5a" x="166.730469"/>
      <use xlink:href="#DejaVuSans-41" x="235.236328"/>
      <use xlink:href="#DejaVuSans-2d" x="301.394531"/>
      <use xlink:href="#DejaVuSans-74" x="337.478516"/>
      <use xlink:href="#DejaVuSans-61" x="376.6875"/>
      <use xlink:href="#DejaVuSans-73" x="437.966797"/>
      <use xlink:href="#DejaVuSans-6b" x="490.066406"/>
      <use xlink:href="#DejaVuSans-73" x="547.976562"/>
      <use xlink:href="#DejaVuSans-2d" x="600.076172"/>
      <use xlink:href="#DejaVuSans-31" x="636.160156"/>
      <use xlink:href="#DejaVuSans-30" x="699.783203"/>
      <use xlink:href="#DejaVuSans-30" x="763.40625"/>
     </g>
    </g>
    <g id="PathCollection_6">
     <g>
      <use xlink:href="#m920b3d98ad" x="109" y="80.491563" style="fill: #ff7f0e; fill-opacity: 0.8; stroke: #ff7f0e; stroke-opacity: 0.8"/>
     </g>
    </g>
    <g id="text_15">
     <!-- Rakuda -->
     <g transform="translate(127 83.116563) scale(0.1 -0.1)">
      <defs>
       <path id="DejaVuSans-75" d="M 544 1381 
L 544 3500 
L 1119 3500 
L 1119 1403 
Q 1119 906 1312 657 
Q 1506 409 1894 409 
Q 2359 409 2629 706 
Q 2900 1003 2900 1516 
L 2900 3500 
L 3475 3500 
L 3475 0 
L 2900 0 
L 2900 538 
Q 2691 219 2414 64 
Q 2138 -91 1772 -91 
Q 1169 -91 856 284 
Q 544 659 544 1381 
z
M 1991 3584 
L 1991 3584 
z
" transform="scale(0.015625)"/>
      </defs>
      <use xlink:href="#DejaVuSans-52"/>
      <use xlink:href="#DejaVuSans-61" x="67.232422"/>
      <use xlink:href="#DejaVuSans-6b" x="128.511719"/>
      <use xlink:href="#DejaVuSans-75" x="183.296875"/>
      <use xlink:href="#DejaVuSans-64" x="246.675781"/>
      <use xlink:href="#DejaVuSans-61" x="310.152344"/>
     </g>
    </g>
    <g id="PathCollection_7">
     <g>
      <use xlink:href="#m827070d814" x="109" y="95.169688" style="fill: #2ca02c; fill-opacity: 0.8; stroke: #2ca02c; stroke-opacity: 0.8"/>
     </g>
    </g>
    <g id="text_16">
     <!-- Tengu-Bench -->
     <g transform="translate(127 97.794688) scale(0.1 -0.1)">
      <use xlink:href="#DejaVuSans-54"/>
      <use xlink:href="#DejaVuSans-65" x="44.083984"/>
      <use xlink:href="#DejaVuSans-6e" x="105.607422"/>
      <use xlink:href="#DejaVuSans-67" x="168.986328"/>
      <use xlink:href="#DejaVuSans-75" x="232.462891"/>
      <use xlink:href="#DejaVuSans-2d" x="295.841797"/>
      <use xlink:href="#DejaVuSans-42" x="328.300781"/>
      <use xlink:href="#DejaVuSans-65" x="396.904297"/>
      <use xlink:href="#DejaVuSans-6e" x="458.427734"/>
      <use xlink:href="#DejaVuSans-63" x="521.806641"/>
      <use xlink:href="#DejaVuSans-68" x="576.787109"/>
     </g>
    </g>
    <g id="PathCollection_8">
     <g>
      <use xlink:href="#m3781caa8ba" x="109" y="109.847813" style="fill: #d62728; fill-opacity: 0.8; stroke: #d62728; stroke-opacity: 0.8"/>
     </g>
    </g>
    <g id="text_17">
     <!-- MT-Bench -->
     <g transform="translate(127 112.472813) scale(0.1 -0.1)">
      <use xlink:href="#DejaVuSans-4d"/>
      <use xlink:href="#DejaVuSans-54" x="86.279297"/>
      <use xlink:href="#DejaVuSans-2d" x="138.238281"/>
      <use xlink:href="#DejaVuSans-42" x="170.697266"/>
      <use xlink:href="#DejaVuSans-65" x="239.300781"/>
      <use xlink:href="#DejaVuSans-6e" x="300.824219"/>
      <use xlink:href="#DejaVuSans-63" x="364.203125"/>
      <use xlink:href="#DejaVuSans-68" x="419.183594"/>
     </g>
    </g>
   </g>
  </g>
 </g>
 <defs>
  <clipPath id="pbc2b185bd8">
   <rect x="90" y="51.84" width="558" height="332.64"/>
  </clipPath>
 </defs>
</svg>
