<?xml version="1.0" encoding="utf-8" standalone="no"?>
<!DOCTYPE svg PUBLIC "-//W3C//DTD SVG 1.1//EN"
  "http://www.w3.org/Graphics/SVG/1.1/DTD/svg11.dtd">
<svg xmlns:xlink="http://www.w3.org/1999/xlink" width="720pt" height="432pt" viewBox="0 0 720 432" xmlns="http://www.w3.org/2000/svg" version="1.1">
 <metadata>
  <rdf:RDF xmlns:dc="http://purl.org/dc/elements/1.1/" xmlns:cc="http://creativecommons.org/ns#" xmlns:rdf="http://www.w3.org/1999/02/22-rdf-syntax-ns#">
   <cc:Work>
    <dc:type rdf:resource="http://purl.org/dc/dcmitype/StillImage"/>
    <dc:date>2025-11-25T17:20:48.064461</dc:date>
    <dc:format>image/svg+xml</dc:format>
    <dc:creator>
     <cc:Agent>
      <dc:title>Matplotlib v3.10.7, https://matplotlib.org/</dc:title>
     </cc:Agent>
    </dc:creator>
   </cc:Work>
  </rdf:RDF>
 </metadata>
 <defs>
  <style type="text/css">*{stroke-linejoin: round; stroke-linecap: butt}</style>
 </defs>
 <g id="figure_1">
  <g id="patch_1">
   <path d="M 0 432 
L 720 432 
L 720 0 
L 0 0 
z
" style="fill: #ffffff"/>
  </g>
  <g id="axes_1">
   <g id="patch_2">
    <path d="M 90 384.48 
L 648 384.48 
L 648 51.84 
L 90 51.84 
z
" style="fill: #ffffff"/>
   </g>
   <g id="PathCollection_1">
    <defs>
     <path id="m99722095a4" d="M 0 3 
C 0.795609 3 1.55874 2.683901 2.12132 2.12132 
C 2.683901 1.55874 3 0.795609 3 0 
C 3 -0.795609 2.683901 -1.55874 2.12132 -2.12132 
C 1.55874 -2.683901 0.795609 -3 0 -3 
C -0.795609 -3 -1.55874 -2.683901 -2.12132 -2.12132 
C -2.683901 -1.55874 -3 -0.795609 -3 0 
C -3 0.795609 -2.683901 1.55874 -2.12132 2.12132 
C -1.55874 2.683901 -0.795609 3 0 3 
z
" style="stroke: #1f77b4; stroke-opacity: 0.8"/>
    </defs>
    <g clip-path="url(#pcd25b9ab12)">
     <use xlink:href="#m99722095a4" x="115.363636" y="260.61851" style="fill: #1f77b4; fill-opacity: 0.8; stroke: #1f77b4; stroke-opacity: 0.8"/>
     <use xlink:href="#m99722095a4" x="173.928139" y="221.720963" style="fill: #1f77b4; fill-opacity: 0.8; stroke: #1f77b4; stroke-opacity: 0.8"/>
     <use xlink:href="#m99722095a4" x="208.186177" y="185.380401" style="fill: #1f77b4; fill-opacity: 0.8; stroke: #1f77b4; stroke-opacity: 0.8"/>
     <use xlink:href="#m99722095a4" x="232.492642" y="168.967587" style="fill: #1f77b4; fill-opacity: 0.8; stroke: #1f77b4; stroke-opacity: 0.8"/>
     <use xlink:href="#m99722095a4" x="251.346201" y="261.242476" style="fill: #1f77b4; fill-opacity: 0.8; stroke: #1f77b4; stroke-opacity: 0.8"/>
     <use xlink:href="#m99722095a4" x="266.75068" y="229.701452" style="fill: #1f77b4; fill-opacity: 0.8; stroke: #1f77b4; stroke-opacity: 0.8"/>
     <use xlink:href="#m99722095a4" x="279.774981" y="217.045523" style="fill: #1f77b4; fill-opacity: 0.8; stroke: #1f77b4; stroke-opacity: 0.8"/>
     <use xlink:href="#m99722095a4" x="291.057145" y="152.643256" style="fill: #1f77b4; fill-opacity: 0.8; stroke: #1f77b4; stroke-opacity: 0.8"/>
     <use xlink:href="#m99722095a4" x="301.008718" y="172.433849" style="fill: #1f77b4; fill-opacity: 0.8; stroke: #1f77b4; stroke-opacity: 0.8"/>
     <use xlink:href="#m99722095a4" x="309.910703" y="265.34959" style="fill: #1f77b4; fill-opacity: 0.8; stroke: #1f77b4; stroke-opacity: 0.8"/>
     <use xlink:href="#m99722095a4" x="325.315183" y="121.982054" style="fill: #1f77b4; fill-opacity: 0.8; stroke: #1f77b4; stroke-opacity: 0.8"/>
     <use xlink:href="#m99722095a4" x="332.078048" y="210.208319" style="fill: #1f77b4; fill-opacity: 0.8; stroke: #1f77b4; stroke-opacity: 0.8"/>
     <use xlink:href="#m99722095a4" x="338.339484" y="119.778667" style="fill: #1f77b4; fill-opacity: 0.8; stroke: #1f77b4; stroke-opacity: 0.8"/>
     <use xlink:href="#m99722095a4" x="354.743865" y="156.155774" style="fill: #1f77b4; fill-opacity: 0.8; stroke: #1f77b4; stroke-opacity: 0.8"/>
     <use xlink:href="#m99722095a4" x="368.475206" y="159.285377" style="fill: #1f77b4; fill-opacity: 0.8; stroke: #1f77b4; stroke-opacity: 0.8"/>
     <use xlink:href="#m99722095a4" x="376.528032" y="143.14836" style="fill: #1f77b4; fill-opacity: 0.8; stroke: #1f77b4; stroke-opacity: 0.8"/>
     <use xlink:href="#m99722095a4" x="383.879685" y="105.37307" style="fill: #1f77b4; fill-opacity: 0.8; stroke: #1f77b4; stroke-opacity: 0.8"/>
     <use xlink:href="#m99722095a4" x="393.831259" y="119.69834" style="fill: #1f77b4; fill-opacity: 0.8; stroke: #1f77b4; stroke-opacity: 0.8"/>
     <use xlink:href="#m99722095a4" x="402.733244" y="115.681577" style="fill: #1f77b4; fill-opacity: 0.8; stroke: #1f77b4; stroke-opacity: 0.8"/>
     <use xlink:href="#m99722095a4" x="408.18615" y="113.237483" style="fill: #1f77b4; fill-opacity: 0.8; stroke: #1f77b4; stroke-opacity: 0.8"/>
     <use xlink:href="#m99722095a4" x="415.757546" y="186.241531" style="fill: #1f77b4; fill-opacity: 0.8; stroke: #1f77b4; stroke-opacity: 0.8"/>
     <use xlink:href="#m99722095a4" x="474.322048" y="125.377015" style="fill: #1f77b4; fill-opacity: 0.8; stroke: #1f77b4; stroke-opacity: 0.8"/>
     <use xlink:href="#m99722095a4" x="476.702226" y="111.231348" style="fill: #1f77b4; fill-opacity: 0.8; stroke: #1f77b4; stroke-opacity: 0.8"/>
     <use xlink:href="#m99722095a4" x="504.45777" y="126.827968" style="fill: #1f77b4; fill-opacity: 0.8; stroke: #1f77b4; stroke-opacity: 0.8"/>
     <use xlink:href="#m99722095a4" x="519.86225" y="105.59312" style="fill: #1f77b4; fill-opacity: 0.8; stroke: #1f77b4; stroke-opacity: 0.8"/>
     <use xlink:href="#m99722095a4" x="550.279139" y="173.808693" style="fill: #1f77b4; fill-opacity: 0.8; stroke: #1f77b4; stroke-opacity: 0.8"/>
     <use xlink:href="#m99722095a4" x="576.647935" y="97.231211" style="fill: #1f77b4; fill-opacity: 0.8; stroke: #1f77b4; stroke-opacity: 0.8"/>
     <use xlink:href="#m99722095a4" x="607.855435" y="79.627193" style="fill: #1f77b4; fill-opacity: 0.8; stroke: #1f77b4; stroke-opacity: 0.8"/>
     <use xlink:href="#m99722095a4" x="622.636364" y="116.673455" style="fill: #1f77b4; fill-opacity: 0.8; stroke: #1f77b4; stroke-opacity: 0.8"/>
    </g>
   </g>
   <g id="PathCollection_2">
    <defs>
     <path id="m08d34f2912" d="M 0 3 
C 0.795609 3 1.55874 2.683901 2.12132 2.12132 
C 2.683901 1.55874 3 0.795609 3 0 
C 3 -0.795609 2.683901 -1.55874 2.12132 -2.12132 
C 1.55874 -2.683901 0.795609 -3 0 -3 
C -0.795609 -3 -1.55874 -2.683901 -2.12132 -2.12132 
C -2.683901 -1.55874 -3 -0.795609 -3 0 
C -3 0.795609 -2.683901 1.55874 -2.12132 2.12132 
C -1.55874 2.683901 -0.795609 3 0 3 
z
" style="stroke: #ff7f0e; stroke-opacity: 0.8"/>
    </defs>
    <g clip-path="url(#pcd25b9ab12)">
     <use xlink:href="#m08d34f2912" x="115.363636" y="258.47302" style="fill: #ff7f0e; fill-opacity: 0.8; stroke: #ff7f0e; stroke-opacity: 0.8"/>
     <use xlink:href="#m08d34f2912" x="173.928139" y="203.683035" style="fill: #ff7f0e; fill-opacity: 0.8; stroke: #ff7f0e; stroke-opacity: 0.8"/>
     <use xlink:href="#m08d34f2912" x="208.186177" y="199.555152" style="fill: #ff7f0e; fill-opacity: 0.8; stroke: #ff7f0e; stroke-opacity: 0.8"/>
     <use xlink:href="#m08d34f2912" x="232.492642" y="213.087659" style="fill: #ff7f0e; fill-opacity: 0.8; stroke: #ff7f0e; stroke-opacity: 0.8"/>
     <use xlink:href="#m08d34f2912" x="251.346201" y="242.232177" style="fill: #ff7f0e; fill-opacity: 0.8; stroke: #ff7f0e; stroke-opacity: 0.8"/>
     <use xlink:href="#m08d34f2912" x="266.75068" y="297.806999" style="fill: #ff7f0e; fill-opacity: 0.8; stroke: #ff7f0e; stroke-opacity: 0.8"/>
     <use xlink:href="#m08d34f2912" x="279.774981" y="212.135489" style="fill: #ff7f0e; fill-opacity: 0.8; stroke: #ff7f0e; stroke-opacity: 0.8"/>
     <use xlink:href="#m08d34f2912" x="291.057145" y="111.108097" style="fill: #ff7f0e; fill-opacity: 0.8; stroke: #ff7f0e; stroke-opacity: 0.8"/>
     <use xlink:href="#m08d34f2912" x="301.008718" y="158.935257" style="fill: #ff7f0e; fill-opacity: 0.8; stroke: #ff7f0e; stroke-opacity: 0.8"/>
     <use xlink:href="#m08d34f2912" x="309.910703" y="369.36" style="fill: #ff7f0e; fill-opacity: 0.8; stroke: #ff7f0e; stroke-opacity: 0.8"/>
     <use xlink:href="#m08d34f2912" x="325.315183" y="79.269299" style="fill: #ff7f0e; fill-opacity: 0.8; stroke: #ff7f0e; stroke-opacity: 0.8"/>
     <use xlink:href="#m08d34f2912" x="332.078048" y="194.235114" style="fill: #ff7f0e; fill-opacity: 0.8; stroke: #ff7f0e; stroke-opacity: 0.8"/>
     <use xlink:href="#m08d34f2912" x="338.339484" y="126.048785" style="fill: #ff7f0e; fill-opacity: 0.8; stroke: #ff7f0e; stroke-opacity: 0.8"/>
     <use xlink:href="#m08d34f2912" x="354.743865" y="137.999025" style="fill: #ff7f0e; fill-opacity: 0.8; stroke: #ff7f0e; stroke-opacity: 0.8"/>
     <use xlink:href="#m08d34f2912" x="368.475206" y="281.853357" style="fill: #ff7f0e; fill-opacity: 0.8; stroke: #ff7f0e; stroke-opacity: 0.8"/>
     <use xlink:href="#m08d34f2912" x="376.528032" y="75.165713" style="fill: #ff7f0e; fill-opacity: 0.8; stroke: #ff7f0e; stroke-opacity: 0.8"/>
     <use xlink:href="#m08d34f2912" x="383.879685" y="91.833143" style="fill: #ff7f0e; fill-opacity: 0.8; stroke: #ff7f0e; stroke-opacity: 0.8"/>
     <use xlink:href="#m08d34f2912" x="393.831259" y="107.408129" style="fill: #ff7f0e; fill-opacity: 0.8; stroke: #ff7f0e; stroke-opacity: 0.8"/>
     <use xlink:href="#m08d34f2912" x="402.733244" y="105.642442" style="fill: #ff7f0e; fill-opacity: 0.8; stroke: #ff7f0e; stroke-opacity: 0.8"/>
     <use xlink:href="#m08d34f2912" x="408.18615" y="120.441289" style="fill: #ff7f0e; fill-opacity: 0.8; stroke: #ff7f0e; stroke-opacity: 0.8"/>
     <use xlink:href="#m08d34f2912" x="415.757546" y="107.105532" style="fill: #ff7f0e; fill-opacity: 0.8; stroke: #ff7f0e; stroke-opacity: 0.8"/>
     <use xlink:href="#m08d34f2912" x="474.322048" y="105.961196" style="fill: #ff7f0e; fill-opacity: 0.8; stroke: #ff7f0e; stroke-opacity: 0.8"/>
     <use xlink:href="#m08d34f2912" x="476.702226" y="88.574994" style="fill: #ff7f0e; fill-opacity: 0.8; stroke: #ff7f0e; stroke-opacity: 0.8"/>
     <use xlink:href="#m08d34f2912" x="504.45777" y="119.346629" style="fill: #ff7f0e; fill-opacity: 0.8; stroke: #ff7f0e; stroke-opacity: 0.8"/>
     <use xlink:href="#m08d34f2912" x="519.86225" y="150.923468" style="fill: #ff7f0e; fill-opacity: 0.8; stroke: #ff7f0e; stroke-opacity: 0.8"/>
     <use xlink:href="#m08d34f2912" x="550.279139" y="98.142405" style="fill: #ff7f0e; fill-opacity: 0.8; stroke: #ff7f0e; stroke-opacity: 0.8"/>
     <use xlink:href="#m08d34f2912" x="576.647935" y="67.30438" style="fill: #ff7f0e; fill-opacity: 0.8; stroke: #ff7f0e; stroke-opacity: 0.8"/>
     <use xlink:href="#m08d34f2912" x="607.855435" y="73.905887" style="fill: #ff7f0e; fill-opacity: 0.8; stroke: #ff7f0e; stroke-opacity: 0.8"/>
     <use xlink:href="#m08d34f2912" x="622.636364" y="132.734975" style="fill: #ff7f0e; fill-opacity: 0.8; stroke: #ff7f0e; stroke-opacity: 0.8"/>
    </g>
   </g>
   <g id="PathCollection_3">
    <defs>
     <path id="m23473c3e42" d="M 0 3 
C 0.795609 3 1.55874 2.683901 2.12132 2.12132 
C 2.683901 1.55874 3 0.795609 3 0 
C 3 -0.795609 2.683901 -1.55874 2.12132 -2.12132 
C 1.55874 -2.683901 0.795609 -3 0 -3 
C -0.795609 -3 -1.55874 -2.683901 -2.12132 -2.12132 
C -2.683901 -1.55874 -3 -0.795609 -3 0 
C -3 0.795609 -2.683901 1.55874 -2.12132 2.12132 
C -1.55874 2.683901 -0.795609 3 0 3 
z
" style="stroke: #2ca02c; stroke-opacity: 0.8"/>
    </defs>
    <g clip-path="url(#pcd25b9ab12)">
     <use xlink:href="#m23473c3e42" x="115.363636" y="299.090625" style="fill: #2ca02c; fill-opacity: 0.8; stroke: #2ca02c; stroke-opacity: 0.8"/>
     <use xlink:href="#m23473c3e42" x="173.928139" y="244.713768" style="fill: #2ca02c; fill-opacity: 0.8; stroke: #2ca02c; stroke-opacity: 0.8"/>
     <use xlink:href="#m23473c3e42" x="208.186177" y="228.28335" style="fill: #2ca02c; fill-opacity: 0.8; stroke: #2ca02c; stroke-opacity: 0.8"/>
     <use xlink:href="#m23473c3e42" x="232.492642" y="212.904284" style="fill: #2ca02c; fill-opacity: 0.8; stroke: #2ca02c; stroke-opacity: 0.8"/>
     <use xlink:href="#m23473c3e42" x="251.346201" y="273.690279" style="fill: #2ca02c; fill-opacity: 0.8; stroke: #2ca02c; stroke-opacity: 0.8"/>
     <use xlink:href="#m23473c3e42" x="266.75068" y="258.381332" style="fill: #2ca02c; fill-opacity: 0.8; stroke: #2ca02c; stroke-opacity: 0.8"/>
     <use xlink:href="#m23473c3e42" x="279.774981" y="232.404356" style="fill: #2ca02c; fill-opacity: 0.8; stroke: #2ca02c; stroke-opacity: 0.8"/>
     <use xlink:href="#m23473c3e42" x="291.057145" y="176.094007" style="fill: #2ca02c; fill-opacity: 0.8; stroke: #2ca02c; stroke-opacity: 0.8"/>
     <use xlink:href="#m23473c3e42" x="301.008718" y="186.467039" style="fill: #2ca02c; fill-opacity: 0.8; stroke: #2ca02c; stroke-opacity: 0.8"/>
     <use xlink:href="#m23473c3e42" x="309.910703" y="275.019856" style="fill: #2ca02c; fill-opacity: 0.8; stroke: #2ca02c; stroke-opacity: 0.8"/>
     <use xlink:href="#m23473c3e42" x="325.315183" y="147.657764" style="fill: #2ca02c; fill-opacity: 0.8; stroke: #2ca02c; stroke-opacity: 0.8"/>
     <use xlink:href="#m23473c3e42" x="332.078048" y="219.716385" style="fill: #2ca02c; fill-opacity: 0.8; stroke: #2ca02c; stroke-opacity: 0.8"/>
     <use xlink:href="#m23473c3e42" x="338.339484" y="156.226654" style="fill: #2ca02c; fill-opacity: 0.8; stroke: #2ca02c; stroke-opacity: 0.8"/>
     <use xlink:href="#m23473c3e42" x="354.743865" y="183.197503" style="fill: #2ca02c; fill-opacity: 0.8; stroke: #2ca02c; stroke-opacity: 0.8"/>
     <use xlink:href="#m23473c3e42" x="368.475206" y="232.342055" style="fill: #2ca02c; fill-opacity: 0.8; stroke: #2ca02c; stroke-opacity: 0.8"/>
     <use xlink:href="#m23473c3e42" x="376.528032" y="161.631762" style="fill: #2ca02c; fill-opacity: 0.8; stroke: #2ca02c; stroke-opacity: 0.8"/>
     <use xlink:href="#m23473c3e42" x="383.879685" y="145.15219" style="fill: #2ca02c; fill-opacity: 0.8; stroke: #2ca02c; stroke-opacity: 0.8"/>
     <use xlink:href="#m23473c3e42" x="393.831259" y="144.642868" style="fill: #2ca02c; fill-opacity: 0.8; stroke: #2ca02c; stroke-opacity: 0.8"/>
     <use xlink:href="#m23473c3e42" x="402.733244" y="157.576696" style="fill: #2ca02c; fill-opacity: 0.8; stroke: #2ca02c; stroke-opacity: 0.8"/>
     <use xlink:href="#m23473c3e42" x="408.18615" y="153.88648" style="fill: #2ca02c; fill-opacity: 0.8; stroke: #2ca02c; stroke-opacity: 0.8"/>
     <use xlink:href="#m23473c3e42" x="415.757546" y="178.842342" style="fill: #2ca02c; fill-opacity: 0.8; stroke: #2ca02c; stroke-opacity: 0.8"/>
     <use xlink:href="#m23473c3e42" x="474.322048" y="161.362417" style="fill: #2ca02c; fill-opacity: 0.8; stroke: #2ca02c; stroke-opacity: 0.8"/>
     <use xlink:href="#m23473c3e42" x="476.702226" y="147.279413" style="fill: #2ca02c; fill-opacity: 0.8; stroke: #2ca02c; stroke-opacity: 0.8"/>
     <use xlink:href="#m23473c3e42" x="504.45777" y="161.513386" style="fill: #2ca02c; fill-opacity: 0.8; stroke: #2ca02c; stroke-opacity: 0.8"/>
     <use xlink:href="#m23473c3e42" x="519.86225" y="147.989465" style="fill: #2ca02c; fill-opacity: 0.8; stroke: #2ca02c; stroke-opacity: 0.8"/>
     <use xlink:href="#m23473c3e42" x="550.279139" y="184.481129" style="fill: #2ca02c; fill-opacity: 0.8; stroke: #2ca02c; stroke-opacity: 0.8"/>
     <use xlink:href="#m23473c3e42" x="576.647935" y="141.204583" style="fill: #2ca02c; fill-opacity: 0.8; stroke: #2ca02c; stroke-opacity: 0.8"/>
     <use xlink:href="#m23473c3e42" x="607.855435" y="133.594512" style="fill: #2ca02c; fill-opacity: 0.8; stroke: #2ca02c; stroke-opacity: 0.8"/>
     <use xlink:href="#m23473c3e42" x="622.636364" y="154.9584" style="fill: #2ca02c; fill-opacity: 0.8; stroke: #2ca02c; stroke-opacity: 0.8"/>
    </g>
   </g>
   <g id="PathCollection_4">
    <defs>
     <path id="mc41bdb0c38" d="M 0 3 
C 0.795609 3 1.55874 2.683901 2.12132 2.12132 
C 2.683901 1.55874 3 0.795609 3 0 
C 3 -0.795609 2.683901 -1.55874 2.12132 -2.12132 
C 1.55874 -2.683901 0.795609 -3 0 -3 
C -0.795609 -3 -1.55874 -2.683901 -2.12132 -2.12132 
C -2.683901 -1.55874 -3 -0.795609 -3 0 
C -3 0.795609 -2.683901 1.55874 -2.12132 2.12132 
C -1.55874 2.683901 -0.795609 3 0 3 
z
" style="stroke: #d62728; stroke-opacity: 0.8"/>
    </defs>
    <g clip-path="url(#pcd25b9ab12)">
     <use xlink:href="#mc41bdb0c38" x="115.363636" y="284.502973" style="fill: #d62728; fill-opacity: 0.8; stroke: #d62728; stroke-opacity: 0.8"/>
     <use xlink:href="#mc41bdb0c38" x="173.928139" y="219.796109" style="fill: #d62728; fill-opacity: 0.8; stroke: #d62728; stroke-opacity: 0.8"/>
     <use xlink:href="#mc41bdb0c38" x="208.186177" y="211.706903" style="fill: #d62728; fill-opacity: 0.8; stroke: #d62728; stroke-opacity: 0.8"/>
     <use xlink:href="#mc41bdb0c38" x="232.492642" y="183.197503" style="fill: #d62728; fill-opacity: 0.8; stroke: #d62728; stroke-opacity: 0.8"/>
     <use xlink:href="#mc41bdb0c38" x="251.346201" y="272.171968" style="fill: #d62728; fill-opacity: 0.8; stroke: #d62728; stroke-opacity: 0.8"/>
     <use xlink:href="#mc41bdb0c38" x="266.75068" y="264.77051" style="fill: #d62728; fill-opacity: 0.8; stroke: #d62728; stroke-opacity: 0.8"/>
     <use xlink:href="#mc41bdb0c38" x="279.774981" y="218.667511" style="fill: #d62728; fill-opacity: 0.8; stroke: #d62728; stroke-opacity: 0.8"/>
     <use xlink:href="#mc41bdb0c38" x="291.057145" y="132.69934" style="fill: #d62728; fill-opacity: 0.8; stroke: #d62728; stroke-opacity: 0.8"/>
     <use xlink:href="#mc41bdb0c38" x="301.008718" y="166.308919" style="fill: #d62728; fill-opacity: 0.8; stroke: #d62728; stroke-opacity: 0.8"/>
     <use xlink:href="#mc41bdb0c38" x="309.910703" y="296.706748" style="fill: #d62728; fill-opacity: 0.8; stroke: #d62728; stroke-opacity: 0.8"/>
     <use xlink:href="#mc41bdb0c38" x="325.315183" y="102.606019" style="fill: #d62728; fill-opacity: 0.8; stroke: #d62728; stroke-opacity: 0.8"/>
     <use xlink:href="#mc41bdb0c38" x="332.078048" y="200.288693" style="fill: #d62728; fill-opacity: 0.8; stroke: #d62728; stroke-opacity: 0.8"/>
     <use xlink:href="#mc41bdb0c38" x="338.339484" y="122.149221" style="fill: #d62728; fill-opacity: 0.8; stroke: #d62728; stroke-opacity: 0.8"/>
     <use xlink:href="#mc41bdb0c38" x="354.743865" y="157.07331" style="fill: #d62728; fill-opacity: 0.8; stroke: #d62728; stroke-opacity: 0.8"/>
     <use xlink:href="#mc41bdb0c38" x="368.475206" y="227.49349" style="fill: #d62728; fill-opacity: 0.8; stroke: #d62728; stroke-opacity: 0.8"/>
     <use xlink:href="#mc41bdb0c38" x="376.528032" y="124.51744" style="fill: #d62728; fill-opacity: 0.8; stroke: #d62728; stroke-opacity: 0.8"/>
     <use xlink:href="#mc41bdb0c38" x="383.879685" y="109.393207" style="fill: #d62728; fill-opacity: 0.8; stroke: #d62728; stroke-opacity: 0.8"/>
     <use xlink:href="#mc41bdb0c38" x="393.831259" y="103.872131" style="fill: #d62728; fill-opacity: 0.8; stroke: #d62728; stroke-opacity: 0.8"/>
     <use xlink:href="#mc41bdb0c38" x="402.733244" y="107.270662" style="fill: #d62728; fill-opacity: 0.8; stroke: #d62728; stroke-opacity: 0.8"/>
     <use xlink:href="#mc41bdb0c38" x="408.18615" y="118.273365" style="fill: #d62728; fill-opacity: 0.8; stroke: #d62728; stroke-opacity: 0.8"/>
     <use xlink:href="#mc41bdb0c38" x="415.757546" y="137.202944" style="fill: #d62728; fill-opacity: 0.8; stroke: #d62728; stroke-opacity: 0.8"/>
     <use xlink:href="#mc41bdb0c38" x="474.322048" y="115.291985" style="fill: #d62728; fill-opacity: 0.8; stroke: #d62728; stroke-opacity: 0.8"/>
     <use xlink:href="#mc41bdb0c38" x="476.702226" y="111.69546" style="fill: #d62728; fill-opacity: 0.8; stroke: #d62728; stroke-opacity: 0.8"/>
     <use xlink:href="#mc41bdb0c38" x="504.45777" y="140.440392" style="fill: #d62728; fill-opacity: 0.8; stroke: #d62728; stroke-opacity: 0.8"/>
     <use xlink:href="#mc41bdb0c38" x="519.86225" y="125.984442" style="fill: #d62728; fill-opacity: 0.8; stroke: #d62728; stroke-opacity: 0.8"/>
     <use xlink:href="#mc41bdb0c38" x="550.279139" y="154.307434" style="fill: #d62728; fill-opacity: 0.8; stroke: #d62728; stroke-opacity: 0.8"/>
     <use xlink:href="#mc41bdb0c38" x="576.647935" y="97.377911" style="fill: #d62728; fill-opacity: 0.8; stroke: #d62728; stroke-opacity: 0.8"/>
     <use xlink:href="#mc41bdb0c38" x="607.855435" y="91.491336" style="fill: #d62728; fill-opacity: 0.8; stroke: #d62728; stroke-opacity: 0.8"/>
     <use xlink:href="#mc41bdb0c38" x="622.636364" y="110.16101" style="fill: #d62728; fill-opacity: 0.8; stroke: #d62728; stroke-opacity: 0.8"/>
    </g>
   </g>
   <g id="matplotlib.axis_1">
    <g id="xtick_1">
     <g id="line2d_1">
      <defs>
       <path id="m373cb4a4f6" d="M 0 0 
L 0 3.5 
" style="stroke: #000000; stroke-width: 0.8"/>
      </defs>
      <g>
       <use xlink:href="#m373cb4a4f6" x="279.774981" y="384.48" style="stroke: #000000; stroke-width: 0.8"/>
      </g>
     </g>
     <g id="text_1">
      <!-- 7B -->
      <g transform="translate(273.163263 399.078438) scale(0.1 -0.1)">
       <defs>
        <path id="DejaVuSans-37" d="M 525 4666 
L 3525 4666 
L 3525 4397 
L 1831 0 
L 1172 0 
L 2766 4134 
L 525 4134 
L 525 4666 
z
" transform="scale(0.015625)"/>
        <path id="DejaVuSans-42" d="M 1259 2228 
L 1259 519 
L 2272 519 
Q 2781 519 3026 730 
Q 3272 941 3272 1375 
Q 3272 1813 3026 2020 
Q 2781 2228 2272 2228 
L 1259 2228 
z
M 1259 4147 
L 1259 2741 
L 2194 2741 
Q 2656 2741 2882 2914 
Q 3109 3088 3109 3444 
Q 3109 3797 2882 3972 
Q 2656 4147 2194 4147 
L 1259 4147 
z
M 628 4666 
L 2241 4666 
Q 2963 4666 3353 4366 
Q 3744 4066 3744 3513 
Q 3744 3084 3544 2831 
Q 3344 2578 2956 2516 
Q 3422 2416 3680 2098 
Q 3938 1781 3938 1306 
Q 3938 681 3513 340 
Q 3088 0 2303 0 
L 628 0 
L 628 4666 
z
" transform="scale(0.015625)"/>
       </defs>
       <use xlink:href="#DejaVuSans-37"/>
       <use xlink:href="#DejaVuSans-42" transform="translate(63.623047 0)"/>
      </g>
     </g>
    </g>
    <g id="xtick_2">
     <g id="line2d_2">
      <g>
       <use xlink:href="#m373cb4a4f6" x="332.078048" y="384.48" style="stroke: #000000; stroke-width: 0.8"/>
      </g>
     </g>
     <g id="text_2">
      <!-- 13B -->
      <g transform="translate(322.28508 399.078438) scale(0.1 -0.1)">
       <defs>
        <path id="DejaVuSans-31" d="M 794 531 
L 1825 531 
L 1825 4091 
L 703 3866 
L 703 4441 
L 1819 4666 
L 2450 4666 
L 2450 531 
L 3481 531 
L 3481 0 
L 794 0 
L 794 531 
z
" transform="scale(0.015625)"/>
        <path id="DejaVuSans-33" d="M 2597 2516 
Q 3050 2419 3304 2112 
Q 3559 1806 3559 1356 
Q 3559 666 3084 287 
Q 2609 -91 1734 -91 
Q 1441 -91 1130 -33 
Q 819 25 488 141 
L 488 750 
Q 750 597 1062 519 
Q 1375 441 1716 441 
Q 2309 441 2620 675 
Q 2931 909 2931 1356 
Q 2931 1769 2642 2001 
Q 2353 2234 1838 2234 
L 1294 2234 
L 1294 2753 
L 1863 2753 
Q 2328 2753 2575 2939 
Q 2822 3125 2822 3475 
Q 2822 3834 2567 4026 
Q 2313 4219 1838 4219 
Q 1578 4219 1281 4162 
Q 984 4106 628 3988 
L 628 4550 
Q 988 4650 1302 4700 
Q 1616 4750 1894 4750 
Q 2613 4750 3031 4423 
Q 3450 4097 3450 3541 
Q 3450 3153 3228 2886 
Q 3006 2619 2597 2516 
z
" transform="scale(0.015625)"/>
       </defs>
       <use xlink:href="#DejaVuSans-31"/>
       <use xlink:href="#DejaVuSans-33" transform="translate(63.623047 0)"/>
       <use xlink:href="#DejaVuSans-42" transform="translate(127.246094 0)"/>
      </g>
     </g>
    </g>
    <g id="xtick_3">
     <g id="line2d_3">
      <g>
       <use xlink:href="#m373cb4a4f6" x="408.18615" y="384.48" style="stroke: #000000; stroke-width: 0.8"/>
      </g>
     </g>
     <g id="text_3">
      <!-- 32B -->
      <g transform="translate(398.393181 399.078438) scale(0.1 -0.1)">
       <defs>
        <path id="DejaVuSans-32" d="M 1228 531 
L 3431 531 
L 3431 0 
L 469 0 
L 469 531 
Q 828 903 1448 1529 
Q 2069 2156 2228 2338 
Q 2531 2678 2651 2914 
Q 2772 3150 2772 3378 
Q 2772 3750 2511 3984 
Q 2250 4219 1831 4219 
Q 1534 4219 1204 4116 
Q 875 4013 500 3803 
L 500 4441 
Q 881 4594 1212 4672 
Q 1544 4750 1819 4750 
Q 2544 4750 2975 4387 
Q 3406 4025 3406 3419 
Q 3406 3131 3298 2873 
Q 3191 2616 2906 2266 
Q 2828 2175 2409 1742 
Q 1991 1309 1228 531 
z
" transform="scale(0.015625)"/>
       </defs>
       <use xlink:href="#DejaVuSans-33"/>
       <use xlink:href="#DejaVuSans-32" transform="translate(63.623047 0)"/>
       <use xlink:href="#DejaVuSans-42" transform="translate(127.246094 0)"/>
      </g>
     </g>
    </g>
    <g id="xtick_4">
     <g id="line2d_4">
      <g>
       <use xlink:href="#m373cb4a4f6" x="474.322048" y="384.48" style="stroke: #000000; stroke-width: 0.8"/>
      </g>
     </g>
     <g id="text_4">
      <!-- 70B -->
      <g transform="translate(464.52908 399.078438) scale(0.1 -0.1)">
       <defs>
        <path id="DejaVuSans-30" d="M 2034 4250 
Q 1547 4250 1301 3770 
Q 1056 3291 1056 2328 
Q 1056 1369 1301 889 
Q 1547 409 2034 409 
Q 2525 409 2770 889 
Q 3016 1369 3016 2328 
Q 3016 3291 2770 3770 
Q 2525 4250 2034 4250 
z
M 2034 4750 
Q 2819 4750 3233 4129 
Q 3647 3509 3647 2328 
Q 3647 1150 3233 529 
Q 2819 -91 2034 -91 
Q 1250 -91 836 529 
Q 422 1150 422 2328 
Q 422 3509 836 4129 
Q 1250 4750 2034 4750 
z
" transform="scale(0.015625)"/>
       </defs>
       <use xlink:href="#DejaVuSans-37"/>
       <use xlink:href="#DejaVuSans-30" transform="translate(63.623047 0)"/>
       <use xlink:href="#DejaVuSans-42" transform="translate(127.246094 0)"/>
      </g>
     </g>
    </g>
    <g id="text_5">
     <!-- model_size -->
     <g transform="translate(341.235937 412.756563) scale(0.1 -0.1)">
      <defs>
       <path id="DejaVuSans-6d" d="M 3328 2828 
Q 3544 3216 3844 3400 
Q 4144 3584 4550 3584 
Q 5097 3584 5394 3201 
Q 5691 2819 5691 2113 
L 5691 0 
L 5113 0 
L 5113 2094 
Q 5113 2597 4934 2840 
Q 4756 3084 4391 3084 
Q 3944 3084 3684 2787 
Q 3425 2491 3425 1978 
L 3425 0 
L 2847 0 
L 2847 2094 
Q 2847 2600 2669 2842 
Q 2491 3084 2119 3084 
Q 1678 3084 1418 2786 
Q 1159 2488 1159 1978 
L 1159 0 
L 581 0 
L 581 3500 
L 1159 3500 
L 1159 2956 
Q 1356 3278 1631 3431 
Q 1906 3584 2284 3584 
Q 2666 3584 2933 3390 
Q 3200 3197 3328 2828 
z
" transform="scale(0.015625)"/>
       <path id="DejaVuSans-6f" d="M 1959 3097 
Q 1497 3097 1228 2736 
Q 959 2375 959 1747 
Q 959 1119 1226 758 
Q 1494 397 1959 397 
Q 2419 397 2687 759 
Q 2956 1122 2956 1747 
Q 2956 2369 2687 2733 
Q 2419 3097 1959 3097 
z
M 1959 3584 
Q 2709 3584 3137 3096 
Q 3566 2609 3566 1747 
Q 3566 888 3137 398 
Q 2709 -91 1959 -91 
Q 1206 -91 779 398 
Q 353 888 353 1747 
Q 353 2609 779 3096 
Q 1206 3584 1959 3584 
z
" transform="scale(0.015625)"/>
       <path id="DejaVuSans-64" d="M 2906 2969 
L 2906 4863 
L 3481 4863 
L 3481 0 
L 2906 0 
L 2906 525 
Q 2725 213 2448 61 
Q 2172 -91 1784 -91 
Q 1150 -91 751 415 
Q 353 922 353 1747 
Q 353 2572 751 3078 
Q 1150 3584 1784 3584 
Q 2172 3584 2448 3432 
Q 2725 3281 2906 2969 
z
M 947 1747 
Q 947 1113 1208 752 
Q 1469 391 1925 391 
Q 2381 391 2643 752 
Q 2906 1113 2906 1747 
Q 2906 2381 2643 2742 
Q 2381 3103 1925 3103 
Q 1469 3103 1208 2742 
Q 947 2381 947 1747 
z
" transform="scale(0.015625)"/>
       <path id="DejaVuSans-65" d="M 3597 1894 
L 3597 1613 
L 953 1613 
Q 991 1019 1311 708 
Q 1631 397 2203 397 
Q 2534 397 2845 478 
Q 3156 559 3463 722 
L 3463 178 
Q 3153 47 2828 -22 
Q 2503 -91 2169 -91 
Q 1331 -91 842 396 
Q 353 884 353 1716 
Q 353 2575 817 3079 
Q 1281 3584 2069 3584 
Q 2775 3584 3186 3129 
Q 3597 2675 3597 1894 
z
M 3022 2063 
Q 3016 2534 2758 2815 
Q 2500 3097 2075 3097 
Q 1594 3097 1305 2825 
Q 1016 2553 972 2059 
L 3022 2063 
z
" transform="scale(0.015625)"/>
       <path id="DejaVuSans-6c" d="M 603 4863 
L 1178 4863 
L 1178 0 
L 603 0 
L 603 4863 
z
" transform="scale(0.015625)"/>
       <path id="DejaVuSans-5f" d="M 3263 -1063 
L 3263 -1509 
L -63 -1509 
L -63 -1063 
L 3263 -1063 
z
" transform="scale(0.015625)"/>
       <path id="DejaVuSans-73" d="M 2834 3397 
L 2834 2853 
Q 2591 2978 2328 3040 
Q 2066 3103 1784 3103 
Q 1356 3103 1142 2972 
Q 928 2841 928 2578 
Q 928 2378 1081 2264 
Q 1234 2150 1697 2047 
L 1894 2003 
Q 2506 1872 2764 1633 
Q 3022 1394 3022 966 
Q 3022 478 2636 193 
Q 2250 -91 1575 -91 
Q 1294 -91 989 -36 
Q 684 19 347 128 
L 347 722 
Q 666 556 975 473 
Q 1284 391 1588 391 
Q 1994 391 2212 530 
Q 2431 669 2431 922 
Q 2431 1156 2273 1281 
Q 2116 1406 1581 1522 
L 1381 1569 
Q 847 1681 609 1914 
Q 372 2147 372 2553 
Q 372 3047 722 3315 
Q 1072 3584 1716 3584 
Q 2034 3584 2315 3537 
Q 2597 3491 2834 3397 
z
" transform="scale(0.015625)"/>
       <path id="DejaVuSans-69" d="M 603 3500 
L 1178 3500 
L 1178 0 
L 603 0 
L 603 3500 
z
M 603 4863 
L 1178 4863 
L 1178 4134 
L 603 4134 
L 603 4863 
z
" transform="scale(0.015625)"/>
       <path id="DejaVuSans-7a" d="M 353 3500 
L 3084 3500 
L 3084 2975 
L 922 459 
L 3084 459 
L 3084 0 
L 275 0 
L 275 525 
L 2438 3041 
L 353 3041 
L 353 3500 
z
" transform="scale(0.015625)"/>
      </defs>
      <use xlink:href="#DejaVuSans-6d"/>
      <use xlink:href="#DejaVuSans-6f" transform="translate(97.412109 0)"/>
      <use xlink:href="#DejaVuSans-64" transform="translate(158.59375 0)"/>
      <use xlink:href="#DejaVuSans-65" transform="translate(222.070312 0)"/>
      <use xlink:href="#DejaVuSans-6c" transform="translate(283.59375 0)"/>
      <use xlink:href="#DejaVuSans-5f" transform="translate(311.376953 0)"/>
      <use xlink:href="#DejaVuSans-73" transform="translate(361.376953 0)"/>
      <use xlink:href="#DejaVuSans-69" transform="translate(413.476562 0)"/>
      <use xlink:href="#DejaVuSans-7a" transform="translate(441.259766 0)"/>
      <use xlink:href="#DejaVuSans-65" transform="translate(493.75 0)"/>
     </g>
    </g>
   </g>
   <g id="matplotlib.axis_2">
    <g id="ytick_1">
     <g id="line2d_5">
      <defs>
       <path id="m505afc00a4" d="M 0 0 
L -3.5 0 
" style="stroke: #000000; stroke-width: 0.8"/>
      </defs>
      <g>
       <use xlink:href="#m505afc00a4" x="90" y="342.367171" style="stroke: #000000; stroke-width: 0.8"/>
      </g>
     </g>
     <g id="text_6">
      <!-- 3 -->
      <g transform="translate(76.6375 346.16639) scale(0.1 -0.1)">
       <use xlink:href="#DejaVuSans-33"/>
      </g>
     </g>
    </g>
    <g id="ytick_2">
     <g id="line2d_6">
      <g>
       <use xlink:href="#m505afc00a4" x="90" y="298.357125" style="stroke: #000000; stroke-width: 0.8"/>
      </g>
     </g>
     <g id="text_7">
      <!-- 4 -->
      <g transform="translate(76.6375 302.156343) scale(0.1 -0.1)">
       <defs>
        <path id="DejaVuSans-34" d="M 2419 4116 
L 825 1625 
L 2419 1625 
L 2419 4116 
z
M 2253 4666 
L 3047 4666 
L 3047 1625 
L 3713 1625 
L 3713 1100 
L 3047 1100 
L 3047 0 
L 2419 0 
L 2419 1100 
L 313 1100 
L 313 1709 
L 2253 4666 
z
" transform="scale(0.015625)"/>
       </defs>
       <use xlink:href="#DejaVuSans-34"/>
      </g>
     </g>
    </g>
    <g id="ytick_3">
     <g id="line2d_7">
      <g>
       <use xlink:href="#m505afc00a4" x="90" y="254.347078" style="stroke: #000000; stroke-width: 0.8"/>
      </g>
     </g>
     <g id="text_8">
      <!-- 5 -->
      <g transform="translate(76.6375 258.146297) scale(0.1 -0.1)">
       <defs>
        <path id="DejaVuSans-35" d="M 691 4666 
L 3169 4666 
L 3169 4134 
L 1269 4134 
L 1269 2991 
Q 1406 3038 1543 3061 
Q 1681 3084 1819 3084 
Q 2600 3084 3056 2656 
Q 3513 2228 3513 1497 
Q 3513 744 3044 326 
Q 2575 -91 1722 -91 
Q 1428 -91 1123 -41 
Q 819 9 494 109 
L 494 744 
Q 775 591 1075 516 
Q 1375 441 1709 441 
Q 2250 441 2565 725 
Q 2881 1009 2881 1497 
Q 2881 1984 2565 2268 
Q 2250 2553 1709 2553 
Q 1456 2553 1204 2497 
Q 953 2441 691 2322 
L 691 4666 
z
" transform="scale(0.015625)"/>
       </defs>
       <use xlink:href="#DejaVuSans-35"/>
      </g>
     </g>
    </g>
    <g id="ytick_4">
     <g id="line2d_8">
      <g>
       <use xlink:href="#m505afc00a4" x="90" y="210.337031" style="stroke: #000000; stroke-width: 0.8"/>
      </g>
     </g>
     <g id="text_9">
      <!-- 6 -->
      <g transform="translate(76.6375 214.13625) scale(0.1 -0.1)">
       <defs>
        <path id="DejaVuSans-36" d="M 2113 2584 
Q 1688 2584 1439 2293 
Q 1191 2003 1191 1497 
Q 1191 994 1439 701 
Q 1688 409 2113 409 
Q 2538 409 2786 701 
Q 3034 994 3034 1497 
Q 3034 2003 2786 2293 
Q 2538 2584 2113 2584 
z
M 3366 4563 
L 3366 3988 
Q 3128 4100 2886 4159 
Q 2644 4219 2406 4219 
Q 1781 4219 1451 3797 
Q 1122 3375 1075 2522 
Q 1259 2794 1537 2939 
Q 1816 3084 2150 3084 
Q 2853 3084 3261 2657 
Q 3669 2231 3669 1497 
Q 3669 778 3244 343 
Q 2819 -91 2113 -91 
Q 1303 -91 875 529 
Q 447 1150 447 2328 
Q 447 3434 972 4092 
Q 1497 4750 2381 4750 
Q 2619 4750 2861 4703 
Q 3103 4656 3366 4563 
z
" transform="scale(0.015625)"/>
       </defs>
       <use xlink:href="#DejaVuSans-36"/>
      </g>
     </g>
    </g>
    <g id="ytick_5">
     <g id="line2d_9">
      <g>
       <use xlink:href="#m505afc00a4" x="90" y="166.326985" style="stroke: #000000; stroke-width: 0.8"/>
      </g>
     </g>
     <g id="text_10">
      <!-- 7 -->
      <g transform="translate(76.6375 170.126203) scale(0.1 -0.1)">
       <use xlink:href="#DejaVuSans-37"/>
      </g>
     </g>
    </g>
    <g id="ytick_6">
     <g id="line2d_10">
      <g>
       <use xlink:href="#m505afc00a4" x="90" y="122.316938" style="stroke: #000000; stroke-width: 0.8"/>
      </g>
     </g>
     <g id="text_11">
      <!-- 8 -->
      <g transform="translate(76.6375 126.116157) scale(0.1 -0.1)">
       <defs>
        <path id="DejaVuSans-38" d="M 2034 2216 
Q 1584 2216 1326 1975 
Q 1069 1734 1069 1313 
Q 1069 891 1326 650 
Q 1584 409 2034 409 
Q 2484 409 2743 651 
Q 3003 894 3003 1313 
Q 3003 1734 2745 1975 
Q 2488 2216 2034 2216 
z
M 1403 2484 
Q 997 2584 770 2862 
Q 544 3141 544 3541 
Q 544 4100 942 4425 
Q 1341 4750 2034 4750 
Q 2731 4750 3128 4425 
Q 3525 4100 3525 3541 
Q 3525 3141 3298 2862 
Q 3072 2584 2669 2484 
Q 3125 2378 3379 2068 
Q 3634 1759 3634 1313 
Q 3634 634 3220 271 
Q 2806 -91 2034 -91 
Q 1263 -91 848 271 
Q 434 634 434 1313 
Q 434 1759 690 2068 
Q 947 2378 1403 2484 
z
M 1172 3481 
Q 1172 3119 1398 2916 
Q 1625 2713 2034 2713 
Q 2441 2713 2670 2916 
Q 2900 3119 2900 3481 
Q 2900 3844 2670 4047 
Q 2441 4250 2034 4250 
Q 1625 4250 1398 4047 
Q 1172 3844 1172 3481 
z
" transform="scale(0.015625)"/>
       </defs>
       <use xlink:href="#DejaVuSans-38"/>
      </g>
     </g>
    </g>
    <g id="ytick_7">
     <g id="line2d_11">
      <g>
       <use xlink:href="#m505afc00a4" x="90" y="78.306891" style="stroke: #000000; stroke-width: 0.8"/>
      </g>
     </g>
     <g id="text_12">
      <!-- 9 -->
      <g transform="translate(76.6375 82.10611) scale(0.1 -0.1)">
       <defs>
        <path id="DejaVuSans-39" d="M 703 97 
L 703 672 
Q 941 559 1184 500 
Q 1428 441 1663 441 
Q 2288 441 2617 861 
Q 2947 1281 2994 2138 
Q 2813 1869 2534 1725 
Q 2256 1581 1919 1581 
Q 1219 1581 811 2004 
Q 403 2428 403 3163 
Q 403 3881 828 4315 
Q 1253 4750 1959 4750 
Q 2769 4750 3195 4129 
Q 3622 3509 3622 2328 
Q 3622 1225 3098 567 
Q 2575 -91 1691 -91 
Q 1453 -91 1209 -44 
Q 966 3 703 97 
z
M 1959 2075 
Q 2384 2075 2632 2365 
Q 2881 2656 2881 3163 
Q 2881 3666 2632 3958 
Q 2384 4250 1959 4250 
Q 1534 4250 1286 3958 
Q 1038 3666 1038 3163 
Q 1038 2656 1286 2365 
Q 1534 2075 1959 2075 
z
" transform="scale(0.015625)"/>
       </defs>
       <use xlink:href="#DejaVuSans-39"/>
      </g>
     </g>
    </g>
    <g id="text_13">
     <!-- MT-Bench -->
     <g transform="translate(70.557812 242.288125) rotate(-90) scale(0.1 -0.1)">
      <defs>
       <path id="DejaVuSans-4d" d="M 628 4666 
L 1569 4666 
L 2759 1491 
L 3956 4666 
L 4897 4666 
L 4897 0 
L 4281 0 
L 4281 4097 
L 3078 897 
L 2444 897 
L 1241 4097 
L 1241 0 
L 628 0 
L 628 4666 
z
" transform="scale(0.015625)"/>
       <path id="DejaVuSans-54" d="M -19 4666 
L 3928 4666 
L 3928 4134 
L 2272 4134 
L 2272 0 
L 1638 0 
L 1638 4134 
L -19 4134 
L -19 4666 
z
" transform="scale(0.015625)"/>
       <path id="DejaVuSans-2d" d="M 313 2009 
L 1997 2009 
L 1997 1497 
L 313 1497 
L 313 2009 
z
" transform="scale(0.015625)"/>
       <path id="DejaVuSans-6e" d="M 3513 2113 
L 3513 0 
L 2938 0 
L 2938 2094 
Q 2938 2591 2744 2837 
Q 2550 3084 2163 3084 
Q 1697 3084 1428 2787 
Q 1159 2491 1159 1978 
L 1159 0 
L 581 0 
L 581 3500 
L 1159 3500 
L 1159 2956 
Q 1366 3272 1645 3428 
Q 1925 3584 2291 3584 
Q 2894 3584 3203 3211 
Q 3513 2838 3513 2113 
z
" transform="scale(0.015625)"/>
       <path id="DejaVuSans-63" d="M 3122 3366 
L 3122 2828 
Q 2878 2963 2633 3030 
Q 2388 3097 2138 3097 
Q 1578 3097 1268 2742 
Q 959 2388 959 1747 
Q 959 1106 1268 751 
Q 1578 397 2138 397 
Q 2388 397 2633 464 
Q 2878 531 3122 666 
L 3122 134 
Q 2881 22 2623 -34 
Q 2366 -91 2075 -91 
Q 1284 -91 818 406 
Q 353 903 353 1747 
Q 353 2603 823 3093 
Q 1294 3584 2113 3584 
Q 2378 3584 2631 3529 
Q 2884 3475 3122 3366 
z
" transform="scale(0.015625)"/>
       <path id="DejaVuSans-68" d="M 3513 2113 
L 3513 0 
L 2938 0 
L 2938 2094 
Q 2938 2591 2744 2837 
Q 2550 3084 2163 3084 
Q 1697 3084 1428 2787 
Q 1159 2491 1159 1978 
L 1159 0 
L 581 0 
L 581 4863 
L 1159 4863 
L 1159 2956 
Q 1366 3272 1645 3428 
Q 1925 3584 2291 3584 
Q 2894 3584 3203 3211 
Q 3513 2838 3513 2113 
z
" transform="scale(0.015625)"/>
      </defs>
      <use xlink:href="#DejaVuSans-4d"/>
      <use xlink:href="#DejaVuSans-54" transform="translate(86.279297 0)"/>
      <use xlink:href="#DejaVuSans-2d" transform="translate(138.238281 0)"/>
      <use xlink:href="#DejaVuSans-42" transform="translate(170.697266 0)"/>
      <use xlink:href="#DejaVuSans-65" transform="translate(239.300781 0)"/>
      <use xlink:href="#DejaVuSans-6e" transform="translate(300.824219 0)"/>
      <use xlink:href="#DejaVuSans-63" transform="translate(364.203125 0)"/>
      <use xlink:href="#DejaVuSans-68" transform="translate(419.183594 0)"/>
     </g>
    </g>
   </g>
   <g id="line2d_12">
    <path d="M 115.363636 236.88531 
L 120.487603 235.353342 
L 125.61157 233.821375 
L 130.735537 232.289407 
L 135.859504 230.75744 
L 140.983471 229.225472 
L 146.107438 227.693504 
L 151.231405 226.161537 
L 156.355372 224.629569 
L 161.479339 223.097602 
L 166.603306 221.565634 
L 171.727273 220.033667 
L 176.85124 218.501699 
L 181.975207 216.969732 
L 187.099174 215.437764 
L 192.22314 213.905797 
L 197.347107 212.373829 
L 202.471074 210.841861 
L 207.595041 209.309894 
L 212.719008 207.777926 
L 217.842975 206.245959 
L 222.966942 204.713991 
L 228.090909 203.182024 
L 233.214876 201.650056 
L 238.338843 200.118089 
L 243.46281 198.586121 
L 248.586777 197.054154 
L 253.710744 195.522186 
L 258.834711 193.990218 
L 263.958678 192.458251 
L 269.082645 190.926283 
L 274.206612 189.394316 
L 279.330579 187.862348 
L 284.454545 186.330381 
L 289.578512 184.798413 
L 294.702479 183.266446 
L 299.826446 181.734478 
L 304.950413 180.202511 
L 310.07438 178.670543 
L 315.198347 177.138575 
L 320.322314 175.606608 
L 325.446281 174.07464 
L 330.570248 172.542673 
L 335.694215 171.010705 
L 340.818182 169.478738 
L 345.942149 167.94677 
L 351.066116 166.414803 
L 356.190083 164.882835 
L 361.31405 163.350868 
L 366.438017 161.8189 
L 371.561983 160.286933 
L 376.68595 158.754965 
L 381.809917 157.222997 
L 386.933884 155.69103 
L 392.057851 154.159062 
L 397.181818 152.627095 
L 402.305785 151.095127 
L 407.429752 149.56316 
L 412.553719 148.031192 
L 417.677686 146.499225 
L 422.801653 144.967257 
L 427.92562 143.43529 
L 433.049587 141.903322 
L 438.173554 140.371354 
L 443.297521 138.839387 
L 448.421488 137.307419 
L 453.545455 135.775452 
L 458.669421 134.243484 
L 463.793388 132.711517 
L 468.917355 131.179549 
L 474.041322 129.647582 
L 479.165289 128.115614 
L 484.289256 126.583647 
L 489.413223 125.051679 
L 494.53719 123.519711 
L 499.661157 121.987744 
L 504.785124 120.455776 
L 509.909091 118.923809 
L 515.033058 117.391841 
L 520.157025 115.859874 
L 525.280992 114.327906 
L 530.404959 112.795939 
L 535.528926 111.263971 
L 540.652893 109.732004 
L 545.77686 108.200036 
L 550.900826 106.668068 
L 556.024793 105.136101 
L 561.14876 103.604133 
L 566.272727 102.072166 
L 571.396694 100.540198 
L 576.520661 99.008231 
L 581.644628 97.476263 
L 586.768595 95.944296 
L 591.892562 94.412328 
L 597.016529 92.880361 
L 602.140496 91.348393 
L 607.264463 89.816425 
L 612.38843 88.284458 
L 617.512397 86.75249 
L 622.636364 85.220523 
" clip-path="url(#pcd25b9ab12)" style="fill: none; stroke: #1f77b4; stroke-width: 2.25; stroke-linecap: square"/>
   </g>
   <g id="line2d_13">
    <path d="M 115.363636 249.478827 
L 120.487603 247.635202 
L 125.61157 245.791578 
L 130.735537 243.947953 
L 135.859504 242.104329 
L 140.983471 240.260704 
L 146.107438 238.41708 
L 151.231405 236.573455 
L 156.355372 234.729831 
L 161.479339 232.886206 
L 166.603306 231.042582 
L 171.727273 229.198957 
L 176.85124 227.355333 
L 181.975207 225.511708 
L 187.099174 223.668083 
L 192.22314 221.824459 
L 197.347107 219.980834 
L 202.471074 218.13721 
L 207.595041 216.293585 
L 212.719008 214.449961 
L 217.842975 212.606336 
L 222.966942 210.762712 
L 228.090909 208.919087 
L 233.214876 207.075463 
L 238.338843 205.231838 
L 243.46281 203.388214 
L 248.586777 201.544589 
L 253.710744 199.700965 
L 258.834711 197.85734 
L 263.958678 196.013716 
L 269.082645 194.170091 
L 274.206612 192.326467 
L 279.330579 190.482842 
L 284.454545 188.639218 
L 289.578512 186.795593 
L 294.702479 184.951969 
L 299.826446 183.108344 
L 304.950413 181.26472 
L 310.07438 179.421095 
L 315.198347 177.577471 
L 320.322314 175.733846 
L 325.446281 173.890222 
L 330.570248 172.046597 
L 335.694215 170.202973 
L 340.818182 168.359348 
L 345.942149 166.515724 
L 351.066116 164.672099 
L 356.190083 162.828475 
L 361.31405 160.98485 
L 366.438017 159.141226 
L 371.561983 157.297601 
L 376.68595 155.453977 
L 381.809917 153.610352 
L 386.933884 151.766728 
L 392.057851 149.923103 
L 397.181818 148.079479 
L 402.305785 146.235854 
L 407.429752 144.392229 
L 412.553719 142.548605 
L 417.677686 140.70498 
L 422.801653 138.861356 
L 427.92562 137.017731 
L 433.049587 135.174107 
L 438.173554 133.330482 
L 443.297521 131.486858 
L 448.421488 129.643233 
L 453.545455 127.799609 
L 458.669421 125.955984 
L 463.793388 124.11236 
L 468.917355 122.268735 
L 474.041322 120.425111 
L 479.165289 118.581486 
L 484.289256 116.737862 
L 489.413223 114.894237 
L 494.53719 113.050613 
L 499.661157 111.206988 
L 504.785124 109.363364 
L 509.909091 107.519739 
L 515.033058 105.676115 
L 520.157025 103.83249 
L 525.280992 101.988866 
L 530.404959 100.145241 
L 535.528926 98.301617 
L 540.652893 96.457992 
L 545.77686 94.614368 
L 550.900826 92.770743 
L 556.024793 90.927119 
L 561.14876 89.083494 
L 566.272727 87.23987 
L 571.396694 85.396245 
L 576.520661 83.552621 
L 581.644628 81.708996 
L 586.768595 79.865372 
L 591.892562 78.021747 
L 597.016529 76.178123 
L 602.140496 74.334498 
L 607.264463 72.490874 
L 612.38843 70.647249 
L 617.512397 68.803625 
L 622.636364 66.96 
" clip-path="url(#pcd25b9ab12)" style="fill: none; stroke: #ff7f0e; stroke-width: 2.25; stroke-linecap: square"/>
   </g>
   <g id="line2d_14">
    <path d="M 115.363636 260.298708 
L 120.487603 258.902426 
L 125.61157 257.506144 
L 130.735537 256.109862 
L 135.859504 254.71358 
L 140.983471 253.317299 
L 146.107438 251.921017 
L 151.231405 250.524735 
L 156.355372 249.128453 
L 161.479339 247.732172 
L 166.603306 246.33589 
L 171.727273 244.939608 
L 176.85124 243.543326 
L 181.975207 242.147044 
L 187.099174 240.750763 
L 192.22314 239.354481 
L 197.347107 237.958199 
L 202.471074 236.561917 
L 207.595041 235.165635 
L 212.719008 233.769354 
L 217.842975 232.373072 
L 222.966942 230.97679 
L 228.090909 229.580508 
L 233.214876 228.184227 
L 238.338843 226.787945 
L 243.46281 225.391663 
L 248.586777 223.995381 
L 253.710744 222.599099 
L 258.834711 221.202818 
L 263.958678 219.806536 
L 269.082645 218.410254 
L 274.206612 217.013972 
L 279.330579 215.617691 
L 284.454545 214.221409 
L 289.578512 212.825127 
L 294.702479 211.428845 
L 299.826446 210.032563 
L 304.950413 208.636282 
L 310.07438 207.24 
L 315.198347 205.843718 
L 320.322314 204.447436 
L 325.446281 203.051154 
L 330.570248 201.654873 
L 335.694215 200.258591 
L 340.818182 198.862309 
L 345.942149 197.466027 
L 351.066116 196.069746 
L 356.190083 194.673464 
L 361.31405 193.277182 
L 366.438017 191.8809 
L 371.561983 190.484618 
L 376.68595 189.088337 
L 381.809917 187.692055 
L 386.933884 186.295773 
L 392.057851 184.899491 
L 397.181818 183.50321 
L 402.305785 182.106928 
L 407.429752 180.710646 
L 412.553719 179.314364 
L 417.677686 177.918082 
L 422.801653 176.521801 
L 427.92562 175.125519 
L 433.049587 173.729237 
L 438.173554 172.332955 
L 443.297521 170.936673 
L 448.421488 169.540392 
L 453.545455 168.14411 
L 458.669421 166.747828 
L 463.793388 165.351546 
L 468.917355 163.955265 
L 474.041322 162.558983 
L 479.165289 161.162701 
L 484.289256 159.766419 
L 489.413223 158.370137 
L 494.53719 156.973856 
L 499.661157 155.577574 
L 504.785124 154.181292 
L 509.909091 152.78501 
L 515.033058 151.388729 
L 520.157025 149.992447 
L 525.280992 148.596165 
L 530.404959 147.199883 
L 535.528926 145.803601 
L 540.652893 144.40732 
L 545.77686 143.011038 
L 550.900826 141.614756 
L 556.024793 140.218474 
L 561.14876 138.822193 
L 566.272727 137.425911 
L 571.396694 136.029629 
L 576.520661 134.633347 
L 581.644628 133.237065 
L 586.768595 131.840784 
L 591.892562 130.444502 
L 597.016529 129.04822 
L 602.140496 127.651938 
L 607.264463 126.255656 
L 612.38843 124.859375 
L 617.512397 123.463093 
L 622.636364 122.066811 
" clip-path="url(#pcd25b9ab12)" style="fill: none; stroke: #2ca02c; stroke-width: 2.25; stroke-linecap: square"/>
   </g>
   <g id="line2d_15">
    <path d="M 115.363636 249.55091 
L 120.487603 247.826614 
L 125.61157 246.102318 
L 130.735537 244.378022 
L 135.859504 242.653725 
L 140.983471 240.929429 
L 146.107438 239.205133 
L 151.231405 237.480837 
L 156.355372 235.756541 
L 161.479339 234.032245 
L 166.603306 232.307949 
L 171.727273 230.583653 
L 176.85124 228.859357 
L 181.975207 227.135061 
L 187.099174 225.410765 
L 192.22314 223.686469 
L 197.347107 221.962173 
L 202.471074 220.237877 
L 207.595041 218.513581 
L 212.719008 216.789285 
L 217.842975 215.064988 
L 222.966942 213.340692 
L 228.090909 211.616396 
L 233.214876 209.8921 
L 238.338843 208.167804 
L 243.46281 206.443508 
L 248.586777 204.719212 
L 253.710744 202.994916 
L 258.834711 201.27062 
L 263.958678 199.546324 
L 269.082645 197.822028 
L 274.206612 196.097732 
L 279.330579 194.373436 
L 284.454545 192.64914 
L 289.578512 190.924844 
L 294.702479 189.200548 
L 299.826446 187.476251 
L 304.950413 185.751955 
L 310.07438 184.027659 
L 315.198347 182.303363 
L 320.322314 180.579067 
L 325.446281 178.854771 
L 330.570248 177.130475 
L 335.694215 175.406179 
L 340.818182 173.681883 
L 345.942149 171.957587 
L 351.066116 170.233291 
L 356.190083 168.508995 
L 361.31405 166.784699 
L 366.438017 165.060403 
L 371.561983 163.336107 
L 376.68595 161.611811 
L 381.809917 159.887514 
L 386.933884 158.163218 
L 392.057851 156.438922 
L 397.181818 154.714626 
L 402.305785 152.99033 
L 407.429752 151.266034 
L 412.553719 149.541738 
L 417.677686 147.817442 
L 422.801653 146.093146 
L 427.92562 144.36885 
L 433.049587 142.644554 
L 438.173554 140.920258 
L 443.297521 139.195962 
L 448.421488 137.471666 
L 453.545455 135.74737 
L 458.669421 134.023074 
L 463.793388 132.298778 
L 468.917355 130.574481 
L 474.041322 128.850185 
L 479.165289 127.125889 
L 484.289256 125.401593 
L 489.413223 123.677297 
L 494.53719 121.953001 
L 499.661157 120.228705 
L 504.785124 118.504409 
L 509.909091 116.780113 
L 515.033058 115.055817 
L 520.157025 113.331521 
L 525.280992 111.607225 
L 530.404959 109.882929 
L 535.528926 108.158633 
L 540.652893 106.434337 
L 545.77686 104.710041 
L 550.900826 102.985744 
L 556.024793 101.261448 
L 561.14876 99.537152 
L 566.272727 97.812856 
L 571.396694 96.08856 
L 576.520661 94.364264 
L 581.644628 92.639968 
L 586.768595 90.915672 
L 591.892562 89.191376 
L 597.016529 87.46708 
L 602.140496 85.742784 
L 607.264463 84.018488 
L 612.38843 82.294192 
L 617.512397 80.569896 
L 622.636364 78.8456 
" clip-path="url(#pcd25b9ab12)" style="fill: none; stroke: #d62728; stroke-width: 2.25; stroke-linecap: square"/>
   </g>
   <g id="patch_3">
    <path d="M 90 384.48 
L 90 51.84 
" style="fill: none; stroke: #000000; stroke-width: 0.8; stroke-linejoin: miter; stroke-linecap: square"/>
   </g>
   <g id="patch_4">
    <path d="M 648 384.48 
L 648 51.84 
" style="fill: none; stroke: #000000; stroke-width: 0.8; stroke-linejoin: miter; stroke-linecap: square"/>
   </g>
   <g id="patch_5">
    <path d="M 90 384.48 
L 648 384.48 
" style="fill: none; stroke: #000000; stroke-width: 0.8; stroke-linejoin: miter; stroke-linecap: square"/>
   </g>
   <g id="patch_6">
    <path d="M 90 51.84 
L 648 51.84 
" style="fill: none; stroke: #000000; stroke-width: 0.8; stroke-linejoin: miter; stroke-linecap: square"/>
   </g>
   <g id="text_14">
    <!-- Model Size vs Scores with Regression Lines -->
    <g transform="translate(239.446875 45.84) scale(0.12 -0.12)">
     <defs>
      <path id="DejaVuSans-20" transform="scale(0.015625)"/>
      <path id="DejaVuSans-53" d="M 3425 4513 
L 3425 3897 
Q 3066 4069 2747 4153 
Q 2428 4238 2131 4238 
Q 1616 4238 1336 4038 
Q 1056 3838 1056 3469 
Q 1056 3159 1242 3001 
Q 1428 2844 1947 2747 
L 2328 2669 
Q 3034 2534 3370 2195 
Q 3706 1856 3706 1288 
Q 3706 609 3251 259 
Q 2797 -91 1919 -91 
Q 1588 -91 1214 -16 
Q 841 59 441 206 
L 441 856 
Q 825 641 1194 531 
Q 1563 422 1919 422 
Q 2459 422 2753 634 
Q 3047 847 3047 1241 
Q 3047 1584 2836 1778 
Q 2625 1972 2144 2069 
L 1759 2144 
Q 1053 2284 737 2584 
Q 422 2884 422 3419 
Q 422 4038 858 4394 
Q 1294 4750 2059 4750 
Q 2388 4750 2728 4690 
Q 3069 4631 3425 4513 
z
" transform="scale(0.015625)"/>
      <path id="DejaVuSans-76" d="M 191 3500 
L 800 3500 
L 1894 563 
L 2988 3500 
L 3597 3500 
L 2284 0 
L 1503 0 
L 191 3500 
z
" transform="scale(0.015625)"/>
      <path id="DejaVuSans-72" d="M 2631 2963 
Q 2534 3019 2420 3045 
Q 2306 3072 2169 3072 
Q 1681 3072 1420 2755 
Q 1159 2438 1159 1844 
L 1159 0 
L 581 0 
L 581 3500 
L 1159 3500 
L 1159 2956 
Q 1341 3275 1631 3429 
Q 1922 3584 2338 3584 
Q 2397 3584 2469 3576 
Q 2541 3569 2628 3553 
L 2631 2963 
z
" transform="scale(0.015625)"/>
      <path id="DejaVuSans-77" d="M 269 3500 
L 844 3500 
L 1563 769 
L 2278 3500 
L 2956 3500 
L 3675 769 
L 4391 3500 
L 4966 3500 
L 4050 0 
L 3372 0 
L 2619 2869 
L 1863 0 
L 1184 0 
L 269 3500 
z
" transform="scale(0.015625)"/>
      <path id="DejaVuSans-74" d="M 1172 4494 
L 1172 3500 
L 2356 3500 
L 2356 3053 
L 1172 3053 
L 1172 1153 
Q 1172 725 1289 603 
Q 1406 481 1766 481 
L 2356 481 
L 2356 0 
L 1766 0 
Q 1100 0 847 248 
Q 594 497 594 1153 
L 594 3053 
L 172 3053 
L 172 3500 
L 594 3500 
L 594 4494 
L 1172 4494 
z
" transform="scale(0.015625)"/>
      <path id="DejaVuSans-52" d="M 2841 2188 
Q 3044 2119 3236 1894 
Q 3428 1669 3622 1275 
L 4263 0 
L 3584 0 
L 2988 1197 
Q 2756 1666 2539 1819 
Q 2322 1972 1947 1972 
L 1259 1972 
L 1259 0 
L 628 0 
L 628 4666 
L 2053 4666 
Q 2853 4666 3247 4331 
Q 3641 3997 3641 3322 
Q 3641 2881 3436 2590 
Q 3231 2300 2841 2188 
z
M 1259 4147 
L 1259 2491 
L 2053 2491 
Q 2509 2491 2742 2702 
Q 2975 2913 2975 3322 
Q 2975 3731 2742 3939 
Q 2509 4147 2053 4147 
L 1259 4147 
z
" transform="scale(0.015625)"/>
      <path id="DejaVuSans-67" d="M 2906 1791 
Q 2906 2416 2648 2759 
Q 2391 3103 1925 3103 
Q 1463 3103 1205 2759 
Q 947 2416 947 1791 
Q 947 1169 1205 825 
Q 1463 481 1925 481 
Q 2391 481 2648 825 
Q 2906 1169 2906 1791 
z
M 3481 434 
Q 3481 -459 3084 -895 
Q 2688 -1331 1869 -1331 
Q 1566 -1331 1297 -1286 
Q 1028 -1241 775 -1147 
L 775 -588 
Q 1028 -725 1275 -790 
Q 1522 -856 1778 -856 
Q 2344 -856 2625 -561 
Q 2906 -266 2906 331 
L 2906 616 
Q 2728 306 2450 153 
Q 2172 0 1784 0 
Q 1141 0 747 490 
Q 353 981 353 1791 
Q 353 2603 747 3093 
Q 1141 3584 1784 3584 
Q 2172 3584 2450 3431 
Q 2728 3278 2906 2969 
L 2906 3500 
L 3481 3500 
L 3481 434 
z
" transform="scale(0.015625)"/>
      <path id="DejaVuSans-4c" d="M 628 4666 
L 1259 4666 
L 1259 531 
L 3531 531 
L 3531 0 
L 628 0 
L 628 4666 
z
" transform="scale(0.015625)"/>
     </defs>
     <use xlink:href="#DejaVuSans-4d"/>
     <use xlink:href="#DejaVuSans-6f" transform="translate(86.279297 0)"/>
     <use xlink:href="#DejaVuSans-64" transform="translate(147.460938 0)"/>
     <use xlink:href="#DejaVuSans-65" transform="translate(210.9375 0)"/>
     <use xlink:href="#DejaVuSans-6c" transform="translate(272.460938 0)"/>
     <use xlink:href="#DejaVuSans-20" transform="translate(300.244141 0)"/>
     <use xlink:href="#DejaVuSans-53" transform="translate(332.03125 0)"/>
     <use xlink:href="#DejaVuSans-69" transform="translate(395.507812 0)"/>
     <use xlink:href="#DejaVuSans-7a" transform="translate(423.291016 0)"/>
     <use xlink:href="#DejaVuSans-65" transform="translate(475.78125 0)"/>
     <use xlink:href="#DejaVuSans-20" transform="translate(537.304688 0)"/>
     <use xlink:href="#DejaVuSans-76" transform="translate(569.091797 0)"/>
     <use xlink:href="#DejaVuSans-73" transform="translate(628.271484 0)"/>
     <use xlink:href="#DejaVuSans-20" transform="translate(680.371094 0)"/>
     <use xlink:href="#DejaVuSans-53" transform="translate(712.158203 0)"/>
     <use xlink:href="#DejaVuSans-63" transform="translate(775.634766 0)"/>
     <use xlink:href="#DejaVuSans-6f" transform="translate(830.615234 0)"/>
     <use xlink:href="#DejaVuSans-72" transform="translate(891.796875 0)"/>
     <use xlink:href="#DejaVuSans-65" transform="translate(930.660156 0)"/>
     <use xlink:href="#DejaVuSans-73" transform="translate(992.183594 0)"/>
     <use xlink:href="#DejaVuSans-20" transform="translate(1044.283203 0)"/>
     <use xlink:href="#DejaVuSans-77" transform="translate(1076.070312 0)"/>
     <use xlink:href="#DejaVuSans-69" transform="translate(1157.857422 0)"/>
     <use xlink:href="#DejaVuSans-74" transform="translate(1185.640625 0)"/>
     <use xlink:href="#DejaVuSans-68" transform="translate(1224.849609 0)"/>
     <use xlink:href="#DejaVuSans-20" transform="translate(1288.228516 0)"/>
     <use xlink:href="#DejaVuSans-52" transform="translate(1320.015625 0)"/>
     <use xlink:href="#DejaVuSans-65" transform="translate(1384.998047 0)"/>
     <use xlink:href="#DejaVuSans-67" transform="translate(1446.521484 0)"/>
     <use xlink:href="#DejaVuSans-72" transform="translate(1509.998047 0)"/>
     <use xlink:href="#DejaVuSans-65" transform="translate(1548.861328 0)"/>
     <use xlink:href="#DejaVuSans-73" transform="translate(1610.384766 0)"/>
     <use xlink:href="#DejaVuSans-73" transform="translate(1662.484375 0)"/>
     <use xlink:href="#DejaVuSans-69" transform="translate(1714.583984 0)"/>
     <use xlink:href="#DejaVuSans-6f" transform="translate(1742.367188 0)"/>
     <use xlink:href="#DejaVuSans-6e" transform="translate(1803.548828 0)"/>
     <use xlink:href="#DejaVuSans-20" transform="translate(1866.927734 0)"/>
     <use xlink:href="#DejaVuSans-4c" transform="translate(1898.714844 0)"/>
     <use xlink:href="#DejaVuSans-69" transform="translate(1954.427734 0)"/>
     <use xlink:href="#DejaVuSans-6e" transform="translate(1982.210938 0)"/>
     <use xlink:href="#DejaVuSans-65" transform="translate(2045.589844 0)"/>
     <use xlink:href="#DejaVuSans-73" transform="translate(2107.113281 0)"/>
    </g>
   </g>
   <g id="legend_1">
    <g id="patch_7">
     <path d="M 97 118.5525 
L 211.7 118.5525 
Q 213.7 118.5525 213.7 116.5525 
L 213.7 58.84 
Q 213.7 56.84 211.7 56.84 
L 97 56.84 
Q 95 56.84 95 58.84 
L 95 116.5525 
Q 95 118.5525 97 118.5525 
z
" style="fill: #ffffff; opacity: 0.8; stroke: #cccccc; stroke-linejoin: miter"/>
    </g>
    <g id="PathCollection_5">
     <g>
      <use xlink:href="#m99722095a4" x="109" y="65.813438" style="fill: #1f77b4; fill-opacity: 0.8; stroke: #1f77b4; stroke-opacity: 0.8"/>
     </g>
    </g>
    <g id="text_15">
     <!-- ELYZA-tasks-100 -->
     <g transform="translate(127 68.438438) scale(0.1 -0.1)">
      <defs>
       <path id="DejaVuSans-45" d="M 628 4666 
L 3578 4666 
L 3578 4134 
L 1259 4134 
L 1259 2753 
L 3481 2753 
L 3481 2222 
L 1259 2222 
L 1259 531 
L 3634 531 
L 3634 0 
L 628 0 
L 628 4666 
z
" transform="scale(0.015625)"/>
       <path id="DejaVuSans-59" d="M -13 4666 
L 666 4666 
L 1959 2747 
L 3244 4666 
L 3922 4666 
L 2272 2222 
L 2272 0 
L 1638 0 
L 1638 2222 
L -13 4666 
z
" transform="scale(0.015625)"/>
       <path id="DejaVuSans-5a" d="M 359 4666 
L 4025 4666 
L 4025 4184 
L 1075 531 
L 4097 531 
L 4097 0 
L 288 0 
L 288 481 
L 3238 4134 
L 359 4134 
L 359 4666 
z
" transform="scale(0.015625)"/>
       <path id="DejaVuSans-41" d="M 2188 4044 
L 1331 1722 
L 3047 1722 
L 2188 4044 
z
M 1831 4666 
L 2547 4666 
L 4325 0 
L 3669 0 
L 3244 1197 
L 1141 1197 
L 716 0 
L 50 0 
L 1831 4666 
z
" transform="scale(0.015625)"/>
       <path id="DejaVuSans-61" d="M 2194 1759 
Q 1497 1759 1228 1600 
Q 959 1441 959 1056 
Q 959 750 1161 570 
Q 1363 391 1709 391 
Q 2188 391 2477 730 
Q 2766 1069 2766 1631 
L 2766 1759 
L 2194 1759 
z
M 3341 1997 
L 3341 0 
L 2766 0 
L 2766 531 
Q 2569 213 2275 61 
Q 1981 -91 1556 -91 
Q 1019 -91 701 211 
Q 384 513 384 1019 
Q 384 1609 779 1909 
Q 1175 2209 1959 2209 
L 2766 2209 
L 2766 2266 
Q 2766 2663 2505 2880 
Q 2244 3097 1772 3097 
Q 1472 3097 1187 3025 
Q 903 2953 641 2809 
L 641 3341 
Q 956 3463 1253 3523 
Q 1550 3584 1831 3584 
Q 2591 3584 2966 3190 
Q 3341 2797 3341 1997 
z
" transform="scale(0.015625)"/>
       <path id="DejaVuSans-6b" d="M 581 4863 
L 1159 4863 
L 1159 1991 
L 2875 3500 
L 3609 3500 
L 1753 1863 
L 3688 0 
L 2938 0 
L 1159 1709 
L 1159 0 
L 581 0 
L 581 4863 
z
" transform="scale(0.015625)"/>
      </defs>
      <use xlink:href="#DejaVuSans-45"/>
      <use xlink:href="#DejaVuSans-4c" transform="translate(63.183594 0)"/>
      <use xlink:href="#DejaVuSans-59" transform="translate(105.646484 0)"/>
      <use xlink:href="#DejaVuSans-5a" transform="translate(166.730469 0)"/>
      <use xlink:href="#DejaVuSans-41" transform="translate(235.236328 0)"/>
      <use xlink:href="#DejaVuSans-2d" transform="translate(301.394531 0)"/>
      <use xlink:href="#DejaVuSans-74" transform="translate(337.478516 0)"/>
      <use xlink:href="#DejaVuSans-61" transform="translate(376.6875 0)"/>
      <use xlink:href="#DejaVuSans-73" transform="translate(437.966797 0)"/>
      <use xlink:href="#DejaVuSans-6b" transform="translate(490.066406 0)"/>
      <use xlink:href="#DejaVuSans-73" transform="translate(547.976562 0)"/>
      <use xlink:href="#DejaVuSans-2d" transform="translate(600.076172 0)"/>
      <use xlink:href="#DejaVuSans-31" transform="translate(636.160156 0)"/>
      <use xlink:href="#DejaVuSans-30" transform="translate(699.783203 0)"/>
      <use xlink:href="#DejaVuSans-30" transform="translate(763.40625 0)"/>
     </g>
    </g>
    <g id="PathCollection_6">
     <g>
      <use xlink:href="#m08d34f2912" x="109" y="80.491563" style="fill: #ff7f0e; fill-opacity: 0.8; stroke: #ff7f0e; stroke-opacity: 0.8"/>
     </g>
    </g>
    <g id="text_16">
     <!-- Rakuda -->
     <g transform="translate(127 83.116563) scale(0.1 -0.1)">
      <defs>
       <path id="DejaVuSans-75" d="M 544 1381 
L 544 3500 
L 1119 3500 
L 1119 1403 
Q 1119 906 1312 657 
Q 1506 409 1894 409 
Q 2359 409 2629 706 
Q 2900 1003 2900 1516 
L 2900 3500 
L 3475 3500 
L 3475 0 
L 2900 0 
L 2900 538 
Q 2691 219 2414 64 
Q 2138 -91 1772 -91 
Q 1169 -91 856 284 
Q 544 659 544 1381 
z
M 1991 3584 
L 1991 3584 
z
" transform="scale(0.015625)"/>
      </defs>
      <use xlink:href="#DejaVuSans-52"/>
      <use xlink:href="#DejaVuSans-61" transform="translate(67.232422 0)"/>
      <use xlink:href="#DejaVuSans-6b" transform="translate(128.511719 0)"/>
      <use xlink:href="#DejaVuSans-75" transform="translate(183.296875 0)"/>
      <use xlink:href="#DejaVuSans-64" transform="translate(246.675781 0)"/>
      <use xlink:href="#DejaVuSans-61" transform="translate(310.152344 0)"/>
     </g>
    </g>
    <g id="PathCollection_7">
     <g>
      <use xlink:href="#m23473c3e42" x="109" y="95.169688" style="fill: #2ca02c; fill-opacity: 0.8; stroke: #2ca02c; stroke-opacity: 0.8"/>
     </g>
    </g>
    <g id="text_17">
     <!-- Tengu-Bench -->
     <g transform="translate(127 97.794688) scale(0.1 -0.1)">
      <use xlink:href="#DejaVuSans-54"/>
      <use xlink:href="#DejaVuSans-65" transform="translate(44.083984 0)"/>
      <use xlink:href="#DejaVuSans-6e" transform="translate(105.607422 0)"/>
      <use xlink:href="#DejaVuSans-67" transform="translate(168.986328 0)"/>
      <use xlink:href="#DejaVuSans-75" transform="translate(232.462891 0)"/>
      <use xlink:href="#DejaVuSans-2d" transform="translate(295.841797 0)"/>
      <use xlink:href="#DejaVuSans-42" transform="translate(328.300781 0)"/>
      <use xlink:href="#DejaVuSans-65" transform="translate(396.904297 0)"/>
      <use xlink:href="#DejaVuSans-6e" transform="translate(458.427734 0)"/>
      <use xlink:href="#DejaVuSans-63" transform="translate(521.806641 0)"/>
      <use xlink:href="#DejaVuSans-68" transform="translate(576.787109 0)"/>
     </g>
    </g>
    <g id="PathCollection_8">
     <g>
      <use xlink:href="#mc41bdb0c38" x="109" y="109.847813" style="fill: #d62728; fill-opacity: 0.8; stroke: #d62728; stroke-opacity: 0.8"/>
     </g>
    </g>
    <g id="text_18">
     <!-- MT-Bench -->
     <g transform="translate(127 112.472813) scale(0.1 -0.1)">
      <use xlink:href="#DejaVuSans-4d"/>
      <use xlink:href="#DejaVuSans-54" transform="translate(86.279297 0)"/>
      <use xlink:href="#DejaVuSans-2d" transform="translate(138.238281 0)"/>
      <use xlink:href="#DejaVuSans-42" transform="translate(170.697266 0)"/>
      <use xlink:href="#DejaVuSans-65" transform="translate(239.300781 0)"/>
      <use xlink:href="#DejaVuSans-6e" transform="translate(300.824219 0)"/>
      <use xlink:href="#DejaVuSans-63" transform="translate(364.203125 0)"/>
      <use xlink:href="#DejaVuSans-68" transform="translate(419.183594 0)"/>
     </g>
    </g>
   </g>
  </g>
 </g>
 <defs>
  <clipPath id="pcd25b9ab12">
   <rect x="90" y="51.84" width="558" height="332.64"/>
  </clipPath>
 </defs>
</svg>
