<?xml version="1.0" encoding="utf-8" standalone="no"?>
<!DOCTYPE svg PUBLIC "-//W3C//DTD SVG 1.1//EN"
  "http://www.w3.org/Graphics/SVG/1.1/DTD/svg11.dtd">
<svg xmlns:xlink="http://www.w3.org/1999/xlink" width="720pt" height="432pt" viewBox="0 0 720 432" xmlns="http://www.w3.org/2000/svg" version="1.1">
 <metadata>
  <rdf:RDF xmlns:dc="http://purl.org/dc/elements/1.1/" xmlns:cc="http://creativecommons.org/ns#" xmlns:rdf="http://www.w3.org/1999/02/22-rdf-syntax-ns#">
   <cc:Work>
    <dc:type rdf:resource="http://purl.org/dc/dcmitype/StillImage"/>
    <dc:date>2025-02-08T21:08:06.618322</dc:date>
    <dc:format>image/svg+xml</dc:format>
    <dc:creator>
     <cc:Agent>
      <dc:title>Matplotlib v3.10.0, https://matplotlib.org/</dc:title>
     </cc:Agent>
    </dc:creator>
   </cc:Work>
  </rdf:RDF>
 </metadata>
 <defs>
  <style type="text/css">*{stroke-linejoin: round; stroke-linecap: butt}</style>
 </defs>
 <g id="figure_1">
  <g id="patch_1">
   <path d="M 0 432 
L 720 432 
L 720 0 
L 0 0 
z
" style="fill: #ffffff"/>
  </g>
  <g id="axes_1">
   <g id="patch_2">
    <path d="M 90 384.48 
L 648 384.48 
L 648 51.84 
L 90 51.84 
z
" style="fill: #ffffff"/>
   </g>
   <g id="PathCollection_1">
    <defs>
     <path id="m991c163abd" d="M 0 3 
C 0.795609 3 1.55874 2.683901 2.12132 2.12132 
C 2.683901 1.55874 3 0.795609 3 0 
C 3 -0.795609 2.683901 -1.55874 2.12132 -2.12132 
C 1.55874 -2.683901 0.795609 -3 0 -3 
C -0.795609 -3 -1.55874 -2.683901 -2.12132 -2.12132 
C -2.683901 -1.55874 -3 -0.795609 -3 0 
C -3 0.795609 -2.683901 1.55874 -2.12132 2.12132 
C -1.55874 2.683901 -0.795609 3 0 3 
z
" style="stroke: #1f77b4; stroke-opacity: 0.8"/>
    </defs>
    <g clip-path="url(#p67d5da3789)">
     <use xlink:href="#m991c163abd" x="115.363636" y="109.155349" style="fill: #1f77b4; fill-opacity: 0.8; stroke: #1f77b4; stroke-opacity: 0.8"/>
     <use xlink:href="#m991c163abd" x="179.356357" y="185.972278" style="fill: #1f77b4; fill-opacity: 0.8; stroke: #1f77b4; stroke-opacity: 0.8"/>
     <use xlink:href="#m991c163abd" x="204.752322" y="173.768435" style="fill: #1f77b4; fill-opacity: 0.8; stroke: #1f77b4; stroke-opacity: 0.8"/>
     <use xlink:href="#m991c163abd" x="227.15315" y="142.605384" style="fill: #1f77b4; fill-opacity: 0.8; stroke: #1f77b4; stroke-opacity: 0.8"/>
     <use xlink:href="#m991c163abd" x="247.191374" y="237.446258" style="fill: #1f77b4; fill-opacity: 0.8; stroke: #1f77b4; stroke-opacity: 0.8"/>
     <use xlink:href="#m991c163abd" x="281.866605" y="147.088541" style="fill: #1f77b4; fill-opacity: 0.8; stroke: #1f77b4; stroke-opacity: 0.8"/>
     <use xlink:href="#m991c163abd" x="297.089705" y="197.168879" style="fill: #1f77b4; fill-opacity: 0.8; stroke: #1f77b4; stroke-opacity: 0.8"/>
     <use xlink:href="#m991c163abd" x="311.184095" y="183.575184" style="fill: #1f77b4; fill-opacity: 0.8; stroke: #1f77b4; stroke-opacity: 0.8"/>
     <use xlink:href="#m991c163abd" x="397.14589" y="116.82723" style="fill: #1f77b4; fill-opacity: 0.8; stroke: #1f77b4; stroke-opacity: 0.8"/>
     <use xlink:href="#m991c163abd" x="413.694343" y="97.647526" style="fill: #1f77b4; fill-opacity: 0.8; stroke: #1f77b4; stroke-opacity: 0.8"/>
     <use xlink:href="#m991c163abd" x="436.095171" y="115.548584" style="fill: #1f77b4; fill-opacity: 0.8; stroke: #1f77b4; stroke-opacity: 0.8"/>
     <use xlink:href="#m991c163abd" x="468.407797" y="112.386838" style="fill: #1f77b4; fill-opacity: 0.8; stroke: #1f77b4; stroke-opacity: 0.8"/>
     <use xlink:href="#m991c163abd" x="485.450885" y="173.513911" style="fill: #1f77b4; fill-opacity: 0.8; stroke: #1f77b4; stroke-opacity: 0.8"/>
     <use xlink:href="#m991c163abd" x="510.84685" y="66.96" style="fill: #1f77b4; fill-opacity: 0.8; stroke: #1f77b4; stroke-opacity: 0.8"/>
     <use xlink:href="#m991c163abd" x="541.517991" y="162.432304" style="fill: #1f77b4; fill-opacity: 0.8; stroke: #1f77b4; stroke-opacity: 0.8"/>
     <use xlink:href="#m991c163abd" x="617.278623" y="117.916448" style="fill: #1f77b4; fill-opacity: 0.8; stroke: #1f77b4; stroke-opacity: 0.8"/>
     <use xlink:href="#m991c163abd" x="622.636364" y="107.911826" style="fill: #1f77b4; fill-opacity: 0.8; stroke: #1f77b4; stroke-opacity: 0.8"/>
    </g>
   </g>
   <g id="PathCollection_2">
    <defs>
     <path id="m142364b9aa" d="M 0 3 
C 0.795609 3 1.55874 2.683901 2.12132 2.12132 
C 2.683901 1.55874 3 0.795609 3 0 
C 3 -0.795609 2.683901 -1.55874 2.12132 -2.12132 
C 1.55874 -2.683901 0.795609 -3 0 -3 
C -0.795609 -3 -1.55874 -2.683901 -2.12132 -2.12132 
C -2.683901 -1.55874 -3 -0.795609 -3 0 
C -3 0.795609 -2.683901 1.55874 -2.12132 2.12132 
C -1.55874 2.683901 -0.795609 3 0 3 
z
" style="stroke: #ff7f0e; stroke-opacity: 0.8"/>
    </defs>
    <g clip-path="url(#p67d5da3789)">
     <use xlink:href="#m142364b9aa" x="115.363636" y="109.368457" style="fill: #ff7f0e; fill-opacity: 0.8; stroke: #ff7f0e; stroke-opacity: 0.8"/>
     <use xlink:href="#m142364b9aa" x="179.356357" y="201.048868" style="fill: #ff7f0e; fill-opacity: 0.8; stroke: #ff7f0e; stroke-opacity: 0.8"/>
     <use xlink:href="#m142364b9aa" x="204.752322" y="178.446815" style="fill: #ff7f0e; fill-opacity: 0.8; stroke: #ff7f0e; stroke-opacity: 0.8"/>
     <use xlink:href="#m142364b9aa" x="227.15315" y="181.11008" style="fill: #ff7f0e; fill-opacity: 0.8; stroke: #ff7f0e; stroke-opacity: 0.8"/>
     <use xlink:href="#m142364b9aa" x="247.191374" y="369.36" style="fill: #ff7f0e; fill-opacity: 0.8; stroke: #ff7f0e; stroke-opacity: 0.8"/>
     <use xlink:href="#m142364b9aa" x="281.866605" y="142.400169" style="fill: #ff7f0e; fill-opacity: 0.8; stroke: #ff7f0e; stroke-opacity: 0.8"/>
     <use xlink:href="#m142364b9aa" x="297.089705" y="240.962537" style="fill: #ff7f0e; fill-opacity: 0.8; stroke: #ff7f0e; stroke-opacity: 0.8"/>
     <use xlink:href="#m142364b9aa" x="311.184095" y="198.804072" style="fill: #ff7f0e; fill-opacity: 0.8; stroke: #ff7f0e; stroke-opacity: 0.8"/>
     <use xlink:href="#m142364b9aa" x="397.14589" y="161.407083" style="fill: #ff7f0e; fill-opacity: 0.8; stroke: #ff7f0e; stroke-opacity: 0.8"/>
     <use xlink:href="#m142364b9aa" x="413.694343" y="127.482622" style="fill: #ff7f0e; fill-opacity: 0.8; stroke: #ff7f0e; stroke-opacity: 0.8"/>
     <use xlink:href="#m142364b9aa" x="436.095171" y="74.205666" style="fill: #ff7f0e; fill-opacity: 0.8; stroke: #ff7f0e; stroke-opacity: 0.8"/>
     <use xlink:href="#m142364b9aa" x="468.407797" y="122.258748" style="fill: #ff7f0e; fill-opacity: 0.8; stroke: #ff7f0e; stroke-opacity: 0.8"/>
     <use xlink:href="#m142364b9aa" x="485.450885" y="121.089387" style="fill: #ff7f0e; fill-opacity: 0.8; stroke: #ff7f0e; stroke-opacity: 0.8"/>
     <use xlink:href="#m142364b9aa" x="510.84685" y="74.205666" style="fill: #ff7f0e; fill-opacity: 0.8; stroke: #ff7f0e; stroke-opacity: 0.8"/>
     <use xlink:href="#m142364b9aa" x="541.517991" y="135.78261" style="fill: #ff7f0e; fill-opacity: 0.8; stroke: #ff7f0e; stroke-opacity: 0.8"/>
     <use xlink:href="#m142364b9aa" x="617.278623" y="114.249901" style="fill: #ff7f0e; fill-opacity: 0.8; stroke: #ff7f0e; stroke-opacity: 0.8"/>
     <use xlink:href="#m142364b9aa" x="622.636364" y="90.188753" style="fill: #ff7f0e; fill-opacity: 0.8; stroke: #ff7f0e; stroke-opacity: 0.8"/>
    </g>
   </g>
   <g id="PathCollection_3">
    <defs>
     <path id="mbd9f8ffb85" d="M 0 3 
C 0.795609 3 1.55874 2.683901 2.12132 2.12132 
C 2.683901 1.55874 3 0.795609 3 0 
C 3 -0.795609 2.683901 -1.55874 2.12132 -2.12132 
C 1.55874 -2.683901 0.795609 -3 0 -3 
C -0.795609 -3 -1.55874 -2.683901 -2.12132 -2.12132 
C -2.683901 -1.55874 -3 -0.795609 -3 0 
C -3 0.795609 -2.683901 1.55874 -2.12132 2.12132 
C -1.55874 2.683901 -0.795609 3 0 3 
z
" style="stroke: #2ca02c; stroke-opacity: 0.8"/>
    </defs>
    <g clip-path="url(#p67d5da3789)">
     <use xlink:href="#mbd9f8ffb85" x="115.363636" y="145.641557" style="fill: #2ca02c; fill-opacity: 0.8; stroke: #2ca02c; stroke-opacity: 0.8"/>
     <use xlink:href="#mbd9f8ffb85" x="179.356357" y="211.4838" style="fill: #2ca02c; fill-opacity: 0.8; stroke: #2ca02c; stroke-opacity: 0.8"/>
     <use xlink:href="#mbd9f8ffb85" x="204.752322" y="216.276923" style="fill: #2ca02c; fill-opacity: 0.8; stroke: #2ca02c; stroke-opacity: 0.8"/>
     <use xlink:href="#mbd9f8ffb85" x="227.15315" y="189.297045" style="fill: #2ca02c; fill-opacity: 0.8; stroke: #2ca02c; stroke-opacity: 0.8"/>
     <use xlink:href="#mbd9f8ffb85" x="247.191374" y="269.566442" style="fill: #2ca02c; fill-opacity: 0.8; stroke: #2ca02c; stroke-opacity: 0.8"/>
     <use xlink:href="#mbd9f8ffb85" x="281.866605" y="188.92871" style="fill: #2ca02c; fill-opacity: 0.8; stroke: #2ca02c; stroke-opacity: 0.8"/>
     <use xlink:href="#mbd9f8ffb85" x="297.089705" y="222.493192" style="fill: #2ca02c; fill-opacity: 0.8; stroke: #2ca02c; stroke-opacity: 0.8"/>
     <use xlink:href="#mbd9f8ffb85" x="311.184095" y="221.948471" style="fill: #2ca02c; fill-opacity: 0.8; stroke: #2ca02c; stroke-opacity: 0.8"/>
     <use xlink:href="#mbd9f8ffb85" x="397.14589" y="154.222579" style="fill: #2ca02c; fill-opacity: 0.8; stroke: #2ca02c; stroke-opacity: 0.8"/>
     <use xlink:href="#mbd9f8ffb85" x="413.694343" y="155.67016" style="fill: #2ca02c; fill-opacity: 0.8; stroke: #2ca02c; stroke-opacity: 0.8"/>
     <use xlink:href="#mbd9f8ffb85" x="436.095171" y="131.389598" style="fill: #2ca02c; fill-opacity: 0.8; stroke: #2ca02c; stroke-opacity: 0.8"/>
     <use xlink:href="#mbd9f8ffb85" x="468.407797" y="155.871329" style="fill: #2ca02c; fill-opacity: 0.8; stroke: #2ca02c; stroke-opacity: 0.8"/>
     <use xlink:href="#mbd9f8ffb85" x="485.450885" y="164.598901" style="fill: #2ca02c; fill-opacity: 0.8; stroke: #2ca02c; stroke-opacity: 0.8"/>
     <use xlink:href="#mbd9f8ffb85" x="510.84685" y="122.510106" style="fill: #2ca02c; fill-opacity: 0.8; stroke: #2ca02c; stroke-opacity: 0.8"/>
     <use xlink:href="#mbd9f8ffb85" x="541.517991" y="224.091501" style="fill: #2ca02c; fill-opacity: 0.8; stroke: #2ca02c; stroke-opacity: 0.8"/>
     <use xlink:href="#mbd9f8ffb85" x="617.278623" y="164.070707" style="fill: #2ca02c; fill-opacity: 0.8; stroke: #2ca02c; stroke-opacity: 0.8"/>
     <use xlink:href="#mbd9f8ffb85" x="622.636364" y="150.704211" style="fill: #2ca02c; fill-opacity: 0.8; stroke: #2ca02c; stroke-opacity: 0.8"/>
    </g>
   </g>
   <g id="PathCollection_4">
    <defs>
     <path id="m9796f3757a" d="M 0 3 
C 0.795609 3 1.55874 2.683901 2.12132 2.12132 
C 2.683901 1.55874 3 0.795609 3 0 
C 3 -0.795609 2.683901 -1.55874 2.12132 -2.12132 
C 1.55874 -2.683901 0.795609 -3 0 -3 
C -0.795609 -3 -1.55874 -2.683901 -2.12132 -2.12132 
C -2.683901 -1.55874 -3 -0.795609 -3 0 
C -3 0.795609 -2.683901 1.55874 -2.12132 2.12132 
C -1.55874 2.683901 -0.795609 3 0 3 
z
" style="stroke: #d62728; stroke-opacity: 0.8"/>
    </defs>
    <g clip-path="url(#p67d5da3789)">
     <use xlink:href="#m9796f3757a" x="115.363636" y="111.280061" style="fill: #d62728; fill-opacity: 0.8; stroke: #d62728; stroke-opacity: 0.8"/>
     <use xlink:href="#m9796f3757a" x="179.356357" y="206.159683" style="fill: #d62728; fill-opacity: 0.8; stroke: #d62728; stroke-opacity: 0.8"/>
     <use xlink:href="#m9796f3757a" x="204.752322" y="178.792946" style="fill: #d62728; fill-opacity: 0.8; stroke: #d62728; stroke-opacity: 0.8"/>
     <use xlink:href="#m9796f3757a" x="227.15315" y="186.432482" style="fill: #d62728; fill-opacity: 0.8; stroke: #d62728; stroke-opacity: 0.8"/>
     <use xlink:href="#m9796f3757a" x="247.191374" y="312.886427" style="fill: #d62728; fill-opacity: 0.8; stroke: #d62728; stroke-opacity: 0.8"/>
     <use xlink:href="#m9796f3757a" x="281.866605" y="138.101893" style="fill: #d62728; fill-opacity: 0.8; stroke: #d62728; stroke-opacity: 0.8"/>
     <use xlink:href="#m9796f3757a" x="297.089705" y="224.846258" style="fill: #d62728; fill-opacity: 0.8; stroke: #d62728; stroke-opacity: 0.8"/>
     <use xlink:href="#m9796f3757a" x="311.184095" y="216.984845" style="fill: #d62728; fill-opacity: 0.8; stroke: #d62728; stroke-opacity: 0.8"/>
     <use xlink:href="#m9796f3757a" x="397.14589" y="121.850486" style="fill: #d62728; fill-opacity: 0.8; stroke: #d62728; stroke-opacity: 0.8"/>
     <use xlink:href="#m9796f3757a" x="413.694343" y="134.586216" style="fill: #d62728; fill-opacity: 0.8; stroke: #d62728; stroke-opacity: 0.8"/>
     <use xlink:href="#m9796f3757a" x="436.095171" y="84.188085" style="fill: #d62728; fill-opacity: 0.8; stroke: #d62728; stroke-opacity: 0.8"/>
     <use xlink:href="#m9796f3757a" x="468.407797" y="116.306386" style="fill: #d62728; fill-opacity: 0.8; stroke: #d62728; stroke-opacity: 0.8"/>
     <use xlink:href="#m9796f3757a" x="485.450885" y="147.03587" style="fill: #d62728; fill-opacity: 0.8; stroke: #d62728; stroke-opacity: 0.8"/>
     <use xlink:href="#m9796f3757a" x="510.84685" y="88.674565" style="fill: #d62728; fill-opacity: 0.8; stroke: #d62728; stroke-opacity: 0.8"/>
     <use xlink:href="#m9796f3757a" x="541.517991" y="180.049218" style="fill: #d62728; fill-opacity: 0.8; stroke: #d62728; stroke-opacity: 0.8"/>
     <use xlink:href="#m9796f3757a" x="617.278623" y="121.827762" style="fill: #d62728; fill-opacity: 0.8; stroke: #d62728; stroke-opacity: 0.8"/>
     <use xlink:href="#m9796f3757a" x="622.636364" y="125.920622" style="fill: #d62728; fill-opacity: 0.8; stroke: #d62728; stroke-opacity: 0.8"/>
    </g>
   </g>
   <g id="matplotlib.axis_1">
    <g id="xtick_1">
     <g id="line2d_1">
      <defs>
       <path id="mc88fbee154" d="M 0 0 
L 0 3.5 
" style="stroke: #000000; stroke-width: 0.8"/>
      </defs>
      <g>
       <use xlink:href="#mc88fbee154" x="179.356357" y="384.48" style="stroke: #000000; stroke-width: 0.8"/>
      </g>
     </g>
     <g id="text_1">
      <!-- 7B -->
      <g transform="translate(172.744638 399.078438) scale(0.1 -0.1)">
       <defs>
        <path id="DejaVuSans-37" d="M 525 4666 
L 3525 4666 
L 3525 4397 
L 1831 0 
L 1172 0 
L 2766 4134 
L 525 4134 
L 525 4666 
z
" transform="scale(0.015625)"/>
        <path id="DejaVuSans-42" d="M 1259 2228 
L 1259 519 
L 2272 519 
Q 2781 519 3026 730 
Q 3272 941 3272 1375 
Q 3272 1813 3026 2020 
Q 2781 2228 2272 2228 
L 1259 2228 
z
M 1259 4147 
L 1259 2741 
L 2194 2741 
Q 2656 2741 2882 2914 
Q 3109 3088 3109 3444 
Q 3109 3797 2882 3972 
Q 2656 4147 2194 4147 
L 1259 4147 
z
M 628 4666 
L 2241 4666 
Q 2963 4666 3353 4366 
Q 3744 4066 3744 3513 
Q 3744 3084 3544 2831 
Q 3344 2578 2956 2516 
Q 3422 2416 3680 2098 
Q 3938 1781 3938 1306 
Q 3938 681 3513 340 
Q 3088 0 2303 0 
L 628 0 
L 628 4666 
z
" transform="scale(0.015625)"/>
       </defs>
       <use xlink:href="#DejaVuSans-37"/>
       <use xlink:href="#DejaVuSans-42" transform="translate(63.623047 0)"/>
      </g>
     </g>
    </g>
    <g id="xtick_2">
     <g id="line2d_2">
      <g>
       <use xlink:href="#mc88fbee154" x="297.089705" y="384.48" style="stroke: #000000; stroke-width: 0.8"/>
      </g>
     </g>
     <g id="text_2">
      <!-- 13B -->
      <g transform="translate(287.296736 399.078438) scale(0.1 -0.1)">
       <defs>
        <path id="DejaVuSans-31" d="M 794 531 
L 1825 531 
L 1825 4091 
L 703 3866 
L 703 4441 
L 1819 4666 
L 2450 4666 
L 2450 531 
L 3481 531 
L 3481 0 
L 794 0 
L 794 531 
z
" transform="scale(0.015625)"/>
        <path id="DejaVuSans-33" d="M 2597 2516 
Q 3050 2419 3304 2112 
Q 3559 1806 3559 1356 
Q 3559 666 3084 287 
Q 2609 -91 1734 -91 
Q 1441 -91 1130 -33 
Q 819 25 488 141 
L 488 750 
Q 750 597 1062 519 
Q 1375 441 1716 441 
Q 2309 441 2620 675 
Q 2931 909 2931 1356 
Q 2931 1769 2642 2001 
Q 2353 2234 1838 2234 
L 1294 2234 
L 1294 2753 
L 1863 2753 
Q 2328 2753 2575 2939 
Q 2822 3125 2822 3475 
Q 2822 3834 2567 4026 
Q 2313 4219 1838 4219 
Q 1578 4219 1281 4162 
Q 984 4106 628 3988 
L 628 4550 
Q 988 4650 1302 4700 
Q 1616 4750 1894 4750 
Q 2613 4750 3031 4423 
Q 3450 4097 3450 3541 
Q 3450 3153 3228 2886 
Q 3006 2619 2597 2516 
z
" transform="scale(0.015625)"/>
       </defs>
       <use xlink:href="#DejaVuSans-31"/>
       <use xlink:href="#DejaVuSans-33" transform="translate(63.623047 0)"/>
       <use xlink:href="#DejaVuSans-42" transform="translate(127.246094 0)"/>
      </g>
     </g>
    </g>
    <g id="xtick_3">
     <g id="line2d_3">
      <g>
       <use xlink:href="#mc88fbee154" x="468.407797" y="384.48" style="stroke: #000000; stroke-width: 0.8"/>
      </g>
     </g>
     <g id="text_3">
      <!-- 32B -->
      <g transform="translate(458.614829 399.078438) scale(0.1 -0.1)">
       <defs>
        <path id="DejaVuSans-32" d="M 1228 531 
L 3431 531 
L 3431 0 
L 469 0 
L 469 531 
Q 828 903 1448 1529 
Q 2069 2156 2228 2338 
Q 2531 2678 2651 2914 
Q 2772 3150 2772 3378 
Q 2772 3750 2511 3984 
Q 2250 4219 1831 4219 
Q 1534 4219 1204 4116 
Q 875 4013 500 3803 
L 500 4441 
Q 881 4594 1212 4672 
Q 1544 4750 1819 4750 
Q 2544 4750 2975 4387 
Q 3406 4025 3406 3419 
Q 3406 3131 3298 2873 
Q 3191 2616 2906 2266 
Q 2828 2175 2409 1742 
Q 1991 1309 1228 531 
z
" transform="scale(0.015625)"/>
       </defs>
       <use xlink:href="#DejaVuSans-33"/>
       <use xlink:href="#DejaVuSans-32" transform="translate(63.623047 0)"/>
       <use xlink:href="#DejaVuSans-42" transform="translate(127.246094 0)"/>
      </g>
     </g>
    </g>
    <g id="xtick_4">
     <g id="line2d_4">
      <g>
       <use xlink:href="#mc88fbee154" x="617.278623" y="384.48" style="stroke: #000000; stroke-width: 0.8"/>
      </g>
     </g>
     <g id="text_4">
      <!-- 70B -->
      <g transform="translate(607.485654 399.078438) scale(0.1 -0.1)">
       <defs>
        <path id="DejaVuSans-30" d="M 2034 4250 
Q 1547 4250 1301 3770 
Q 1056 3291 1056 2328 
Q 1056 1369 1301 889 
Q 1547 409 2034 409 
Q 2525 409 2770 889 
Q 3016 1369 3016 2328 
Q 3016 3291 2770 3770 
Q 2525 4250 2034 4250 
z
M 2034 4750 
Q 2819 4750 3233 4129 
Q 3647 3509 3647 2328 
Q 3647 1150 3233 529 
Q 2819 -91 2034 -91 
Q 1250 -91 836 529 
Q 422 1150 422 2328 
Q 422 3509 836 4129 
Q 1250 4750 2034 4750 
z
" transform="scale(0.015625)"/>
       </defs>
       <use xlink:href="#DejaVuSans-37"/>
       <use xlink:href="#DejaVuSans-30" transform="translate(63.623047 0)"/>
       <use xlink:href="#DejaVuSans-42" transform="translate(127.246094 0)"/>
      </g>
     </g>
    </g>
    <g id="text_5">
     <!-- model_size -->
     <g transform="translate(341.235937 412.756563) scale(0.1 -0.1)">
      <defs>
       <path id="DejaVuSans-6d" d="M 3328 2828 
Q 3544 3216 3844 3400 
Q 4144 3584 4550 3584 
Q 5097 3584 5394 3201 
Q 5691 2819 5691 2113 
L 5691 0 
L 5113 0 
L 5113 2094 
Q 5113 2597 4934 2840 
Q 4756 3084 4391 3084 
Q 3944 3084 3684 2787 
Q 3425 2491 3425 1978 
L 3425 0 
L 2847 0 
L 2847 2094 
Q 2847 2600 2669 2842 
Q 2491 3084 2119 3084 
Q 1678 3084 1418 2786 
Q 1159 2488 1159 1978 
L 1159 0 
L 581 0 
L 581 3500 
L 1159 3500 
L 1159 2956 
Q 1356 3278 1631 3431 
Q 1906 3584 2284 3584 
Q 2666 3584 2933 3390 
Q 3200 3197 3328 2828 
z
" transform="scale(0.015625)"/>
       <path id="DejaVuSans-6f" d="M 1959 3097 
Q 1497 3097 1228 2736 
Q 959 2375 959 1747 
Q 959 1119 1226 758 
Q 1494 397 1959 397 
Q 2419 397 2687 759 
Q 2956 1122 2956 1747 
Q 2956 2369 2687 2733 
Q 2419 3097 1959 3097 
z
M 1959 3584 
Q 2709 3584 3137 3096 
Q 3566 2609 3566 1747 
Q 3566 888 3137 398 
Q 2709 -91 1959 -91 
Q 1206 -91 779 398 
Q 353 888 353 1747 
Q 353 2609 779 3096 
Q 1206 3584 1959 3584 
z
" transform="scale(0.015625)"/>
       <path id="DejaVuSans-64" d="M 2906 2969 
L 2906 4863 
L 3481 4863 
L 3481 0 
L 2906 0 
L 2906 525 
Q 2725 213 2448 61 
Q 2172 -91 1784 -91 
Q 1150 -91 751 415 
Q 353 922 353 1747 
Q 353 2572 751 3078 
Q 1150 3584 1784 3584 
Q 2172 3584 2448 3432 
Q 2725 3281 2906 2969 
z
M 947 1747 
Q 947 1113 1208 752 
Q 1469 391 1925 391 
Q 2381 391 2643 752 
Q 2906 1113 2906 1747 
Q 2906 2381 2643 2742 
Q 2381 3103 1925 3103 
Q 1469 3103 1208 2742 
Q 947 2381 947 1747 
z
" transform="scale(0.015625)"/>
       <path id="DejaVuSans-65" d="M 3597 1894 
L 3597 1613 
L 953 1613 
Q 991 1019 1311 708 
Q 1631 397 2203 397 
Q 2534 397 2845 478 
Q 3156 559 3463 722 
L 3463 178 
Q 3153 47 2828 -22 
Q 2503 -91 2169 -91 
Q 1331 -91 842 396 
Q 353 884 353 1716 
Q 353 2575 817 3079 
Q 1281 3584 2069 3584 
Q 2775 3584 3186 3129 
Q 3597 2675 3597 1894 
z
M 3022 2063 
Q 3016 2534 2758 2815 
Q 2500 3097 2075 3097 
Q 1594 3097 1305 2825 
Q 1016 2553 972 2059 
L 3022 2063 
z
" transform="scale(0.015625)"/>
       <path id="DejaVuSans-6c" d="M 603 4863 
L 1178 4863 
L 1178 0 
L 603 0 
L 603 4863 
z
" transform="scale(0.015625)"/>
       <path id="DejaVuSans-5f" d="M 3263 -1063 
L 3263 -1509 
L -63 -1509 
L -63 -1063 
L 3263 -1063 
z
" transform="scale(0.015625)"/>
       <path id="DejaVuSans-73" d="M 2834 3397 
L 2834 2853 
Q 2591 2978 2328 3040 
Q 2066 3103 1784 3103 
Q 1356 3103 1142 2972 
Q 928 2841 928 2578 
Q 928 2378 1081 2264 
Q 1234 2150 1697 2047 
L 1894 2003 
Q 2506 1872 2764 1633 
Q 3022 1394 3022 966 
Q 3022 478 2636 193 
Q 2250 -91 1575 -91 
Q 1294 -91 989 -36 
Q 684 19 347 128 
L 347 722 
Q 666 556 975 473 
Q 1284 391 1588 391 
Q 1994 391 2212 530 
Q 2431 669 2431 922 
Q 2431 1156 2273 1281 
Q 2116 1406 1581 1522 
L 1381 1569 
Q 847 1681 609 1914 
Q 372 2147 372 2553 
Q 372 3047 722 3315 
Q 1072 3584 1716 3584 
Q 2034 3584 2315 3537 
Q 2597 3491 2834 3397 
z
" transform="scale(0.015625)"/>
       <path id="DejaVuSans-69" d="M 603 3500 
L 1178 3500 
L 1178 0 
L 603 0 
L 603 3500 
z
M 603 4863 
L 1178 4863 
L 1178 4134 
L 603 4134 
L 603 4863 
z
" transform="scale(0.015625)"/>
       <path id="DejaVuSans-7a" d="M 353 3500 
L 3084 3500 
L 3084 2975 
L 922 459 
L 3084 459 
L 3084 0 
L 275 0 
L 275 525 
L 2438 3041 
L 353 3041 
L 353 3500 
z
" transform="scale(0.015625)"/>
      </defs>
      <use xlink:href="#DejaVuSans-6d"/>
      <use xlink:href="#DejaVuSans-6f" transform="translate(97.412109 0)"/>
      <use xlink:href="#DejaVuSans-64" transform="translate(158.59375 0)"/>
      <use xlink:href="#DejaVuSans-65" transform="translate(222.070312 0)"/>
      <use xlink:href="#DejaVuSans-6c" transform="translate(283.59375 0)"/>
      <use xlink:href="#DejaVuSans-5f" transform="translate(311.376953 0)"/>
      <use xlink:href="#DejaVuSans-73" transform="translate(361.376953 0)"/>
      <use xlink:href="#DejaVuSans-69" transform="translate(413.476562 0)"/>
      <use xlink:href="#DejaVuSans-7a" transform="translate(441.259766 0)"/>
      <use xlink:href="#DejaVuSans-65" transform="translate(493.75 0)"/>
     </g>
    </g>
   </g>
   <g id="matplotlib.axis_2">
    <g id="ytick_1">
     <g id="line2d_5">
      <defs>
       <path id="m66e6d43553" d="M 0 0 
L -3.5 0 
" style="stroke: #000000; stroke-width: 0.8"/>
      </defs>
      <g>
       <use xlink:href="#m66e6d43553" x="90" y="353.376913" style="stroke: #000000; stroke-width: 0.8"/>
      </g>
     </g>
     <g id="text_6">
      <!-- 2 -->
      <g transform="translate(76.6375 357.176132) scale(0.1 -0.1)">
       <use xlink:href="#DejaVuSans-32"/>
      </g>
     </g>
    </g>
    <g id="ytick_2">
     <g id="line2d_6">
      <g>
       <use xlink:href="#m66e6d43553" x="90" y="310.755349" style="stroke: #000000; stroke-width: 0.8"/>
      </g>
     </g>
     <g id="text_7">
      <!-- 3 -->
      <g transform="translate(76.6375 314.554568) scale(0.1 -0.1)">
       <use xlink:href="#DejaVuSans-33"/>
      </g>
     </g>
    </g>
    <g id="ytick_3">
     <g id="line2d_7">
      <g>
       <use xlink:href="#m66e6d43553" x="90" y="268.133784" style="stroke: #000000; stroke-width: 0.8"/>
      </g>
     </g>
     <g id="text_8">
      <!-- 4 -->
      <g transform="translate(76.6375 271.933003) scale(0.1 -0.1)">
       <defs>
        <path id="DejaVuSans-34" d="M 2419 4116 
L 825 1625 
L 2419 1625 
L 2419 4116 
z
M 2253 4666 
L 3047 4666 
L 3047 1625 
L 3713 1625 
L 3713 1100 
L 3047 1100 
L 3047 0 
L 2419 0 
L 2419 1100 
L 313 1100 
L 313 1709 
L 2253 4666 
z
" transform="scale(0.015625)"/>
       </defs>
       <use xlink:href="#DejaVuSans-34"/>
      </g>
     </g>
    </g>
    <g id="ytick_4">
     <g id="line2d_8">
      <g>
       <use xlink:href="#m66e6d43553" x="90" y="225.51222" style="stroke: #000000; stroke-width: 0.8"/>
      </g>
     </g>
     <g id="text_9">
      <!-- 5 -->
      <g transform="translate(76.6375 229.311439) scale(0.1 -0.1)">
       <defs>
        <path id="DejaVuSans-35" d="M 691 4666 
L 3169 4666 
L 3169 4134 
L 1269 4134 
L 1269 2991 
Q 1406 3038 1543 3061 
Q 1681 3084 1819 3084 
Q 2600 3084 3056 2656 
Q 3513 2228 3513 1497 
Q 3513 744 3044 326 
Q 2575 -91 1722 -91 
Q 1428 -91 1123 -41 
Q 819 9 494 109 
L 494 744 
Q 775 591 1075 516 
Q 1375 441 1709 441 
Q 2250 441 2565 725 
Q 2881 1009 2881 1497 
Q 2881 1984 2565 2268 
Q 2250 2553 1709 2553 
Q 1456 2553 1204 2497 
Q 953 2441 691 2322 
L 691 4666 
z
" transform="scale(0.015625)"/>
       </defs>
       <use xlink:href="#DejaVuSans-35"/>
      </g>
     </g>
    </g>
    <g id="ytick_5">
     <g id="line2d_9">
      <g>
       <use xlink:href="#m66e6d43553" x="90" y="182.890655" style="stroke: #000000; stroke-width: 0.8"/>
      </g>
     </g>
     <g id="text_10">
      <!-- 6 -->
      <g transform="translate(76.6375 186.689874) scale(0.1 -0.1)">
       <defs>
        <path id="DejaVuSans-36" d="M 2113 2584 
Q 1688 2584 1439 2293 
Q 1191 2003 1191 1497 
Q 1191 994 1439 701 
Q 1688 409 2113 409 
Q 2538 409 2786 701 
Q 3034 994 3034 1497 
Q 3034 2003 2786 2293 
Q 2538 2584 2113 2584 
z
M 3366 4563 
L 3366 3988 
Q 3128 4100 2886 4159 
Q 2644 4219 2406 4219 
Q 1781 4219 1451 3797 
Q 1122 3375 1075 2522 
Q 1259 2794 1537 2939 
Q 1816 3084 2150 3084 
Q 2853 3084 3261 2657 
Q 3669 2231 3669 1497 
Q 3669 778 3244 343 
Q 2819 -91 2113 -91 
Q 1303 -91 875 529 
Q 447 1150 447 2328 
Q 447 3434 972 4092 
Q 1497 4750 2381 4750 
Q 2619 4750 2861 4703 
Q 3103 4656 3366 4563 
z
" transform="scale(0.015625)"/>
       </defs>
       <use xlink:href="#DejaVuSans-36"/>
      </g>
     </g>
    </g>
    <g id="ytick_6">
     <g id="line2d_10">
      <g>
       <use xlink:href="#m66e6d43553" x="90" y="140.269091" style="stroke: #000000; stroke-width: 0.8"/>
      </g>
     </g>
     <g id="text_11">
      <!-- 7 -->
      <g transform="translate(76.6375 144.06831) scale(0.1 -0.1)">
       <use xlink:href="#DejaVuSans-37"/>
      </g>
     </g>
    </g>
    <g id="ytick_7">
     <g id="line2d_11">
      <g>
       <use xlink:href="#m66e6d43553" x="90" y="97.647526" style="stroke: #000000; stroke-width: 0.8"/>
      </g>
     </g>
     <g id="text_12">
      <!-- 8 -->
      <g transform="translate(76.6375 101.446745) scale(0.1 -0.1)">
       <defs>
        <path id="DejaVuSans-38" d="M 2034 2216 
Q 1584 2216 1326 1975 
Q 1069 1734 1069 1313 
Q 1069 891 1326 650 
Q 1584 409 2034 409 
Q 2484 409 2743 651 
Q 3003 894 3003 1313 
Q 3003 1734 2745 1975 
Q 2488 2216 2034 2216 
z
M 1403 2484 
Q 997 2584 770 2862 
Q 544 3141 544 3541 
Q 544 4100 942 4425 
Q 1341 4750 2034 4750 
Q 2731 4750 3128 4425 
Q 3525 4100 3525 3541 
Q 3525 3141 3298 2862 
Q 3072 2584 2669 2484 
Q 3125 2378 3379 2068 
Q 3634 1759 3634 1313 
Q 3634 634 3220 271 
Q 2806 -91 2034 -91 
Q 1263 -91 848 271 
Q 434 634 434 1313 
Q 434 1759 690 2068 
Q 947 2378 1403 2484 
z
M 1172 3481 
Q 1172 3119 1398 2916 
Q 1625 2713 2034 2713 
Q 2441 2713 2670 2916 
Q 2900 3119 2900 3481 
Q 2900 3844 2670 4047 
Q 2441 4250 2034 4250 
Q 1625 4250 1398 4047 
Q 1172 3844 1172 3481 
z
" transform="scale(0.015625)"/>
       </defs>
       <use xlink:href="#DejaVuSans-38"/>
      </g>
     </g>
    </g>
    <g id="ytick_8">
     <g id="line2d_12">
      <g>
       <use xlink:href="#m66e6d43553" x="90" y="55.025962" style="stroke: #000000; stroke-width: 0.8"/>
      </g>
     </g>
     <g id="text_13">
      <!-- 9 -->
      <g transform="translate(76.6375 58.825181) scale(0.1 -0.1)">
       <defs>
        <path id="DejaVuSans-39" d="M 703 97 
L 703 672 
Q 941 559 1184 500 
Q 1428 441 1663 441 
Q 2288 441 2617 861 
Q 2947 1281 2994 2138 
Q 2813 1869 2534 1725 
Q 2256 1581 1919 1581 
Q 1219 1581 811 2004 
Q 403 2428 403 3163 
Q 403 3881 828 4315 
Q 1253 4750 1959 4750 
Q 2769 4750 3195 4129 
Q 3622 3509 3622 2328 
Q 3622 1225 3098 567 
Q 2575 -91 1691 -91 
Q 1453 -91 1209 -44 
Q 966 3 703 97 
z
M 1959 2075 
Q 2384 2075 2632 2365 
Q 2881 2656 2881 3163 
Q 2881 3666 2632 3958 
Q 2384 4250 1959 4250 
Q 1534 4250 1286 3958 
Q 1038 3666 1038 3163 
Q 1038 2656 1286 2365 
Q 1534 2075 1959 2075 
z
" transform="scale(0.015625)"/>
       </defs>
       <use xlink:href="#DejaVuSans-39"/>
      </g>
     </g>
    </g>
    <g id="text_14">
     <!-- MT-Bench -->
     <g transform="translate(70.557812 242.288125) rotate(-90) scale(0.1 -0.1)">
      <defs>
       <path id="DejaVuSans-4d" d="M 628 4666 
L 1569 4666 
L 2759 1491 
L 3956 4666 
L 4897 4666 
L 4897 0 
L 4281 0 
L 4281 4097 
L 3078 897 
L 2444 897 
L 1241 4097 
L 1241 0 
L 628 0 
L 628 4666 
z
" transform="scale(0.015625)"/>
       <path id="DejaVuSans-54" d="M -19 4666 
L 3928 4666 
L 3928 4134 
L 2272 4134 
L 2272 0 
L 1638 0 
L 1638 4134 
L -19 4134 
L -19 4666 
z
" transform="scale(0.015625)"/>
       <path id="DejaVuSans-2d" d="M 313 2009 
L 1997 2009 
L 1997 1497 
L 313 1497 
L 313 2009 
z
" transform="scale(0.015625)"/>
       <path id="DejaVuSans-6e" d="M 3513 2113 
L 3513 0 
L 2938 0 
L 2938 2094 
Q 2938 2591 2744 2837 
Q 2550 3084 2163 3084 
Q 1697 3084 1428 2787 
Q 1159 2491 1159 1978 
L 1159 0 
L 581 0 
L 581 3500 
L 1159 3500 
L 1159 2956 
Q 1366 3272 1645 3428 
Q 1925 3584 2291 3584 
Q 2894 3584 3203 3211 
Q 3513 2838 3513 2113 
z
" transform="scale(0.015625)"/>
       <path id="DejaVuSans-63" d="M 3122 3366 
L 3122 2828 
Q 2878 2963 2633 3030 
Q 2388 3097 2138 3097 
Q 1578 3097 1268 2742 
Q 959 2388 959 1747 
Q 959 1106 1268 751 
Q 1578 397 2138 397 
Q 2388 397 2633 464 
Q 2878 531 3122 666 
L 3122 134 
Q 2881 22 2623 -34 
Q 2366 -91 2075 -91 
Q 1284 -91 818 406 
Q 353 903 353 1747 
Q 353 2603 823 3093 
Q 1294 3584 2113 3584 
Q 2378 3584 2631 3529 
Q 2884 3475 3122 3366 
z
" transform="scale(0.015625)"/>
       <path id="DejaVuSans-68" d="M 3513 2113 
L 3513 0 
L 2938 0 
L 2938 2094 
Q 2938 2591 2744 2837 
Q 2550 3084 2163 3084 
Q 1697 3084 1428 2787 
Q 1159 2491 1159 1978 
L 1159 0 
L 581 0 
L 581 4863 
L 1159 4863 
L 1159 2956 
Q 1366 3272 1645 3428 
Q 1925 3584 2291 3584 
Q 2894 3584 3203 3211 
Q 3513 2838 3513 2113 
z
" transform="scale(0.015625)"/>
      </defs>
      <use xlink:href="#DejaVuSans-4d"/>
      <use xlink:href="#DejaVuSans-54" transform="translate(86.279297 0)"/>
      <use xlink:href="#DejaVuSans-2d" transform="translate(138.238281 0)"/>
      <use xlink:href="#DejaVuSans-42" transform="translate(170.697266 0)"/>
      <use xlink:href="#DejaVuSans-65" transform="translate(239.300781 0)"/>
      <use xlink:href="#DejaVuSans-6e" transform="translate(300.824219 0)"/>
      <use xlink:href="#DejaVuSans-63" transform="translate(364.203125 0)"/>
      <use xlink:href="#DejaVuSans-68" transform="translate(419.183594 0)"/>
     </g>
    </g>
   </g>
   <g id="line2d_13">
    <path d="M 115.363636 177.219478 
L 120.487603 176.561119 
L 125.61157 175.90276 
L 130.735537 175.244401 
L 135.859504 174.586041 
L 140.983471 173.927682 
L 146.107438 173.269323 
L 151.231405 172.610964 
L 156.355372 171.952604 
L 161.479339 171.294245 
L 166.603306 170.635886 
L 171.727273 169.977527 
L 176.85124 169.319167 
L 181.975207 168.660808 
L 187.099174 168.002449 
L 192.22314 167.34409 
L 197.347107 166.68573 
L 202.471074 166.027371 
L 207.595041 165.369012 
L 212.719008 164.710653 
L 217.842975 164.052293 
L 222.966942 163.393934 
L 228.090909 162.735575 
L 233.214876 162.077216 
L 238.338843 161.418856 
L 243.46281 160.760497 
L 248.586777 160.102138 
L 253.710744 159.443779 
L 258.834711 158.785419 
L 263.958678 158.12706 
L 269.082645 157.468701 
L 274.206612 156.810342 
L 279.330579 156.151982 
L 284.454545 155.493623 
L 289.578512 154.835264 
L 294.702479 154.176905 
L 299.826446 153.518545 
L 304.950413 152.860186 
L 310.07438 152.201827 
L 315.198347 151.543468 
L 320.322314 150.885108 
L 325.446281 150.226749 
L 330.570248 149.56839 
L 335.694215 148.910031 
L 340.818182 148.251671 
L 345.942149 147.593312 
L 351.066116 146.934953 
L 356.190083 146.276594 
L 361.31405 145.618234 
L 366.438017 144.959875 
L 371.561983 144.301516 
L 376.68595 143.643157 
L 381.809917 142.984797 
L 386.933884 142.326438 
L 392.057851 141.668079 
L 397.181818 141.00972 
L 402.305785 140.35136 
L 407.429752 139.693001 
L 412.553719 139.034642 
L 417.677686 138.376283 
L 422.801653 137.717923 
L 427.92562 137.059564 
L 433.049587 136.401205 
L 438.173554 135.742846 
L 443.297521 135.084486 
L 448.421488 134.426127 
L 453.545455 133.767768 
L 458.669421 133.109409 
L 463.793388 132.451049 
L 468.917355 131.79269 
L 474.041322 131.134331 
L 479.165289 130.475972 
L 484.289256 129.817612 
L 489.413223 129.159253 
L 494.53719 128.500894 
L 499.661157 127.842535 
L 504.785124 127.184175 
L 509.909091 126.525816 
L 515.033058 125.867457 
L 520.157025 125.209098 
L 525.280992 124.550738 
L 530.404959 123.892379 
L 535.528926 123.23402 
L 540.652893 122.575661 
L 545.77686 121.917301 
L 550.900826 121.258942 
L 556.024793 120.600583 
L 561.14876 119.942224 
L 566.272727 119.283864 
L 571.396694 118.625505 
L 576.520661 117.967146 
L 581.644628 117.308787 
L 586.768595 116.650427 
L 591.892562 115.992068 
L 597.016529 115.333709 
L 602.140496 114.67535 
L 607.264463 114.01699 
L 612.38843 113.358631 
L 617.512397 112.700272 
L 622.636364 112.041913 
" clip-path="url(#p67d5da3789)" style="fill: none; stroke: #1f77b4; stroke-width: 2.25; stroke-linecap: square"/>
   </g>
   <g id="line2d_14">
    <path d="M 115.363636 218.299688 
L 120.487603 217.053945 
L 125.61157 215.808201 
L 130.735537 214.562457 
L 135.859504 213.316713 
L 140.983471 212.070969 
L 146.107438 210.825225 
L 151.231405 209.579481 
L 156.355372 208.333737 
L 161.479339 207.087993 
L 166.603306 205.842249 
L 171.727273 204.596505 
L 176.85124 203.350761 
L 181.975207 202.105017 
L 187.099174 200.859273 
L 192.22314 199.613529 
L 197.347107 198.367785 
L 202.471074 197.122041 
L 207.595041 195.876297 
L 212.719008 194.630553 
L 217.842975 193.38481 
L 222.966942 192.139066 
L 228.090909 190.893322 
L 233.214876 189.647578 
L 238.338843 188.401834 
L 243.46281 187.15609 
L 248.586777 185.910346 
L 253.710744 184.664602 
L 258.834711 183.418858 
L 263.958678 182.173114 
L 269.082645 180.92737 
L 274.206612 179.681626 
L 279.330579 178.435882 
L 284.454545 177.190138 
L 289.578512 175.944394 
L 294.702479 174.69865 
L 299.826446 173.452906 
L 304.950413 172.207162 
L 310.07438 170.961418 
L 315.198347 169.715674 
L 320.322314 168.469931 
L 325.446281 167.224187 
L 330.570248 165.978443 
L 335.694215 164.732699 
L 340.818182 163.486955 
L 345.942149 162.241211 
L 351.066116 160.995467 
L 356.190083 159.749723 
L 361.31405 158.503979 
L 366.438017 157.258235 
L 371.561983 156.012491 
L 376.68595 154.766747 
L 381.809917 153.521003 
L 386.933884 152.275259 
L 392.057851 151.029515 
L 397.181818 149.783771 
L 402.305785 148.538027 
L 407.429752 147.292283 
L 412.553719 146.046539 
L 417.677686 144.800796 
L 422.801653 143.555052 
L 427.92562 142.309308 
L 433.049587 141.063564 
L 438.173554 139.81782 
L 443.297521 138.572076 
L 448.421488 137.326332 
L 453.545455 136.080588 
L 458.669421 134.834844 
L 463.793388 133.5891 
L 468.917355 132.343356 
L 474.041322 131.097612 
L 479.165289 129.851868 
L 484.289256 128.606124 
L 489.413223 127.36038 
L 494.53719 126.114636 
L 499.661157 124.868892 
L 504.785124 123.623148 
L 509.909091 122.377404 
L 515.033058 121.13166 
L 520.157025 119.885917 
L 525.280992 118.640173 
L 530.404959 117.394429 
L 535.528926 116.148685 
L 540.652893 114.902941 
L 545.77686 113.657197 
L 550.900826 112.411453 
L 556.024793 111.165709 
L 561.14876 109.919965 
L 566.272727 108.674221 
L 571.396694 107.428477 
L 576.520661 106.182733 
L 581.644628 104.936989 
L 586.768595 103.691245 
L 591.892562 102.445501 
L 597.016529 101.199757 
L 602.140496 99.954013 
L 607.264463 98.708269 
L 612.38843 97.462525 
L 617.512397 96.216782 
L 622.636364 94.971038 
" clip-path="url(#p67d5da3789)" style="fill: none; stroke: #ff7f0e; stroke-width: 2.25; stroke-linecap: square"/>
   </g>
   <g id="line2d_15">
    <path d="M 115.363636 210.638887 
L 120.487603 210.065282 
L 125.61157 209.491676 
L 130.735537 208.918071 
L 135.859504 208.344465 
L 140.983471 207.77086 
L 146.107438 207.197255 
L 151.231405 206.623649 
L 156.355372 206.050044 
L 161.479339 205.476438 
L 166.603306 204.902833 
L 171.727273 204.329228 
L 176.85124 203.755622 
L 181.975207 203.182017 
L 187.099174 202.608412 
L 192.22314 202.034806 
L 197.347107 201.461201 
L 202.471074 200.887595 
L 207.595041 200.31399 
L 212.719008 199.740385 
L 217.842975 199.166779 
L 222.966942 198.593174 
L 228.090909 198.019569 
L 233.214876 197.445963 
L 238.338843 196.872358 
L 243.46281 196.298752 
L 248.586777 195.725147 
L 253.710744 195.151542 
L 258.834711 194.577936 
L 263.958678 194.004331 
L 269.082645 193.430725 
L 274.206612 192.85712 
L 279.330579 192.283515 
L 284.454545 191.709909 
L 289.578512 191.136304 
L 294.702479 190.562699 
L 299.826446 189.989093 
L 304.950413 189.415488 
L 310.07438 188.841882 
L 315.198347 188.268277 
L 320.322314 187.694672 
L 325.446281 187.121066 
L 330.570248 186.547461 
L 335.694215 185.973855 
L 340.818182 185.40025 
L 345.942149 184.826645 
L 351.066116 184.253039 
L 356.190083 183.679434 
L 361.31405 183.105829 
L 366.438017 182.532223 
L 371.561983 181.958618 
L 376.68595 181.385012 
L 381.809917 180.811407 
L 386.933884 180.237802 
L 392.057851 179.664196 
L 397.181818 179.090591 
L 402.305785 178.516986 
L 407.429752 177.94338 
L 412.553719 177.369775 
L 417.677686 176.796169 
L 422.801653 176.222564 
L 427.92562 175.648959 
L 433.049587 175.075353 
L 438.173554 174.501748 
L 443.297521 173.928142 
L 448.421488 173.354537 
L 453.545455 172.780932 
L 458.669421 172.207326 
L 463.793388 171.633721 
L 468.917355 171.060116 
L 474.041322 170.48651 
L 479.165289 169.912905 
L 484.289256 169.339299 
L 489.413223 168.765694 
L 494.53719 168.192089 
L 499.661157 167.618483 
L 504.785124 167.044878 
L 509.909091 166.471273 
L 515.033058 165.897667 
L 520.157025 165.324062 
L 525.280992 164.750456 
L 530.404959 164.176851 
L 535.528926 163.603246 
L 540.652893 163.02964 
L 545.77686 162.456035 
L 550.900826 161.882429 
L 556.024793 161.308824 
L 561.14876 160.735219 
L 566.272727 160.161613 
L 571.396694 159.588008 
L 576.520661 159.014403 
L 581.644628 158.440797 
L 586.768595 157.867192 
L 591.892562 157.293586 
L 597.016529 156.719981 
L 602.140496 156.146376 
L 607.264463 155.57277 
L 612.38843 154.999165 
L 617.512397 154.42556 
L 622.636364 153.851954 
" clip-path="url(#p67d5da3789)" style="fill: none; stroke: #2ca02c; stroke-width: 2.25; stroke-linecap: square"/>
   </g>
   <g id="line2d_16">
    <path d="M 115.363636 202.77636 
L 120.487603 201.900647 
L 125.61157 201.024933 
L 130.735537 200.14922 
L 135.859504 199.273506 
L 140.983471 198.397793 
L 146.107438 197.522079 
L 151.231405 196.646366 
L 156.355372 195.770652 
L 161.479339 194.894938 
L 166.603306 194.019225 
L 171.727273 193.143511 
L 176.85124 192.267798 
L 181.975207 191.392084 
L 187.099174 190.516371 
L 192.22314 189.640657 
L 197.347107 188.764944 
L 202.471074 187.88923 
L 207.595041 187.013517 
L 212.719008 186.137803 
L 217.842975 185.26209 
L 222.966942 184.386376 
L 228.090909 183.510662 
L 233.214876 182.634949 
L 238.338843 181.759235 
L 243.46281 180.883522 
L 248.586777 180.007808 
L 253.710744 179.132095 
L 258.834711 178.256381 
L 263.958678 177.380668 
L 269.082645 176.504954 
L 274.206612 175.629241 
L 279.330579 174.753527 
L 284.454545 173.877814 
L 289.578512 173.0021 
L 294.702479 172.126386 
L 299.826446 171.250673 
L 304.950413 170.374959 
L 310.07438 169.499246 
L 315.198347 168.623532 
L 320.322314 167.747819 
L 325.446281 166.872105 
L 330.570248 165.996392 
L 335.694215 165.120678 
L 340.818182 164.244965 
L 345.942149 163.369251 
L 351.066116 162.493538 
L 356.190083 161.617824 
L 361.31405 160.74211 
L 366.438017 159.866397 
L 371.561983 158.990683 
L 376.68595 158.11497 
L 381.809917 157.239256 
L 386.933884 156.363543 
L 392.057851 155.487829 
L 397.181818 154.612116 
L 402.305785 153.736402 
L 407.429752 152.860689 
L 412.553719 151.984975 
L 417.677686 151.109261 
L 422.801653 150.233548 
L 427.92562 149.357834 
L 433.049587 148.482121 
L 438.173554 147.606407 
L 443.297521 146.730694 
L 448.421488 145.85498 
L 453.545455 144.979267 
L 458.669421 144.103553 
L 463.793388 143.22784 
L 468.917355 142.352126 
L 474.041322 141.476413 
L 479.165289 140.600699 
L 484.289256 139.724985 
L 489.413223 138.849272 
L 494.53719 137.973558 
L 499.661157 137.097845 
L 504.785124 136.222131 
L 509.909091 135.346418 
L 515.033058 134.470704 
L 520.157025 133.594991 
L 525.280992 132.719277 
L 530.404959 131.843564 
L 535.528926 130.96785 
L 540.652893 130.092137 
L 545.77686 129.216423 
L 550.900826 128.340709 
L 556.024793 127.464996 
L 561.14876 126.589282 
L 566.272727 125.713569 
L 571.396694 124.837855 
L 576.520661 123.962142 
L 581.644628 123.086428 
L 586.768595 122.210715 
L 591.892562 121.335001 
L 597.016529 120.459288 
L 602.140496 119.583574 
L 607.264463 118.707861 
L 612.38843 117.832147 
L 617.512397 116.956433 
L 622.636364 116.08072 
" clip-path="url(#p67d5da3789)" style="fill: none; stroke: #d62728; stroke-width: 2.25; stroke-linecap: square"/>
   </g>
   <g id="patch_3">
    <path d="M 90 384.48 
L 90 51.84 
" style="fill: none; stroke: #000000; stroke-width: 0.8; stroke-linejoin: miter; stroke-linecap: square"/>
   </g>
   <g id="patch_4">
    <path d="M 648 384.48 
L 648 51.84 
" style="fill: none; stroke: #000000; stroke-width: 0.8; stroke-linejoin: miter; stroke-linecap: square"/>
   </g>
   <g id="patch_5">
    <path d="M 90 384.48 
L 648 384.48 
" style="fill: none; stroke: #000000; stroke-width: 0.8; stroke-linejoin: miter; stroke-linecap: square"/>
   </g>
   <g id="patch_6">
    <path d="M 90 51.84 
L 648 51.84 
" style="fill: none; stroke: #000000; stroke-width: 0.8; stroke-linejoin: miter; stroke-linecap: square"/>
   </g>
   <g id="text_15">
    <!-- Model Size vs Scores with Regression Lines -->
    <g transform="translate(239.446875 45.84) scale(0.12 -0.12)">
     <defs>
      <path id="DejaVuSans-20" transform="scale(0.015625)"/>
      <path id="DejaVuSans-53" d="M 3425 4513 
L 3425 3897 
Q 3066 4069 2747 4153 
Q 2428 4238 2131 4238 
Q 1616 4238 1336 4038 
Q 1056 3838 1056 3469 
Q 1056 3159 1242 3001 
Q 1428 2844 1947 2747 
L 2328 2669 
Q 3034 2534 3370 2195 
Q 3706 1856 3706 1288 
Q 3706 609 3251 259 
Q 2797 -91 1919 -91 
Q 1588 -91 1214 -16 
Q 841 59 441 206 
L 441 856 
Q 825 641 1194 531 
Q 1563 422 1919 422 
Q 2459 422 2753 634 
Q 3047 847 3047 1241 
Q 3047 1584 2836 1778 
Q 2625 1972 2144 2069 
L 1759 2144 
Q 1053 2284 737 2584 
Q 422 2884 422 3419 
Q 422 4038 858 4394 
Q 1294 4750 2059 4750 
Q 2388 4750 2728 4690 
Q 3069 4631 3425 4513 
z
" transform="scale(0.015625)"/>
      <path id="DejaVuSans-76" d="M 191 3500 
L 800 3500 
L 1894 563 
L 2988 3500 
L 3597 3500 
L 2284 0 
L 1503 0 
L 191 3500 
z
" transform="scale(0.015625)"/>
      <path id="DejaVuSans-72" d="M 2631 2963 
Q 2534 3019 2420 3045 
Q 2306 3072 2169 3072 
Q 1681 3072 1420 2755 
Q 1159 2438 1159 1844 
L 1159 0 
L 581 0 
L 581 3500 
L 1159 3500 
L 1159 2956 
Q 1341 3275 1631 3429 
Q 1922 3584 2338 3584 
Q 2397 3584 2469 3576 
Q 2541 3569 2628 3553 
L 2631 2963 
z
" transform="scale(0.015625)"/>
      <path id="DejaVuSans-77" d="M 269 3500 
L 844 3500 
L 1563 769 
L 2278 3500 
L 2956 3500 
L 3675 769 
L 4391 3500 
L 4966 3500 
L 4050 0 
L 3372 0 
L 2619 2869 
L 1863 0 
L 1184 0 
L 269 3500 
z
" transform="scale(0.015625)"/>
      <path id="DejaVuSans-74" d="M 1172 4494 
L 1172 3500 
L 2356 3500 
L 2356 3053 
L 1172 3053 
L 1172 1153 
Q 1172 725 1289 603 
Q 1406 481 1766 481 
L 2356 481 
L 2356 0 
L 1766 0 
Q 1100 0 847 248 
Q 594 497 594 1153 
L 594 3053 
L 172 3053 
L 172 3500 
L 594 3500 
L 594 4494 
L 1172 4494 
z
" transform="scale(0.015625)"/>
      <path id="DejaVuSans-52" d="M 2841 2188 
Q 3044 2119 3236 1894 
Q 3428 1669 3622 1275 
L 4263 0 
L 3584 0 
L 2988 1197 
Q 2756 1666 2539 1819 
Q 2322 1972 1947 1972 
L 1259 1972 
L 1259 0 
L 628 0 
L 628 4666 
L 2053 4666 
Q 2853 4666 3247 4331 
Q 3641 3997 3641 3322 
Q 3641 2881 3436 2590 
Q 3231 2300 2841 2188 
z
M 1259 4147 
L 1259 2491 
L 2053 2491 
Q 2509 2491 2742 2702 
Q 2975 2913 2975 3322 
Q 2975 3731 2742 3939 
Q 2509 4147 2053 4147 
L 1259 4147 
z
" transform="scale(0.015625)"/>
      <path id="DejaVuSans-67" d="M 2906 1791 
Q 2906 2416 2648 2759 
Q 2391 3103 1925 3103 
Q 1463 3103 1205 2759 
Q 947 2416 947 1791 
Q 947 1169 1205 825 
Q 1463 481 1925 481 
Q 2391 481 2648 825 
Q 2906 1169 2906 1791 
z
M 3481 434 
Q 3481 -459 3084 -895 
Q 2688 -1331 1869 -1331 
Q 1566 -1331 1297 -1286 
Q 1028 -1241 775 -1147 
L 775 -588 
Q 1028 -725 1275 -790 
Q 1522 -856 1778 -856 
Q 2344 -856 2625 -561 
Q 2906 -266 2906 331 
L 2906 616 
Q 2728 306 2450 153 
Q 2172 0 1784 0 
Q 1141 0 747 490 
Q 353 981 353 1791 
Q 353 2603 747 3093 
Q 1141 3584 1784 3584 
Q 2172 3584 2450 3431 
Q 2728 3278 2906 2969 
L 2906 3500 
L 3481 3500 
L 3481 434 
z
" transform="scale(0.015625)"/>
      <path id="DejaVuSans-4c" d="M 628 4666 
L 1259 4666 
L 1259 531 
L 3531 531 
L 3531 0 
L 628 0 
L 628 4666 
z
" transform="scale(0.015625)"/>
     </defs>
     <use xlink:href="#DejaVuSans-4d"/>
     <use xlink:href="#DejaVuSans-6f" transform="translate(86.279297 0)"/>
     <use xlink:href="#DejaVuSans-64" transform="translate(147.460938 0)"/>
     <use xlink:href="#DejaVuSans-65" transform="translate(210.9375 0)"/>
     <use xlink:href="#DejaVuSans-6c" transform="translate(272.460938 0)"/>
     <use xlink:href="#DejaVuSans-20" transform="translate(300.244141 0)"/>
     <use xlink:href="#DejaVuSans-53" transform="translate(332.03125 0)"/>
     <use xlink:href="#DejaVuSans-69" transform="translate(395.507812 0)"/>
     <use xlink:href="#DejaVuSans-7a" transform="translate(423.291016 0)"/>
     <use xlink:href="#DejaVuSans-65" transform="translate(475.78125 0)"/>
     <use xlink:href="#DejaVuSans-20" transform="translate(537.304688 0)"/>
     <use xlink:href="#DejaVuSans-76" transform="translate(569.091797 0)"/>
     <use xlink:href="#DejaVuSans-73" transform="translate(628.271484 0)"/>
     <use xlink:href="#DejaVuSans-20" transform="translate(680.371094 0)"/>
     <use xlink:href="#DejaVuSans-53" transform="translate(712.158203 0)"/>
     <use xlink:href="#DejaVuSans-63" transform="translate(775.634766 0)"/>
     <use xlink:href="#DejaVuSans-6f" transform="translate(830.615234 0)"/>
     <use xlink:href="#DejaVuSans-72" transform="translate(891.796875 0)"/>
     <use xlink:href="#DejaVuSans-65" transform="translate(930.660156 0)"/>
     <use xlink:href="#DejaVuSans-73" transform="translate(992.183594 0)"/>
     <use xlink:href="#DejaVuSans-20" transform="translate(1044.283203 0)"/>
     <use xlink:href="#DejaVuSans-77" transform="translate(1076.070312 0)"/>
     <use xlink:href="#DejaVuSans-69" transform="translate(1157.857422 0)"/>
     <use xlink:href="#DejaVuSans-74" transform="translate(1185.640625 0)"/>
     <use xlink:href="#DejaVuSans-68" transform="translate(1224.849609 0)"/>
     <use xlink:href="#DejaVuSans-20" transform="translate(1288.228516 0)"/>
     <use xlink:href="#DejaVuSans-52" transform="translate(1320.015625 0)"/>
     <use xlink:href="#DejaVuSans-65" transform="translate(1384.998047 0)"/>
     <use xlink:href="#DejaVuSans-67" transform="translate(1446.521484 0)"/>
     <use xlink:href="#DejaVuSans-72" transform="translate(1509.998047 0)"/>
     <use xlink:href="#DejaVuSans-65" transform="translate(1548.861328 0)"/>
     <use xlink:href="#DejaVuSans-73" transform="translate(1610.384766 0)"/>
     <use xlink:href="#DejaVuSans-73" transform="translate(1662.484375 0)"/>
     <use xlink:href="#DejaVuSans-69" transform="translate(1714.583984 0)"/>
     <use xlink:href="#DejaVuSans-6f" transform="translate(1742.367188 0)"/>
     <use xlink:href="#DejaVuSans-6e" transform="translate(1803.548828 0)"/>
     <use xlink:href="#DejaVuSans-20" transform="translate(1866.927734 0)"/>
     <use xlink:href="#DejaVuSans-4c" transform="translate(1898.714844 0)"/>
     <use xlink:href="#DejaVuSans-69" transform="translate(1954.427734 0)"/>
     <use xlink:href="#DejaVuSans-6e" transform="translate(1982.210938 0)"/>
     <use xlink:href="#DejaVuSans-65" transform="translate(2045.589844 0)"/>
     <use xlink:href="#DejaVuSans-73" transform="translate(2107.113281 0)"/>
    </g>
   </g>
   <g id="legend_1">
    <g id="patch_7">
     <path d="M 97 379.48 
L 211.7 379.48 
Q 213.7 379.48 213.7 377.48 
L 213.7 319.7675 
Q 213.7 317.7675 211.7 317.7675 
L 97 317.7675 
Q 95 317.7675 95 319.7675 
L 95 377.48 
Q 95 379.48 97 379.48 
z
" style="fill: #ffffff; opacity: 0.8; stroke: #cccccc; stroke-linejoin: miter"/>
    </g>
    <g id="PathCollection_5">
     <g>
      <use xlink:href="#m991c163abd" x="109" y="326.740937" style="fill: #1f77b4; fill-opacity: 0.8; stroke: #1f77b4; stroke-opacity: 0.8"/>
     </g>
    </g>
    <g id="text_16">
     <!-- ELYZA-tasks-100 -->
     <g transform="translate(127 329.365937) scale(0.1 -0.1)">
      <defs>
       <path id="DejaVuSans-45" d="M 628 4666 
L 3578 4666 
L 3578 4134 
L 1259 4134 
L 1259 2753 
L 3481 2753 
L 3481 2222 
L 1259 2222 
L 1259 531 
L 3634 531 
L 3634 0 
L 628 0 
L 628 4666 
z
" transform="scale(0.015625)"/>
       <path id="DejaVuSans-59" d="M -13 4666 
L 666 4666 
L 1959 2747 
L 3244 4666 
L 3922 4666 
L 2272 2222 
L 2272 0 
L 1638 0 
L 1638 2222 
L -13 4666 
z
" transform="scale(0.015625)"/>
       <path id="DejaVuSans-5a" d="M 359 4666 
L 4025 4666 
L 4025 4184 
L 1075 531 
L 4097 531 
L 4097 0 
L 288 0 
L 288 481 
L 3238 4134 
L 359 4134 
L 359 4666 
z
" transform="scale(0.015625)"/>
       <path id="DejaVuSans-41" d="M 2188 4044 
L 1331 1722 
L 3047 1722 
L 2188 4044 
z
M 1831 4666 
L 2547 4666 
L 4325 0 
L 3669 0 
L 3244 1197 
L 1141 1197 
L 716 0 
L 50 0 
L 1831 4666 
z
" transform="scale(0.015625)"/>
       <path id="DejaVuSans-61" d="M 2194 1759 
Q 1497 1759 1228 1600 
Q 959 1441 959 1056 
Q 959 750 1161 570 
Q 1363 391 1709 391 
Q 2188 391 2477 730 
Q 2766 1069 2766 1631 
L 2766 1759 
L 2194 1759 
z
M 3341 1997 
L 3341 0 
L 2766 0 
L 2766 531 
Q 2569 213 2275 61 
Q 1981 -91 1556 -91 
Q 1019 -91 701 211 
Q 384 513 384 1019 
Q 384 1609 779 1909 
Q 1175 2209 1959 2209 
L 2766 2209 
L 2766 2266 
Q 2766 2663 2505 2880 
Q 2244 3097 1772 3097 
Q 1472 3097 1187 3025 
Q 903 2953 641 2809 
L 641 3341 
Q 956 3463 1253 3523 
Q 1550 3584 1831 3584 
Q 2591 3584 2966 3190 
Q 3341 2797 3341 1997 
z
" transform="scale(0.015625)"/>
       <path id="DejaVuSans-6b" d="M 581 4863 
L 1159 4863 
L 1159 1991 
L 2875 3500 
L 3609 3500 
L 1753 1863 
L 3688 0 
L 2938 0 
L 1159 1709 
L 1159 0 
L 581 0 
L 581 4863 
z
" transform="scale(0.015625)"/>
      </defs>
      <use xlink:href="#DejaVuSans-45"/>
      <use xlink:href="#DejaVuSans-4c" transform="translate(63.183594 0)"/>
      <use xlink:href="#DejaVuSans-59" transform="translate(105.646484 0)"/>
      <use xlink:href="#DejaVuSans-5a" transform="translate(166.730469 0)"/>
      <use xlink:href="#DejaVuSans-41" transform="translate(235.236328 0)"/>
      <use xlink:href="#DejaVuSans-2d" transform="translate(301.394531 0)"/>
      <use xlink:href="#DejaVuSans-74" transform="translate(337.478516 0)"/>
      <use xlink:href="#DejaVuSans-61" transform="translate(376.6875 0)"/>
      <use xlink:href="#DejaVuSans-73" transform="translate(437.966797 0)"/>
      <use xlink:href="#DejaVuSans-6b" transform="translate(490.066406 0)"/>
      <use xlink:href="#DejaVuSans-73" transform="translate(547.976562 0)"/>
      <use xlink:href="#DejaVuSans-2d" transform="translate(600.076172 0)"/>
      <use xlink:href="#DejaVuSans-31" transform="translate(636.160156 0)"/>
      <use xlink:href="#DejaVuSans-30" transform="translate(699.783203 0)"/>
      <use xlink:href="#DejaVuSans-30" transform="translate(763.40625 0)"/>
     </g>
    </g>
    <g id="PathCollection_6">
     <g>
      <use xlink:href="#m142364b9aa" x="109" y="341.419062" style="fill: #ff7f0e; fill-opacity: 0.8; stroke: #ff7f0e; stroke-opacity: 0.8"/>
     </g>
    </g>
    <g id="text_17">
     <!-- Rakuda -->
     <g transform="translate(127 344.044062) scale(0.1 -0.1)">
      <defs>
       <path id="DejaVuSans-75" d="M 544 1381 
L 544 3500 
L 1119 3500 
L 1119 1403 
Q 1119 906 1312 657 
Q 1506 409 1894 409 
Q 2359 409 2629 706 
Q 2900 1003 2900 1516 
L 2900 3500 
L 3475 3500 
L 3475 0 
L 2900 0 
L 2900 538 
Q 2691 219 2414 64 
Q 2138 -91 1772 -91 
Q 1169 -91 856 284 
Q 544 659 544 1381 
z
M 1991 3584 
L 1991 3584 
z
" transform="scale(0.015625)"/>
      </defs>
      <use xlink:href="#DejaVuSans-52"/>
      <use xlink:href="#DejaVuSans-61" transform="translate(67.232422 0)"/>
      <use xlink:href="#DejaVuSans-6b" transform="translate(128.511719 0)"/>
      <use xlink:href="#DejaVuSans-75" transform="translate(183.296875 0)"/>
      <use xlink:href="#DejaVuSans-64" transform="translate(246.675781 0)"/>
      <use xlink:href="#DejaVuSans-61" transform="translate(310.152344 0)"/>
     </g>
    </g>
    <g id="PathCollection_7">
     <g>
      <use xlink:href="#mbd9f8ffb85" x="109" y="356.097188" style="fill: #2ca02c; fill-opacity: 0.8; stroke: #2ca02c; stroke-opacity: 0.8"/>
     </g>
    </g>
    <g id="text_18">
     <!-- Tengu-Bench -->
     <g transform="translate(127 358.722188) scale(0.1 -0.1)">
      <use xlink:href="#DejaVuSans-54"/>
      <use xlink:href="#DejaVuSans-65" transform="translate(44.083984 0)"/>
      <use xlink:href="#DejaVuSans-6e" transform="translate(105.607422 0)"/>
      <use xlink:href="#DejaVuSans-67" transform="translate(168.986328 0)"/>
      <use xlink:href="#DejaVuSans-75" transform="translate(232.462891 0)"/>
      <use xlink:href="#DejaVuSans-2d" transform="translate(295.841797 0)"/>
      <use xlink:href="#DejaVuSans-42" transform="translate(328.300781 0)"/>
      <use xlink:href="#DejaVuSans-65" transform="translate(396.904297 0)"/>
      <use xlink:href="#DejaVuSans-6e" transform="translate(458.427734 0)"/>
      <use xlink:href="#DejaVuSans-63" transform="translate(521.806641 0)"/>
      <use xlink:href="#DejaVuSans-68" transform="translate(576.787109 0)"/>
     </g>
    </g>
    <g id="PathCollection_8">
     <g>
      <use xlink:href="#m9796f3757a" x="109" y="370.775312" style="fill: #d62728; fill-opacity: 0.8; stroke: #d62728; stroke-opacity: 0.8"/>
     </g>
    </g>
    <g id="text_19">
     <!-- MT-Bench -->
     <g transform="translate(127 373.400312) scale(0.1 -0.1)">
      <use xlink:href="#DejaVuSans-4d"/>
      <use xlink:href="#DejaVuSans-54" transform="translate(86.279297 0)"/>
      <use xlink:href="#DejaVuSans-2d" transform="translate(138.238281 0)"/>
      <use xlink:href="#DejaVuSans-42" transform="translate(170.697266 0)"/>
      <use xlink:href="#DejaVuSans-65" transform="translate(239.300781 0)"/>
      <use xlink:href="#DejaVuSans-6e" transform="translate(300.824219 0)"/>
      <use xlink:href="#DejaVuSans-63" transform="translate(364.203125 0)"/>
      <use xlink:href="#DejaVuSans-68" transform="translate(419.183594 0)"/>
     </g>
    </g>
   </g>
  </g>
 </g>
 <defs>
  <clipPath id="p67d5da3789">
   <rect x="90" y="51.84" width="558" height="332.64"/>
  </clipPath>
 </defs>
</svg>
