<?xml version="1.0" encoding="utf-8" standalone="no"?>
<!DOCTYPE svg PUBLIC "-//W3C//DTD SVG 1.1//EN"
  "http://www.w3.org/Graphics/SVG/1.1/DTD/svg11.dtd">
<svg xmlns:xlink="http://www.w3.org/1999/xlink" width="720pt" height="432pt" viewBox="0 0 720 432" xmlns="http://www.w3.org/2000/svg" version="1.1">
 <metadata>
  <rdf:RDF xmlns:dc="http://purl.org/dc/elements/1.1/" xmlns:cc="http://creativecommons.org/ns#" xmlns:rdf="http://www.w3.org/1999/02/22-rdf-syntax-ns#">
   <cc:Work>
    <dc:type rdf:resource="http://purl.org/dc/dcmitype/StillImage"/>
    <dc:date>2024-11-20T10:08:23.236547</dc:date>
    <dc:format>image/svg+xml</dc:format>
    <dc:creator>
     <cc:Agent>
      <dc:title>Matplotlib v3.9.2, https://matplotlib.org/</dc:title>
     </cc:Agent>
    </dc:creator>
   </cc:Work>
  </rdf:RDF>
 </metadata>
 <defs>
  <style type="text/css">*{stroke-linejoin: round; stroke-linecap: butt}</style>
 </defs>
 <g id="figure_1">
  <g id="patch_1">
   <path d="M 0 432 
L 720 432 
L 720 0 
L 0 0 
z
" style="fill: #ffffff"/>
  </g>
  <g id="axes_1">
   <g id="patch_2">
    <path d="M 90 384.48 
L 648 384.48 
L 648 51.84 
L 90 51.84 
z
" style="fill: #ffffff"/>
   </g>
   <g id="PathCollection_1">
    <defs>
     <path id="m4d88c8340f" d="M 0 3 
C 0.795609 3 1.55874 2.683901 2.12132 2.12132 
C 2.683901 1.55874 3 0.795609 3 0 
C 3 -0.795609 2.683901 -1.55874 2.12132 -2.12132 
C 1.55874 -2.683901 0.795609 -3 0 -3 
C -0.795609 -3 -1.55874 -2.683901 -2.12132 -2.12132 
C -2.683901 -1.55874 -3 -0.795609 -3 0 
C -3 0.795609 -2.683901 1.55874 -2.12132 2.12132 
C -1.55874 2.683901 -0.795609 3 0 3 
z
" style="stroke: #1f77b4; stroke-opacity: 0.8"/>
    </defs>
    <g clip-path="url(#p00ae22c29f)">
     <use xlink:href="#m4d88c8340f" x="115.363636" y="154.997209" style="fill: #1f77b4; fill-opacity: 0.8; stroke: #1f77b4; stroke-opacity: 0.8"/>
     <use xlink:href="#m4d88c8340f" x="179.356357" y="278.864596" style="fill: #1f77b4; fill-opacity: 0.8; stroke: #1f77b4; stroke-opacity: 0.8"/>
     <use xlink:href="#m4d88c8340f" x="204.752322" y="264.68603" style="fill: #1f77b4; fill-opacity: 0.8; stroke: #1f77b4; stroke-opacity: 0.8"/>
     <use xlink:href="#m4d88c8340f" x="227.15315" y="205.643204" style="fill: #1f77b4; fill-opacity: 0.8; stroke: #1f77b4; stroke-opacity: 0.8"/>
     <use xlink:href="#m4d88c8340f" x="281.866605" y="213.862326" style="fill: #1f77b4; fill-opacity: 0.8; stroke: #1f77b4; stroke-opacity: 0.8"/>
     <use xlink:href="#m4d88c8340f" x="297.089705" y="290.43907" style="fill: #1f77b4; fill-opacity: 0.8; stroke: #1f77b4; stroke-opacity: 0.8"/>
     <use xlink:href="#m4d88c8340f" x="311.184095" y="265.023989" style="fill: #1f77b4; fill-opacity: 0.8; stroke: #1f77b4; stroke-opacity: 0.8"/>
     <use xlink:href="#m4d88c8340f" x="397.14589" y="158.383256" style="fill: #1f77b4; fill-opacity: 0.8; stroke: #1f77b4; stroke-opacity: 0.8"/>
     <use xlink:href="#m4d88c8340f" x="436.095171" y="156.03907" style="fill: #1f77b4; fill-opacity: 0.8; stroke: #1f77b4; stroke-opacity: 0.8"/>
     <use xlink:href="#m4d88c8340f" x="468.407797" y="141.760846" style="fill: #1f77b4; fill-opacity: 0.8; stroke: #1f77b4; stroke-opacity: 0.8"/>
     <use xlink:href="#m4d88c8340f" x="485.450885" y="262.308837" style="fill: #1f77b4; fill-opacity: 0.8; stroke: #1f77b4; stroke-opacity: 0.8"/>
     <use xlink:href="#m4d88c8340f" x="510.84685" y="66.96" style="fill: #1f77b4; fill-opacity: 0.8; stroke: #1f77b4; stroke-opacity: 0.8"/>
     <use xlink:href="#m4d88c8340f" x="541.517991" y="241.992558" style="fill: #1f77b4; fill-opacity: 0.8; stroke: #1f77b4; stroke-opacity: 0.8"/>
     <use xlink:href="#m4d88c8340f" x="617.278623" y="167.812093" style="fill: #1f77b4; fill-opacity: 0.8; stroke: #1f77b4; stroke-opacity: 0.8"/>
     <use xlink:href="#m4d88c8340f" x="622.636364" y="157.682352" style="fill: #1f77b4; fill-opacity: 0.8; stroke: #1f77b4; stroke-opacity: 0.8"/>
    </g>
   </g>
   <g id="PathCollection_2">
    <defs>
     <path id="m01b32a93d1" d="M 0 3 
C 0.795609 3 1.55874 2.683901 2.12132 2.12132 
C 2.683901 1.55874 3 0.795609 3 0 
C 3 -0.795609 2.683901 -1.55874 2.12132 -2.12132 
C 1.55874 -2.683901 0.795609 -3 0 -3 
C -0.795609 -3 -1.55874 -2.683901 -2.12132 -2.12132 
C -2.683901 -1.55874 -3 -0.795609 -3 0 
C -3 0.795609 -2.683901 1.55874 -2.12132 2.12132 
C -1.55874 2.683901 -0.795609 3 0 3 
z
" style="stroke: #ff7f0e; stroke-opacity: 0.8"/>
    </defs>
    <g clip-path="url(#p00ae22c29f)">
     <use xlink:href="#m01b32a93d1" x="115.363636" y="173.36" style="fill: #ff7f0e; fill-opacity: 0.8; stroke: #ff7f0e; stroke-opacity: 0.8"/>
     <use xlink:href="#m01b32a93d1" x="179.356357" y="299.389585" style="fill: #ff7f0e; fill-opacity: 0.8; stroke: #ff7f0e; stroke-opacity: 0.8"/>
     <use xlink:href="#m01b32a93d1" x="204.752322" y="275.835614" style="fill: #ff7f0e; fill-opacity: 0.8; stroke: #ff7f0e; stroke-opacity: 0.8"/>
     <use xlink:href="#m01b32a93d1" x="227.15315" y="276.235147" style="fill: #ff7f0e; fill-opacity: 0.8; stroke: #ff7f0e; stroke-opacity: 0.8"/>
     <use xlink:href="#m01b32a93d1" x="281.866605" y="205.266977" style="fill: #ff7f0e; fill-opacity: 0.8; stroke: #ff7f0e; stroke-opacity: 0.8"/>
     <use xlink:href="#m01b32a93d1" x="297.089705" y="369.36" style="fill: #ff7f0e; fill-opacity: 0.8; stroke: #ff7f0e; stroke-opacity: 0.8"/>
     <use xlink:href="#m01b32a93d1" x="311.184095" y="265.003649" style="fill: #ff7f0e; fill-opacity: 0.8; stroke: #ff7f0e; stroke-opacity: 0.8"/>
     <use xlink:href="#m01b32a93d1" x="397.14589" y="240.112986" style="fill: #ff7f0e; fill-opacity: 0.8; stroke: #ff7f0e; stroke-opacity: 0.8"/>
     <use xlink:href="#m01b32a93d1" x="436.095171" y="80.243721" style="fill: #ff7f0e; fill-opacity: 0.8; stroke: #ff7f0e; stroke-opacity: 0.8"/>
     <use xlink:href="#m01b32a93d1" x="468.407797" y="146.90025" style="fill: #ff7f0e; fill-opacity: 0.8; stroke: #ff7f0e; stroke-opacity: 0.8"/>
     <use xlink:href="#m01b32a93d1" x="485.450885" y="166.197209" style="fill: #ff7f0e; fill-opacity: 0.8; stroke: #ff7f0e; stroke-opacity: 0.8"/>
     <use xlink:href="#m01b32a93d1" x="510.84685" y="80.243721" style="fill: #ff7f0e; fill-opacity: 0.8; stroke: #ff7f0e; stroke-opacity: 0.8"/>
     <use xlink:href="#m01b32a93d1" x="541.517991" y="193.134786" style="fill: #ff7f0e; fill-opacity: 0.8; stroke: #ff7f0e; stroke-opacity: 0.8"/>
     <use xlink:href="#m01b32a93d1" x="617.278623" y="170.685224" style="fill: #ff7f0e; fill-opacity: 0.8; stroke: #ff7f0e; stroke-opacity: 0.8"/>
     <use xlink:href="#m01b32a93d1" x="622.636364" y="124.685581" style="fill: #ff7f0e; fill-opacity: 0.8; stroke: #ff7f0e; stroke-opacity: 0.8"/>
    </g>
   </g>
   <g id="PathCollection_3">
    <defs>
     <path id="m6cf929642f" d="M 0 3 
C 0.795609 3 1.55874 2.683901 2.12132 2.12132 
C 2.683901 1.55874 3 0.795609 3 0 
C 3 -0.795609 2.683901 -1.55874 2.12132 -2.12132 
C 1.55874 -2.683901 0.795609 -3 0 -3 
C -0.795609 -3 -1.55874 -2.683901 -2.12132 -2.12132 
C -2.683901 -1.55874 -3 -0.795609 -3 0 
C -3 0.795609 -2.683901 1.55874 -2.12132 2.12132 
C -1.55874 2.683901 -0.795609 3 0 3 
z
" style="stroke: #2ca02c; stroke-opacity: 0.8"/>
    </defs>
    <g clip-path="url(#p00ae22c29f)">
     <use xlink:href="#m6cf929642f" x="115.363636" y="229.903548" style="fill: #2ca02c; fill-opacity: 0.8; stroke: #2ca02c; stroke-opacity: 0.8"/>
     <use xlink:href="#m6cf929642f" x="179.356357" y="324.992771" style="fill: #2ca02c; fill-opacity: 0.8; stroke: #2ca02c; stroke-opacity: 0.8"/>
     <use xlink:href="#m6cf929642f" x="204.752322" y="343.972357" style="fill: #2ca02c; fill-opacity: 0.8; stroke: #2ca02c; stroke-opacity: 0.8"/>
     <use xlink:href="#m6cf929642f" x="227.15315" y="291.244582" style="fill: #2ca02c; fill-opacity: 0.8; stroke: #2ca02c; stroke-opacity: 0.8"/>
     <use xlink:href="#m6cf929642f" x="281.866605" y="290.569302" style="fill: #2ca02c; fill-opacity: 0.8; stroke: #2ca02c; stroke-opacity: 0.8"/>
     <use xlink:href="#m6cf929642f" x="297.089705" y="355.685581" style="fill: #2ca02c; fill-opacity: 0.8; stroke: #2ca02c; stroke-opacity: 0.8"/>
     <use xlink:href="#m6cf929642f" x="311.184095" y="325.945468" style="fill: #2ca02c; fill-opacity: 0.8; stroke: #2ca02c; stroke-opacity: 0.8"/>
     <use xlink:href="#m6cf929642f" x="397.14589" y="226.941395" style="fill: #2ca02c; fill-opacity: 0.8; stroke: #2ca02c; stroke-opacity: 0.8"/>
     <use xlink:href="#m6cf929642f" x="436.095171" y="185.08093" style="fill: #2ca02c; fill-opacity: 0.8; stroke: #2ca02c; stroke-opacity: 0.8"/>
     <use xlink:href="#m6cf929642f" x="468.407797" y="220.510479" style="fill: #2ca02c; fill-opacity: 0.8; stroke: #2ca02c; stroke-opacity: 0.8"/>
     <use xlink:href="#m6cf929642f" x="485.450885" y="245.964651" style="fill: #2ca02c; fill-opacity: 0.8; stroke: #2ca02c; stroke-opacity: 0.8"/>
     <use xlink:href="#m6cf929642f" x="510.84685" y="168.80186" style="fill: #2ca02c; fill-opacity: 0.8; stroke: #2ca02c; stroke-opacity: 0.8"/>
     <use xlink:href="#m6cf929642f" x="541.517991" y="355.034419" style="fill: #2ca02c; fill-opacity: 0.8; stroke: #2ca02c; stroke-opacity: 0.8"/>
     <use xlink:href="#m6cf929642f" x="617.278623" y="257.847587" style="fill: #2ca02c; fill-opacity: 0.8; stroke: #2ca02c; stroke-opacity: 0.8"/>
     <use xlink:href="#m6cf929642f" x="622.636364" y="227.243721" style="fill: #2ca02c; fill-opacity: 0.8; stroke: #2ca02c; stroke-opacity: 0.8"/>
    </g>
   </g>
   <g id="PathCollection_4">
    <defs>
     <path id="m21d7da5dfb" d="M 0 3 
C 0.795609 3 1.55874 2.683901 2.12132 2.12132 
C 2.683901 1.55874 3 0.795609 3 0 
C 3 -0.795609 2.683901 -1.55874 2.12132 -2.12132 
C 1.55874 -2.683901 0.795609 -3 0 -3 
C -0.795609 -3 -1.55874 -2.683901 -2.12132 -2.12132 
C -2.683901 -1.55874 -3 -0.795609 -3 0 
C -3 0.795609 -2.683901 1.55874 -2.12132 2.12132 
C -1.55874 2.683901 -0.795609 3 0 3 
z
" style="stroke: #d62728; stroke-opacity: 0.8"/>
    </defs>
    <g clip-path="url(#p00ae22c29f)">
     <use xlink:href="#m21d7da5dfb" x="115.363636" y="168.699476" style="fill: #d62728; fill-opacity: 0.8; stroke: #d62728; stroke-opacity: 0.8"/>
     <use xlink:href="#m21d7da5dfb" x="179.356357" y="315.023933" style="fill: #d62728; fill-opacity: 0.8; stroke: #d62728; stroke-opacity: 0.8"/>
     <use xlink:href="#m21d7da5dfb" x="204.752322" y="266.517836" style="fill: #d62728; fill-opacity: 0.8; stroke: #d62728; stroke-opacity: 0.8"/>
     <use xlink:href="#m21d7da5dfb" x="227.15315" y="285.992885" style="fill: #d62728; fill-opacity: 0.8; stroke: #d62728; stroke-opacity: 0.8"/>
     <use xlink:href="#m21d7da5dfb" x="281.866605" y="197.386803" style="fill: #d62728; fill-opacity: 0.8; stroke: #d62728; stroke-opacity: 0.8"/>
     <use xlink:href="#m21d7da5dfb" x="297.089705" y="348.197209" style="fill: #d62728; fill-opacity: 0.8; stroke: #d62728; stroke-opacity: 0.8"/>
     <use xlink:href="#m21d7da5dfb" x="311.184095" y="317.693601" style="fill: #d62728; fill-opacity: 0.8; stroke: #d62728; stroke-opacity: 0.8"/>
     <use xlink:href="#m21d7da5dfb" x="397.14589" y="167.592558" style="fill: #d62728; fill-opacity: 0.8; stroke: #d62728; stroke-opacity: 0.8"/>
     <use xlink:href="#m21d7da5dfb" x="436.095171" y="98.544823" style="fill: #d62728; fill-opacity: 0.8; stroke: #d62728; stroke-opacity: 0.8"/>
     <use xlink:href="#m21d7da5dfb" x="468.407797" y="146.782277" style="fill: #d62728; fill-opacity: 0.8; stroke: #d62728; stroke-opacity: 0.8"/>
     <use xlink:href="#m21d7da5dfb" x="485.450885" y="213.765762" style="fill: #d62728; fill-opacity: 0.8; stroke: #d62728; stroke-opacity: 0.8"/>
     <use xlink:href="#m21d7da5dfb" x="510.84685" y="106.770037" style="fill: #d62728; fill-opacity: 0.8; stroke: #d62728; stroke-opacity: 0.8"/>
     <use xlink:href="#m21d7da5dfb" x="541.517991" y="274.290233" style="fill: #d62728; fill-opacity: 0.8; stroke: #d62728; stroke-opacity: 0.8"/>
     <use xlink:href="#m21d7da5dfb" x="617.278623" y="181.452641" style="fill: #d62728; fill-opacity: 0.8; stroke: #d62728; stroke-opacity: 0.8"/>
     <use xlink:href="#m21d7da5dfb" x="622.636364" y="196.478091" style="fill: #d62728; fill-opacity: 0.8; stroke: #d62728; stroke-opacity: 0.8"/>
    </g>
   </g>
   <g id="matplotlib.axis_1">
    <g id="xtick_1">
     <g id="line2d_1">
      <defs>
       <path id="mf0ec511f4f" d="M 0 0 
L 0 3.5 
" style="stroke: #000000; stroke-width: 0.8"/>
      </defs>
      <g>
       <use xlink:href="#mf0ec511f4f" x="179.356357" y="384.48" style="stroke: #000000; stroke-width: 0.8"/>
      </g>
     </g>
     <g id="text_1">
      <!-- 7B -->
      <g transform="translate(172.744638 399.078438) scale(0.1 -0.1)">
       <defs>
        <path id="DejaVuSans-37" d="M 525 4666 
L 3525 4666 
L 3525 4397 
L 1831 0 
L 1172 0 
L 2766 4134 
L 525 4134 
L 525 4666 
z
" transform="scale(0.015625)"/>
        <path id="DejaVuSans-42" d="M 1259 2228 
L 1259 519 
L 2272 519 
Q 2781 519 3026 730 
Q 3272 941 3272 1375 
Q 3272 1813 3026 2020 
Q 2781 2228 2272 2228 
L 1259 2228 
z
M 1259 4147 
L 1259 2741 
L 2194 2741 
Q 2656 2741 2882 2914 
Q 3109 3088 3109 3444 
Q 3109 3797 2882 3972 
Q 2656 4147 2194 4147 
L 1259 4147 
z
M 628 4666 
L 2241 4666 
Q 2963 4666 3353 4366 
Q 3744 4066 3744 3513 
Q 3744 3084 3544 2831 
Q 3344 2578 2956 2516 
Q 3422 2416 3680 2098 
Q 3938 1781 3938 1306 
Q 3938 681 3513 340 
Q 3088 0 2303 0 
L 628 0 
L 628 4666 
z
" transform="scale(0.015625)"/>
       </defs>
       <use xlink:href="#DejaVuSans-37"/>
       <use xlink:href="#DejaVuSans-42" x="63.623047"/>
      </g>
     </g>
    </g>
    <g id="xtick_2">
     <g id="line2d_2">
      <g>
       <use xlink:href="#mf0ec511f4f" x="297.089705" y="384.48" style="stroke: #000000; stroke-width: 0.8"/>
      </g>
     </g>
     <g id="text_2">
      <!-- 13B -->
      <g transform="translate(287.296736 399.078438) scale(0.1 -0.1)">
       <defs>
        <path id="DejaVuSans-31" d="M 794 531 
L 1825 531 
L 1825 4091 
L 703 3866 
L 703 4441 
L 1819 4666 
L 2450 4666 
L 2450 531 
L 3481 531 
L 3481 0 
L 794 0 
L 794 531 
z
" transform="scale(0.015625)"/>
        <path id="DejaVuSans-33" d="M 2597 2516 
Q 3050 2419 3304 2112 
Q 3559 1806 3559 1356 
Q 3559 666 3084 287 
Q 2609 -91 1734 -91 
Q 1441 -91 1130 -33 
Q 819 25 488 141 
L 488 750 
Q 750 597 1062 519 
Q 1375 441 1716 441 
Q 2309 441 2620 675 
Q 2931 909 2931 1356 
Q 2931 1769 2642 2001 
Q 2353 2234 1838 2234 
L 1294 2234 
L 1294 2753 
L 1863 2753 
Q 2328 2753 2575 2939 
Q 2822 3125 2822 3475 
Q 2822 3834 2567 4026 
Q 2313 4219 1838 4219 
Q 1578 4219 1281 4162 
Q 984 4106 628 3988 
L 628 4550 
Q 988 4650 1302 4700 
Q 1616 4750 1894 4750 
Q 2613 4750 3031 4423 
Q 3450 4097 3450 3541 
Q 3450 3153 3228 2886 
Q 3006 2619 2597 2516 
z
" transform="scale(0.015625)"/>
       </defs>
       <use xlink:href="#DejaVuSans-31"/>
       <use xlink:href="#DejaVuSans-33" x="63.623047"/>
       <use xlink:href="#DejaVuSans-42" x="127.246094"/>
      </g>
     </g>
    </g>
    <g id="xtick_3">
     <g id="line2d_3">
      <g>
       <use xlink:href="#mf0ec511f4f" x="468.407797" y="384.48" style="stroke: #000000; stroke-width: 0.8"/>
      </g>
     </g>
     <g id="text_3">
      <!-- 32B -->
      <g transform="translate(458.614829 399.078438) scale(0.1 -0.1)">
       <defs>
        <path id="DejaVuSans-32" d="M 1228 531 
L 3431 531 
L 3431 0 
L 469 0 
L 469 531 
Q 828 903 1448 1529 
Q 2069 2156 2228 2338 
Q 2531 2678 2651 2914 
Q 2772 3150 2772 3378 
Q 2772 3750 2511 3984 
Q 2250 4219 1831 4219 
Q 1534 4219 1204 4116 
Q 875 4013 500 3803 
L 500 4441 
Q 881 4594 1212 4672 
Q 1544 4750 1819 4750 
Q 2544 4750 2975 4387 
Q 3406 4025 3406 3419 
Q 3406 3131 3298 2873 
Q 3191 2616 2906 2266 
Q 2828 2175 2409 1742 
Q 1991 1309 1228 531 
z
" transform="scale(0.015625)"/>
       </defs>
       <use xlink:href="#DejaVuSans-33"/>
       <use xlink:href="#DejaVuSans-32" x="63.623047"/>
       <use xlink:href="#DejaVuSans-42" x="127.246094"/>
      </g>
     </g>
    </g>
    <g id="xtick_4">
     <g id="line2d_4">
      <g>
       <use xlink:href="#mf0ec511f4f" x="617.278623" y="384.48" style="stroke: #000000; stroke-width: 0.8"/>
      </g>
     </g>
     <g id="text_4">
      <!-- 70B -->
      <g transform="translate(607.485654 399.078438) scale(0.1 -0.1)">
       <defs>
        <path id="DejaVuSans-30" d="M 2034 4250 
Q 1547 4250 1301 3770 
Q 1056 3291 1056 2328 
Q 1056 1369 1301 889 
Q 1547 409 2034 409 
Q 2525 409 2770 889 
Q 3016 1369 3016 2328 
Q 3016 3291 2770 3770 
Q 2525 4250 2034 4250 
z
M 2034 4750 
Q 2819 4750 3233 4129 
Q 3647 3509 3647 2328 
Q 3647 1150 3233 529 
Q 2819 -91 2034 -91 
Q 1250 -91 836 529 
Q 422 1150 422 2328 
Q 422 3509 836 4129 
Q 1250 4750 2034 4750 
z
" transform="scale(0.015625)"/>
       </defs>
       <use xlink:href="#DejaVuSans-37"/>
       <use xlink:href="#DejaVuSans-30" x="63.623047"/>
       <use xlink:href="#DejaVuSans-42" x="127.246094"/>
      </g>
     </g>
    </g>
    <g id="text_5">
     <!-- model_size -->
     <g transform="translate(341.235937 412.756563) scale(0.1 -0.1)">
      <defs>
       <path id="DejaVuSans-6d" d="M 3328 2828 
Q 3544 3216 3844 3400 
Q 4144 3584 4550 3584 
Q 5097 3584 5394 3201 
Q 5691 2819 5691 2113 
L 5691 0 
L 5113 0 
L 5113 2094 
Q 5113 2597 4934 2840 
Q 4756 3084 4391 3084 
Q 3944 3084 3684 2787 
Q 3425 2491 3425 1978 
L 3425 0 
L 2847 0 
L 2847 2094 
Q 2847 2600 2669 2842 
Q 2491 3084 2119 3084 
Q 1678 3084 1418 2786 
Q 1159 2488 1159 1978 
L 1159 0 
L 581 0 
L 581 3500 
L 1159 3500 
L 1159 2956 
Q 1356 3278 1631 3431 
Q 1906 3584 2284 3584 
Q 2666 3584 2933 3390 
Q 3200 3197 3328 2828 
z
" transform="scale(0.015625)"/>
       <path id="DejaVuSans-6f" d="M 1959 3097 
Q 1497 3097 1228 2736 
Q 959 2375 959 1747 
Q 959 1119 1226 758 
Q 1494 397 1959 397 
Q 2419 397 2687 759 
Q 2956 1122 2956 1747 
Q 2956 2369 2687 2733 
Q 2419 3097 1959 3097 
z
M 1959 3584 
Q 2709 3584 3137 3096 
Q 3566 2609 3566 1747 
Q 3566 888 3137 398 
Q 2709 -91 1959 -91 
Q 1206 -91 779 398 
Q 353 888 353 1747 
Q 353 2609 779 3096 
Q 1206 3584 1959 3584 
z
" transform="scale(0.015625)"/>
       <path id="DejaVuSans-64" d="M 2906 2969 
L 2906 4863 
L 3481 4863 
L 3481 0 
L 2906 0 
L 2906 525 
Q 2725 213 2448 61 
Q 2172 -91 1784 -91 
Q 1150 -91 751 415 
Q 353 922 353 1747 
Q 353 2572 751 3078 
Q 1150 3584 1784 3584 
Q 2172 3584 2448 3432 
Q 2725 3281 2906 2969 
z
M 947 1747 
Q 947 1113 1208 752 
Q 1469 391 1925 391 
Q 2381 391 2643 752 
Q 2906 1113 2906 1747 
Q 2906 2381 2643 2742 
Q 2381 3103 1925 3103 
Q 1469 3103 1208 2742 
Q 947 2381 947 1747 
z
" transform="scale(0.015625)"/>
       <path id="DejaVuSans-65" d="M 3597 1894 
L 3597 1613 
L 953 1613 
Q 991 1019 1311 708 
Q 1631 397 2203 397 
Q 2534 397 2845 478 
Q 3156 559 3463 722 
L 3463 178 
Q 3153 47 2828 -22 
Q 2503 -91 2169 -91 
Q 1331 -91 842 396 
Q 353 884 353 1716 
Q 353 2575 817 3079 
Q 1281 3584 2069 3584 
Q 2775 3584 3186 3129 
Q 3597 2675 3597 1894 
z
M 3022 2063 
Q 3016 2534 2758 2815 
Q 2500 3097 2075 3097 
Q 1594 3097 1305 2825 
Q 1016 2553 972 2059 
L 3022 2063 
z
" transform="scale(0.015625)"/>
       <path id="DejaVuSans-6c" d="M 603 4863 
L 1178 4863 
L 1178 0 
L 603 0 
L 603 4863 
z
" transform="scale(0.015625)"/>
       <path id="DejaVuSans-5f" d="M 3263 -1063 
L 3263 -1509 
L -63 -1509 
L -63 -1063 
L 3263 -1063 
z
" transform="scale(0.015625)"/>
       <path id="DejaVuSans-73" d="M 2834 3397 
L 2834 2853 
Q 2591 2978 2328 3040 
Q 2066 3103 1784 3103 
Q 1356 3103 1142 2972 
Q 928 2841 928 2578 
Q 928 2378 1081 2264 
Q 1234 2150 1697 2047 
L 1894 2003 
Q 2506 1872 2764 1633 
Q 3022 1394 3022 966 
Q 3022 478 2636 193 
Q 2250 -91 1575 -91 
Q 1294 -91 989 -36 
Q 684 19 347 128 
L 347 722 
Q 666 556 975 473 
Q 1284 391 1588 391 
Q 1994 391 2212 530 
Q 2431 669 2431 922 
Q 2431 1156 2273 1281 
Q 2116 1406 1581 1522 
L 1381 1569 
Q 847 1681 609 1914 
Q 372 2147 372 2553 
Q 372 3047 722 3315 
Q 1072 3584 1716 3584 
Q 2034 3584 2315 3537 
Q 2597 3491 2834 3397 
z
" transform="scale(0.015625)"/>
       <path id="DejaVuSans-69" d="M 603 3500 
L 1178 3500 
L 1178 0 
L 603 0 
L 603 3500 
z
M 603 4863 
L 1178 4863 
L 1178 4134 
L 603 4134 
L 603 4863 
z
" transform="scale(0.015625)"/>
       <path id="DejaVuSans-7a" d="M 353 3500 
L 3084 3500 
L 3084 2975 
L 922 459 
L 3084 459 
L 3084 0 
L 275 0 
L 275 525 
L 2438 3041 
L 353 3041 
L 353 3500 
z
" transform="scale(0.015625)"/>
      </defs>
      <use xlink:href="#DejaVuSans-6d"/>
      <use xlink:href="#DejaVuSans-6f" x="97.412109"/>
      <use xlink:href="#DejaVuSans-64" x="158.59375"/>
      <use xlink:href="#DejaVuSans-65" x="222.070312"/>
      <use xlink:href="#DejaVuSans-6c" x="283.59375"/>
      <use xlink:href="#DejaVuSans-5f" x="311.376953"/>
      <use xlink:href="#DejaVuSans-73" x="361.376953"/>
      <use xlink:href="#DejaVuSans-69" x="413.476562"/>
      <use xlink:href="#DejaVuSans-7a" x="441.259766"/>
      <use xlink:href="#DejaVuSans-65" x="493.75"/>
     </g>
    </g>
   </g>
   <g id="matplotlib.axis_2">
    <g id="ytick_1">
     <g id="line2d_5">
      <defs>
       <path id="m20acc82afd" d="M 0 0 
L -3.5 0 
" style="stroke: #000000; stroke-width: 0.8"/>
      </defs>
      <g>
       <use xlink:href="#m20acc82afd" x="90" y="357.63907" style="stroke: #000000; stroke-width: 0.8"/>
      </g>
     </g>
     <g id="text_6">
      <!-- 5.0 -->
      <g transform="translate(67.096875 361.438289) scale(0.1 -0.1)">
       <defs>
        <path id="DejaVuSans-35" d="M 691 4666 
L 3169 4666 
L 3169 4134 
L 1269 4134 
L 1269 2991 
Q 1406 3038 1543 3061 
Q 1681 3084 1819 3084 
Q 2600 3084 3056 2656 
Q 3513 2228 3513 1497 
Q 3513 744 3044 326 
Q 2575 -91 1722 -91 
Q 1428 -91 1123 -41 
Q 819 9 494 109 
L 494 744 
Q 775 591 1075 516 
Q 1375 441 1709 441 
Q 2250 441 2565 725 
Q 2881 1009 2881 1497 
Q 2881 1984 2565 2268 
Q 2250 2553 1709 2553 
Q 1456 2553 1204 2497 
Q 953 2441 691 2322 
L 691 4666 
z
" transform="scale(0.015625)"/>
        <path id="DejaVuSans-2e" d="M 684 794 
L 1344 794 
L 1344 0 
L 684 0 
L 684 794 
z
" transform="scale(0.015625)"/>
       </defs>
       <use xlink:href="#DejaVuSans-35"/>
       <use xlink:href="#DejaVuSans-2e" x="63.623047"/>
       <use xlink:href="#DejaVuSans-30" x="95.410156"/>
      </g>
     </g>
    </g>
    <g id="ytick_2">
     <g id="line2d_6">
      <g>
       <use xlink:href="#m20acc82afd" x="90" y="318.569302" style="stroke: #000000; stroke-width: 0.8"/>
      </g>
     </g>
     <g id="text_7">
      <!-- 5.5 -->
      <g transform="translate(67.096875 322.368521) scale(0.1 -0.1)">
       <use xlink:href="#DejaVuSans-35"/>
       <use xlink:href="#DejaVuSans-2e" x="63.623047"/>
       <use xlink:href="#DejaVuSans-35" x="95.410156"/>
      </g>
     </g>
    </g>
    <g id="ytick_3">
     <g id="line2d_7">
      <g>
       <use xlink:href="#m20acc82afd" x="90" y="279.499535" style="stroke: #000000; stroke-width: 0.8"/>
      </g>
     </g>
     <g id="text_8">
      <!-- 6.0 -->
      <g transform="translate(67.096875 283.298754) scale(0.1 -0.1)">
       <defs>
        <path id="DejaVuSans-36" d="M 2113 2584 
Q 1688 2584 1439 2293 
Q 1191 2003 1191 1497 
Q 1191 994 1439 701 
Q 1688 409 2113 409 
Q 2538 409 2786 701 
Q 3034 994 3034 1497 
Q 3034 2003 2786 2293 
Q 2538 2584 2113 2584 
z
M 3366 4563 
L 3366 3988 
Q 3128 4100 2886 4159 
Q 2644 4219 2406 4219 
Q 1781 4219 1451 3797 
Q 1122 3375 1075 2522 
Q 1259 2794 1537 2939 
Q 1816 3084 2150 3084 
Q 2853 3084 3261 2657 
Q 3669 2231 3669 1497 
Q 3669 778 3244 343 
Q 2819 -91 2113 -91 
Q 1303 -91 875 529 
Q 447 1150 447 2328 
Q 447 3434 972 4092 
Q 1497 4750 2381 4750 
Q 2619 4750 2861 4703 
Q 3103 4656 3366 4563 
z
" transform="scale(0.015625)"/>
       </defs>
       <use xlink:href="#DejaVuSans-36"/>
       <use xlink:href="#DejaVuSans-2e" x="63.623047"/>
       <use xlink:href="#DejaVuSans-30" x="95.410156"/>
      </g>
     </g>
    </g>
    <g id="ytick_4">
     <g id="line2d_8">
      <g>
       <use xlink:href="#m20acc82afd" x="90" y="240.429767" style="stroke: #000000; stroke-width: 0.8"/>
      </g>
     </g>
     <g id="text_9">
      <!-- 6.5 -->
      <g transform="translate(67.096875 244.228986) scale(0.1 -0.1)">
       <use xlink:href="#DejaVuSans-36"/>
       <use xlink:href="#DejaVuSans-2e" x="63.623047"/>
       <use xlink:href="#DejaVuSans-35" x="95.410156"/>
      </g>
     </g>
    </g>
    <g id="ytick_5">
     <g id="line2d_9">
      <g>
       <use xlink:href="#m20acc82afd" x="90" y="201.36" style="stroke: #000000; stroke-width: 0.8"/>
      </g>
     </g>
     <g id="text_10">
      <!-- 7.0 -->
      <g transform="translate(67.096875 205.159219) scale(0.1 -0.1)">
       <use xlink:href="#DejaVuSans-37"/>
       <use xlink:href="#DejaVuSans-2e" x="63.623047"/>
       <use xlink:href="#DejaVuSans-30" x="95.410156"/>
      </g>
     </g>
    </g>
    <g id="ytick_6">
     <g id="line2d_10">
      <g>
       <use xlink:href="#m20acc82afd" x="90" y="162.290233" style="stroke: #000000; stroke-width: 0.8"/>
      </g>
     </g>
     <g id="text_11">
      <!-- 7.5 -->
      <g transform="translate(67.096875 166.089451) scale(0.1 -0.1)">
       <use xlink:href="#DejaVuSans-37"/>
       <use xlink:href="#DejaVuSans-2e" x="63.623047"/>
       <use xlink:href="#DejaVuSans-35" x="95.410156"/>
      </g>
     </g>
    </g>
    <g id="ytick_7">
     <g id="line2d_11">
      <g>
       <use xlink:href="#m20acc82afd" x="90" y="123.220465" style="stroke: #000000; stroke-width: 0.8"/>
      </g>
     </g>
     <g id="text_12">
      <!-- 8.0 -->
      <g transform="translate(67.096875 127.019684) scale(0.1 -0.1)">
       <defs>
        <path id="DejaVuSans-38" d="M 2034 2216 
Q 1584 2216 1326 1975 
Q 1069 1734 1069 1313 
Q 1069 891 1326 650 
Q 1584 409 2034 409 
Q 2484 409 2743 651 
Q 3003 894 3003 1313 
Q 3003 1734 2745 1975 
Q 2488 2216 2034 2216 
z
M 1403 2484 
Q 997 2584 770 2862 
Q 544 3141 544 3541 
Q 544 4100 942 4425 
Q 1341 4750 2034 4750 
Q 2731 4750 3128 4425 
Q 3525 4100 3525 3541 
Q 3525 3141 3298 2862 
Q 3072 2584 2669 2484 
Q 3125 2378 3379 2068 
Q 3634 1759 3634 1313 
Q 3634 634 3220 271 
Q 2806 -91 2034 -91 
Q 1263 -91 848 271 
Q 434 634 434 1313 
Q 434 1759 690 2068 
Q 947 2378 1403 2484 
z
M 1172 3481 
Q 1172 3119 1398 2916 
Q 1625 2713 2034 2713 
Q 2441 2713 2670 2916 
Q 2900 3119 2900 3481 
Q 2900 3844 2670 4047 
Q 2441 4250 2034 4250 
Q 1625 4250 1398 4047 
Q 1172 3844 1172 3481 
z
" transform="scale(0.015625)"/>
       </defs>
       <use xlink:href="#DejaVuSans-38"/>
       <use xlink:href="#DejaVuSans-2e" x="63.623047"/>
       <use xlink:href="#DejaVuSans-30" x="95.410156"/>
      </g>
     </g>
    </g>
    <g id="ytick_8">
     <g id="line2d_12">
      <g>
       <use xlink:href="#m20acc82afd" x="90" y="84.150698" style="stroke: #000000; stroke-width: 0.8"/>
      </g>
     </g>
     <g id="text_13">
      <!-- 8.5 -->
      <g transform="translate(67.096875 87.949916) scale(0.1 -0.1)">
       <use xlink:href="#DejaVuSans-38"/>
       <use xlink:href="#DejaVuSans-2e" x="63.623047"/>
       <use xlink:href="#DejaVuSans-35" x="95.410156"/>
      </g>
     </g>
    </g>
    <g id="text_14">
     <!-- MT-Bench -->
     <g transform="translate(61.017187 242.288125) rotate(-90) scale(0.1 -0.1)">
      <defs>
       <path id="DejaVuSans-4d" d="M 628 4666 
L 1569 4666 
L 2759 1491 
L 3956 4666 
L 4897 4666 
L 4897 0 
L 4281 0 
L 4281 4097 
L 3078 897 
L 2444 897 
L 1241 4097 
L 1241 0 
L 628 0 
L 628 4666 
z
" transform="scale(0.015625)"/>
       <path id="DejaVuSans-54" d="M -19 4666 
L 3928 4666 
L 3928 4134 
L 2272 4134 
L 2272 0 
L 1638 0 
L 1638 4134 
L -19 4134 
L -19 4666 
z
" transform="scale(0.015625)"/>
       <path id="DejaVuSans-2d" d="M 313 2009 
L 1997 2009 
L 1997 1497 
L 313 1497 
L 313 2009 
z
" transform="scale(0.015625)"/>
       <path id="DejaVuSans-6e" d="M 3513 2113 
L 3513 0 
L 2938 0 
L 2938 2094 
Q 2938 2591 2744 2837 
Q 2550 3084 2163 3084 
Q 1697 3084 1428 2787 
Q 1159 2491 1159 1978 
L 1159 0 
L 581 0 
L 581 3500 
L 1159 3500 
L 1159 2956 
Q 1366 3272 1645 3428 
Q 1925 3584 2291 3584 
Q 2894 3584 3203 3211 
Q 3513 2838 3513 2113 
z
" transform="scale(0.015625)"/>
       <path id="DejaVuSans-63" d="M 3122 3366 
L 3122 2828 
Q 2878 2963 2633 3030 
Q 2388 3097 2138 3097 
Q 1578 3097 1268 2742 
Q 959 2388 959 1747 
Q 959 1106 1268 751 
Q 1578 397 2138 397 
Q 2388 397 2633 464 
Q 2878 531 3122 666 
L 3122 134 
Q 2881 22 2623 -34 
Q 2366 -91 2075 -91 
Q 1284 -91 818 406 
Q 353 903 353 1747 
Q 353 2603 823 3093 
Q 1294 3584 2113 3584 
Q 2378 3584 2631 3529 
Q 2884 3475 3122 3366 
z
" transform="scale(0.015625)"/>
       <path id="DejaVuSans-68" d="M 3513 2113 
L 3513 0 
L 2938 0 
L 2938 2094 
Q 2938 2591 2744 2837 
Q 2550 3084 2163 3084 
Q 1697 3084 1428 2787 
Q 1159 2491 1159 1978 
L 1159 0 
L 581 0 
L 581 4863 
L 1159 4863 
L 1159 2956 
Q 1366 3272 1645 3428 
Q 1925 3584 2291 3584 
Q 2894 3584 3203 3211 
Q 3513 2838 3513 2113 
z
" transform="scale(0.015625)"/>
      </defs>
      <use xlink:href="#DejaVuSans-4d"/>
      <use xlink:href="#DejaVuSans-54" x="86.279297"/>
      <use xlink:href="#DejaVuSans-2d" x="138.238281"/>
      <use xlink:href="#DejaVuSans-42" x="170.697266"/>
      <use xlink:href="#DejaVuSans-65" x="239.300781"/>
      <use xlink:href="#DejaVuSans-6e" x="300.824219"/>
      <use xlink:href="#DejaVuSans-63" x="364.203125"/>
      <use xlink:href="#DejaVuSans-68" x="419.183594"/>
     </g>
    </g>
   </g>
   <g id="line2d_13">
    <path d="M 115.363636 244.865417 
L 120.487603 244.030057 
L 125.61157 243.194698 
L 130.735537 242.359339 
L 135.859504 241.523979 
L 140.983471 240.68862 
L 146.107438 239.853261 
L 151.231405 239.017901 
L 156.355372 238.182542 
L 161.479339 237.347183 
L 166.603306 236.511823 
L 171.727273 235.676464 
L 176.85124 234.841105 
L 181.975207 234.005745 
L 187.099174 233.170386 
L 192.22314 232.335027 
L 197.347107 231.499667 
L 202.471074 230.664308 
L 207.595041 229.828949 
L 212.719008 228.993589 
L 217.842975 228.15823 
L 222.966942 227.322871 
L 228.090909 226.487511 
L 233.214876 225.652152 
L 238.338843 224.816793 
L 243.46281 223.981433 
L 248.586777 223.146074 
L 253.710744 222.310715 
L 258.834711 221.475355 
L 263.958678 220.639996 
L 269.082645 219.804637 
L 274.206612 218.969277 
L 279.330579 218.133918 
L 284.454545 217.298559 
L 289.578512 216.463199 
L 294.702479 215.62784 
L 299.826446 214.792481 
L 304.950413 213.957121 
L 310.07438 213.121762 
L 315.198347 212.286403 
L 320.322314 211.451043 
L 325.446281 210.615684 
L 330.570248 209.780325 
L 335.694215 208.944965 
L 340.818182 208.109606 
L 345.942149 207.274247 
L 351.066116 206.438887 
L 356.190083 205.603528 
L 361.31405 204.768169 
L 366.438017 203.932809 
L 371.561983 203.09745 
L 376.68595 202.262091 
L 381.809917 201.426731 
L 386.933884 200.591372 
L 392.057851 199.756013 
L 397.181818 198.920653 
L 402.305785 198.085294 
L 407.429752 197.249935 
L 412.553719 196.414575 
L 417.677686 195.579216 
L 422.801653 194.743857 
L 427.92562 193.908497 
L 433.049587 193.073138 
L 438.173554 192.237779 
L 443.297521 191.402419 
L 448.421488 190.56706 
L 453.545455 189.731701 
L 458.669421 188.896341 
L 463.793388 188.060982 
L 468.917355 187.225623 
L 474.041322 186.390263 
L 479.165289 185.554904 
L 484.289256 184.719545 
L 489.413223 183.884185 
L 494.53719 183.048826 
L 499.661157 182.213467 
L 504.785124 181.378107 
L 509.909091 180.542748 
L 515.033058 179.707389 
L 520.157025 178.872029 
L 525.280992 178.03667 
L 530.404959 177.201311 
L 535.528926 176.365951 
L 540.652893 175.530592 
L 545.77686 174.695233 
L 550.900826 173.859873 
L 556.024793 173.024514 
L 561.14876 172.189155 
L 566.272727 171.353795 
L 571.396694 170.518436 
L 576.520661 169.683077 
L 581.644628 168.847717 
L 586.768595 168.012358 
L 591.892562 167.176999 
L 597.016529 166.34164 
L 602.140496 165.50628 
L 607.264463 164.670921 
L 612.38843 163.835562 
L 617.512397 163.000202 
L 622.636364 162.164843 
" clip-path="url(#p00ae22c29f)" style="fill: none; stroke: #1f77b4; stroke-width: 2.25; stroke-linecap: square"/>
   </g>
   <g id="line2d_14">
    <path d="M 115.363636 286.093877 
L 120.487603 284.511405 
L 125.61157 282.928932 
L 130.735537 281.346459 
L 135.859504 279.763987 
L 140.983471 278.181514 
L 146.107438 276.599041 
L 151.231405 275.016569 
L 156.355372 273.434096 
L 161.479339 271.851623 
L 166.603306 270.269151 
L 171.727273 268.686678 
L 176.85124 267.104205 
L 181.975207 265.521732 
L 187.099174 263.93926 
L 192.22314 262.356787 
L 197.347107 260.774314 
L 202.471074 259.191842 
L 207.595041 257.609369 
L 212.719008 256.026896 
L 217.842975 254.444424 
L 222.966942 252.861951 
L 228.090909 251.279478 
L 233.214876 249.697006 
L 238.338843 248.114533 
L 243.46281 246.53206 
L 248.586777 244.949588 
L 253.710744 243.367115 
L 258.834711 241.784642 
L 263.958678 240.202169 
L 269.082645 238.619697 
L 274.206612 237.037224 
L 279.330579 235.454751 
L 284.454545 233.872279 
L 289.578512 232.289806 
L 294.702479 230.707333 
L 299.826446 229.124861 
L 304.950413 227.542388 
L 310.07438 225.959915 
L 315.198347 224.377443 
L 320.322314 222.79497 
L 325.446281 221.212497 
L 330.570248 219.630025 
L 335.694215 218.047552 
L 340.818182 216.465079 
L 345.942149 214.882606 
L 351.066116 213.300134 
L 356.190083 211.717661 
L 361.31405 210.135188 
L 366.438017 208.552716 
L 371.561983 206.970243 
L 376.68595 205.38777 
L 381.809917 203.805298 
L 386.933884 202.222825 
L 392.057851 200.640352 
L 397.181818 199.05788 
L 402.305785 197.475407 
L 407.429752 195.892934 
L 412.553719 194.310462 
L 417.677686 192.727989 
L 422.801653 191.145516 
L 427.92562 189.563043 
L 433.049587 187.980571 
L 438.173554 186.398098 
L 443.297521 184.815625 
L 448.421488 183.233153 
L 453.545455 181.65068 
L 458.669421 180.068207 
L 463.793388 178.485735 
L 468.917355 176.903262 
L 474.041322 175.320789 
L 479.165289 173.738317 
L 484.289256 172.155844 
L 489.413223 170.573371 
L 494.53719 168.990899 
L 499.661157 167.408426 
L 504.785124 165.825953 
L 509.909091 164.24348 
L 515.033058 162.661008 
L 520.157025 161.078535 
L 525.280992 159.496062 
L 530.404959 157.91359 
L 535.528926 156.331117 
L 540.652893 154.748644 
L 545.77686 153.166172 
L 550.900826 151.583699 
L 556.024793 150.001226 
L 561.14876 148.418754 
L 566.272727 146.836281 
L 571.396694 145.253808 
L 576.520661 143.671336 
L 581.644628 142.088863 
L 586.768595 140.50639 
L 591.892562 138.923917 
L 597.016529 137.341445 
L 602.140496 135.758972 
L 607.264463 134.176499 
L 612.38843 132.594027 
L 617.512397 131.011554 
L 622.636364 129.429081 
" clip-path="url(#p00ae22c29f)" style="fill: none; stroke: #ff7f0e; stroke-width: 2.25; stroke-linecap: square"/>
   </g>
   <g id="line2d_15">
    <path d="M 115.363636 309.515587 
L 120.487603 308.749393 
L 125.61157 307.983199 
L 130.735537 307.217005 
L 135.859504 306.450812 
L 140.983471 305.684618 
L 146.107438 304.918424 
L 151.231405 304.15223 
L 156.355372 303.386037 
L 161.479339 302.619843 
L 166.603306 301.853649 
L 171.727273 301.087455 
L 176.85124 300.321262 
L 181.975207 299.555068 
L 187.099174 298.788874 
L 192.22314 298.022681 
L 197.347107 297.256487 
L 202.471074 296.490293 
L 207.595041 295.724099 
L 212.719008 294.957906 
L 217.842975 294.191712 
L 222.966942 293.425518 
L 228.090909 292.659324 
L 233.214876 291.893131 
L 238.338843 291.126937 
L 243.46281 290.360743 
L 248.586777 289.594549 
L 253.710744 288.828356 
L 258.834711 288.062162 
L 263.958678 287.295968 
L 269.082645 286.529774 
L 274.206612 285.763581 
L 279.330579 284.997387 
L 284.454545 284.231193 
L 289.578512 283.465 
L 294.702479 282.698806 
L 299.826446 281.932612 
L 304.950413 281.166418 
L 310.07438 280.400225 
L 315.198347 279.634031 
L 320.322314 278.867837 
L 325.446281 278.101643 
L 330.570248 277.33545 
L 335.694215 276.569256 
L 340.818182 275.803062 
L 345.942149 275.036868 
L 351.066116 274.270675 
L 356.190083 273.504481 
L 361.31405 272.738287 
L 366.438017 271.972093 
L 371.561983 271.2059 
L 376.68595 270.439706 
L 381.809917 269.673512 
L 386.933884 268.907319 
L 392.057851 268.141125 
L 397.181818 267.374931 
L 402.305785 266.608737 
L 407.429752 265.842544 
L 412.553719 265.07635 
L 417.677686 264.310156 
L 422.801653 263.543962 
L 427.92562 262.777769 
L 433.049587 262.011575 
L 438.173554 261.245381 
L 443.297521 260.479187 
L 448.421488 259.712994 
L 453.545455 258.9468 
L 458.669421 258.180606 
L 463.793388 257.414412 
L 468.917355 256.648219 
L 474.041322 255.882025 
L 479.165289 255.115831 
L 484.289256 254.349638 
L 489.413223 253.583444 
L 494.53719 252.81725 
L 499.661157 252.051056 
L 504.785124 251.284863 
L 509.909091 250.518669 
L 515.033058 249.752475 
L 520.157025 248.986281 
L 525.280992 248.220088 
L 530.404959 247.453894 
L 535.528926 246.6877 
L 540.652893 245.921506 
L 545.77686 245.155313 
L 550.900826 244.389119 
L 556.024793 243.622925 
L 561.14876 242.856731 
L 566.272727 242.090538 
L 571.396694 241.324344 
L 576.520661 240.55815 
L 581.644628 239.791957 
L 586.768595 239.025763 
L 591.892562 238.259569 
L 597.016529 237.493375 
L 602.140496 236.727182 
L 607.264463 235.960988 
L 612.38843 235.194794 
L 617.512397 234.4286 
L 622.636364 233.662407 
" clip-path="url(#p00ae22c29f)" style="fill: none; stroke: #2ca02c; stroke-width: 2.25; stroke-linecap: square"/>
   </g>
   <g id="line2d_16">
    <path d="M 115.363636 272.852271 
L 120.487603 271.808797 
L 125.61157 270.765323 
L 130.735537 269.721849 
L 135.859504 268.678375 
L 140.983471 267.634901 
L 146.107438 266.591428 
L 151.231405 265.547954 
L 156.355372 264.50448 
L 161.479339 263.461006 
L 166.603306 262.417532 
L 171.727273 261.374058 
L 176.85124 260.330585 
L 181.975207 259.287111 
L 187.099174 258.243637 
L 192.22314 257.200163 
L 197.347107 256.156689 
L 202.471074 255.113215 
L 207.595041 254.069742 
L 212.719008 253.026268 
L 217.842975 251.982794 
L 222.966942 250.93932 
L 228.090909 249.895846 
L 233.214876 248.852372 
L 238.338843 247.808899 
L 243.46281 246.765425 
L 248.586777 245.721951 
L 253.710744 244.678477 
L 258.834711 243.635003 
L 263.958678 242.59153 
L 269.082645 241.548056 
L 274.206612 240.504582 
L 279.330579 239.461108 
L 284.454545 238.417634 
L 289.578512 237.37416 
L 294.702479 236.330687 
L 299.826446 235.287213 
L 304.950413 234.243739 
L 310.07438 233.200265 
L 315.198347 232.156791 
L 320.322314 231.113317 
L 325.446281 230.069844 
L 330.570248 229.02637 
L 335.694215 227.982896 
L 340.818182 226.939422 
L 345.942149 225.895948 
L 351.066116 224.852474 
L 356.190083 223.809001 
L 361.31405 222.765527 
L 366.438017 221.722053 
L 371.561983 220.678579 
L 376.68595 219.635105 
L 381.809917 218.591631 
L 386.933884 217.548158 
L 392.057851 216.504684 
L 397.181818 215.46121 
L 402.305785 214.417736 
L 407.429752 213.374262 
L 412.553719 212.330788 
L 417.677686 211.287315 
L 422.801653 210.243841 
L 427.92562 209.200367 
L 433.049587 208.156893 
L 438.173554 207.113419 
L 443.297521 206.069945 
L 448.421488 205.026472 
L 453.545455 203.982998 
L 458.669421 202.939524 
L 463.793388 201.89605 
L 468.917355 200.852576 
L 474.041322 199.809103 
L 479.165289 198.765629 
L 484.289256 197.722155 
L 489.413223 196.678681 
L 494.53719 195.635207 
L 499.661157 194.591733 
L 504.785124 193.54826 
L 509.909091 192.504786 
L 515.033058 191.461312 
L 520.157025 190.417838 
L 525.280992 189.374364 
L 530.404959 188.33089 
L 535.528926 187.287417 
L 540.652893 186.243943 
L 545.77686 185.200469 
L 550.900826 184.156995 
L 556.024793 183.113521 
L 561.14876 182.070047 
L 566.272727 181.026574 
L 571.396694 179.9831 
L 576.520661 178.939626 
L 581.644628 177.896152 
L 586.768595 176.852678 
L 591.892562 175.809204 
L 597.016529 174.765731 
L 602.140496 173.722257 
L 607.264463 172.678783 
L 612.38843 171.635309 
L 617.512397 170.591835 
L 622.636364 169.548361 
" clip-path="url(#p00ae22c29f)" style="fill: none; stroke: #d62728; stroke-width: 2.25; stroke-linecap: square"/>
   </g>
   <g id="patch_3">
    <path d="M 90 384.48 
L 90 51.84 
" style="fill: none; stroke: #000000; stroke-width: 0.8; stroke-linejoin: miter; stroke-linecap: square"/>
   </g>
   <g id="patch_4">
    <path d="M 648 384.48 
L 648 51.84 
" style="fill: none; stroke: #000000; stroke-width: 0.8; stroke-linejoin: miter; stroke-linecap: square"/>
   </g>
   <g id="patch_5">
    <path d="M 90 384.48 
L 648 384.48 
" style="fill: none; stroke: #000000; stroke-width: 0.8; stroke-linejoin: miter; stroke-linecap: square"/>
   </g>
   <g id="patch_6">
    <path d="M 90 51.84 
L 648 51.84 
" style="fill: none; stroke: #000000; stroke-width: 0.8; stroke-linejoin: miter; stroke-linecap: square"/>
   </g>
   <g id="text_15">
    <!-- Model Size vs Scores with Regression Lines -->
    <g transform="translate(239.446875 45.84) scale(0.12 -0.12)">
     <defs>
      <path id="DejaVuSans-20" transform="scale(0.015625)"/>
      <path id="DejaVuSans-53" d="M 3425 4513 
L 3425 3897 
Q 3066 4069 2747 4153 
Q 2428 4238 2131 4238 
Q 1616 4238 1336 4038 
Q 1056 3838 1056 3469 
Q 1056 3159 1242 3001 
Q 1428 2844 1947 2747 
L 2328 2669 
Q 3034 2534 3370 2195 
Q 3706 1856 3706 1288 
Q 3706 609 3251 259 
Q 2797 -91 1919 -91 
Q 1588 -91 1214 -16 
Q 841 59 441 206 
L 441 856 
Q 825 641 1194 531 
Q 1563 422 1919 422 
Q 2459 422 2753 634 
Q 3047 847 3047 1241 
Q 3047 1584 2836 1778 
Q 2625 1972 2144 2069 
L 1759 2144 
Q 1053 2284 737 2584 
Q 422 2884 422 3419 
Q 422 4038 858 4394 
Q 1294 4750 2059 4750 
Q 2388 4750 2728 4690 
Q 3069 4631 3425 4513 
z
" transform="scale(0.015625)"/>
      <path id="DejaVuSans-76" d="M 191 3500 
L 800 3500 
L 1894 563 
L 2988 3500 
L 3597 3500 
L 2284 0 
L 1503 0 
L 191 3500 
z
" transform="scale(0.015625)"/>
      <path id="DejaVuSans-72" d="M 2631 2963 
Q 2534 3019 2420 3045 
Q 2306 3072 2169 3072 
Q 1681 3072 1420 2755 
Q 1159 2438 1159 1844 
L 1159 0 
L 581 0 
L 581 3500 
L 1159 3500 
L 1159 2956 
Q 1341 3275 1631 3429 
Q 1922 3584 2338 3584 
Q 2397 3584 2469 3576 
Q 2541 3569 2628 3553 
L 2631 2963 
z
" transform="scale(0.015625)"/>
      <path id="DejaVuSans-77" d="M 269 3500 
L 844 3500 
L 1563 769 
L 2278 3500 
L 2956 3500 
L 3675 769 
L 4391 3500 
L 4966 3500 
L 4050 0 
L 3372 0 
L 2619 2869 
L 1863 0 
L 1184 0 
L 269 3500 
z
" transform="scale(0.015625)"/>
      <path id="DejaVuSans-74" d="M 1172 4494 
L 1172 3500 
L 2356 3500 
L 2356 3053 
L 1172 3053 
L 1172 1153 
Q 1172 725 1289 603 
Q 1406 481 1766 481 
L 2356 481 
L 2356 0 
L 1766 0 
Q 1100 0 847 248 
Q 594 497 594 1153 
L 594 3053 
L 172 3053 
L 172 3500 
L 594 3500 
L 594 4494 
L 1172 4494 
z
" transform="scale(0.015625)"/>
      <path id="DejaVuSans-52" d="M 2841 2188 
Q 3044 2119 3236 1894 
Q 3428 1669 3622 1275 
L 4263 0 
L 3584 0 
L 2988 1197 
Q 2756 1666 2539 1819 
Q 2322 1972 1947 1972 
L 1259 1972 
L 1259 0 
L 628 0 
L 628 4666 
L 2053 4666 
Q 2853 4666 3247 4331 
Q 3641 3997 3641 3322 
Q 3641 2881 3436 2590 
Q 3231 2300 2841 2188 
z
M 1259 4147 
L 1259 2491 
L 2053 2491 
Q 2509 2491 2742 2702 
Q 2975 2913 2975 3322 
Q 2975 3731 2742 3939 
Q 2509 4147 2053 4147 
L 1259 4147 
z
" transform="scale(0.015625)"/>
      <path id="DejaVuSans-67" d="M 2906 1791 
Q 2906 2416 2648 2759 
Q 2391 3103 1925 3103 
Q 1463 3103 1205 2759 
Q 947 2416 947 1791 
Q 947 1169 1205 825 
Q 1463 481 1925 481 
Q 2391 481 2648 825 
Q 2906 1169 2906 1791 
z
M 3481 434 
Q 3481 -459 3084 -895 
Q 2688 -1331 1869 -1331 
Q 1566 -1331 1297 -1286 
Q 1028 -1241 775 -1147 
L 775 -588 
Q 1028 -725 1275 -790 
Q 1522 -856 1778 -856 
Q 2344 -856 2625 -561 
Q 2906 -266 2906 331 
L 2906 616 
Q 2728 306 2450 153 
Q 2172 0 1784 0 
Q 1141 0 747 490 
Q 353 981 353 1791 
Q 353 2603 747 3093 
Q 1141 3584 1784 3584 
Q 2172 3584 2450 3431 
Q 2728 3278 2906 2969 
L 2906 3500 
L 3481 3500 
L 3481 434 
z
" transform="scale(0.015625)"/>
      <path id="DejaVuSans-4c" d="M 628 4666 
L 1259 4666 
L 1259 531 
L 3531 531 
L 3531 0 
L 628 0 
L 628 4666 
z
" transform="scale(0.015625)"/>
     </defs>
     <use xlink:href="#DejaVuSans-4d"/>
     <use xlink:href="#DejaVuSans-6f" x="86.279297"/>
     <use xlink:href="#DejaVuSans-64" x="147.460938"/>
     <use xlink:href="#DejaVuSans-65" x="210.9375"/>
     <use xlink:href="#DejaVuSans-6c" x="272.460938"/>
     <use xlink:href="#DejaVuSans-20" x="300.244141"/>
     <use xlink:href="#DejaVuSans-53" x="332.03125"/>
     <use xlink:href="#DejaVuSans-69" x="395.507812"/>
     <use xlink:href="#DejaVuSans-7a" x="423.291016"/>
     <use xlink:href="#DejaVuSans-65" x="475.78125"/>
     <use xlink:href="#DejaVuSans-20" x="537.304688"/>
     <use xlink:href="#DejaVuSans-76" x="569.091797"/>
     <use xlink:href="#DejaVuSans-73" x="628.271484"/>
     <use xlink:href="#DejaVuSans-20" x="680.371094"/>
     <use xlink:href="#DejaVuSans-53" x="712.158203"/>
     <use xlink:href="#DejaVuSans-63" x="775.634766"/>
     <use xlink:href="#DejaVuSans-6f" x="830.615234"/>
     <use xlink:href="#DejaVuSans-72" x="891.796875"/>
     <use xlink:href="#DejaVuSans-65" x="930.660156"/>
     <use xlink:href="#DejaVuSans-73" x="992.183594"/>
     <use xlink:href="#DejaVuSans-20" x="1044.283203"/>
     <use xlink:href="#DejaVuSans-77" x="1076.070312"/>
     <use xlink:href="#DejaVuSans-69" x="1157.857422"/>
     <use xlink:href="#DejaVuSans-74" x="1185.640625"/>
     <use xlink:href="#DejaVuSans-68" x="1224.849609"/>
     <use xlink:href="#DejaVuSans-20" x="1288.228516"/>
     <use xlink:href="#DejaVuSans-52" x="1320.015625"/>
     <use xlink:href="#DejaVuSans-65" x="1384.998047"/>
     <use xlink:href="#DejaVuSans-67" x="1446.521484"/>
     <use xlink:href="#DejaVuSans-72" x="1509.998047"/>
     <use xlink:href="#DejaVuSans-65" x="1548.861328"/>
     <use xlink:href="#DejaVuSans-73" x="1610.384766"/>
     <use xlink:href="#DejaVuSans-73" x="1662.484375"/>
     <use xlink:href="#DejaVuSans-69" x="1714.583984"/>
     <use xlink:href="#DejaVuSans-6f" x="1742.367188"/>
     <use xlink:href="#DejaVuSans-6e" x="1803.548828"/>
     <use xlink:href="#DejaVuSans-20" x="1866.927734"/>
     <use xlink:href="#DejaVuSans-4c" x="1898.714844"/>
     <use xlink:href="#DejaVuSans-69" x="1954.427734"/>
     <use xlink:href="#DejaVuSans-6e" x="1982.210938"/>
     <use xlink:href="#DejaVuSans-65" x="2045.589844"/>
     <use xlink:href="#DejaVuSans-73" x="2107.113281"/>
    </g>
   </g>
   <g id="legend_1">
    <g id="patch_7">
     <path d="M 526.3 118.5525 
L 641 118.5525 
Q 643 118.5525 643 116.5525 
L 643 58.84 
Q 643 56.84 641 56.84 
L 526.3 56.84 
Q 524.3 56.84 524.3 58.84 
L 524.3 116.5525 
Q 524.3 118.5525 526.3 118.5525 
z
" style="fill: #ffffff; opacity: 0.8; stroke: #cccccc; stroke-linejoin: miter"/>
    </g>
    <g id="PathCollection_5">
     <g>
      <use xlink:href="#m4d88c8340f" x="538.3" y="65.813438" style="fill: #1f77b4; fill-opacity: 0.8; stroke: #1f77b4; stroke-opacity: 0.8"/>
     </g>
    </g>
    <g id="text_16">
     <!-- ELYZA-tasks-100 -->
     <g transform="translate(556.3 68.438438) scale(0.1 -0.1)">
      <defs>
       <path id="DejaVuSans-45" d="M 628 4666 
L 3578 4666 
L 3578 4134 
L 1259 4134 
L 1259 2753 
L 3481 2753 
L 3481 2222 
L 1259 2222 
L 1259 531 
L 3634 531 
L 3634 0 
L 628 0 
L 628 4666 
z
" transform="scale(0.015625)"/>
       <path id="DejaVuSans-59" d="M -13 4666 
L 666 4666 
L 1959 2747 
L 3244 4666 
L 3922 4666 
L 2272 2222 
L 2272 0 
L 1638 0 
L 1638 2222 
L -13 4666 
z
" transform="scale(0.015625)"/>
       <path id="DejaVuSans-5a" d="M 359 4666 
L 4025 4666 
L 4025 4184 
L 1075 531 
L 4097 531 
L 4097 0 
L 288 0 
L 288 481 
L 3238 4134 
L 359 4134 
L 359 4666 
z
" transform="scale(0.015625)"/>
       <path id="DejaVuSans-41" d="M 2188 4044 
L 1331 1722 
L 3047 1722 
L 2188 4044 
z
M 1831 4666 
L 2547 4666 
L 4325 0 
L 3669 0 
L 3244 1197 
L 1141 1197 
L 716 0 
L 50 0 
L 1831 4666 
z
" transform="scale(0.015625)"/>
       <path id="DejaVuSans-61" d="M 2194 1759 
Q 1497 1759 1228 1600 
Q 959 1441 959 1056 
Q 959 750 1161 570 
Q 1363 391 1709 391 
Q 2188 391 2477 730 
Q 2766 1069 2766 1631 
L 2766 1759 
L 2194 1759 
z
M 3341 1997 
L 3341 0 
L 2766 0 
L 2766 531 
Q 2569 213 2275 61 
Q 1981 -91 1556 -91 
Q 1019 -91 701 211 
Q 384 513 384 1019 
Q 384 1609 779 1909 
Q 1175 2209 1959 2209 
L 2766 2209 
L 2766 2266 
Q 2766 2663 2505 2880 
Q 2244 3097 1772 3097 
Q 1472 3097 1187 3025 
Q 903 2953 641 2809 
L 641 3341 
Q 956 3463 1253 3523 
Q 1550 3584 1831 3584 
Q 2591 3584 2966 3190 
Q 3341 2797 3341 1997 
z
" transform="scale(0.015625)"/>
       <path id="DejaVuSans-6b" d="M 581 4863 
L 1159 4863 
L 1159 1991 
L 2875 3500 
L 3609 3500 
L 1753 1863 
L 3688 0 
L 2938 0 
L 1159 1709 
L 1159 0 
L 581 0 
L 581 4863 
z
" transform="scale(0.015625)"/>
      </defs>
      <use xlink:href="#DejaVuSans-45"/>
      <use xlink:href="#DejaVuSans-4c" x="63.183594"/>
      <use xlink:href="#DejaVuSans-59" x="105.646484"/>
      <use xlink:href="#DejaVuSans-5a" x="166.730469"/>
      <use xlink:href="#DejaVuSans-41" x="235.236328"/>
      <use xlink:href="#DejaVuSans-2d" x="301.394531"/>
      <use xlink:href="#DejaVuSans-74" x="337.478516"/>
      <use xlink:href="#DejaVuSans-61" x="376.6875"/>
      <use xlink:href="#DejaVuSans-73" x="437.966797"/>
      <use xlink:href="#DejaVuSans-6b" x="490.066406"/>
      <use xlink:href="#DejaVuSans-73" x="547.976562"/>
      <use xlink:href="#DejaVuSans-2d" x="600.076172"/>
      <use xlink:href="#DejaVuSans-31" x="636.160156"/>
      <use xlink:href="#DejaVuSans-30" x="699.783203"/>
      <use xlink:href="#DejaVuSans-30" x="763.40625"/>
     </g>
    </g>
    <g id="PathCollection_6">
     <g>
      <use xlink:href="#m01b32a93d1" x="538.3" y="80.491563" style="fill: #ff7f0e; fill-opacity: 0.8; stroke: #ff7f0e; stroke-opacity: 0.8"/>
     </g>
    </g>
    <g id="text_17">
     <!-- Rakuda -->
     <g transform="translate(556.3 83.116563) scale(0.1 -0.1)">
      <defs>
       <path id="DejaVuSans-75" d="M 544 1381 
L 544 3500 
L 1119 3500 
L 1119 1403 
Q 1119 906 1312 657 
Q 1506 409 1894 409 
Q 2359 409 2629 706 
Q 2900 1003 2900 1516 
L 2900 3500 
L 3475 3500 
L 3475 0 
L 2900 0 
L 2900 538 
Q 2691 219 2414 64 
Q 2138 -91 1772 -91 
Q 1169 -91 856 284 
Q 544 659 544 1381 
z
M 1991 3584 
L 1991 3584 
z
" transform="scale(0.015625)"/>
      </defs>
      <use xlink:href="#DejaVuSans-52"/>
      <use xlink:href="#DejaVuSans-61" x="67.232422"/>
      <use xlink:href="#DejaVuSans-6b" x="128.511719"/>
      <use xlink:href="#DejaVuSans-75" x="183.296875"/>
      <use xlink:href="#DejaVuSans-64" x="246.675781"/>
      <use xlink:href="#DejaVuSans-61" x="310.152344"/>
     </g>
    </g>
    <g id="PathCollection_7">
     <g>
      <use xlink:href="#m6cf929642f" x="538.3" y="95.169688" style="fill: #2ca02c; fill-opacity: 0.8; stroke: #2ca02c; stroke-opacity: 0.8"/>
     </g>
    </g>
    <g id="text_18">
     <!-- Tengu-Bench -->
     <g transform="translate(556.3 97.794688) scale(0.1 -0.1)">
      <use xlink:href="#DejaVuSans-54"/>
      <use xlink:href="#DejaVuSans-65" x="44.083984"/>
      <use xlink:href="#DejaVuSans-6e" x="105.607422"/>
      <use xlink:href="#DejaVuSans-67" x="168.986328"/>
      <use xlink:href="#DejaVuSans-75" x="232.462891"/>
      <use xlink:href="#DejaVuSans-2d" x="295.841797"/>
      <use xlink:href="#DejaVuSans-42" x="328.300781"/>
      <use xlink:href="#DejaVuSans-65" x="396.904297"/>
      <use xlink:href="#DejaVuSans-6e" x="458.427734"/>
      <use xlink:href="#DejaVuSans-63" x="521.806641"/>
      <use xlink:href="#DejaVuSans-68" x="576.787109"/>
     </g>
    </g>
    <g id="PathCollection_8">
     <g>
      <use xlink:href="#m21d7da5dfb" x="538.3" y="109.847813" style="fill: #d62728; fill-opacity: 0.8; stroke: #d62728; stroke-opacity: 0.8"/>
     </g>
    </g>
    <g id="text_19">
     <!-- MT-Bench -->
     <g transform="translate(556.3 112.472813) scale(0.1 -0.1)">
      <use xlink:href="#DejaVuSans-4d"/>
      <use xlink:href="#DejaVuSans-54" x="86.279297"/>
      <use xlink:href="#DejaVuSans-2d" x="138.238281"/>
      <use xlink:href="#DejaVuSans-42" x="170.697266"/>
      <use xlink:href="#DejaVuSans-65" x="239.300781"/>
      <use xlink:href="#DejaVuSans-6e" x="300.824219"/>
      <use xlink:href="#DejaVuSans-63" x="364.203125"/>
      <use xlink:href="#DejaVuSans-68" x="419.183594"/>
     </g>
    </g>
   </g>
  </g>
 </g>
 <defs>
  <clipPath id="p00ae22c29f">
   <rect x="90" y="51.84" width="558" height="332.64"/>
  </clipPath>
 </defs>
</svg>
