<?xml version="1.0" encoding="utf-8" standalone="no"?>
<!DOCTYPE svg PUBLIC "-//W3C//DTD SVG 1.1//EN"
  "http://www.w3.org/Graphics/SVG/1.1/DTD/svg11.dtd">
<svg xmlns:xlink="http://www.w3.org/1999/xlink" width="720pt" height="432pt" viewBox="0 0 720 432" xmlns="http://www.w3.org/2000/svg" version="1.1">
 <metadata>
  <rdf:RDF xmlns:dc="http://purl.org/dc/elements/1.1/" xmlns:cc="http://creativecommons.org/ns#" xmlns:rdf="http://www.w3.org/1999/02/22-rdf-syntax-ns#">
   <cc:Work>
    <dc:type rdf:resource="http://purl.org/dc/dcmitype/StillImage"/>
    <dc:date>2025-11-23T14:52:32.109434</dc:date>
    <dc:format>image/svg+xml</dc:format>
    <dc:creator>
     <cc:Agent>
      <dc:title>Matplotlib v3.10.7, https://matplotlib.org/</dc:title>
     </cc:Agent>
    </dc:creator>
   </cc:Work>
  </rdf:RDF>
 </metadata>
 <defs>
  <style type="text/css">*{stroke-linejoin: round; stroke-linecap: butt}</style>
 </defs>
 <g id="figure_1">
  <g id="patch_1">
   <path d="M 0 432 
L 720 432 
L 720 0 
L 0 0 
z
" style="fill: #ffffff"/>
  </g>
  <g id="axes_1">
   <g id="patch_2">
    <path d="M 90 384.48 
L 648 384.48 
L 648 51.84 
L 90 51.84 
z
" style="fill: #ffffff"/>
   </g>
   <g id="PathCollection_1">
    <defs>
     <path id="ma4f7bee3c6" d="M 0 3 
C 0.795609 3 1.55874 2.683901 2.12132 2.12132 
C 2.683901 1.55874 3 0.795609 3 0 
C 3 -0.795609 2.683901 -1.55874 2.12132 -2.12132 
C 1.55874 -2.683901 0.795609 -3 0 -3 
C -0.795609 -3 -1.55874 -2.683901 -2.12132 -2.12132 
C -2.683901 -1.55874 -3 -0.795609 -3 0 
C -3 0.795609 -2.683901 1.55874 -2.12132 2.12132 
C -1.55874 2.683901 -0.795609 3 0 3 
z
" style="stroke: #1f77b4; stroke-opacity: 0.8"/>
    </defs>
    <g clip-path="url(#p202c615d50)">
     <use xlink:href="#ma4f7bee3c6" x="115.363636" y="265.318029" style="fill: #1f77b4; fill-opacity: 0.8; stroke: #1f77b4; stroke-opacity: 0.8"/>
     <use xlink:href="#ma4f7bee3c6" x="173.928139" y="228.101532" style="fill: #1f77b4; fill-opacity: 0.8; stroke: #1f77b4; stroke-opacity: 0.8"/>
     <use xlink:href="#ma4f7bee3c6" x="208.186177" y="193.331512" style="fill: #1f77b4; fill-opacity: 0.8; stroke: #1f77b4; stroke-opacity: 0.8"/>
     <use xlink:href="#ma4f7bee3c6" x="232.492642" y="177.628017" style="fill: #1f77b4; fill-opacity: 0.8; stroke: #1f77b4; stroke-opacity: 0.8"/>
     <use xlink:href="#ma4f7bee3c6" x="251.346201" y="265.915029" style="fill: #1f77b4; fill-opacity: 0.8; stroke: #1f77b4; stroke-opacity: 0.8"/>
     <use xlink:href="#ma4f7bee3c6" x="266.75068" y="252.580344" style="fill: #1f77b4; fill-opacity: 0.8; stroke: #1f77b4; stroke-opacity: 0.8"/>
     <use xlink:href="#ma4f7bee3c6" x="279.774981" y="223.628152" style="fill: #1f77b4; fill-opacity: 0.8; stroke: #1f77b4; stroke-opacity: 0.8"/>
     <use xlink:href="#ma4f7bee3c6" x="291.057145" y="161.734208" style="fill: #1f77b4; fill-opacity: 0.8; stroke: #1f77b4; stroke-opacity: 0.8"/>
     <use xlink:href="#ma4f7bee3c6" x="301.008718" y="180.944476" style="fill: #1f77b4; fill-opacity: 0.8; stroke: #1f77b4; stroke-opacity: 0.8"/>
     <use xlink:href="#ma4f7bee3c6" x="309.910703" y="269.844644" style="fill: #1f77b4; fill-opacity: 0.8; stroke: #1f77b4; stroke-opacity: 0.8"/>
     <use xlink:href="#ma4f7bee3c6" x="325.315183" y="132.673074" style="fill: #1f77b4; fill-opacity: 0.8; stroke: #1f77b4; stroke-opacity: 0.8"/>
     <use xlink:href="#ma4f7bee3c6" x="332.078048" y="217.086433" style="fill: #1f77b4; fill-opacity: 0.8; stroke: #1f77b4; stroke-opacity: 0.8"/>
     <use xlink:href="#ma4f7bee3c6" x="338.339484" y="130.564911" style="fill: #1f77b4; fill-opacity: 0.8; stroke: #1f77b4; stroke-opacity: 0.8"/>
     <use xlink:href="#ma4f7bee3c6" x="354.743865" y="120.08035" style="fill: #1f77b4; fill-opacity: 0.8; stroke: #1f77b4; stroke-opacity: 0.8"/>
     <use xlink:href="#ma4f7bee3c6" x="376.528032" y="152.924628" style="fill: #1f77b4; fill-opacity: 0.8; stroke: #1f77b4; stroke-opacity: 0.8"/>
     <use xlink:href="#ma4f7bee3c6" x="383.879685" y="116.781886" style="fill: #1f77b4; fill-opacity: 0.8; stroke: #1f77b4; stroke-opacity: 0.8"/>
     <use xlink:href="#ma4f7bee3c6" x="393.831259" y="130.488056" style="fill: #1f77b4; fill-opacity: 0.8; stroke: #1f77b4; stroke-opacity: 0.8"/>
     <use xlink:href="#ma4f7bee3c6" x="402.733244" y="126.623293" style="fill: #1f77b4; fill-opacity: 0.8; stroke: #1f77b4; stroke-opacity: 0.8"/>
     <use xlink:href="#ma4f7bee3c6" x="408.18615" y="124.683258" style="fill: #1f77b4; fill-opacity: 0.8; stroke: #1f77b4; stroke-opacity: 0.8"/>
     <use xlink:href="#ma4f7bee3c6" x="415.757546" y="194.155426" style="fill: #1f77b4; fill-opacity: 0.8; stroke: #1f77b4; stroke-opacity: 0.8"/>
     <use xlink:href="#ma4f7bee3c6" x="474.322048" y="136.298154" style="fill: #1f77b4; fill-opacity: 0.8; stroke: #1f77b4; stroke-opacity: 0.8"/>
     <use xlink:href="#ma4f7bee3c6" x="476.702226" y="122.386985" style="fill: #1f77b4; fill-opacity: 0.8; stroke: #1f77b4; stroke-opacity: 0.8"/>
     <use xlink:href="#ma4f7bee3c6" x="504.45777" y="137.30956" style="fill: #1f77b4; fill-opacity: 0.8; stroke: #1f77b4; stroke-opacity: 0.8"/>
     <use xlink:href="#ma4f7bee3c6" x="550.279139" y="182.259902" style="fill: #1f77b4; fill-opacity: 0.8; stroke: #1f77b4; stroke-opacity: 0.8"/>
     <use xlink:href="#ma4f7bee3c6" x="576.647935" y="108.991897" style="fill: #1f77b4; fill-opacity: 0.8; stroke: #1f77b4; stroke-opacity: 0.8"/>
     <use xlink:href="#ma4f7bee3c6" x="607.855435" y="92.148678" style="fill: #1f77b4; fill-opacity: 0.8; stroke: #1f77b4; stroke-opacity: 0.8"/>
     <use xlink:href="#ma4f7bee3c6" x="622.636364" y="127.593899" style="fill: #1f77b4; fill-opacity: 0.8; stroke: #1f77b4; stroke-opacity: 0.8"/>
    </g>
   </g>
   <g id="PathCollection_2">
    <defs>
     <path id="m293ec8717c" d="M 0 3 
C 0.795609 3 1.55874 2.683901 2.12132 2.12132 
C 2.683901 1.55874 3 0.795609 3 0 
C 3 -0.795609 2.683901 -1.55874 2.12132 -2.12132 
C 1.55874 -2.683901 0.795609 -3 0 -3 
C -0.795609 -3 -1.55874 -2.683901 -2.12132 -2.12132 
C -2.683901 -1.55874 -3 -0.795609 -3 0 
C -3 0.795609 -2.683901 1.55874 -2.12132 2.12132 
C -1.55874 2.683901 -0.795609 3 0 3 
z
" style="stroke: #ff7f0e; stroke-opacity: 0.8"/>
    </defs>
    <g clip-path="url(#p202c615d50)">
     <use xlink:href="#m293ec8717c" x="115.363636" y="263.265262" style="fill: #ff7f0e; fill-opacity: 0.8; stroke: #ff7f0e; stroke-opacity: 0.8"/>
     <use xlink:href="#m293ec8717c" x="173.928139" y="210.843155" style="fill: #ff7f0e; fill-opacity: 0.8; stroke: #ff7f0e; stroke-opacity: 0.8"/>
     <use xlink:href="#m293ec8717c" x="208.186177" y="206.893668" style="fill: #ff7f0e; fill-opacity: 0.8; stroke: #ff7f0e; stroke-opacity: 0.8"/>
     <use xlink:href="#m293ec8717c" x="232.492642" y="219.841336" style="fill: #ff7f0e; fill-opacity: 0.8; stroke: #ff7f0e; stroke-opacity: 0.8"/>
     <use xlink:href="#m293ec8717c" x="251.346201" y="247.726305" style="fill: #ff7f0e; fill-opacity: 0.8; stroke: #ff7f0e; stroke-opacity: 0.8"/>
     <use xlink:href="#m293ec8717c" x="266.75068" y="336.164821" style="fill: #ff7f0e; fill-opacity: 0.8; stroke: #ff7f0e; stroke-opacity: 0.8"/>
     <use xlink:href="#m293ec8717c" x="279.774981" y="218.930317" style="fill: #ff7f0e; fill-opacity: 0.8; stroke: #ff7f0e; stroke-opacity: 0.8"/>
     <use xlink:href="#m293ec8717c" x="291.057145" y="121.613284" style="fill: #ff7f0e; fill-opacity: 0.8; stroke: #ff7f0e; stroke-opacity: 0.8"/>
     <use xlink:href="#m293ec8717c" x="301.008718" y="168.029257" style="fill: #ff7f0e; fill-opacity: 0.8; stroke: #ff7f0e; stroke-opacity: 0.8"/>
     <use xlink:href="#m293ec8717c" x="309.910703" y="369.36" style="fill: #ff7f0e; fill-opacity: 0.8; stroke: #ff7f0e; stroke-opacity: 0.8"/>
     <use xlink:href="#m293ec8717c" x="325.315183" y="91.806251" style="fill: #ff7f0e; fill-opacity: 0.8; stroke: #ff7f0e; stroke-opacity: 0.8"/>
     <use xlink:href="#m293ec8717c" x="332.078048" y="201.803548" style="fill: #ff7f0e; fill-opacity: 0.8; stroke: #ff7f0e; stroke-opacity: 0.8"/>
     <use xlink:href="#m293ec8717c" x="338.339484" y="136.564051" style="fill: #ff7f0e; fill-opacity: 0.8; stroke: #ff7f0e; stroke-opacity: 0.8"/>
     <use xlink:href="#m293ec8717c" x="354.743865" y="89.179831" style="fill: #ff7f0e; fill-opacity: 0.8; stroke: #ff7f0e; stroke-opacity: 0.8"/>
     <use xlink:href="#m293ec8717c" x="376.528032" y="87.880011" style="fill: #ff7f0e; fill-opacity: 0.8; stroke: #ff7f0e; stroke-opacity: 0.8"/>
     <use xlink:href="#m293ec8717c" x="383.879685" y="103.827119" style="fill: #ff7f0e; fill-opacity: 0.8; stroke: #ff7f0e; stroke-opacity: 0.8"/>
     <use xlink:href="#m293ec8717c" x="393.831259" y="118.728996" style="fill: #ff7f0e; fill-opacity: 0.8; stroke: #ff7f0e; stroke-opacity: 0.8"/>
     <use xlink:href="#m293ec8717c" x="402.733244" y="117.114078" style="fill: #ff7f0e; fill-opacity: 0.8; stroke: #ff7f0e; stroke-opacity: 0.8"/>
     <use xlink:href="#m293ec8717c" x="408.18615" y="122.390463" style="fill: #ff7f0e; fill-opacity: 0.8; stroke: #ff7f0e; stroke-opacity: 0.8"/>
     <use xlink:href="#m293ec8717c" x="415.757546" y="118.439476" style="fill: #ff7f0e; fill-opacity: 0.8; stroke: #ff7f0e; stroke-opacity: 0.8"/>
     <use xlink:href="#m293ec8717c" x="474.322048" y="114.75101" style="fill: #ff7f0e; fill-opacity: 0.8; stroke: #ff7f0e; stroke-opacity: 0.8"/>
     <use xlink:href="#m293ec8717c" x="476.702226" y="100.709778" style="fill: #ff7f0e; fill-opacity: 0.8; stroke: #ff7f0e; stroke-opacity: 0.8"/>
     <use xlink:href="#m293ec8717c" x="504.45777" y="130.151545" style="fill: #ff7f0e; fill-opacity: 0.8; stroke: #ff7f0e; stroke-opacity: 0.8"/>
     <use xlink:href="#m293ec8717c" x="550.279139" y="109.863712" style="fill: #ff7f0e; fill-opacity: 0.8; stroke: #ff7f0e; stroke-opacity: 0.8"/>
     <use xlink:href="#m293ec8717c" x="576.647935" y="80.358424" style="fill: #ff7f0e; fill-opacity: 0.8; stroke: #ff7f0e; stroke-opacity: 0.8"/>
     <use xlink:href="#m293ec8717c" x="607.855435" y="86.674631" style="fill: #ff7f0e; fill-opacity: 0.8; stroke: #ff7f0e; stroke-opacity: 0.8"/>
     <use xlink:href="#m293ec8717c" x="622.636364" y="142.961282" style="fill: #ff7f0e; fill-opacity: 0.8; stroke: #ff7f0e; stroke-opacity: 0.8"/>
    </g>
   </g>
   <g id="PathCollection_3">
    <defs>
     <path id="m7c2c2bbff5" d="M 0 3 
C 0.795609 3 1.55874 2.683901 2.12132 2.12132 
C 2.683901 1.55874 3 0.795609 3 0 
C 3 -0.795609 2.683901 -1.55874 2.12132 -2.12132 
C 1.55874 -2.683901 0.795609 -3 0 -3 
C -0.795609 -3 -1.55874 -2.683901 -2.12132 -2.12132 
C -2.683901 -1.55874 -3 -0.795609 -3 0 
C -3 0.795609 -2.683901 1.55874 -2.12132 2.12132 
C -1.55874 2.683901 -0.795609 3 0 3 
z
" style="stroke: #2ca02c; stroke-opacity: 0.8"/>
    </defs>
    <g clip-path="url(#p202c615d50)">
     <use xlink:href="#m7c2c2bbff5" x="115.363636" y="302.127482" style="fill: #2ca02c; fill-opacity: 0.8; stroke: #2ca02c; stroke-opacity: 0.8"/>
     <use xlink:href="#m7c2c2bbff5" x="173.928139" y="250.100648" style="fill: #2ca02c; fill-opacity: 0.8; stroke: #2ca02c; stroke-opacity: 0.8"/>
     <use xlink:href="#m7c2c2bbff5" x="208.186177" y="234.38031" style="fill: #2ca02c; fill-opacity: 0.8; stroke: #2ca02c; stroke-opacity: 0.8"/>
     <use xlink:href="#m7c2c2bbff5" x="232.492642" y="219.665886" style="fill: #2ca02c; fill-opacity: 0.8; stroke: #2ca02c; stroke-opacity: 0.8"/>
     <use xlink:href="#m7c2c2bbff5" x="251.346201" y="277.824871" style="fill: #2ca02c; fill-opacity: 0.8; stroke: #2ca02c; stroke-opacity: 0.8"/>
     <use xlink:href="#m7c2c2bbff5" x="266.75068" y="291.60047" style="fill: #2ca02c; fill-opacity: 0.8; stroke: #2ca02c; stroke-opacity: 0.8"/>
     <use xlink:href="#m7c2c2bbff5" x="279.774981" y="238.323216" style="fill: #2ca02c; fill-opacity: 0.8; stroke: #2ca02c; stroke-opacity: 0.8"/>
     <use xlink:href="#m7c2c2bbff5" x="291.057145" y="184.040579" style="fill: #2ca02c; fill-opacity: 0.8; stroke: #2ca02c; stroke-opacity: 0.8"/>
     <use xlink:href="#m7c2c2bbff5" x="301.008718" y="194.371189" style="fill: #2ca02c; fill-opacity: 0.8; stroke: #2ca02c; stroke-opacity: 0.8"/>
     <use xlink:href="#m7c2c2bbff5" x="309.910703" y="279.096987" style="fill: #2ca02c; fill-opacity: 0.8; stroke: #2ca02c; stroke-opacity: 0.8"/>
     <use xlink:href="#m7c2c2bbff5" x="325.315183" y="157.239148" style="fill: #2ca02c; fill-opacity: 0.8; stroke: #2ca02c; stroke-opacity: 0.8"/>
     <use xlink:href="#m7c2c2bbff5" x="332.078048" y="226.183586" style="fill: #2ca02c; fill-opacity: 0.8; stroke: #2ca02c; stroke-opacity: 0.8"/>
     <use xlink:href="#m7c2c2bbff5" x="338.339484" y="165.437713" style="fill: #2ca02c; fill-opacity: 0.8; stroke: #2ca02c; stroke-opacity: 0.8"/>
     <use xlink:href="#m7c2c2bbff5" x="354.743865" y="134.397087" style="fill: #2ca02c; fill-opacity: 0.8; stroke: #2ca02c; stroke-opacity: 0.8"/>
     <use xlink:href="#m7c2c2bbff5" x="376.528032" y="170.609227" style="fill: #2ca02c; fill-opacity: 0.8; stroke: #2ca02c; stroke-opacity: 0.8"/>
     <use xlink:href="#m7c2c2bbff5" x="383.879685" y="154.841858" style="fill: #2ca02c; fill-opacity: 0.8; stroke: #2ca02c; stroke-opacity: 0.8"/>
     <use xlink:href="#m7c2c2bbff5" x="393.831259" y="154.354547" style="fill: #2ca02c; fill-opacity: 0.8; stroke: #2ca02c; stroke-opacity: 0.8"/>
     <use xlink:href="#m7c2c2bbff5" x="402.733244" y="166.945349" style="fill: #2ca02c; fill-opacity: 0.8; stroke: #2ca02c; stroke-opacity: 0.8"/>
     <use xlink:href="#m7c2c2bbff5" x="408.18615" y="159.840505" style="fill: #2ca02c; fill-opacity: 0.8; stroke: #2ca02c; stroke-opacity: 0.8"/>
     <use xlink:href="#m7c2c2bbff5" x="415.757546" y="187.076011" style="fill: #2ca02c; fill-opacity: 0.8; stroke: #2ca02c; stroke-opacity: 0.8"/>
     <use xlink:href="#m7c2c2bbff5" x="474.322048" y="169.556511" style="fill: #2ca02c; fill-opacity: 0.8; stroke: #2ca02c; stroke-opacity: 0.8"/>
     <use xlink:href="#m7c2c2bbff5" x="476.702226" y="156.877148" style="fill: #2ca02c; fill-opacity: 0.8; stroke: #2ca02c; stroke-opacity: 0.8"/>
     <use xlink:href="#m7c2c2bbff5" x="504.45777" y="170.495966" style="fill: #2ca02c; fill-opacity: 0.8; stroke: #2ca02c; stroke-opacity: 0.8"/>
     <use xlink:href="#m7c2c2bbff5" x="550.279139" y="192.471104" style="fill: #2ca02c; fill-opacity: 0.8; stroke: #2ca02c; stroke-opacity: 0.8"/>
     <use xlink:href="#m7c2c2bbff5" x="576.647935" y="151.064856" style="fill: #2ca02c; fill-opacity: 0.8; stroke: #2ca02c; stroke-opacity: 0.8"/>
     <use xlink:href="#m7c2c2bbff5" x="607.855435" y="143.783673" style="fill: #2ca02c; fill-opacity: 0.8; stroke: #2ca02c; stroke-opacity: 0.8"/>
     <use xlink:href="#m7c2c2bbff5" x="622.636364" y="164.22427" style="fill: #2ca02c; fill-opacity: 0.8; stroke: #2ca02c; stroke-opacity: 0.8"/>
    </g>
   </g>
   <g id="PathCollection_4">
    <defs>
     <path id="ma696cf4be9" d="M 0 3 
C 0.795609 3 1.55874 2.683901 2.12132 2.12132 
C 2.683901 1.55874 3 0.795609 3 0 
C 3 -0.795609 2.683901 -1.55874 2.12132 -2.12132 
C 1.55874 -2.683901 0.795609 -3 0 -3 
C -0.795609 -3 -1.55874 -2.683901 -2.12132 -2.12132 
C -2.683901 -1.55874 -3 -0.795609 -3 0 
C -3 0.795609 -2.683901 1.55874 -2.12132 2.12132 
C -1.55874 2.683901 -0.795609 3 0 3 
z
" style="stroke: #d62728; stroke-opacity: 0.8"/>
    </defs>
    <g clip-path="url(#p202c615d50)">
     <use xlink:href="#ma696cf4be9" x="115.363636" y="288.170269" style="fill: #d62728; fill-opacity: 0.8; stroke: #d62728; stroke-opacity: 0.8"/>
     <use xlink:href="#ma696cf4be9" x="173.928139" y="226.259865" style="fill: #d62728; fill-opacity: 0.8; stroke: #d62728; stroke-opacity: 0.8"/>
     <use xlink:href="#ma696cf4be9" x="208.186177" y="218.520253" style="fill: #d62728; fill-opacity: 0.8; stroke: #d62728; stroke-opacity: 0.8"/>
     <use xlink:href="#ma696cf4be9" x="232.492642" y="191.242953" style="fill: #d62728; fill-opacity: 0.8; stroke: #d62728; stroke-opacity: 0.8"/>
     <use xlink:href="#ma696cf4be9" x="251.346201" y="276.372178" style="fill: #d62728; fill-opacity: 0.8; stroke: #d62728; stroke-opacity: 0.8"/>
     <use xlink:href="#ma696cf4be9" x="266.75068" y="301.425681" style="fill: #d62728; fill-opacity: 0.8; stroke: #d62728; stroke-opacity: 0.8"/>
     <use xlink:href="#ma696cf4be9" x="279.774981" y="225.180042" style="fill: #d62728; fill-opacity: 0.8; stroke: #d62728; stroke-opacity: 0.8"/>
     <use xlink:href="#ma696cf4be9" x="291.057145" y="142.445119" style="fill: #d62728; fill-opacity: 0.8; stroke: #d62728; stroke-opacity: 0.8"/>
     <use xlink:href="#ma696cf4be9" x="301.008718" y="175.08425" style="fill: #d62728; fill-opacity: 0.8; stroke: #d62728; stroke-opacity: 0.8"/>
     <use xlink:href="#ma696cf4be9" x="309.910703" y="299.846629" style="fill: #d62728; fill-opacity: 0.8; stroke: #d62728; stroke-opacity: 0.8"/>
     <use xlink:href="#ma696cf4be9" x="325.315183" y="114.13442" style="fill: #d62728; fill-opacity: 0.8; stroke: #d62728; stroke-opacity: 0.8"/>
     <use xlink:href="#ma696cf4be9" x="332.078048" y="207.595507" style="fill: #d62728; fill-opacity: 0.8; stroke: #d62728; stroke-opacity: 0.8"/>
     <use xlink:href="#ma696cf4be9" x="338.339484" y="132.833017" style="fill: #d62728; fill-opacity: 0.8; stroke: #d62728; stroke-opacity: 0.8"/>
     <use xlink:href="#ma696cf4be9" x="354.743865" y="104.624135" style="fill: #d62728; fill-opacity: 0.8; stroke: #d62728; stroke-opacity: 0.8"/>
     <use xlink:href="#ma696cf4be9" x="376.528032" y="135.098888" style="fill: #d62728; fill-opacity: 0.8; stroke: #d62728; stroke-opacity: 0.8"/>
     <use xlink:href="#ma696cf4be9" x="383.879685" y="120.628283" style="fill: #d62728; fill-opacity: 0.8; stroke: #d62728; stroke-opacity: 0.8"/>
     <use xlink:href="#ma696cf4be9" x="393.831259" y="115.345814" style="fill: #d62728; fill-opacity: 0.8; stroke: #d62728; stroke-opacity: 0.8"/>
     <use xlink:href="#ma696cf4be9" x="402.733244" y="118.873476" style="fill: #d62728; fill-opacity: 0.8; stroke: #d62728; stroke-opacity: 0.8"/>
     <use xlink:href="#ma696cf4be9" x="408.18615" y="122.573038" style="fill: #d62728; fill-opacity: 0.8; stroke: #d62728; stroke-opacity: 0.8"/>
     <use xlink:href="#ma696cf4be9" x="415.757546" y="147.236158" style="fill: #d62728; fill-opacity: 0.8; stroke: #d62728; stroke-opacity: 0.8"/>
     <use xlink:href="#ma696cf4be9" x="474.322048" y="124.042286" style="fill: #d62728; fill-opacity: 0.8; stroke: #d62728; stroke-opacity: 0.8"/>
     <use xlink:href="#ma696cf4be9" x="476.702226" y="122.83104" style="fill: #d62728; fill-opacity: 0.8; stroke: #d62728; stroke-opacity: 0.8"/>
     <use xlink:href="#ma696cf4be9" x="504.45777" y="150.333691" style="fill: #d62728; fill-opacity: 0.8; stroke: #d62728; stroke-opacity: 0.8"/>
     <use xlink:href="#ma696cf4be9" x="550.279139" y="163.601437" style="fill: #d62728; fill-opacity: 0.8; stroke: #d62728; stroke-opacity: 0.8"/>
     <use xlink:href="#ma696cf4be9" x="576.647935" y="109.132257" style="fill: #d62728; fill-opacity: 0.8; stroke: #d62728; stroke-opacity: 0.8"/>
     <use xlink:href="#ma696cf4be9" x="607.855435" y="103.500084" style="fill: #d62728; fill-opacity: 0.8; stroke: #d62728; stroke-opacity: 0.8"/>
     <use xlink:href="#ma696cf4be9" x="622.636364" y="121.362905" style="fill: #d62728; fill-opacity: 0.8; stroke: #d62728; stroke-opacity: 0.8"/>
    </g>
   </g>
   <g id="matplotlib.axis_1">
    <g id="xtick_1">
     <g id="line2d_1">
      <defs>
       <path id="m980d9ef73c" d="M 0 0 
L 0 3.5 
" style="stroke: #000000; stroke-width: 0.8"/>
      </defs>
      <g>
       <use xlink:href="#m980d9ef73c" x="279.774981" y="384.48" style="stroke: #000000; stroke-width: 0.8"/>
      </g>
     </g>
     <g id="text_1">
      <!-- 7B -->
      <g transform="translate(273.163263 399.078438) scale(0.1 -0.1)">
       <defs>
        <path id="DejaVuSans-37" d="M 525 4666 
L 3525 4666 
L 3525 4397 
L 1831 0 
L 1172 0 
L 2766 4134 
L 525 4134 
L 525 4666 
z
" transform="scale(0.015625)"/>
        <path id="DejaVuSans-42" d="M 1259 2228 
L 1259 519 
L 2272 519 
Q 2781 519 3026 730 
Q 3272 941 3272 1375 
Q 3272 1813 3026 2020 
Q 2781 2228 2272 2228 
L 1259 2228 
z
M 1259 4147 
L 1259 2741 
L 2194 2741 
Q 2656 2741 2882 2914 
Q 3109 3088 3109 3444 
Q 3109 3797 2882 3972 
Q 2656 4147 2194 4147 
L 1259 4147 
z
M 628 4666 
L 2241 4666 
Q 2963 4666 3353 4366 
Q 3744 4066 3744 3513 
Q 3744 3084 3544 2831 
Q 3344 2578 2956 2516 
Q 3422 2416 3680 2098 
Q 3938 1781 3938 1306 
Q 3938 681 3513 340 
Q 3088 0 2303 0 
L 628 0 
L 628 4666 
z
" transform="scale(0.015625)"/>
       </defs>
       <use xlink:href="#DejaVuSans-37"/>
       <use xlink:href="#DejaVuSans-42" transform="translate(63.623047 0)"/>
      </g>
     </g>
    </g>
    <g id="xtick_2">
     <g id="line2d_2">
      <g>
       <use xlink:href="#m980d9ef73c" x="332.078048" y="384.48" style="stroke: #000000; stroke-width: 0.8"/>
      </g>
     </g>
     <g id="text_2">
      <!-- 13B -->
      <g transform="translate(322.28508 399.078438) scale(0.1 -0.1)">
       <defs>
        <path id="DejaVuSans-31" d="M 794 531 
L 1825 531 
L 1825 4091 
L 703 3866 
L 703 4441 
L 1819 4666 
L 2450 4666 
L 2450 531 
L 3481 531 
L 3481 0 
L 794 0 
L 794 531 
z
" transform="scale(0.015625)"/>
        <path id="DejaVuSans-33" d="M 2597 2516 
Q 3050 2419 3304 2112 
Q 3559 1806 3559 1356 
Q 3559 666 3084 287 
Q 2609 -91 1734 -91 
Q 1441 -91 1130 -33 
Q 819 25 488 141 
L 488 750 
Q 750 597 1062 519 
Q 1375 441 1716 441 
Q 2309 441 2620 675 
Q 2931 909 2931 1356 
Q 2931 1769 2642 2001 
Q 2353 2234 1838 2234 
L 1294 2234 
L 1294 2753 
L 1863 2753 
Q 2328 2753 2575 2939 
Q 2822 3125 2822 3475 
Q 2822 3834 2567 4026 
Q 2313 4219 1838 4219 
Q 1578 4219 1281 4162 
Q 984 4106 628 3988 
L 628 4550 
Q 988 4650 1302 4700 
Q 1616 4750 1894 4750 
Q 2613 4750 3031 4423 
Q 3450 4097 3450 3541 
Q 3450 3153 3228 2886 
Q 3006 2619 2597 2516 
z
" transform="scale(0.015625)"/>
       </defs>
       <use xlink:href="#DejaVuSans-31"/>
       <use xlink:href="#DejaVuSans-33" transform="translate(63.623047 0)"/>
       <use xlink:href="#DejaVuSans-42" transform="translate(127.246094 0)"/>
      </g>
     </g>
    </g>
    <g id="xtick_3">
     <g id="line2d_3">
      <g>
       <use xlink:href="#m980d9ef73c" x="408.18615" y="384.48" style="stroke: #000000; stroke-width: 0.8"/>
      </g>
     </g>
     <g id="text_3">
      <!-- 32B -->
      <g transform="translate(398.393181 399.078438) scale(0.1 -0.1)">
       <defs>
        <path id="DejaVuSans-32" d="M 1228 531 
L 3431 531 
L 3431 0 
L 469 0 
L 469 531 
Q 828 903 1448 1529 
Q 2069 2156 2228 2338 
Q 2531 2678 2651 2914 
Q 2772 3150 2772 3378 
Q 2772 3750 2511 3984 
Q 2250 4219 1831 4219 
Q 1534 4219 1204 4116 
Q 875 4013 500 3803 
L 500 4441 
Q 881 4594 1212 4672 
Q 1544 4750 1819 4750 
Q 2544 4750 2975 4387 
Q 3406 4025 3406 3419 
Q 3406 3131 3298 2873 
Q 3191 2616 2906 2266 
Q 2828 2175 2409 1742 
Q 1991 1309 1228 531 
z
" transform="scale(0.015625)"/>
       </defs>
       <use xlink:href="#DejaVuSans-33"/>
       <use xlink:href="#DejaVuSans-32" transform="translate(63.623047 0)"/>
       <use xlink:href="#DejaVuSans-42" transform="translate(127.246094 0)"/>
      </g>
     </g>
    </g>
    <g id="xtick_4">
     <g id="line2d_4">
      <g>
       <use xlink:href="#m980d9ef73c" x="474.322048" y="384.48" style="stroke: #000000; stroke-width: 0.8"/>
      </g>
     </g>
     <g id="text_4">
      <!-- 70B -->
      <g transform="translate(464.52908 399.078438) scale(0.1 -0.1)">
       <defs>
        <path id="DejaVuSans-30" d="M 2034 4250 
Q 1547 4250 1301 3770 
Q 1056 3291 1056 2328 
Q 1056 1369 1301 889 
Q 1547 409 2034 409 
Q 2525 409 2770 889 
Q 3016 1369 3016 2328 
Q 3016 3291 2770 3770 
Q 2525 4250 2034 4250 
z
M 2034 4750 
Q 2819 4750 3233 4129 
Q 3647 3509 3647 2328 
Q 3647 1150 3233 529 
Q 2819 -91 2034 -91 
Q 1250 -91 836 529 
Q 422 1150 422 2328 
Q 422 3509 836 4129 
Q 1250 4750 2034 4750 
z
" transform="scale(0.015625)"/>
       </defs>
       <use xlink:href="#DejaVuSans-37"/>
       <use xlink:href="#DejaVuSans-30" transform="translate(63.623047 0)"/>
       <use xlink:href="#DejaVuSans-42" transform="translate(127.246094 0)"/>
      </g>
     </g>
    </g>
    <g id="text_5">
     <!-- model_size -->
     <g transform="translate(341.235937 412.756563) scale(0.1 -0.1)">
      <defs>
       <path id="DejaVuSans-6d" d="M 3328 2828 
Q 3544 3216 3844 3400 
Q 4144 3584 4550 3584 
Q 5097 3584 5394 3201 
Q 5691 2819 5691 2113 
L 5691 0 
L 5113 0 
L 5113 2094 
Q 5113 2597 4934 2840 
Q 4756 3084 4391 3084 
Q 3944 3084 3684 2787 
Q 3425 2491 3425 1978 
L 3425 0 
L 2847 0 
L 2847 2094 
Q 2847 2600 2669 2842 
Q 2491 3084 2119 3084 
Q 1678 3084 1418 2786 
Q 1159 2488 1159 1978 
L 1159 0 
L 581 0 
L 581 3500 
L 1159 3500 
L 1159 2956 
Q 1356 3278 1631 3431 
Q 1906 3584 2284 3584 
Q 2666 3584 2933 3390 
Q 3200 3197 3328 2828 
z
" transform="scale(0.015625)"/>
       <path id="DejaVuSans-6f" d="M 1959 3097 
Q 1497 3097 1228 2736 
Q 959 2375 959 1747 
Q 959 1119 1226 758 
Q 1494 397 1959 397 
Q 2419 397 2687 759 
Q 2956 1122 2956 1747 
Q 2956 2369 2687 2733 
Q 2419 3097 1959 3097 
z
M 1959 3584 
Q 2709 3584 3137 3096 
Q 3566 2609 3566 1747 
Q 3566 888 3137 398 
Q 2709 -91 1959 -91 
Q 1206 -91 779 398 
Q 353 888 353 1747 
Q 353 2609 779 3096 
Q 1206 3584 1959 3584 
z
" transform="scale(0.015625)"/>
       <path id="DejaVuSans-64" d="M 2906 2969 
L 2906 4863 
L 3481 4863 
L 3481 0 
L 2906 0 
L 2906 525 
Q 2725 213 2448 61 
Q 2172 -91 1784 -91 
Q 1150 -91 751 415 
Q 353 922 353 1747 
Q 353 2572 751 3078 
Q 1150 3584 1784 3584 
Q 2172 3584 2448 3432 
Q 2725 3281 2906 2969 
z
M 947 1747 
Q 947 1113 1208 752 
Q 1469 391 1925 391 
Q 2381 391 2643 752 
Q 2906 1113 2906 1747 
Q 2906 2381 2643 2742 
Q 2381 3103 1925 3103 
Q 1469 3103 1208 2742 
Q 947 2381 947 1747 
z
" transform="scale(0.015625)"/>
       <path id="DejaVuSans-65" d="M 3597 1894 
L 3597 1613 
L 953 1613 
Q 991 1019 1311 708 
Q 1631 397 2203 397 
Q 2534 397 2845 478 
Q 3156 559 3463 722 
L 3463 178 
Q 3153 47 2828 -22 
Q 2503 -91 2169 -91 
Q 1331 -91 842 396 
Q 353 884 353 1716 
Q 353 2575 817 3079 
Q 1281 3584 2069 3584 
Q 2775 3584 3186 3129 
Q 3597 2675 3597 1894 
z
M 3022 2063 
Q 3016 2534 2758 2815 
Q 2500 3097 2075 3097 
Q 1594 3097 1305 2825 
Q 1016 2553 972 2059 
L 3022 2063 
z
" transform="scale(0.015625)"/>
       <path id="DejaVuSans-6c" d="M 603 4863 
L 1178 4863 
L 1178 0 
L 603 0 
L 603 4863 
z
" transform="scale(0.015625)"/>
       <path id="DejaVuSans-5f" d="M 3263 -1063 
L 3263 -1509 
L -63 -1509 
L -63 -1063 
L 3263 -1063 
z
" transform="scale(0.015625)"/>
       <path id="DejaVuSans-73" d="M 2834 3397 
L 2834 2853 
Q 2591 2978 2328 3040 
Q 2066 3103 1784 3103 
Q 1356 3103 1142 2972 
Q 928 2841 928 2578 
Q 928 2378 1081 2264 
Q 1234 2150 1697 2047 
L 1894 2003 
Q 2506 1872 2764 1633 
Q 3022 1394 3022 966 
Q 3022 478 2636 193 
Q 2250 -91 1575 -91 
Q 1294 -91 989 -36 
Q 684 19 347 128 
L 347 722 
Q 666 556 975 473 
Q 1284 391 1588 391 
Q 1994 391 2212 530 
Q 2431 669 2431 922 
Q 2431 1156 2273 1281 
Q 2116 1406 1581 1522 
L 1381 1569 
Q 847 1681 609 1914 
Q 372 2147 372 2553 
Q 372 3047 722 3315 
Q 1072 3584 1716 3584 
Q 2034 3584 2315 3537 
Q 2597 3491 2834 3397 
z
" transform="scale(0.015625)"/>
       <path id="DejaVuSans-69" d="M 603 3500 
L 1178 3500 
L 1178 0 
L 603 0 
L 603 3500 
z
M 603 4863 
L 1178 4863 
L 1178 4134 
L 603 4134 
L 603 4863 
z
" transform="scale(0.015625)"/>
       <path id="DejaVuSans-7a" d="M 353 3500 
L 3084 3500 
L 3084 2975 
L 922 459 
L 3084 459 
L 3084 0 
L 275 0 
L 275 525 
L 2438 3041 
L 353 3041 
L 353 3500 
z
" transform="scale(0.015625)"/>
      </defs>
      <use xlink:href="#DejaVuSans-6d"/>
      <use xlink:href="#DejaVuSans-6f" transform="translate(97.412109 0)"/>
      <use xlink:href="#DejaVuSans-64" transform="translate(158.59375 0)"/>
      <use xlink:href="#DejaVuSans-65" transform="translate(222.070312 0)"/>
      <use xlink:href="#DejaVuSans-6c" transform="translate(283.59375 0)"/>
      <use xlink:href="#DejaVuSans-5f" transform="translate(311.376953 0)"/>
      <use xlink:href="#DejaVuSans-73" transform="translate(361.376953 0)"/>
      <use xlink:href="#DejaVuSans-69" transform="translate(413.476562 0)"/>
      <use xlink:href="#DejaVuSans-7a" transform="translate(441.259766 0)"/>
      <use xlink:href="#DejaVuSans-65" transform="translate(493.75 0)"/>
     </g>
    </g>
   </g>
   <g id="matplotlib.axis_2">
    <g id="ytick_1">
     <g id="line2d_5">
      <defs>
       <path id="mc24381ae26" d="M 0 0 
L -3.5 0 
" style="stroke: #000000; stroke-width: 0.8"/>
      </defs>
      <g>
       <use xlink:href="#mc24381ae26" x="90" y="343.53373" style="stroke: #000000; stroke-width: 0.8"/>
      </g>
     </g>
     <g id="text_6">
      <!-- 3 -->
      <g transform="translate(76.6375 347.332949) scale(0.1 -0.1)">
       <use xlink:href="#DejaVuSans-33"/>
      </g>
     </g>
    </g>
    <g id="ytick_2">
     <g id="line2d_6">
      <g>
       <use xlink:href="#mc24381ae26" x="90" y="301.425681" style="stroke: #000000; stroke-width: 0.8"/>
      </g>
     </g>
     <g id="text_7">
      <!-- 4 -->
      <g transform="translate(76.6375 305.2249) scale(0.1 -0.1)">
       <defs>
        <path id="DejaVuSans-34" d="M 2419 4116 
L 825 1625 
L 2419 1625 
L 2419 4116 
z
M 2253 4666 
L 3047 4666 
L 3047 1625 
L 3713 1625 
L 3713 1100 
L 3047 1100 
L 3047 0 
L 2419 0 
L 2419 1100 
L 313 1100 
L 313 1709 
L 2253 4666 
z
" transform="scale(0.015625)"/>
       </defs>
       <use xlink:href="#DejaVuSans-34"/>
      </g>
     </g>
    </g>
    <g id="ytick_3">
     <g id="line2d_7">
      <g>
       <use xlink:href="#mc24381ae26" x="90" y="259.317632" style="stroke: #000000; stroke-width: 0.8"/>
      </g>
     </g>
     <g id="text_8">
      <!-- 5 -->
      <g transform="translate(76.6375 263.116851) scale(0.1 -0.1)">
       <defs>
        <path id="DejaVuSans-35" d="M 691 4666 
L 3169 4666 
L 3169 4134 
L 1269 4134 
L 1269 2991 
Q 1406 3038 1543 3061 
Q 1681 3084 1819 3084 
Q 2600 3084 3056 2656 
Q 3513 2228 3513 1497 
Q 3513 744 3044 326 
Q 2575 -91 1722 -91 
Q 1428 -91 1123 -41 
Q 819 9 494 109 
L 494 744 
Q 775 591 1075 516 
Q 1375 441 1709 441 
Q 2250 441 2565 725 
Q 2881 1009 2881 1497 
Q 2881 1984 2565 2268 
Q 2250 2553 1709 2553 
Q 1456 2553 1204 2497 
Q 953 2441 691 2322 
L 691 4666 
z
" transform="scale(0.015625)"/>
       </defs>
       <use xlink:href="#DejaVuSans-35"/>
      </g>
     </g>
    </g>
    <g id="ytick_4">
     <g id="line2d_8">
      <g>
       <use xlink:href="#mc24381ae26" x="90" y="217.209583" style="stroke: #000000; stroke-width: 0.8"/>
      </g>
     </g>
     <g id="text_9">
      <!-- 6 -->
      <g transform="translate(76.6375 221.008802) scale(0.1 -0.1)">
       <defs>
        <path id="DejaVuSans-36" d="M 2113 2584 
Q 1688 2584 1439 2293 
Q 1191 2003 1191 1497 
Q 1191 994 1439 701 
Q 1688 409 2113 409 
Q 2538 409 2786 701 
Q 3034 994 3034 1497 
Q 3034 2003 2786 2293 
Q 2538 2584 2113 2584 
z
M 3366 4563 
L 3366 3988 
Q 3128 4100 2886 4159 
Q 2644 4219 2406 4219 
Q 1781 4219 1451 3797 
Q 1122 3375 1075 2522 
Q 1259 2794 1537 2939 
Q 1816 3084 2150 3084 
Q 2853 3084 3261 2657 
Q 3669 2231 3669 1497 
Q 3669 778 3244 343 
Q 2819 -91 2113 -91 
Q 1303 -91 875 529 
Q 447 1150 447 2328 
Q 447 3434 972 4092 
Q 1497 4750 2381 4750 
Q 2619 4750 2861 4703 
Q 3103 4656 3366 4563 
z
" transform="scale(0.015625)"/>
       </defs>
       <use xlink:href="#DejaVuSans-36"/>
      </g>
     </g>
    </g>
    <g id="ytick_5">
     <g id="line2d_9">
      <g>
       <use xlink:href="#mc24381ae26" x="90" y="175.101534" style="stroke: #000000; stroke-width: 0.8"/>
      </g>
     </g>
     <g id="text_10">
      <!-- 7 -->
      <g transform="translate(76.6375 178.900753) scale(0.1 -0.1)">
       <use xlink:href="#DejaVuSans-37"/>
      </g>
     </g>
    </g>
    <g id="ytick_6">
     <g id="line2d_10">
      <g>
       <use xlink:href="#mc24381ae26" x="90" y="132.993485" style="stroke: #000000; stroke-width: 0.8"/>
      </g>
     </g>
     <g id="text_11">
      <!-- 8 -->
      <g transform="translate(76.6375 136.792704) scale(0.1 -0.1)">
       <defs>
        <path id="DejaVuSans-38" d="M 2034 2216 
Q 1584 2216 1326 1975 
Q 1069 1734 1069 1313 
Q 1069 891 1326 650 
Q 1584 409 2034 409 
Q 2484 409 2743 651 
Q 3003 894 3003 1313 
Q 3003 1734 2745 1975 
Q 2488 2216 2034 2216 
z
M 1403 2484 
Q 997 2584 770 2862 
Q 544 3141 544 3541 
Q 544 4100 942 4425 
Q 1341 4750 2034 4750 
Q 2731 4750 3128 4425 
Q 3525 4100 3525 3541 
Q 3525 3141 3298 2862 
Q 3072 2584 2669 2484 
Q 3125 2378 3379 2068 
Q 3634 1759 3634 1313 
Q 3634 634 3220 271 
Q 2806 -91 2034 -91 
Q 1263 -91 848 271 
Q 434 634 434 1313 
Q 434 1759 690 2068 
Q 947 2378 1403 2484 
z
M 1172 3481 
Q 1172 3119 1398 2916 
Q 1625 2713 2034 2713 
Q 2441 2713 2670 2916 
Q 2900 3119 2900 3481 
Q 2900 3844 2670 4047 
Q 2441 4250 2034 4250 
Q 1625 4250 1398 4047 
Q 1172 3844 1172 3481 
z
" transform="scale(0.015625)"/>
       </defs>
       <use xlink:href="#DejaVuSans-38"/>
      </g>
     </g>
    </g>
    <g id="ytick_7">
     <g id="line2d_11">
      <g>
       <use xlink:href="#mc24381ae26" x="90" y="90.885436" style="stroke: #000000; stroke-width: 0.8"/>
      </g>
     </g>
     <g id="text_12">
      <!-- 9 -->
      <g transform="translate(76.6375 94.684655) scale(0.1 -0.1)">
       <defs>
        <path id="DejaVuSans-39" d="M 703 97 
L 703 672 
Q 941 559 1184 500 
Q 1428 441 1663 441 
Q 2288 441 2617 861 
Q 2947 1281 2994 2138 
Q 2813 1869 2534 1725 
Q 2256 1581 1919 1581 
Q 1219 1581 811 2004 
Q 403 2428 403 3163 
Q 403 3881 828 4315 
Q 1253 4750 1959 4750 
Q 2769 4750 3195 4129 
Q 3622 3509 3622 2328 
Q 3622 1225 3098 567 
Q 2575 -91 1691 -91 
Q 1453 -91 1209 -44 
Q 966 3 703 97 
z
M 1959 2075 
Q 2384 2075 2632 2365 
Q 2881 2656 2881 3163 
Q 2881 3666 2632 3958 
Q 2384 4250 1959 4250 
Q 1534 4250 1286 3958 
Q 1038 3666 1038 3163 
Q 1038 2656 1286 2365 
Q 1534 2075 1959 2075 
z
" transform="scale(0.015625)"/>
       </defs>
       <use xlink:href="#DejaVuSans-39"/>
      </g>
     </g>
    </g>
    <g id="text_13">
     <!-- MT-Bench -->
     <g transform="translate(70.557812 242.288125) rotate(-90) scale(0.1 -0.1)">
      <defs>
       <path id="DejaVuSans-4d" d="M 628 4666 
L 1569 4666 
L 2759 1491 
L 3956 4666 
L 4897 4666 
L 4897 0 
L 4281 0 
L 4281 4097 
L 3078 897 
L 2444 897 
L 1241 4097 
L 1241 0 
L 628 0 
L 628 4666 
z
" transform="scale(0.015625)"/>
       <path id="DejaVuSans-54" d="M -19 4666 
L 3928 4666 
L 3928 4134 
L 2272 4134 
L 2272 0 
L 1638 0 
L 1638 4134 
L -19 4134 
L -19 4666 
z
" transform="scale(0.015625)"/>
       <path id="DejaVuSans-2d" d="M 313 2009 
L 1997 2009 
L 1997 1497 
L 313 1497 
L 313 2009 
z
" transform="scale(0.015625)"/>
       <path id="DejaVuSans-6e" d="M 3513 2113 
L 3513 0 
L 2938 0 
L 2938 2094 
Q 2938 2591 2744 2837 
Q 2550 3084 2163 3084 
Q 1697 3084 1428 2787 
Q 1159 2491 1159 1978 
L 1159 0 
L 581 0 
L 581 3500 
L 1159 3500 
L 1159 2956 
Q 1366 3272 1645 3428 
Q 1925 3584 2291 3584 
Q 2894 3584 3203 3211 
Q 3513 2838 3513 2113 
z
" transform="scale(0.015625)"/>
       <path id="DejaVuSans-63" d="M 3122 3366 
L 3122 2828 
Q 2878 2963 2633 3030 
Q 2388 3097 2138 3097 
Q 1578 3097 1268 2742 
Q 959 2388 959 1747 
Q 959 1106 1268 751 
Q 1578 397 2138 397 
Q 2388 397 2633 464 
Q 2878 531 3122 666 
L 3122 134 
Q 2881 22 2623 -34 
Q 2366 -91 2075 -91 
Q 1284 -91 818 406 
Q 353 903 353 1747 
Q 353 2603 823 3093 
Q 1294 3584 2113 3584 
Q 2378 3584 2631 3529 
Q 2884 3475 3122 3366 
z
" transform="scale(0.015625)"/>
       <path id="DejaVuSans-68" d="M 3513 2113 
L 3513 0 
L 2938 0 
L 2938 2094 
Q 2938 2591 2744 2837 
Q 2550 3084 2163 3084 
Q 1697 3084 1428 2787 
Q 1159 2491 1159 1978 
L 1159 0 
L 581 0 
L 581 4863 
L 1159 4863 
L 1159 2956 
Q 1366 3272 1645 3428 
Q 1925 3584 2291 3584 
Q 2894 3584 3203 3211 
Q 3513 2838 3513 2113 
z
" transform="scale(0.015625)"/>
      </defs>
      <use xlink:href="#DejaVuSans-4d"/>
      <use xlink:href="#DejaVuSans-54" transform="translate(86.279297 0)"/>
      <use xlink:href="#DejaVuSans-2d" transform="translate(138.238281 0)"/>
      <use xlink:href="#DejaVuSans-42" transform="translate(170.697266 0)"/>
      <use xlink:href="#DejaVuSans-65" transform="translate(239.300781 0)"/>
      <use xlink:href="#DejaVuSans-6e" transform="translate(300.824219 0)"/>
      <use xlink:href="#DejaVuSans-63" transform="translate(364.203125 0)"/>
      <use xlink:href="#DejaVuSans-68" transform="translate(419.183594 0)"/>
     </g>
    </g>
   </g>
   <g id="line2d_12">
    <path d="M 115.363636 241.722152 
L 120.487603 240.262177 
L 125.61157 238.802203 
L 130.735537 237.342229 
L 135.859504 235.882255 
L 140.983471 234.422281 
L 146.107438 232.962307 
L 151.231405 231.502332 
L 156.355372 230.042358 
L 161.479339 228.582384 
L 166.603306 227.12241 
L 171.727273 225.662436 
L 176.85124 224.202461 
L 181.975207 222.742487 
L 187.099174 221.282513 
L 192.22314 219.822539 
L 197.347107 218.362565 
L 202.471074 216.902591 
L 207.595041 215.442616 
L 212.719008 213.982642 
L 217.842975 212.522668 
L 222.966942 211.062694 
L 228.090909 209.60272 
L 233.214876 208.142746 
L 238.338843 206.682771 
L 243.46281 205.222797 
L 248.586777 203.762823 
L 253.710744 202.302849 
L 258.834711 200.842875 
L 263.958678 199.3829 
L 269.082645 197.922926 
L 274.206612 196.462952 
L 279.330579 195.002978 
L 284.454545 193.543004 
L 289.578512 192.08303 
L 294.702479 190.623055 
L 299.826446 189.163081 
L 304.950413 187.703107 
L 310.07438 186.243133 
L 315.198347 184.783159 
L 320.322314 183.323185 
L 325.446281 181.86321 
L 330.570248 180.403236 
L 335.694215 178.943262 
L 340.818182 177.483288 
L 345.942149 176.023314 
L 351.066116 174.563339 
L 356.190083 173.103365 
L 361.31405 171.643391 
L 366.438017 170.183417 
L 371.561983 168.723443 
L 376.68595 167.263469 
L 381.809917 165.803494 
L 386.933884 164.34352 
L 392.057851 162.883546 
L 397.181818 161.423572 
L 402.305785 159.963598 
L 407.429752 158.503624 
L 412.553719 157.043649 
L 417.677686 155.583675 
L 422.801653 154.123701 
L 427.92562 152.663727 
L 433.049587 151.203753 
L 438.173554 149.743778 
L 443.297521 148.283804 
L 448.421488 146.82383 
L 453.545455 145.363856 
L 458.669421 143.903882 
L 463.793388 142.443908 
L 468.917355 140.983933 
L 474.041322 139.523959 
L 479.165289 138.063985 
L 484.289256 136.604011 
L 489.413223 135.144037 
L 494.53719 133.684063 
L 499.661157 132.224088 
L 504.785124 130.764114 
L 509.909091 129.30414 
L 515.033058 127.844166 
L 520.157025 126.384192 
L 525.280992 124.924217 
L 530.404959 123.464243 
L 535.528926 122.004269 
L 540.652893 120.544295 
L 545.77686 119.084321 
L 550.900826 117.624347 
L 556.024793 116.164372 
L 561.14876 114.704398 
L 566.272727 113.244424 
L 571.396694 111.78445 
L 576.520661 110.324476 
L 581.644628 108.864502 
L 586.768595 107.404527 
L 591.892562 105.944553 
L 597.016529 104.484579 
L 602.140496 103.024605 
L 607.264463 101.564631 
L 612.38843 100.104657 
L 617.512397 98.644682 
L 622.636364 97.184708 
" clip-path="url(#p202c615d50)" style="fill: none; stroke: #1f77b4; stroke-width: 2.25; stroke-linecap: square"/>
   </g>
   <g id="line2d_13">
    <path d="M 115.363636 253.036136 
L 120.487603 251.15658 
L 125.61157 249.277023 
L 130.735537 247.397466 
L 135.859504 245.517909 
L 140.983471 243.638352 
L 146.107438 241.758795 
L 151.231405 239.879238 
L 156.355372 237.999681 
L 161.479339 236.120124 
L 166.603306 234.240567 
L 171.727273 232.36101 
L 176.85124 230.481453 
L 181.975207 228.601896 
L 187.099174 226.722339 
L 192.22314 224.842782 
L 197.347107 222.963226 
L 202.471074 221.083669 
L 207.595041 219.204112 
L 212.719008 217.324555 
L 217.842975 215.444998 
L 222.966942 213.565441 
L 228.090909 211.685884 
L 233.214876 209.806327 
L 238.338843 207.92677 
L 243.46281 206.047213 
L 248.586777 204.167656 
L 253.710744 202.288099 
L 258.834711 200.408542 
L 263.958678 198.528985 
L 269.082645 196.649428 
L 274.206612 194.769872 
L 279.330579 192.890315 
L 284.454545 191.010758 
L 289.578512 189.131201 
L 294.702479 187.251644 
L 299.826446 185.372087 
L 304.950413 183.49253 
L 310.07438 181.612973 
L 315.198347 179.733416 
L 320.322314 177.853859 
L 325.446281 175.974302 
L 330.570248 174.094745 
L 335.694215 172.215188 
L 340.818182 170.335631 
L 345.942149 168.456074 
L 351.066116 166.576517 
L 356.190083 164.696961 
L 361.31405 162.817404 
L 366.438017 160.937847 
L 371.561983 159.05829 
L 376.68595 157.178733 
L 381.809917 155.299176 
L 386.933884 153.419619 
L 392.057851 151.540062 
L 397.181818 149.660505 
L 402.305785 147.780948 
L 407.429752 145.901391 
L 412.553719 144.021834 
L 417.677686 142.142277 
L 422.801653 140.26272 
L 427.92562 138.383163 
L 433.049587 136.503607 
L 438.173554 134.62405 
L 443.297521 132.744493 
L 448.421488 130.864936 
L 453.545455 128.985379 
L 458.669421 127.105822 
L 463.793388 125.226265 
L 468.917355 123.346708 
L 474.041322 121.467151 
L 479.165289 119.587594 
L 484.289256 117.708037 
L 489.413223 115.82848 
L 494.53719 113.948923 
L 499.661157 112.069366 
L 504.785124 110.189809 
L 509.909091 108.310253 
L 515.033058 106.430696 
L 520.157025 104.551139 
L 525.280992 102.671582 
L 530.404959 100.792025 
L 535.528926 98.912468 
L 540.652893 97.032911 
L 545.77686 95.153354 
L 550.900826 93.273797 
L 556.024793 91.39424 
L 561.14876 89.514683 
L 566.272727 87.635126 
L 571.396694 85.755569 
L 576.520661 83.876012 
L 581.644628 81.996455 
L 586.768595 80.116899 
L 591.892562 78.237342 
L 597.016529 76.357785 
L 602.140496 74.478228 
L 607.264463 72.598671 
L 612.38843 70.719114 
L 617.512397 68.839557 
L 622.636364 66.96 
" clip-path="url(#p202c615d50)" style="fill: none; stroke: #ff7f0e; stroke-width: 2.25; stroke-linecap: square"/>
   </g>
   <g id="line2d_14">
    <path d="M 115.363636 263.523873 
L 120.487603 262.165647 
L 125.61157 260.807421 
L 130.735537 259.449195 
L 135.859504 258.09097 
L 140.983471 256.732744 
L 146.107438 255.374518 
L 151.231405 254.016292 
L 156.355372 252.658066 
L 161.479339 251.299841 
L 166.603306 249.941615 
L 171.727273 248.583389 
L 176.85124 247.225163 
L 181.975207 245.866938 
L 187.099174 244.508712 
L 192.22314 243.150486 
L 197.347107 241.79226 
L 202.471074 240.434034 
L 207.595041 239.075809 
L 212.719008 237.717583 
L 217.842975 236.359357 
L 222.966942 235.001131 
L 228.090909 233.642905 
L 233.214876 232.28468 
L 238.338843 230.926454 
L 243.46281 229.568228 
L 248.586777 228.210002 
L 253.710744 226.851777 
L 258.834711 225.493551 
L 263.958678 224.135325 
L 269.082645 222.777099 
L 274.206612 221.418873 
L 279.330579 220.060648 
L 284.454545 218.702422 
L 289.578512 217.344196 
L 294.702479 215.98597 
L 299.826446 214.627745 
L 304.950413 213.269519 
L 310.07438 211.911293 
L 315.198347 210.553067 
L 320.322314 209.194841 
L 325.446281 207.836616 
L 330.570248 206.47839 
L 335.694215 205.120164 
L 340.818182 203.761938 
L 345.942149 202.403712 
L 351.066116 201.045487 
L 356.190083 199.687261 
L 361.31405 198.329035 
L 366.438017 196.970809 
L 371.561983 195.612584 
L 376.68595 194.254358 
L 381.809917 192.896132 
L 386.933884 191.537906 
L 392.057851 190.17968 
L 397.181818 188.821455 
L 402.305785 187.463229 
L 407.429752 186.105003 
L 412.553719 184.746777 
L 417.677686 183.388552 
L 422.801653 182.030326 
L 427.92562 180.6721 
L 433.049587 179.313874 
L 438.173554 177.955648 
L 443.297521 176.597423 
L 448.421488 175.239197 
L 453.545455 173.880971 
L 458.669421 172.522745 
L 463.793388 171.164519 
L 468.917355 169.806294 
L 474.041322 168.448068 
L 479.165289 167.089842 
L 484.289256 165.731616 
L 489.413223 164.373391 
L 494.53719 163.015165 
L 499.661157 161.656939 
L 504.785124 160.298713 
L 509.909091 158.940487 
L 515.033058 157.582262 
L 520.157025 156.224036 
L 525.280992 154.86581 
L 530.404959 153.507584 
L 535.528926 152.149359 
L 540.652893 150.791133 
L 545.77686 149.432907 
L 550.900826 148.074681 
L 556.024793 146.716455 
L 561.14876 145.35823 
L 566.272727 144.000004 
L 571.396694 142.641778 
L 576.520661 141.283552 
L 581.644628 139.925326 
L 586.768595 138.567101 
L 591.892562 137.208875 
L 597.016529 135.850649 
L 602.140496 134.492423 
L 607.264463 133.134198 
L 612.38843 131.775972 
L 617.512397 130.417746 
L 622.636364 129.05952 
" clip-path="url(#p202c615d50)" style="fill: none; stroke: #2ca02c; stroke-width: 2.25; stroke-linecap: square"/>
   </g>
   <g id="line2d_15">
    <path d="M 115.363636 253.259045 
L 120.487603 251.556084 
L 125.61157 249.853123 
L 130.735537 248.150162 
L 135.859504 246.447201 
L 140.983471 244.744241 
L 146.107438 243.04128 
L 151.231405 241.338319 
L 156.355372 239.635358 
L 161.479339 237.932397 
L 166.603306 236.229436 
L 171.727273 234.526475 
L 176.85124 232.823514 
L 181.975207 231.120553 
L 187.099174 229.417592 
L 192.22314 227.714631 
L 197.347107 226.01167 
L 202.471074 224.308709 
L 207.595041 222.605748 
L 212.719008 220.902787 
L 217.842975 219.199826 
L 222.966942 217.496865 
L 228.090909 215.793904 
L 233.214876 214.090943 
L 238.338843 212.387982 
L 243.46281 210.685022 
L 248.586777 208.982061 
L 253.710744 207.2791 
L 258.834711 205.576139 
L 263.958678 203.873178 
L 269.082645 202.170217 
L 274.206612 200.467256 
L 279.330579 198.764295 
L 284.454545 197.061334 
L 289.578512 195.358373 
L 294.702479 193.655412 
L 299.826446 191.952451 
L 304.950413 190.24949 
L 310.07438 188.546529 
L 315.198347 186.843568 
L 320.322314 185.140607 
L 325.446281 183.437646 
L 330.570248 181.734685 
L 335.694215 180.031724 
L 340.818182 178.328763 
L 345.942149 176.625803 
L 351.066116 174.922842 
L 356.190083 173.219881 
L 361.31405 171.51692 
L 366.438017 169.813959 
L 371.561983 168.110998 
L 376.68595 166.408037 
L 381.809917 164.705076 
L 386.933884 163.002115 
L 392.057851 161.299154 
L 397.181818 159.596193 
L 402.305785 157.893232 
L 407.429752 156.190271 
L 412.553719 154.48731 
L 417.677686 152.784349 
L 422.801653 151.081388 
L 427.92562 149.378427 
L 433.049587 147.675466 
L 438.173554 145.972505 
L 443.297521 144.269545 
L 448.421488 142.566584 
L 453.545455 140.863623 
L 458.669421 139.160662 
L 463.793388 137.457701 
L 468.917355 135.75474 
L 474.041322 134.051779 
L 479.165289 132.348818 
L 484.289256 130.645857 
L 489.413223 128.942896 
L 494.53719 127.239935 
L 499.661157 125.536974 
L 504.785124 123.834013 
L 509.909091 122.131052 
L 515.033058 120.428091 
L 520.157025 118.72513 
L 525.280992 117.022169 
L 530.404959 115.319208 
L 535.528926 113.616247 
L 540.652893 111.913286 
L 545.77686 110.210326 
L 550.900826 108.507365 
L 556.024793 106.804404 
L 561.14876 105.101443 
L 566.272727 103.398482 
L 571.396694 101.695521 
L 576.520661 99.99256 
L 581.644628 98.289599 
L 586.768595 96.586638 
L 591.892562 94.883677 
L 597.016529 93.180716 
L 602.140496 91.477755 
L 607.264463 89.774794 
L 612.38843 88.071833 
L 617.512397 86.368872 
L 622.636364 84.665911 
" clip-path="url(#p202c615d50)" style="fill: none; stroke: #d62728; stroke-width: 2.25; stroke-linecap: square"/>
   </g>
   <g id="patch_3">
    <path d="M 90 384.48 
L 90 51.84 
" style="fill: none; stroke: #000000; stroke-width: 0.8; stroke-linejoin: miter; stroke-linecap: square"/>
   </g>
   <g id="patch_4">
    <path d="M 648 384.48 
L 648 51.84 
" style="fill: none; stroke: #000000; stroke-width: 0.8; stroke-linejoin: miter; stroke-linecap: square"/>
   </g>
   <g id="patch_5">
    <path d="M 90 384.48 
L 648 384.48 
" style="fill: none; stroke: #000000; stroke-width: 0.8; stroke-linejoin: miter; stroke-linecap: square"/>
   </g>
   <g id="patch_6">
    <path d="M 90 51.84 
L 648 51.84 
" style="fill: none; stroke: #000000; stroke-width: 0.8; stroke-linejoin: miter; stroke-linecap: square"/>
   </g>
   <g id="text_14">
    <!-- Model Size vs Scores with Regression Lines -->
    <g transform="translate(239.446875 45.84) scale(0.12 -0.12)">
     <defs>
      <path id="DejaVuSans-20" transform="scale(0.015625)"/>
      <path id="DejaVuSans-53" d="M 3425 4513 
L 3425 3897 
Q 3066 4069 2747 4153 
Q 2428 4238 2131 4238 
Q 1616 4238 1336 4038 
Q 1056 3838 1056 3469 
Q 1056 3159 1242 3001 
Q 1428 2844 1947 2747 
L 2328 2669 
Q 3034 2534 3370 2195 
Q 3706 1856 3706 1288 
Q 3706 609 3251 259 
Q 2797 -91 1919 -91 
Q 1588 -91 1214 -16 
Q 841 59 441 206 
L 441 856 
Q 825 641 1194 531 
Q 1563 422 1919 422 
Q 2459 422 2753 634 
Q 3047 847 3047 1241 
Q 3047 1584 2836 1778 
Q 2625 1972 2144 2069 
L 1759 2144 
Q 1053 2284 737 2584 
Q 422 2884 422 3419 
Q 422 4038 858 4394 
Q 1294 4750 2059 4750 
Q 2388 4750 2728 4690 
Q 3069 4631 3425 4513 
z
" transform="scale(0.015625)"/>
      <path id="DejaVuSans-76" d="M 191 3500 
L 800 3500 
L 1894 563 
L 2988 3500 
L 3597 3500 
L 2284 0 
L 1503 0 
L 191 3500 
z
" transform="scale(0.015625)"/>
      <path id="DejaVuSans-72" d="M 2631 2963 
Q 2534 3019 2420 3045 
Q 2306 3072 2169 3072 
Q 1681 3072 1420 2755 
Q 1159 2438 1159 1844 
L 1159 0 
L 581 0 
L 581 3500 
L 1159 3500 
L 1159 2956 
Q 1341 3275 1631 3429 
Q 1922 3584 2338 3584 
Q 2397 3584 2469 3576 
Q 2541 3569 2628 3553 
L 2631 2963 
z
" transform="scale(0.015625)"/>
      <path id="DejaVuSans-77" d="M 269 3500 
L 844 3500 
L 1563 769 
L 2278 3500 
L 2956 3500 
L 3675 769 
L 4391 3500 
L 4966 3500 
L 4050 0 
L 3372 0 
L 2619 2869 
L 1863 0 
L 1184 0 
L 269 3500 
z
" transform="scale(0.015625)"/>
      <path id="DejaVuSans-74" d="M 1172 4494 
L 1172 3500 
L 2356 3500 
L 2356 3053 
L 1172 3053 
L 1172 1153 
Q 1172 725 1289 603 
Q 1406 481 1766 481 
L 2356 481 
L 2356 0 
L 1766 0 
Q 1100 0 847 248 
Q 594 497 594 1153 
L 594 3053 
L 172 3053 
L 172 3500 
L 594 3500 
L 594 4494 
L 1172 4494 
z
" transform="scale(0.015625)"/>
      <path id="DejaVuSans-52" d="M 2841 2188 
Q 3044 2119 3236 1894 
Q 3428 1669 3622 1275 
L 4263 0 
L 3584 0 
L 2988 1197 
Q 2756 1666 2539 1819 
Q 2322 1972 1947 1972 
L 1259 1972 
L 1259 0 
L 628 0 
L 628 4666 
L 2053 4666 
Q 2853 4666 3247 4331 
Q 3641 3997 3641 3322 
Q 3641 2881 3436 2590 
Q 3231 2300 2841 2188 
z
M 1259 4147 
L 1259 2491 
L 2053 2491 
Q 2509 2491 2742 2702 
Q 2975 2913 2975 3322 
Q 2975 3731 2742 3939 
Q 2509 4147 2053 4147 
L 1259 4147 
z
" transform="scale(0.015625)"/>
      <path id="DejaVuSans-67" d="M 2906 1791 
Q 2906 2416 2648 2759 
Q 2391 3103 1925 3103 
Q 1463 3103 1205 2759 
Q 947 2416 947 1791 
Q 947 1169 1205 825 
Q 1463 481 1925 481 
Q 2391 481 2648 825 
Q 2906 1169 2906 1791 
z
M 3481 434 
Q 3481 -459 3084 -895 
Q 2688 -1331 1869 -1331 
Q 1566 -1331 1297 -1286 
Q 1028 -1241 775 -1147 
L 775 -588 
Q 1028 -725 1275 -790 
Q 1522 -856 1778 -856 
Q 2344 -856 2625 -561 
Q 2906 -266 2906 331 
L 2906 616 
Q 2728 306 2450 153 
Q 2172 0 1784 0 
Q 1141 0 747 490 
Q 353 981 353 1791 
Q 353 2603 747 3093 
Q 1141 3584 1784 3584 
Q 2172 3584 2450 3431 
Q 2728 3278 2906 2969 
L 2906 3500 
L 3481 3500 
L 3481 434 
z
" transform="scale(0.015625)"/>
      <path id="DejaVuSans-4c" d="M 628 4666 
L 1259 4666 
L 1259 531 
L 3531 531 
L 3531 0 
L 628 0 
L 628 4666 
z
" transform="scale(0.015625)"/>
     </defs>
     <use xlink:href="#DejaVuSans-4d"/>
     <use xlink:href="#DejaVuSans-6f" transform="translate(86.279297 0)"/>
     <use xlink:href="#DejaVuSans-64" transform="translate(147.460938 0)"/>
     <use xlink:href="#DejaVuSans-65" transform="translate(210.9375 0)"/>
     <use xlink:href="#DejaVuSans-6c" transform="translate(272.460938 0)"/>
     <use xlink:href="#DejaVuSans-20" transform="translate(300.244141 0)"/>
     <use xlink:href="#DejaVuSans-53" transform="translate(332.03125 0)"/>
     <use xlink:href="#DejaVuSans-69" transform="translate(395.507812 0)"/>
     <use xlink:href="#DejaVuSans-7a" transform="translate(423.291016 0)"/>
     <use xlink:href="#DejaVuSans-65" transform="translate(475.78125 0)"/>
     <use xlink:href="#DejaVuSans-20" transform="translate(537.304688 0)"/>
     <use xlink:href="#DejaVuSans-76" transform="translate(569.091797 0)"/>
     <use xlink:href="#DejaVuSans-73" transform="translate(628.271484 0)"/>
     <use xlink:href="#DejaVuSans-20" transform="translate(680.371094 0)"/>
     <use xlink:href="#DejaVuSans-53" transform="translate(712.158203 0)"/>
     <use xlink:href="#DejaVuSans-63" transform="translate(775.634766 0)"/>
     <use xlink:href="#DejaVuSans-6f" transform="translate(830.615234 0)"/>
     <use xlink:href="#DejaVuSans-72" transform="translate(891.796875 0)"/>
     <use xlink:href="#DejaVuSans-65" transform="translate(930.660156 0)"/>
     <use xlink:href="#DejaVuSans-73" transform="translate(992.183594 0)"/>
     <use xlink:href="#DejaVuSans-20" transform="translate(1044.283203 0)"/>
     <use xlink:href="#DejaVuSans-77" transform="translate(1076.070312 0)"/>
     <use xlink:href="#DejaVuSans-69" transform="translate(1157.857422 0)"/>
     <use xlink:href="#DejaVuSans-74" transform="translate(1185.640625 0)"/>
     <use xlink:href="#DejaVuSans-68" transform="translate(1224.849609 0)"/>
     <use xlink:href="#DejaVuSans-20" transform="translate(1288.228516 0)"/>
     <use xlink:href="#DejaVuSans-52" transform="translate(1320.015625 0)"/>
     <use xlink:href="#DejaVuSans-65" transform="translate(1384.998047 0)"/>
     <use xlink:href="#DejaVuSans-67" transform="translate(1446.521484 0)"/>
     <use xlink:href="#DejaVuSans-72" transform="translate(1509.998047 0)"/>
     <use xlink:href="#DejaVuSans-65" transform="translate(1548.861328 0)"/>
     <use xlink:href="#DejaVuSans-73" transform="translate(1610.384766 0)"/>
     <use xlink:href="#DejaVuSans-73" transform="translate(1662.484375 0)"/>
     <use xlink:href="#DejaVuSans-69" transform="translate(1714.583984 0)"/>
     <use xlink:href="#DejaVuSans-6f" transform="translate(1742.367188 0)"/>
     <use xlink:href="#DejaVuSans-6e" transform="translate(1803.548828 0)"/>
     <use xlink:href="#DejaVuSans-20" transform="translate(1866.927734 0)"/>
     <use xlink:href="#DejaVuSans-4c" transform="translate(1898.714844 0)"/>
     <use xlink:href="#DejaVuSans-69" transform="translate(1954.427734 0)"/>
     <use xlink:href="#DejaVuSans-6e" transform="translate(1982.210938 0)"/>
     <use xlink:href="#DejaVuSans-65" transform="translate(2045.589844 0)"/>
     <use xlink:href="#DejaVuSans-73" transform="translate(2107.113281 0)"/>
    </g>
   </g>
   <g id="legend_1">
    <g id="patch_7">
     <path d="M 97 118.5525 
L 211.7 118.5525 
Q 213.7 118.5525 213.7 116.5525 
L 213.7 58.84 
Q 213.7 56.84 211.7 56.84 
L 97 56.84 
Q 95 56.84 95 58.84 
L 95 116.5525 
Q 95 118.5525 97 118.5525 
z
" style="fill: #ffffff; opacity: 0.8; stroke: #cccccc; stroke-linejoin: miter"/>
    </g>
    <g id="PathCollection_5">
     <g>
      <use xlink:href="#ma4f7bee3c6" x="109" y="65.813438" style="fill: #1f77b4; fill-opacity: 0.8; stroke: #1f77b4; stroke-opacity: 0.8"/>
     </g>
    </g>
    <g id="text_15">
     <!-- ELYZA-tasks-100 -->
     <g transform="translate(127 68.438438) scale(0.1 -0.1)">
      <defs>
       <path id="DejaVuSans-45" d="M 628 4666 
L 3578 4666 
L 3578 4134 
L 1259 4134 
L 1259 2753 
L 3481 2753 
L 3481 2222 
L 1259 2222 
L 1259 531 
L 3634 531 
L 3634 0 
L 628 0 
L 628 4666 
z
" transform="scale(0.015625)"/>
       <path id="DejaVuSans-59" d="M -13 4666 
L 666 4666 
L 1959 2747 
L 3244 4666 
L 3922 4666 
L 2272 2222 
L 2272 0 
L 1638 0 
L 1638 2222 
L -13 4666 
z
" transform="scale(0.015625)"/>
       <path id="DejaVuSans-5a" d="M 359 4666 
L 4025 4666 
L 4025 4184 
L 1075 531 
L 4097 531 
L 4097 0 
L 288 0 
L 288 481 
L 3238 4134 
L 359 4134 
L 359 4666 
z
" transform="scale(0.015625)"/>
       <path id="DejaVuSans-41" d="M 2188 4044 
L 1331 1722 
L 3047 1722 
L 2188 4044 
z
M 1831 4666 
L 2547 4666 
L 4325 0 
L 3669 0 
L 3244 1197 
L 1141 1197 
L 716 0 
L 50 0 
L 1831 4666 
z
" transform="scale(0.015625)"/>
       <path id="DejaVuSans-61" d="M 2194 1759 
Q 1497 1759 1228 1600 
Q 959 1441 959 1056 
Q 959 750 1161 570 
Q 1363 391 1709 391 
Q 2188 391 2477 730 
Q 2766 1069 2766 1631 
L 2766 1759 
L 2194 1759 
z
M 3341 1997 
L 3341 0 
L 2766 0 
L 2766 531 
Q 2569 213 2275 61 
Q 1981 -91 1556 -91 
Q 1019 -91 701 211 
Q 384 513 384 1019 
Q 384 1609 779 1909 
Q 1175 2209 1959 2209 
L 2766 2209 
L 2766 2266 
Q 2766 2663 2505 2880 
Q 2244 3097 1772 3097 
Q 1472 3097 1187 3025 
Q 903 2953 641 2809 
L 641 3341 
Q 956 3463 1253 3523 
Q 1550 3584 1831 3584 
Q 2591 3584 2966 3190 
Q 3341 2797 3341 1997 
z
" transform="scale(0.015625)"/>
       <path id="DejaVuSans-6b" d="M 581 4863 
L 1159 4863 
L 1159 1991 
L 2875 3500 
L 3609 3500 
L 1753 1863 
L 3688 0 
L 2938 0 
L 1159 1709 
L 1159 0 
L 581 0 
L 581 4863 
z
" transform="scale(0.015625)"/>
      </defs>
      <use xlink:href="#DejaVuSans-45"/>
      <use xlink:href="#DejaVuSans-4c" transform="translate(63.183594 0)"/>
      <use xlink:href="#DejaVuSans-59" transform="translate(105.646484 0)"/>
      <use xlink:href="#DejaVuSans-5a" transform="translate(166.730469 0)"/>
      <use xlink:href="#DejaVuSans-41" transform="translate(235.236328 0)"/>
      <use xlink:href="#DejaVuSans-2d" transform="translate(301.394531 0)"/>
      <use xlink:href="#DejaVuSans-74" transform="translate(337.478516 0)"/>
      <use xlink:href="#DejaVuSans-61" transform="translate(376.6875 0)"/>
      <use xlink:href="#DejaVuSans-73" transform="translate(437.966797 0)"/>
      <use xlink:href="#DejaVuSans-6b" transform="translate(490.066406 0)"/>
      <use xlink:href="#DejaVuSans-73" transform="translate(547.976562 0)"/>
      <use xlink:href="#DejaVuSans-2d" transform="translate(600.076172 0)"/>
      <use xlink:href="#DejaVuSans-31" transform="translate(636.160156 0)"/>
      <use xlink:href="#DejaVuSans-30" transform="translate(699.783203 0)"/>
      <use xlink:href="#DejaVuSans-30" transform="translate(763.40625 0)"/>
     </g>
    </g>
    <g id="PathCollection_6">
     <g>
      <use xlink:href="#m293ec8717c" x="109" y="80.491563" style="fill: #ff7f0e; fill-opacity: 0.8; stroke: #ff7f0e; stroke-opacity: 0.8"/>
     </g>
    </g>
    <g id="text_16">
     <!-- Rakuda -->
     <g transform="translate(127 83.116563) scale(0.1 -0.1)">
      <defs>
       <path id="DejaVuSans-75" d="M 544 1381 
L 544 3500 
L 1119 3500 
L 1119 1403 
Q 1119 906 1312 657 
Q 1506 409 1894 409 
Q 2359 409 2629 706 
Q 2900 1003 2900 1516 
L 2900 3500 
L 3475 3500 
L 3475 0 
L 2900 0 
L 2900 538 
Q 2691 219 2414 64 
Q 2138 -91 1772 -91 
Q 1169 -91 856 284 
Q 544 659 544 1381 
z
M 1991 3584 
L 1991 3584 
z
" transform="scale(0.015625)"/>
      </defs>
      <use xlink:href="#DejaVuSans-52"/>
      <use xlink:href="#DejaVuSans-61" transform="translate(67.232422 0)"/>
      <use xlink:href="#DejaVuSans-6b" transform="translate(128.511719 0)"/>
      <use xlink:href="#DejaVuSans-75" transform="translate(183.296875 0)"/>
      <use xlink:href="#DejaVuSans-64" transform="translate(246.675781 0)"/>
      <use xlink:href="#DejaVuSans-61" transform="translate(310.152344 0)"/>
     </g>
    </g>
    <g id="PathCollection_7">
     <g>
      <use xlink:href="#m7c2c2bbff5" x="109" y="95.169688" style="fill: #2ca02c; fill-opacity: 0.8; stroke: #2ca02c; stroke-opacity: 0.8"/>
     </g>
    </g>
    <g id="text_17">
     <!-- Tengu-Bench -->
     <g transform="translate(127 97.794688) scale(0.1 -0.1)">
      <use xlink:href="#DejaVuSans-54"/>
      <use xlink:href="#DejaVuSans-65" transform="translate(44.083984 0)"/>
      <use xlink:href="#DejaVuSans-6e" transform="translate(105.607422 0)"/>
      <use xlink:href="#DejaVuSans-67" transform="translate(168.986328 0)"/>
      <use xlink:href="#DejaVuSans-75" transform="translate(232.462891 0)"/>
      <use xlink:href="#DejaVuSans-2d" transform="translate(295.841797 0)"/>
      <use xlink:href="#DejaVuSans-42" transform="translate(328.300781 0)"/>
      <use xlink:href="#DejaVuSans-65" transform="translate(396.904297 0)"/>
      <use xlink:href="#DejaVuSans-6e" transform="translate(458.427734 0)"/>
      <use xlink:href="#DejaVuSans-63" transform="translate(521.806641 0)"/>
      <use xlink:href="#DejaVuSans-68" transform="translate(576.787109 0)"/>
     </g>
    </g>
    <g id="PathCollection_8">
     <g>
      <use xlink:href="#ma696cf4be9" x="109" y="109.847813" style="fill: #d62728; fill-opacity: 0.8; stroke: #d62728; stroke-opacity: 0.8"/>
     </g>
    </g>
    <g id="text_18">
     <!-- MT-Bench -->
     <g transform="translate(127 112.472813) scale(0.1 -0.1)">
      <use xlink:href="#DejaVuSans-4d"/>
      <use xlink:href="#DejaVuSans-54" transform="translate(86.279297 0)"/>
      <use xlink:href="#DejaVuSans-2d" transform="translate(138.238281 0)"/>
      <use xlink:href="#DejaVuSans-42" transform="translate(170.697266 0)"/>
      <use xlink:href="#DejaVuSans-65" transform="translate(239.300781 0)"/>
      <use xlink:href="#DejaVuSans-6e" transform="translate(300.824219 0)"/>
      <use xlink:href="#DejaVuSans-63" transform="translate(364.203125 0)"/>
      <use xlink:href="#DejaVuSans-68" transform="translate(419.183594 0)"/>
     </g>
    </g>
   </g>
  </g>
 </g>
 <defs>
  <clipPath id="p202c615d50">
   <rect x="90" y="51.84" width="558" height="332.64"/>
  </clipPath>
 </defs>
</svg>
