<?xml version="1.0" encoding="utf-8" standalone="no"?>
<!DOCTYPE svg PUBLIC "-//W3C//DTD SVG 1.1//EN"
  "http://www.w3.org/Graphics/SVG/1.1/DTD/svg11.dtd">
<svg xmlns:xlink="http://www.w3.org/1999/xlink" width="720pt" height="432pt" viewBox="0 0 720 432" xmlns="http://www.w3.org/2000/svg" version="1.1">
 <metadata>
  <rdf:RDF xmlns:dc="http://purl.org/dc/elements/1.1/" xmlns:cc="http://creativecommons.org/ns#" xmlns:rdf="http://www.w3.org/1999/02/22-rdf-syntax-ns#">
   <cc:Work>
    <dc:type rdf:resource="http://purl.org/dc/dcmitype/StillImage"/>
    <dc:date>2024-05-26T03:30:19.168375</dc:date>
    <dc:format>image/svg+xml</dc:format>
    <dc:creator>
     <cc:Agent>
      <dc:title>Matplotlib v3.9.0, https://matplotlib.org/</dc:title>
     </cc:Agent>
    </dc:creator>
   </cc:Work>
  </rdf:RDF>
 </metadata>
 <defs>
  <style type="text/css">*{stroke-linejoin: round; stroke-linecap: butt}</style>
 </defs>
 <g id="figure_1">
  <g id="patch_1">
   <path d="M 0 432 
L 720 432 
L 720 0 
L 0 0 
z
" style="fill: #ffffff"/>
  </g>
  <g id="axes_1">
   <g id="patch_2">
    <path d="M 90 384.48 
L 648 384.48 
L 648 51.84 
L 90 51.84 
z
" style="fill: #ffffff"/>
   </g>
   <g id="PathCollection_1">
    <defs>
     <path id="mc97ce0390f" d="M 0 3 
C 0.795609 3 1.55874 2.683901 2.12132 2.12132 
C 2.683901 1.55874 3 0.795609 3 0 
C 3 -0.795609 2.683901 -1.55874 2.12132 -2.12132 
C 1.55874 -2.683901 0.795609 -3 0 -3 
C -0.795609 -3 -1.55874 -2.683901 -2.12132 -2.12132 
C -2.683901 -1.55874 -3 -0.795609 -3 0 
C -3 0.795609 -2.683901 1.55874 -2.12132 2.12132 
C -1.55874 2.683901 -0.795609 3 0 3 
z
" style="stroke: #1f77b4; stroke-opacity: 0.8"/>
    </defs>
    <g clip-path="url(#p9cae2bfbe6)">
     <use xlink:href="#mc97ce0390f" x="115.363636" y="223.485413" style="fill: #1f77b4; fill-opacity: 0.8; stroke: #1f77b4; stroke-opacity: 0.8"/>
     <use xlink:href="#mc97ce0390f" x="144.42581" y="196.346442" style="fill: #1f77b4; fill-opacity: 0.8; stroke: #1f77b4; stroke-opacity: 0.8"/>
     <use xlink:href="#mc97ce0390f" x="170.060463" y="215.946613" style="fill: #1f77b4; fill-opacity: 0.8; stroke: #1f77b4; stroke-opacity: 0.8"/>
     <use xlink:href="#mc97ce0390f" x="250.093188" y="222.70593" style="fill: #1f77b4; fill-opacity: 0.8; stroke: #1f77b4; stroke-opacity: 0.8"/>
     <use xlink:href="#mc97ce0390f" x="266.22227" y="204.385222" style="fill: #1f77b4; fill-opacity: 0.8; stroke: #1f77b4; stroke-opacity: 0.8"/>
     <use xlink:href="#mc97ce0390f" x="446.143077" y="153.371723" style="fill: #1f77b4; fill-opacity: 0.8; stroke: #1f77b4; stroke-opacity: 0.8"/>
     <use xlink:href="#mc97ce0390f" x="465.646536" y="210.313848" style="fill: #1f77b4; fill-opacity: 0.8; stroke: #1f77b4; stroke-opacity: 0.8"/>
     <use xlink:href="#mc97ce0390f" x="529.807593" y="187.782792" style="fill: #1f77b4; fill-opacity: 0.8; stroke: #1f77b4; stroke-opacity: 0.8"/>
     <use xlink:href="#mc97ce0390f" x="616.505169" y="139.984764" style="fill: #1f77b4; fill-opacity: 0.8; stroke: #1f77b4; stroke-opacity: 0.8"/>
     <use xlink:href="#mc97ce0390f" x="622.636364" y="136.077408" style="fill: #1f77b4; fill-opacity: 0.8; stroke: #1f77b4; stroke-opacity: 0.8"/>
    </g>
   </g>
   <g id="PathCollection_2">
    <defs>
     <path id="m60c4bd3ee7" d="M 0 3 
C 0.795609 3 1.55874 2.683901 2.12132 2.12132 
C 2.683901 1.55874 3 0.795609 3 0 
C 3 -0.795609 2.683901 -1.55874 2.12132 -2.12132 
C 1.55874 -2.683901 0.795609 -3 0 -3 
C -0.795609 -3 -1.55874 -2.683901 -2.12132 -2.12132 
C -2.683901 -1.55874 -3 -0.795609 -3 0 
C -3 0.795609 -2.683901 1.55874 -2.12132 2.12132 
C -1.55874 2.683901 -0.795609 3 0 3 
z
" style="stroke: #ff7f0e; stroke-opacity: 0.8"/>
    </defs>
    <g clip-path="url(#p9cae2bfbe6)">
     <use xlink:href="#m60c4bd3ee7" x="115.363636" y="243.604495" style="fill: #ff7f0e; fill-opacity: 0.8; stroke: #ff7f0e; stroke-opacity: 0.8"/>
     <use xlink:href="#m60c4bd3ee7" x="144.42581" y="210.220315" style="fill: #ff7f0e; fill-opacity: 0.8; stroke: #ff7f0e; stroke-opacity: 0.8"/>
     <use xlink:href="#m60c4bd3ee7" x="170.060463" y="369.36" style="fill: #ff7f0e; fill-opacity: 0.8; stroke: #ff7f0e; stroke-opacity: 0.8"/>
     <use xlink:href="#m60c4bd3ee7" x="250.093188" y="279.596848" style="fill: #ff7f0e; fill-opacity: 0.8; stroke: #ff7f0e; stroke-opacity: 0.8"/>
     <use xlink:href="#m60c4bd3ee7" x="266.22227" y="204.37056" style="fill: #ff7f0e; fill-opacity: 0.8; stroke: #ff7f0e; stroke-opacity: 0.8"/>
     <use xlink:href="#m60c4bd3ee7" x="446.143077" y="129.606448" style="fill: #ff7f0e; fill-opacity: 0.8; stroke: #ff7f0e; stroke-opacity: 0.8"/>
     <use xlink:href="#m60c4bd3ee7" x="465.646536" y="66.96" style="fill: #ff7f0e; fill-opacity: 0.8; stroke: #ff7f0e; stroke-opacity: 0.8"/>
     <use xlink:href="#m60c4bd3ee7" x="529.807593" y="152.563192" style="fill: #ff7f0e; fill-opacity: 0.8; stroke: #ff7f0e; stroke-opacity: 0.8"/>
     <use xlink:href="#m60c4bd3ee7" x="616.505169" y="151.420513" style="fill: #ff7f0e; fill-opacity: 0.8; stroke: #ff7f0e; stroke-opacity: 0.8"/>
     <use xlink:href="#m60c4bd3ee7" x="622.636364" y="127.512215" style="fill: #ff7f0e; fill-opacity: 0.8; stroke: #ff7f0e; stroke-opacity: 0.8"/>
    </g>
   </g>
   <g id="PathCollection_3">
    <defs>
     <path id="m0815d12b5a" d="M 0 3 
C 0.795609 3 1.55874 2.683901 2.12132 2.12132 
C 2.683901 1.55874 3 0.795609 3 0 
C 3 -0.795609 2.683901 -1.55874 2.12132 -2.12132 
C 1.55874 -2.683901 0.795609 -3 0 -3 
C -0.795609 -3 -1.55874 -2.683901 -2.12132 -2.12132 
C -2.683901 -1.55874 -3 -0.795609 -3 0 
C -3 0.795609 -2.683901 1.55874 -2.12132 2.12132 
C -1.55874 2.683901 -0.795609 3 0 3 
z
" style="stroke: #2ca02c; stroke-opacity: 0.8"/>
    </defs>
    <g clip-path="url(#p9cae2bfbe6)">
     <use xlink:href="#m0815d12b5a" x="115.363636" y="256.122771" style="fill: #2ca02c; fill-opacity: 0.8; stroke: #2ca02c; stroke-opacity: 0.8"/>
     <use xlink:href="#m0815d12b5a" x="144.42581" y="252.593946" style="fill: #2ca02c; fill-opacity: 0.8; stroke: #2ca02c; stroke-opacity: 0.8"/>
     <use xlink:href="#m0815d12b5a" x="170.060463" y="271.147701" style="fill: #2ca02c; fill-opacity: 0.8; stroke: #2ca02c; stroke-opacity: 0.8"/>
     <use xlink:href="#m0815d12b5a" x="250.093188" y="269.73951" style="fill: #2ca02c; fill-opacity: 0.8; stroke: #2ca02c; stroke-opacity: 0.8"/>
     <use xlink:href="#m0815d12b5a" x="266.22227" y="248.301061" style="fill: #2ca02c; fill-opacity: 0.8; stroke: #2ca02c; stroke-opacity: 0.8"/>
     <use xlink:href="#m0815d12b5a" x="446.143077" y="194.466374" style="fill: #2ca02c; fill-opacity: 0.8; stroke: #2ca02c; stroke-opacity: 0.8"/>
     <use xlink:href="#m0815d12b5a" x="465.646536" y="176.798901" style="fill: #2ca02c; fill-opacity: 0.8; stroke: #2ca02c; stroke-opacity: 0.8"/>
     <use xlink:href="#m0815d12b5a" x="529.807593" y="269.270113" style="fill: #2ca02c; fill-opacity: 0.8; stroke: #2ca02c; stroke-opacity: 0.8"/>
     <use xlink:href="#m0815d12b5a" x="616.505169" y="207.577476" style="fill: #2ca02c; fill-opacity: 0.8; stroke: #2ca02c; stroke-opacity: 0.8"/>
     <use xlink:href="#m0815d12b5a" x="622.636364" y="184.543952" style="fill: #2ca02c; fill-opacity: 0.8; stroke: #2ca02c; stroke-opacity: 0.8"/>
    </g>
   </g>
   <g id="PathCollection_4">
    <defs>
     <path id="m30eb0501de" d="M 0 3 
C 0.795609 3 1.55874 2.683901 2.12132 2.12132 
C 2.683901 1.55874 3 0.795609 3 0 
C 3 -0.795609 2.683901 -1.55874 2.12132 -2.12132 
C 1.55874 -2.683901 0.795609 -3 0 -3 
C -0.795609 -3 -1.55874 -2.683901 -2.12132 -2.12132 
C -2.683901 -1.55874 -3 -0.795609 -3 0 
C -3 0.795609 -2.683901 1.55874 -2.12132 2.12132 
C -1.55874 2.683901 -0.795609 3 0 3 
z
" style="stroke: #d62728; stroke-opacity: 0.8"/>
    </defs>
    <g clip-path="url(#p9cae2bfbe6)">
     <use xlink:href="#m30eb0501de" x="115.363636" y="256.37852" style="fill: #d62728; fill-opacity: 0.8; stroke: #d62728; stroke-opacity: 0.8"/>
     <use xlink:href="#m30eb0501de" x="144.42581" y="191.306372" style="fill: #d62728; fill-opacity: 0.8; stroke: #d62728; stroke-opacity: 0.8"/>
     <use xlink:href="#m30eb0501de" x="170.060463" y="311.515845" style="fill: #d62728; fill-opacity: 0.8; stroke: #d62728; stroke-opacity: 0.8"/>
     <use xlink:href="#m30eb0501de" x="250.093188" y="264.341445" style="fill: #d62728; fill-opacity: 0.8; stroke: #d62728; stroke-opacity: 0.8"/>
     <use xlink:href="#m30eb0501de" x="266.22227" y="242.352623" style="fill: #d62728; fill-opacity: 0.8; stroke: #d62728; stroke-opacity: 0.8"/>
     <use xlink:href="#m30eb0501de" x="446.143077" y="164.125182" style="fill: #d62728; fill-opacity: 0.8; stroke: #d62728; stroke-opacity: 0.8"/>
     <use xlink:href="#m30eb0501de" x="465.646536" y="162.057459" style="fill: #d62728; fill-opacity: 0.8; stroke: #d62728; stroke-opacity: 0.8"/>
     <use xlink:href="#m30eb0501de" x="529.807593" y="211.064884" style="fill: #d62728; fill-opacity: 0.8; stroke: #d62728; stroke-opacity: 0.8"/>
     <use xlink:href="#m30eb0501de" x="616.505169" y="139.631236" style="fill: #d62728; fill-opacity: 0.8; stroke: #d62728; stroke-opacity: 0.8"/>
     <use xlink:href="#m30eb0501de" x="622.636364" y="166.749943" style="fill: #d62728; fill-opacity: 0.8; stroke: #d62728; stroke-opacity: 0.8"/>
    </g>
   </g>
   <g id="matplotlib.axis_1">
    <g id="xtick_1">
     <g id="line2d_1">
      <defs>
       <path id="m8a0351ca2c" d="M 0 0 
L 0 3.5 
" style="stroke: #000000; stroke-width: 0.8"/>
      </defs>
      <g>
       <use xlink:href="#m8a0351ca2c" x="115.363636" y="384.48" style="stroke: #000000; stroke-width: 0.8"/>
      </g>
     </g>
     <g id="text_1">
      <!-- 7B -->
      <g transform="translate(108.751918 399.078438) scale(0.1 -0.1)">
       <defs>
        <path id="DejaVuSans-37" d="M 525 4666 
L 3525 4666 
L 3525 4397 
L 1831 0 
L 1172 0 
L 2766 4134 
L 525 4134 
L 525 4666 
z
" transform="scale(0.015625)"/>
        <path id="DejaVuSans-42" d="M 1259 2228 
L 1259 519 
L 2272 519 
Q 2781 519 3026 730 
Q 3272 941 3272 1375 
Q 3272 1813 3026 2020 
Q 2781 2228 2272 2228 
L 1259 2228 
z
M 1259 4147 
L 1259 2741 
L 2194 2741 
Q 2656 2741 2882 2914 
Q 3109 3088 3109 3444 
Q 3109 3797 2882 3972 
Q 2656 4147 2194 4147 
L 1259 4147 
z
M 628 4666 
L 2241 4666 
Q 2963 4666 3353 4366 
Q 3744 4066 3744 3513 
Q 3744 3084 3544 2831 
Q 3344 2578 2956 2516 
Q 3422 2416 3680 2098 
Q 3938 1781 3938 1306 
Q 3938 681 3513 340 
Q 3088 0 2303 0 
L 628 0 
L 628 4666 
z
" transform="scale(0.015625)"/>
       </defs>
       <use xlink:href="#DejaVuSans-37"/>
       <use xlink:href="#DejaVuSans-42" x="63.623047"/>
      </g>
     </g>
    </g>
    <g id="xtick_2">
     <g id="line2d_2">
      <g>
       <use xlink:href="#m8a0351ca2c" x="250.093188" y="384.48" style="stroke: #000000; stroke-width: 0.8"/>
      </g>
     </g>
     <g id="text_2">
      <!-- 13B -->
      <g transform="translate(240.30022 399.078438) scale(0.1 -0.1)">
       <defs>
        <path id="DejaVuSans-31" d="M 794 531 
L 1825 531 
L 1825 4091 
L 703 3866 
L 703 4441 
L 1819 4666 
L 2450 4666 
L 2450 531 
L 3481 531 
L 3481 0 
L 794 0 
L 794 531 
z
" transform="scale(0.015625)"/>
        <path id="DejaVuSans-33" d="M 2597 2516 
Q 3050 2419 3304 2112 
Q 3559 1806 3559 1356 
Q 3559 666 3084 287 
Q 2609 -91 1734 -91 
Q 1441 -91 1130 -33 
Q 819 25 488 141 
L 488 750 
Q 750 597 1062 519 
Q 1375 441 1716 441 
Q 2309 441 2620 675 
Q 2931 909 2931 1356 
Q 2931 1769 2642 2001 
Q 2353 2234 1838 2234 
L 1294 2234 
L 1294 2753 
L 1863 2753 
Q 2328 2753 2575 2939 
Q 2822 3125 2822 3475 
Q 2822 3834 2567 4026 
Q 2313 4219 1838 4219 
Q 1578 4219 1281 4162 
Q 984 4106 628 3988 
L 628 4550 
Q 988 4650 1302 4700 
Q 1616 4750 1894 4750 
Q 2613 4750 3031 4423 
Q 3450 4097 3450 3541 
Q 3450 3153 3228 2886 
Q 3006 2619 2597 2516 
z
" transform="scale(0.015625)"/>
       </defs>
       <use xlink:href="#DejaVuSans-31"/>
       <use xlink:href="#DejaVuSans-33" x="63.623047"/>
       <use xlink:href="#DejaVuSans-42" x="127.246094"/>
      </g>
     </g>
    </g>
    <g id="xtick_3">
     <g id="line2d_3">
      <g>
       <use xlink:href="#m8a0351ca2c" x="446.143077" y="384.48" style="stroke: #000000; stroke-width: 0.8"/>
      </g>
     </g>
     <g id="text_3">
      <!-- 32B -->
      <g transform="translate(436.350108 399.078438) scale(0.1 -0.1)">
       <defs>
        <path id="DejaVuSans-32" d="M 1228 531 
L 3431 531 
L 3431 0 
L 469 0 
L 469 531 
Q 828 903 1448 1529 
Q 2069 2156 2228 2338 
Q 2531 2678 2651 2914 
Q 2772 3150 2772 3378 
Q 2772 3750 2511 3984 
Q 2250 4219 1831 4219 
Q 1534 4219 1204 4116 
Q 875 4013 500 3803 
L 500 4441 
Q 881 4594 1212 4672 
Q 1544 4750 1819 4750 
Q 2544 4750 2975 4387 
Q 3406 4025 3406 3419 
Q 3406 3131 3298 2873 
Q 3191 2616 2906 2266 
Q 2828 2175 2409 1742 
Q 1991 1309 1228 531 
z
" transform="scale(0.015625)"/>
       </defs>
       <use xlink:href="#DejaVuSans-33"/>
       <use xlink:href="#DejaVuSans-32" x="63.623047"/>
       <use xlink:href="#DejaVuSans-42" x="127.246094"/>
      </g>
     </g>
    </g>
    <g id="xtick_4">
     <g id="line2d_4">
      <g>
       <use xlink:href="#m8a0351ca2c" x="616.505169" y="384.48" style="stroke: #000000; stroke-width: 0.8"/>
      </g>
     </g>
     <g id="text_4">
      <!-- 70B -->
      <g transform="translate(606.712201 399.078438) scale(0.1 -0.1)">
       <defs>
        <path id="DejaVuSans-30" d="M 2034 4250 
Q 1547 4250 1301 3770 
Q 1056 3291 1056 2328 
Q 1056 1369 1301 889 
Q 1547 409 2034 409 
Q 2525 409 2770 889 
Q 3016 1369 3016 2328 
Q 3016 3291 2770 3770 
Q 2525 4250 2034 4250 
z
M 2034 4750 
Q 2819 4750 3233 4129 
Q 3647 3509 3647 2328 
Q 3647 1150 3233 529 
Q 2819 -91 2034 -91 
Q 1250 -91 836 529 
Q 422 1150 422 2328 
Q 422 3509 836 4129 
Q 1250 4750 2034 4750 
z
" transform="scale(0.015625)"/>
       </defs>
       <use xlink:href="#DejaVuSans-37"/>
       <use xlink:href="#DejaVuSans-30" x="63.623047"/>
       <use xlink:href="#DejaVuSans-42" x="127.246094"/>
      </g>
     </g>
    </g>
    <g id="text_5">
     <!-- model_size -->
     <g transform="translate(341.235937 412.756563) scale(0.1 -0.1)">
      <defs>
       <path id="DejaVuSans-6d" d="M 3328 2828 
Q 3544 3216 3844 3400 
Q 4144 3584 4550 3584 
Q 5097 3584 5394 3201 
Q 5691 2819 5691 2113 
L 5691 0 
L 5113 0 
L 5113 2094 
Q 5113 2597 4934 2840 
Q 4756 3084 4391 3084 
Q 3944 3084 3684 2787 
Q 3425 2491 3425 1978 
L 3425 0 
L 2847 0 
L 2847 2094 
Q 2847 2600 2669 2842 
Q 2491 3084 2119 3084 
Q 1678 3084 1418 2786 
Q 1159 2488 1159 1978 
L 1159 0 
L 581 0 
L 581 3500 
L 1159 3500 
L 1159 2956 
Q 1356 3278 1631 3431 
Q 1906 3584 2284 3584 
Q 2666 3584 2933 3390 
Q 3200 3197 3328 2828 
z
" transform="scale(0.015625)"/>
       <path id="DejaVuSans-6f" d="M 1959 3097 
Q 1497 3097 1228 2736 
Q 959 2375 959 1747 
Q 959 1119 1226 758 
Q 1494 397 1959 397 
Q 2419 397 2687 759 
Q 2956 1122 2956 1747 
Q 2956 2369 2687 2733 
Q 2419 3097 1959 3097 
z
M 1959 3584 
Q 2709 3584 3137 3096 
Q 3566 2609 3566 1747 
Q 3566 888 3137 398 
Q 2709 -91 1959 -91 
Q 1206 -91 779 398 
Q 353 888 353 1747 
Q 353 2609 779 3096 
Q 1206 3584 1959 3584 
z
" transform="scale(0.015625)"/>
       <path id="DejaVuSans-64" d="M 2906 2969 
L 2906 4863 
L 3481 4863 
L 3481 0 
L 2906 0 
L 2906 525 
Q 2725 213 2448 61 
Q 2172 -91 1784 -91 
Q 1150 -91 751 415 
Q 353 922 353 1747 
Q 353 2572 751 3078 
Q 1150 3584 1784 3584 
Q 2172 3584 2448 3432 
Q 2725 3281 2906 2969 
z
M 947 1747 
Q 947 1113 1208 752 
Q 1469 391 1925 391 
Q 2381 391 2643 752 
Q 2906 1113 2906 1747 
Q 2906 2381 2643 2742 
Q 2381 3103 1925 3103 
Q 1469 3103 1208 2742 
Q 947 2381 947 1747 
z
" transform="scale(0.015625)"/>
       <path id="DejaVuSans-65" d="M 3597 1894 
L 3597 1613 
L 953 1613 
Q 991 1019 1311 708 
Q 1631 397 2203 397 
Q 2534 397 2845 478 
Q 3156 559 3463 722 
L 3463 178 
Q 3153 47 2828 -22 
Q 2503 -91 2169 -91 
Q 1331 -91 842 396 
Q 353 884 353 1716 
Q 353 2575 817 3079 
Q 1281 3584 2069 3584 
Q 2775 3584 3186 3129 
Q 3597 2675 3597 1894 
z
M 3022 2063 
Q 3016 2534 2758 2815 
Q 2500 3097 2075 3097 
Q 1594 3097 1305 2825 
Q 1016 2553 972 2059 
L 3022 2063 
z
" transform="scale(0.015625)"/>
       <path id="DejaVuSans-6c" d="M 603 4863 
L 1178 4863 
L 1178 0 
L 603 0 
L 603 4863 
z
" transform="scale(0.015625)"/>
       <path id="DejaVuSans-5f" d="M 3263 -1063 
L 3263 -1509 
L -63 -1509 
L -63 -1063 
L 3263 -1063 
z
" transform="scale(0.015625)"/>
       <path id="DejaVuSans-73" d="M 2834 3397 
L 2834 2853 
Q 2591 2978 2328 3040 
Q 2066 3103 1784 3103 
Q 1356 3103 1142 2972 
Q 928 2841 928 2578 
Q 928 2378 1081 2264 
Q 1234 2150 1697 2047 
L 1894 2003 
Q 2506 1872 2764 1633 
Q 3022 1394 3022 966 
Q 3022 478 2636 193 
Q 2250 -91 1575 -91 
Q 1294 -91 989 -36 
Q 684 19 347 128 
L 347 722 
Q 666 556 975 473 
Q 1284 391 1588 391 
Q 1994 391 2212 530 
Q 2431 669 2431 922 
Q 2431 1156 2273 1281 
Q 2116 1406 1581 1522 
L 1381 1569 
Q 847 1681 609 1914 
Q 372 2147 372 2553 
Q 372 3047 722 3315 
Q 1072 3584 1716 3584 
Q 2034 3584 2315 3537 
Q 2597 3491 2834 3397 
z
" transform="scale(0.015625)"/>
       <path id="DejaVuSans-69" d="M 603 3500 
L 1178 3500 
L 1178 0 
L 603 0 
L 603 3500 
z
M 603 4863 
L 1178 4863 
L 1178 4134 
L 603 4134 
L 603 4863 
z
" transform="scale(0.015625)"/>
       <path id="DejaVuSans-7a" d="M 353 3500 
L 3084 3500 
L 3084 2975 
L 922 459 
L 3084 459 
L 3084 0 
L 275 0 
L 275 525 
L 2438 3041 
L 353 3041 
L 353 3500 
z
" transform="scale(0.015625)"/>
      </defs>
      <use xlink:href="#DejaVuSans-6d"/>
      <use xlink:href="#DejaVuSans-6f" x="97.412109"/>
      <use xlink:href="#DejaVuSans-64" x="158.59375"/>
      <use xlink:href="#DejaVuSans-65" x="222.070312"/>
      <use xlink:href="#DejaVuSans-6c" x="283.59375"/>
      <use xlink:href="#DejaVuSans-5f" x="311.376953"/>
      <use xlink:href="#DejaVuSans-73" x="361.376953"/>
      <use xlink:href="#DejaVuSans-69" x="413.476562"/>
      <use xlink:href="#DejaVuSans-7a" x="441.259766"/>
      <use xlink:href="#DejaVuSans-65" x="493.75"/>
     </g>
    </g>
   </g>
   <g id="matplotlib.axis_2">
    <g id="ytick_1">
     <g id="line2d_5">
      <defs>
       <path id="mb2b405bc15" d="M 0 0 
L -3.5 0 
" style="stroke: #000000; stroke-width: 0.8"/>
      </defs>
      <g>
       <use xlink:href="#mb2b405bc15" x="90" y="383.802985" style="stroke: #000000; stroke-width: 0.8"/>
      </g>
     </g>
     <g id="text_6">
      <!-- 3 -->
      <g transform="translate(76.6375 387.602204) scale(0.1 -0.1)">
       <use xlink:href="#DejaVuSans-33"/>
      </g>
     </g>
    </g>
    <g id="ytick_2">
     <g id="line2d_6">
      <g>
       <use xlink:href="#mb2b405bc15" x="90" y="327.475343" style="stroke: #000000; stroke-width: 0.8"/>
      </g>
     </g>
     <g id="text_7">
      <!-- 4 -->
      <g transform="translate(76.6375 331.274562) scale(0.1 -0.1)">
       <defs>
        <path id="DejaVuSans-34" d="M 2419 4116 
L 825 1625 
L 2419 1625 
L 2419 4116 
z
M 2253 4666 
L 3047 4666 
L 3047 1625 
L 3713 1625 
L 3713 1100 
L 3047 1100 
L 3047 0 
L 2419 0 
L 2419 1100 
L 313 1100 
L 313 1709 
L 2253 4666 
z
" transform="scale(0.015625)"/>
       </defs>
       <use xlink:href="#DejaVuSans-34"/>
      </g>
     </g>
    </g>
    <g id="ytick_3">
     <g id="line2d_7">
      <g>
       <use xlink:href="#mb2b405bc15" x="90" y="271.147701" style="stroke: #000000; stroke-width: 0.8"/>
      </g>
     </g>
     <g id="text_8">
      <!-- 5 -->
      <g transform="translate(76.6375 274.94692) scale(0.1 -0.1)">
       <defs>
        <path id="DejaVuSans-35" d="M 691 4666 
L 3169 4666 
L 3169 4134 
L 1269 4134 
L 1269 2991 
Q 1406 3038 1543 3061 
Q 1681 3084 1819 3084 
Q 2600 3084 3056 2656 
Q 3513 2228 3513 1497 
Q 3513 744 3044 326 
Q 2575 -91 1722 -91 
Q 1428 -91 1123 -41 
Q 819 9 494 109 
L 494 744 
Q 775 591 1075 516 
Q 1375 441 1709 441 
Q 2250 441 2565 725 
Q 2881 1009 2881 1497 
Q 2881 1984 2565 2268 
Q 2250 2553 1709 2553 
Q 1456 2553 1204 2497 
Q 953 2441 691 2322 
L 691 4666 
z
" transform="scale(0.015625)"/>
       </defs>
       <use xlink:href="#DejaVuSans-35"/>
      </g>
     </g>
    </g>
    <g id="ytick_4">
     <g id="line2d_8">
      <g>
       <use xlink:href="#mb2b405bc15" x="90" y="214.82006" style="stroke: #000000; stroke-width: 0.8"/>
      </g>
     </g>
     <g id="text_9">
      <!-- 6 -->
      <g transform="translate(76.6375 218.619278) scale(0.1 -0.1)">
       <defs>
        <path id="DejaVuSans-36" d="M 2113 2584 
Q 1688 2584 1439 2293 
Q 1191 2003 1191 1497 
Q 1191 994 1439 701 
Q 1688 409 2113 409 
Q 2538 409 2786 701 
Q 3034 994 3034 1497 
Q 3034 2003 2786 2293 
Q 2538 2584 2113 2584 
z
M 3366 4563 
L 3366 3988 
Q 3128 4100 2886 4159 
Q 2644 4219 2406 4219 
Q 1781 4219 1451 3797 
Q 1122 3375 1075 2522 
Q 1259 2794 1537 2939 
Q 1816 3084 2150 3084 
Q 2853 3084 3261 2657 
Q 3669 2231 3669 1497 
Q 3669 778 3244 343 
Q 2819 -91 2113 -91 
Q 1303 -91 875 529 
Q 447 1150 447 2328 
Q 447 3434 972 4092 
Q 1497 4750 2381 4750 
Q 2619 4750 2861 4703 
Q 3103 4656 3366 4563 
z
" transform="scale(0.015625)"/>
       </defs>
       <use xlink:href="#DejaVuSans-36"/>
      </g>
     </g>
    </g>
    <g id="ytick_5">
     <g id="line2d_9">
      <g>
       <use xlink:href="#mb2b405bc15" x="90" y="158.492418" style="stroke: #000000; stroke-width: 0.8"/>
      </g>
     </g>
     <g id="text_10">
      <!-- 7 -->
      <g transform="translate(76.6375 162.291637) scale(0.1 -0.1)">
       <use xlink:href="#DejaVuSans-37"/>
      </g>
     </g>
    </g>
    <g id="ytick_6">
     <g id="line2d_10">
      <g>
       <use xlink:href="#mb2b405bc15" x="90" y="102.164776" style="stroke: #000000; stroke-width: 0.8"/>
      </g>
     </g>
     <g id="text_11">
      <!-- 8 -->
      <g transform="translate(76.6375 105.963995) scale(0.1 -0.1)">
       <defs>
        <path id="DejaVuSans-38" d="M 2034 2216 
Q 1584 2216 1326 1975 
Q 1069 1734 1069 1313 
Q 1069 891 1326 650 
Q 1584 409 2034 409 
Q 2484 409 2743 651 
Q 3003 894 3003 1313 
Q 3003 1734 2745 1975 
Q 2488 2216 2034 2216 
z
M 1403 2484 
Q 997 2584 770 2862 
Q 544 3141 544 3541 
Q 544 4100 942 4425 
Q 1341 4750 2034 4750 
Q 2731 4750 3128 4425 
Q 3525 4100 3525 3541 
Q 3525 3141 3298 2862 
Q 3072 2584 2669 2484 
Q 3125 2378 3379 2068 
Q 3634 1759 3634 1313 
Q 3634 634 3220 271 
Q 2806 -91 2034 -91 
Q 1263 -91 848 271 
Q 434 634 434 1313 
Q 434 1759 690 2068 
Q 947 2378 1403 2484 
z
M 1172 3481 
Q 1172 3119 1398 2916 
Q 1625 2713 2034 2713 
Q 2441 2713 2670 2916 
Q 2900 3119 2900 3481 
Q 2900 3844 2670 4047 
Q 2441 4250 2034 4250 
Q 1625 4250 1398 4047 
Q 1172 3844 1172 3481 
z
" transform="scale(0.015625)"/>
       </defs>
       <use xlink:href="#DejaVuSans-38"/>
      </g>
     </g>
    </g>
    <g id="text_12">
     <!-- MT-Bench -->
     <g transform="translate(70.557812 242.288125) rotate(-90) scale(0.1 -0.1)">
      <defs>
       <path id="DejaVuSans-4d" d="M 628 4666 
L 1569 4666 
L 2759 1491 
L 3956 4666 
L 4897 4666 
L 4897 0 
L 4281 0 
L 4281 4097 
L 3078 897 
L 2444 897 
L 1241 4097 
L 1241 0 
L 628 0 
L 628 4666 
z
" transform="scale(0.015625)"/>
       <path id="DejaVuSans-54" d="M -19 4666 
L 3928 4666 
L 3928 4134 
L 2272 4134 
L 2272 0 
L 1638 0 
L 1638 4134 
L -19 4134 
L -19 4666 
z
" transform="scale(0.015625)"/>
       <path id="DejaVuSans-2d" d="M 313 2009 
L 1997 2009 
L 1997 1497 
L 313 1497 
L 313 2009 
z
" transform="scale(0.015625)"/>
       <path id="DejaVuSans-6e" d="M 3513 2113 
L 3513 0 
L 2938 0 
L 2938 2094 
Q 2938 2591 2744 2837 
Q 2550 3084 2163 3084 
Q 1697 3084 1428 2787 
Q 1159 2491 1159 1978 
L 1159 0 
L 581 0 
L 581 3500 
L 1159 3500 
L 1159 2956 
Q 1366 3272 1645 3428 
Q 1925 3584 2291 3584 
Q 2894 3584 3203 3211 
Q 3513 2838 3513 2113 
z
" transform="scale(0.015625)"/>
       <path id="DejaVuSans-63" d="M 3122 3366 
L 3122 2828 
Q 2878 2963 2633 3030 
Q 2388 3097 2138 3097 
Q 1578 3097 1268 2742 
Q 959 2388 959 1747 
Q 959 1106 1268 751 
Q 1578 397 2138 397 
Q 2388 397 2633 464 
Q 2878 531 3122 666 
L 3122 134 
Q 2881 22 2623 -34 
Q 2366 -91 2075 -91 
Q 1284 -91 818 406 
Q 353 903 353 1747 
Q 353 2603 823 3093 
Q 1294 3584 2113 3584 
Q 2378 3584 2631 3529 
Q 2884 3475 3122 3366 
z
" transform="scale(0.015625)"/>
       <path id="DejaVuSans-68" d="M 3513 2113 
L 3513 0 
L 2938 0 
L 2938 2094 
Q 2938 2591 2744 2837 
Q 2550 3084 2163 3084 
Q 1697 3084 1428 2787 
Q 1159 2491 1159 1978 
L 1159 0 
L 581 0 
L 581 4863 
L 1159 4863 
L 1159 2956 
Q 1366 3272 1645 3428 
Q 1925 3584 2291 3584 
Q 2894 3584 3203 3211 
Q 3513 2838 3513 2113 
z
" transform="scale(0.015625)"/>
      </defs>
      <use xlink:href="#DejaVuSans-4d"/>
      <use xlink:href="#DejaVuSans-54" x="86.279297"/>
      <use xlink:href="#DejaVuSans-2d" x="138.238281"/>
      <use xlink:href="#DejaVuSans-42" x="170.697266"/>
      <use xlink:href="#DejaVuSans-65" x="239.300781"/>
      <use xlink:href="#DejaVuSans-6e" x="300.824219"/>
      <use xlink:href="#DejaVuSans-63" x="364.203125"/>
      <use xlink:href="#DejaVuSans-68" x="419.183594"/>
     </g>
    </g>
   </g>
   <g id="line2d_11">
    <path d="M 115.363636 223.256656 
L 120.487603 222.547776 
L 125.61157 221.838896 
L 130.735537 221.130017 
L 135.859504 220.421137 
L 140.983471 219.712257 
L 146.107438 219.003377 
L 151.231405 218.294498 
L 156.355372 217.585618 
L 161.479339 216.876738 
L 166.603306 216.167859 
L 171.727273 215.458979 
L 176.85124 214.750099 
L 181.975207 214.041219 
L 187.099174 213.33234 
L 192.22314 212.62346 
L 197.347107 211.91458 
L 202.471074 211.205701 
L 207.595041 210.496821 
L 212.719008 209.787941 
L 217.842975 209.079061 
L 222.966942 208.370182 
L 228.090909 207.661302 
L 233.214876 206.952422 
L 238.338843 206.243543 
L 243.46281 205.534663 
L 248.586777 204.825783 
L 253.710744 204.116903 
L 258.834711 203.408024 
L 263.958678 202.699144 
L 269.082645 201.990264 
L 274.206612 201.281385 
L 279.330579 200.572505 
L 284.454545 199.863625 
L 289.578512 199.154745 
L 294.702479 198.445866 
L 299.826446 197.736986 
L 304.950413 197.028106 
L 310.07438 196.319226 
L 315.198347 195.610347 
L 320.322314 194.901467 
L 325.446281 194.192587 
L 330.570248 193.483708 
L 335.694215 192.774828 
L 340.818182 192.065948 
L 345.942149 191.357068 
L 351.066116 190.648189 
L 356.190083 189.939309 
L 361.31405 189.230429 
L 366.438017 188.52155 
L 371.561983 187.81267 
L 376.68595 187.10379 
L 381.809917 186.39491 
L 386.933884 185.686031 
L 392.057851 184.977151 
L 397.181818 184.268271 
L 402.305785 183.559392 
L 407.429752 182.850512 
L 412.553719 182.141632 
L 417.677686 181.432752 
L 422.801653 180.723873 
L 427.92562 180.014993 
L 433.049587 179.306113 
L 438.173554 178.597234 
L 443.297521 177.888354 
L 448.421488 177.179474 
L 453.545455 176.470594 
L 458.669421 175.761715 
L 463.793388 175.052835 
L 468.917355 174.343955 
L 474.041322 173.635076 
L 479.165289 172.926196 
L 484.289256 172.217316 
L 489.413223 171.508436 
L 494.53719 170.799557 
L 499.661157 170.090677 
L 504.785124 169.381797 
L 509.909091 168.672918 
L 515.033058 167.964038 
L 520.157025 167.255158 
L 525.280992 166.546278 
L 530.404959 165.837399 
L 535.528926 165.128519 
L 540.652893 164.419639 
L 545.77686 163.710759 
L 550.900826 163.00188 
L 556.024793 162.293 
L 561.14876 161.58412 
L 566.272727 160.875241 
L 571.396694 160.166361 
L 576.520661 159.457481 
L 581.644628 158.748601 
L 586.768595 158.039722 
L 591.892562 157.330842 
L 597.016529 156.621962 
L 602.140496 155.913083 
L 607.264463 155.204203 
L 612.38843 154.495323 
L 617.512397 153.786443 
L 622.636364 153.077564 
" clip-path="url(#p9cae2bfbe6)" style="fill: none; stroke: #1f77b4; stroke-width: 2.25; stroke-linecap: square"/>
   </g>
   <g id="line2d_12">
    <path d="M 115.363636 274.937269 
L 120.487603 273.250545 
L 125.61157 271.563822 
L 130.735537 269.877098 
L 135.859504 268.190374 
L 140.983471 266.503651 
L 146.107438 264.816927 
L 151.231405 263.130203 
L 156.355372 261.44348 
L 161.479339 259.756756 
L 166.603306 258.070032 
L 171.727273 256.383309 
L 176.85124 254.696585 
L 181.975207 253.009861 
L 187.099174 251.323138 
L 192.22314 249.636414 
L 197.347107 247.94969 
L 202.471074 246.262967 
L 207.595041 244.576243 
L 212.719008 242.889519 
L 217.842975 241.202796 
L 222.966942 239.516072 
L 228.090909 237.829348 
L 233.214876 236.142625 
L 238.338843 234.455901 
L 243.46281 232.769178 
L 248.586777 231.082454 
L 253.710744 229.39573 
L 258.834711 227.709007 
L 263.958678 226.022283 
L 269.082645 224.335559 
L 274.206612 222.648836 
L 279.330579 220.962112 
L 284.454545 219.275388 
L 289.578512 217.588665 
L 294.702479 215.901941 
L 299.826446 214.215217 
L 304.950413 212.528494 
L 310.07438 210.84177 
L 315.198347 209.155046 
L 320.322314 207.468323 
L 325.446281 205.781599 
L 330.570248 204.094875 
L 335.694215 202.408152 
L 340.818182 200.721428 
L 345.942149 199.034704 
L 351.066116 197.347981 
L 356.190083 195.661257 
L 361.31405 193.974533 
L 366.438017 192.28781 
L 371.561983 190.601086 
L 376.68595 188.914363 
L 381.809917 187.227639 
L 386.933884 185.540915 
L 392.057851 183.854192 
L 397.181818 182.167468 
L 402.305785 180.480744 
L 407.429752 178.794021 
L 412.553719 177.107297 
L 417.677686 175.420573 
L 422.801653 173.73385 
L 427.92562 172.047126 
L 433.049587 170.360402 
L 438.173554 168.673679 
L 443.297521 166.986955 
L 448.421488 165.300231 
L 453.545455 163.613508 
L 458.669421 161.926784 
L 463.793388 160.24006 
L 468.917355 158.553337 
L 474.041322 156.866613 
L 479.165289 155.179889 
L 484.289256 153.493166 
L 489.413223 151.806442 
L 494.53719 150.119718 
L 499.661157 148.432995 
L 504.785124 146.746271 
L 509.909091 145.059547 
L 515.033058 143.372824 
L 520.157025 141.6861 
L 525.280992 139.999377 
L 530.404959 138.312653 
L 535.528926 136.625929 
L 540.652893 134.939206 
L 545.77686 133.252482 
L 550.900826 131.565758 
L 556.024793 129.879035 
L 561.14876 128.192311 
L 566.272727 126.505587 
L 571.396694 124.818864 
L 576.520661 123.13214 
L 581.644628 121.445416 
L 586.768595 119.758693 
L 591.892562 118.071969 
L 597.016529 116.385245 
L 602.140496 114.698522 
L 607.264463 113.011798 
L 612.38843 111.325074 
L 617.512397 109.638351 
L 622.636364 107.951627 
" clip-path="url(#p9cae2bfbe6)" style="fill: none; stroke: #ff7f0e; stroke-width: 2.25; stroke-linecap: square"/>
   </g>
   <g id="line2d_13">
    <path d="M 115.363636 265.241365 
L 120.487603 264.574572 
L 125.61157 263.907779 
L 130.735537 263.240986 
L 135.859504 262.574192 
L 140.983471 261.907399 
L 146.107438 261.240606 
L 151.231405 260.573813 
L 156.355372 259.907019 
L 161.479339 259.240226 
L 166.603306 258.573433 
L 171.727273 257.90664 
L 176.85124 257.239846 
L 181.975207 256.573053 
L 187.099174 255.90626 
L 192.22314 255.239467 
L 197.347107 254.572673 
L 202.471074 253.90588 
L 207.595041 253.239087 
L 212.719008 252.572294 
L 217.842975 251.9055 
L 222.966942 251.238707 
L 228.090909 250.571914 
L 233.214876 249.905121 
L 238.338843 249.238328 
L 243.46281 248.571534 
L 248.586777 247.904741 
L 253.710744 247.237948 
L 258.834711 246.571155 
L 263.958678 245.904361 
L 269.082645 245.237568 
L 274.206612 244.570775 
L 279.330579 243.903982 
L 284.454545 243.237188 
L 289.578512 242.570395 
L 294.702479 241.903602 
L 299.826446 241.236809 
L 304.950413 240.570015 
L 310.07438 239.903222 
L 315.198347 239.236429 
L 320.322314 238.569636 
L 325.446281 237.902842 
L 330.570248 237.236049 
L 335.694215 236.569256 
L 340.818182 235.902463 
L 345.942149 235.235669 
L 351.066116 234.568876 
L 356.190083 233.902083 
L 361.31405 233.23529 
L 366.438017 232.568496 
L 371.561983 231.901703 
L 376.68595 231.23491 
L 381.809917 230.568117 
L 386.933884 229.901323 
L 392.057851 229.23453 
L 397.181818 228.567737 
L 402.305785 227.900944 
L 407.429752 227.23415 
L 412.553719 226.567357 
L 417.677686 225.900564 
L 422.801653 225.233771 
L 427.92562 224.566978 
L 433.049587 223.900184 
L 438.173554 223.233391 
L 443.297521 222.566598 
L 448.421488 221.899805 
L 453.545455 221.233011 
L 458.669421 220.566218 
L 463.793388 219.899425 
L 468.917355 219.232632 
L 474.041322 218.565838 
L 479.165289 217.899045 
L 484.289256 217.232252 
L 489.413223 216.565459 
L 494.53719 215.898665 
L 499.661157 215.231872 
L 504.785124 214.565079 
L 509.909091 213.898286 
L 515.033058 213.231492 
L 520.157025 212.564699 
L 525.280992 211.897906 
L 530.404959 211.231113 
L 535.528926 210.564319 
L 540.652893 209.897526 
L 545.77686 209.230733 
L 550.900826 208.56394 
L 556.024793 207.897146 
L 561.14876 207.230353 
L 566.272727 206.56356 
L 571.396694 205.896767 
L 576.520661 205.229973 
L 581.644628 204.56318 
L 586.768595 203.896387 
L 591.892562 203.229594 
L 597.016529 202.5628 
L 602.140496 201.896007 
L 607.264463 201.229214 
L 612.38843 200.562421 
L 617.512397 199.895627 
L 622.636364 199.228834 
" clip-path="url(#p9cae2bfbe6)" style="fill: none; stroke: #2ca02c; stroke-width: 2.25; stroke-linecap: square"/>
   </g>
   <g id="line2d_14">
    <path d="M 115.363636 263.853144 
L 120.487603 262.757177 
L 125.61157 261.661211 
L 130.735537 260.565244 
L 135.859504 259.469277 
L 140.983471 258.37331 
L 146.107438 257.277344 
L 151.231405 256.181377 
L 156.355372 255.08541 
L 161.479339 253.989444 
L 166.603306 252.893477 
L 171.727273 251.79751 
L 176.85124 250.701543 
L 181.975207 249.605577 
L 187.099174 248.50961 
L 192.22314 247.413643 
L 197.347107 246.317676 
L 202.471074 245.22171 
L 207.595041 244.125743 
L 212.719008 243.029776 
L 217.842975 241.933809 
L 222.966942 240.837843 
L 228.090909 239.741876 
L 233.214876 238.645909 
L 238.338843 237.549943 
L 243.46281 236.453976 
L 248.586777 235.358009 
L 253.710744 234.262042 
L 258.834711 233.166076 
L 263.958678 232.070109 
L 269.082645 230.974142 
L 274.206612 229.878175 
L 279.330579 228.782209 
L 284.454545 227.686242 
L 289.578512 226.590275 
L 294.702479 225.494308 
L 299.826446 224.398342 
L 304.950413 223.302375 
L 310.07438 222.206408 
L 315.198347 221.110442 
L 320.322314 220.014475 
L 325.446281 218.918508 
L 330.570248 217.822541 
L 335.694215 216.726575 
L 340.818182 215.630608 
L 345.942149 214.534641 
L 351.066116 213.438674 
L 356.190083 212.342708 
L 361.31405 211.246741 
L 366.438017 210.150774 
L 371.561983 209.054808 
L 376.68595 207.958841 
L 381.809917 206.862874 
L 386.933884 205.766907 
L 392.057851 204.670941 
L 397.181818 203.574974 
L 402.305785 202.479007 
L 407.429752 201.38304 
L 412.553719 200.287074 
L 417.677686 199.191107 
L 422.801653 198.09514 
L 427.92562 196.999173 
L 433.049587 195.903207 
L 438.173554 194.80724 
L 443.297521 193.711273 
L 448.421488 192.615307 
L 453.545455 191.51934 
L 458.669421 190.423373 
L 463.793388 189.327406 
L 468.917355 188.23144 
L 474.041322 187.135473 
L 479.165289 186.039506 
L 484.289256 184.943539 
L 489.413223 183.847573 
L 494.53719 182.751606 
L 499.661157 181.655639 
L 504.785124 180.559672 
L 509.909091 179.463706 
L 515.033058 178.367739 
L 520.157025 177.271772 
L 525.280992 176.175806 
L 530.404959 175.079839 
L 535.528926 173.983872 
L 540.652893 172.887905 
L 545.77686 171.791939 
L 550.900826 170.695972 
L 556.024793 169.600005 
L 561.14876 168.504038 
L 566.272727 167.408072 
L 571.396694 166.312105 
L 576.520661 165.216138 
L 581.644628 164.120172 
L 586.768595 163.024205 
L 591.892562 161.928238 
L 597.016529 160.832271 
L 602.140496 159.736305 
L 607.264463 158.640338 
L 612.38843 157.544371 
L 617.512397 156.448404 
L 622.636364 155.352438 
" clip-path="url(#p9cae2bfbe6)" style="fill: none; stroke: #d62728; stroke-width: 2.25; stroke-linecap: square"/>
   </g>
   <g id="patch_3">
    <path d="M 90 384.48 
L 90 51.84 
" style="fill: none; stroke: #000000; stroke-width: 0.8; stroke-linejoin: miter; stroke-linecap: square"/>
   </g>
   <g id="patch_4">
    <path d="M 648 384.48 
L 648 51.84 
" style="fill: none; stroke: #000000; stroke-width: 0.8; stroke-linejoin: miter; stroke-linecap: square"/>
   </g>
   <g id="patch_5">
    <path d="M 90 384.48 
L 648 384.48 
" style="fill: none; stroke: #000000; stroke-width: 0.8; stroke-linejoin: miter; stroke-linecap: square"/>
   </g>
   <g id="patch_6">
    <path d="M 90 51.84 
L 648 51.84 
" style="fill: none; stroke: #000000; stroke-width: 0.8; stroke-linejoin: miter; stroke-linecap: square"/>
   </g>
   <g id="text_13">
    <!-- Model Size vs Scores with Regression Lines -->
    <g transform="translate(239.446875 45.84) scale(0.12 -0.12)">
     <defs>
      <path id="DejaVuSans-20" transform="scale(0.015625)"/>
      <path id="DejaVuSans-53" d="M 3425 4513 
L 3425 3897 
Q 3066 4069 2747 4153 
Q 2428 4238 2131 4238 
Q 1616 4238 1336 4038 
Q 1056 3838 1056 3469 
Q 1056 3159 1242 3001 
Q 1428 2844 1947 2747 
L 2328 2669 
Q 3034 2534 3370 2195 
Q 3706 1856 3706 1288 
Q 3706 609 3251 259 
Q 2797 -91 1919 -91 
Q 1588 -91 1214 -16 
Q 841 59 441 206 
L 441 856 
Q 825 641 1194 531 
Q 1563 422 1919 422 
Q 2459 422 2753 634 
Q 3047 847 3047 1241 
Q 3047 1584 2836 1778 
Q 2625 1972 2144 2069 
L 1759 2144 
Q 1053 2284 737 2584 
Q 422 2884 422 3419 
Q 422 4038 858 4394 
Q 1294 4750 2059 4750 
Q 2388 4750 2728 4690 
Q 3069 4631 3425 4513 
z
" transform="scale(0.015625)"/>
      <path id="DejaVuSans-76" d="M 191 3500 
L 800 3500 
L 1894 563 
L 2988 3500 
L 3597 3500 
L 2284 0 
L 1503 0 
L 191 3500 
z
" transform="scale(0.015625)"/>
      <path id="DejaVuSans-72" d="M 2631 2963 
Q 2534 3019 2420 3045 
Q 2306 3072 2169 3072 
Q 1681 3072 1420 2755 
Q 1159 2438 1159 1844 
L 1159 0 
L 581 0 
L 581 3500 
L 1159 3500 
L 1159 2956 
Q 1341 3275 1631 3429 
Q 1922 3584 2338 3584 
Q 2397 3584 2469 3576 
Q 2541 3569 2628 3553 
L 2631 2963 
z
" transform="scale(0.015625)"/>
      <path id="DejaVuSans-77" d="M 269 3500 
L 844 3500 
L 1563 769 
L 2278 3500 
L 2956 3500 
L 3675 769 
L 4391 3500 
L 4966 3500 
L 4050 0 
L 3372 0 
L 2619 2869 
L 1863 0 
L 1184 0 
L 269 3500 
z
" transform="scale(0.015625)"/>
      <path id="DejaVuSans-74" d="M 1172 4494 
L 1172 3500 
L 2356 3500 
L 2356 3053 
L 1172 3053 
L 1172 1153 
Q 1172 725 1289 603 
Q 1406 481 1766 481 
L 2356 481 
L 2356 0 
L 1766 0 
Q 1100 0 847 248 
Q 594 497 594 1153 
L 594 3053 
L 172 3053 
L 172 3500 
L 594 3500 
L 594 4494 
L 1172 4494 
z
" transform="scale(0.015625)"/>
      <path id="DejaVuSans-52" d="M 2841 2188 
Q 3044 2119 3236 1894 
Q 3428 1669 3622 1275 
L 4263 0 
L 3584 0 
L 2988 1197 
Q 2756 1666 2539 1819 
Q 2322 1972 1947 1972 
L 1259 1972 
L 1259 0 
L 628 0 
L 628 4666 
L 2053 4666 
Q 2853 4666 3247 4331 
Q 3641 3997 3641 3322 
Q 3641 2881 3436 2590 
Q 3231 2300 2841 2188 
z
M 1259 4147 
L 1259 2491 
L 2053 2491 
Q 2509 2491 2742 2702 
Q 2975 2913 2975 3322 
Q 2975 3731 2742 3939 
Q 2509 4147 2053 4147 
L 1259 4147 
z
" transform="scale(0.015625)"/>
      <path id="DejaVuSans-67" d="M 2906 1791 
Q 2906 2416 2648 2759 
Q 2391 3103 1925 3103 
Q 1463 3103 1205 2759 
Q 947 2416 947 1791 
Q 947 1169 1205 825 
Q 1463 481 1925 481 
Q 2391 481 2648 825 
Q 2906 1169 2906 1791 
z
M 3481 434 
Q 3481 -459 3084 -895 
Q 2688 -1331 1869 -1331 
Q 1566 -1331 1297 -1286 
Q 1028 -1241 775 -1147 
L 775 -588 
Q 1028 -725 1275 -790 
Q 1522 -856 1778 -856 
Q 2344 -856 2625 -561 
Q 2906 -266 2906 331 
L 2906 616 
Q 2728 306 2450 153 
Q 2172 0 1784 0 
Q 1141 0 747 490 
Q 353 981 353 1791 
Q 353 2603 747 3093 
Q 1141 3584 1784 3584 
Q 2172 3584 2450 3431 
Q 2728 3278 2906 2969 
L 2906 3500 
L 3481 3500 
L 3481 434 
z
" transform="scale(0.015625)"/>
      <path id="DejaVuSans-4c" d="M 628 4666 
L 1259 4666 
L 1259 531 
L 3531 531 
L 3531 0 
L 628 0 
L 628 4666 
z
" transform="scale(0.015625)"/>
     </defs>
     <use xlink:href="#DejaVuSans-4d"/>
     <use xlink:href="#DejaVuSans-6f" x="86.279297"/>
     <use xlink:href="#DejaVuSans-64" x="147.460938"/>
     <use xlink:href="#DejaVuSans-65" x="210.9375"/>
     <use xlink:href="#DejaVuSans-6c" x="272.460938"/>
     <use xlink:href="#DejaVuSans-20" x="300.244141"/>
     <use xlink:href="#DejaVuSans-53" x="332.03125"/>
     <use xlink:href="#DejaVuSans-69" x="395.507812"/>
     <use xlink:href="#DejaVuSans-7a" x="423.291016"/>
     <use xlink:href="#DejaVuSans-65" x="475.78125"/>
     <use xlink:href="#DejaVuSans-20" x="537.304688"/>
     <use xlink:href="#DejaVuSans-76" x="569.091797"/>
     <use xlink:href="#DejaVuSans-73" x="628.271484"/>
     <use xlink:href="#DejaVuSans-20" x="680.371094"/>
     <use xlink:href="#DejaVuSans-53" x="712.158203"/>
     <use xlink:href="#DejaVuSans-63" x="775.634766"/>
     <use xlink:href="#DejaVuSans-6f" x="830.615234"/>
     <use xlink:href="#DejaVuSans-72" x="891.796875"/>
     <use xlink:href="#DejaVuSans-65" x="930.660156"/>
     <use xlink:href="#DejaVuSans-73" x="992.183594"/>
     <use xlink:href="#DejaVuSans-20" x="1044.283203"/>
     <use xlink:href="#DejaVuSans-77" x="1076.070312"/>
     <use xlink:href="#DejaVuSans-69" x="1157.857422"/>
     <use xlink:href="#DejaVuSans-74" x="1185.640625"/>
     <use xlink:href="#DejaVuSans-68" x="1224.849609"/>
     <use xlink:href="#DejaVuSans-20" x="1288.228516"/>
     <use xlink:href="#DejaVuSans-52" x="1320.015625"/>
     <use xlink:href="#DejaVuSans-65" x="1384.998047"/>
     <use xlink:href="#DejaVuSans-67" x="1446.521484"/>
     <use xlink:href="#DejaVuSans-72" x="1509.998047"/>
     <use xlink:href="#DejaVuSans-65" x="1548.861328"/>
     <use xlink:href="#DejaVuSans-73" x="1610.384766"/>
     <use xlink:href="#DejaVuSans-73" x="1662.484375"/>
     <use xlink:href="#DejaVuSans-69" x="1714.583984"/>
     <use xlink:href="#DejaVuSans-6f" x="1742.367188"/>
     <use xlink:href="#DejaVuSans-6e" x="1803.548828"/>
     <use xlink:href="#DejaVuSans-20" x="1866.927734"/>
     <use xlink:href="#DejaVuSans-4c" x="1898.714844"/>
     <use xlink:href="#DejaVuSans-69" x="1954.427734"/>
     <use xlink:href="#DejaVuSans-6e" x="1982.210938"/>
     <use xlink:href="#DejaVuSans-65" x="2045.589844"/>
     <use xlink:href="#DejaVuSans-73" x="2107.113281"/>
    </g>
   </g>
   <g id="legend_1">
    <g id="patch_7">
     <path d="M 97 118.5525 
L 211.7 118.5525 
Q 213.7 118.5525 213.7 116.5525 
L 213.7 58.84 
Q 213.7 56.84 211.7 56.84 
L 97 56.84 
Q 95 56.84 95 58.84 
L 95 116.5525 
Q 95 118.5525 97 118.5525 
z
" style="fill: #ffffff; opacity: 0.8; stroke: #cccccc; stroke-linejoin: miter"/>
    </g>
    <g id="PathCollection_5">
     <g>
      <use xlink:href="#mc97ce0390f" x="109" y="65.813438" style="fill: #1f77b4; fill-opacity: 0.8; stroke: #1f77b4; stroke-opacity: 0.8"/>
     </g>
    </g>
    <g id="text_14">
     <!-- ELYZA-tasks-100 -->
     <g transform="translate(127 68.438438) scale(0.1 -0.1)">
      <defs>
       <path id="DejaVuSans-45" d="M 628 4666 
L 3578 4666 
L 3578 4134 
L 1259 4134 
L 1259 2753 
L 3481 2753 
L 3481 2222 
L 1259 2222 
L 1259 531 
L 3634 531 
L 3634 0 
L 628 0 
L 628 4666 
z
" transform="scale(0.015625)"/>
       <path id="DejaVuSans-59" d="M -13 4666 
L 666 4666 
L 1959 2747 
L 3244 4666 
L 3922 4666 
L 2272 2222 
L 2272 0 
L 1638 0 
L 1638 2222 
L -13 4666 
z
" transform="scale(0.015625)"/>
       <path id="DejaVuSans-5a" d="M 359 4666 
L 4025 4666 
L 4025 4184 
L 1075 531 
L 4097 531 
L 4097 0 
L 288 0 
L 288 481 
L 3238 4134 
L 359 4134 
L 359 4666 
z
" transform="scale(0.015625)"/>
       <path id="DejaVuSans-41" d="M 2188 4044 
L 1331 1722 
L 3047 1722 
L 2188 4044 
z
M 1831 4666 
L 2547 4666 
L 4325 0 
L 3669 0 
L 3244 1197 
L 1141 1197 
L 716 0 
L 50 0 
L 1831 4666 
z
" transform="scale(0.015625)"/>
       <path id="DejaVuSans-61" d="M 2194 1759 
Q 1497 1759 1228 1600 
Q 959 1441 959 1056 
Q 959 750 1161 570 
Q 1363 391 1709 391 
Q 2188 391 2477 730 
Q 2766 1069 2766 1631 
L 2766 1759 
L 2194 1759 
z
M 3341 1997 
L 3341 0 
L 2766 0 
L 2766 531 
Q 2569 213 2275 61 
Q 1981 -91 1556 -91 
Q 1019 -91 701 211 
Q 384 513 384 1019 
Q 384 1609 779 1909 
Q 1175 2209 1959 2209 
L 2766 2209 
L 2766 2266 
Q 2766 2663 2505 2880 
Q 2244 3097 1772 3097 
Q 1472 3097 1187 3025 
Q 903 2953 641 2809 
L 641 3341 
Q 956 3463 1253 3523 
Q 1550 3584 1831 3584 
Q 2591 3584 2966 3190 
Q 3341 2797 3341 1997 
z
" transform="scale(0.015625)"/>
       <path id="DejaVuSans-6b" d="M 581 4863 
L 1159 4863 
L 1159 1991 
L 2875 3500 
L 3609 3500 
L 1753 1863 
L 3688 0 
L 2938 0 
L 1159 1709 
L 1159 0 
L 581 0 
L 581 4863 
z
" transform="scale(0.015625)"/>
      </defs>
      <use xlink:href="#DejaVuSans-45"/>
      <use xlink:href="#DejaVuSans-4c" x="63.183594"/>
      <use xlink:href="#DejaVuSans-59" x="105.646484"/>
      <use xlink:href="#DejaVuSans-5a" x="166.730469"/>
      <use xlink:href="#DejaVuSans-41" x="235.236328"/>
      <use xlink:href="#DejaVuSans-2d" x="301.394531"/>
      <use xlink:href="#DejaVuSans-74" x="337.478516"/>
      <use xlink:href="#DejaVuSans-61" x="376.6875"/>
      <use xlink:href="#DejaVuSans-73" x="437.966797"/>
      <use xlink:href="#DejaVuSans-6b" x="490.066406"/>
      <use xlink:href="#DejaVuSans-73" x="547.976562"/>
      <use xlink:href="#DejaVuSans-2d" x="600.076172"/>
      <use xlink:href="#DejaVuSans-31" x="636.160156"/>
      <use xlink:href="#DejaVuSans-30" x="699.783203"/>
      <use xlink:href="#DejaVuSans-30" x="763.40625"/>
     </g>
    </g>
    <g id="PathCollection_6">
     <g>
      <use xlink:href="#m60c4bd3ee7" x="109" y="80.491563" style="fill: #ff7f0e; fill-opacity: 0.8; stroke: #ff7f0e; stroke-opacity: 0.8"/>
     </g>
    </g>
    <g id="text_15">
     <!-- Rakuda -->
     <g transform="translate(127 83.116563) scale(0.1 -0.1)">
      <defs>
       <path id="DejaVuSans-75" d="M 544 1381 
L 544 3500 
L 1119 3500 
L 1119 1403 
Q 1119 906 1312 657 
Q 1506 409 1894 409 
Q 2359 409 2629 706 
Q 2900 1003 2900 1516 
L 2900 3500 
L 3475 3500 
L 3475 0 
L 2900 0 
L 2900 538 
Q 2691 219 2414 64 
Q 2138 -91 1772 -91 
Q 1169 -91 856 284 
Q 544 659 544 1381 
z
M 1991 3584 
L 1991 3584 
z
" transform="scale(0.015625)"/>
      </defs>
      <use xlink:href="#DejaVuSans-52"/>
      <use xlink:href="#DejaVuSans-61" x="67.232422"/>
      <use xlink:href="#DejaVuSans-6b" x="128.511719"/>
      <use xlink:href="#DejaVuSans-75" x="183.296875"/>
      <use xlink:href="#DejaVuSans-64" x="246.675781"/>
      <use xlink:href="#DejaVuSans-61" x="310.152344"/>
     </g>
    </g>
    <g id="PathCollection_7">
     <g>
      <use xlink:href="#m0815d12b5a" x="109" y="95.169688" style="fill: #2ca02c; fill-opacity: 0.8; stroke: #2ca02c; stroke-opacity: 0.8"/>
     </g>
    </g>
    <g id="text_16">
     <!-- Tengu-Bench -->
     <g transform="translate(127 97.794688) scale(0.1 -0.1)">
      <use xlink:href="#DejaVuSans-54"/>
      <use xlink:href="#DejaVuSans-65" x="44.083984"/>
      <use xlink:href="#DejaVuSans-6e" x="105.607422"/>
      <use xlink:href="#DejaVuSans-67" x="168.986328"/>
      <use xlink:href="#DejaVuSans-75" x="232.462891"/>
      <use xlink:href="#DejaVuSans-2d" x="295.841797"/>
      <use xlink:href="#DejaVuSans-42" x="328.300781"/>
      <use xlink:href="#DejaVuSans-65" x="396.904297"/>
      <use xlink:href="#DejaVuSans-6e" x="458.427734"/>
      <use xlink:href="#DejaVuSans-63" x="521.806641"/>
      <use xlink:href="#DejaVuSans-68" x="576.787109"/>
     </g>
    </g>
    <g id="PathCollection_8">
     <g>
      <use xlink:href="#m30eb0501de" x="109" y="109.847813" style="fill: #d62728; fill-opacity: 0.8; stroke: #d62728; stroke-opacity: 0.8"/>
     </g>
    </g>
    <g id="text_17">
     <!-- MT-Bench -->
     <g transform="translate(127 112.472813) scale(0.1 -0.1)">
      <use xlink:href="#DejaVuSans-4d"/>
      <use xlink:href="#DejaVuSans-54" x="86.279297"/>
      <use xlink:href="#DejaVuSans-2d" x="138.238281"/>
      <use xlink:href="#DejaVuSans-42" x="170.697266"/>
      <use xlink:href="#DejaVuSans-65" x="239.300781"/>
      <use xlink:href="#DejaVuSans-6e" x="300.824219"/>
      <use xlink:href="#DejaVuSans-63" x="364.203125"/>
      <use xlink:href="#DejaVuSans-68" x="419.183594"/>
     </g>
    </g>
   </g>
  </g>
 </g>
 <defs>
  <clipPath id="p9cae2bfbe6">
   <rect x="90" y="51.84" width="558" height="332.64"/>
  </clipPath>
 </defs>
</svg>
